<?xml version="1.0" standalone="no"?>
<!DOCTYPE svg PUBLIC "-//W3C//DTD SVG 1.1//EN" "http://www.w3.org/Graphics/SVG/1.1/DTD/svg11.dtd" >
<svg>
<metadata>
Created by FontForge 20090914 at Thu Feb 26 05:50:26 2015
 By www-data
Copyright 1990-1993 Bitstream Inc.  All rights reserved.
</metadata>
<defs>
<font id="Swiss721BT-BlackExtended" horiz-adv-x="1706" >
  <font-face 
    font-family="Swis721 BlkEx BT"
    font-weight="400"
    font-stretch="expanded"
    units-per-em="2048"
    panose-1="2 11 9 7 4 5 2 3 2 4"
    ascent="1638"
    descent="-410"
    x-height="1147"
    cap-height="1479"
    bbox="-485 -483.001 3346 1972"
    underline-thickness="332"
    underline-position="-98"
    unicode-range="U+0020-U+F002"
  />
<missing-glyph horiz-adv-x="1229" 
d="M102 -362v1806h1024v-1806h-1024zM217 -248h795v1577h-795v-1577z" />
    <glyph glyph-name=".notdef" horiz-adv-x="1229" 
d="M102 -362v1806h1024v-1806h-1024zM217 -248h795v1577h-795v-1577z" />
    <glyph glyph-name="space" unicode=" " horiz-adv-x="979" 
 />
    <glyph glyph-name="exclam" unicode="!" horiz-adv-x="901" 
d="M217 575l-53 904h571l-51 -904h-467zM182 0v473h537v-473h-537z" />
    <glyph glyph-name="quotedbl" unicode="&#x22;" horiz-adv-x="758" 
d="M690 1440v-563h-260v563h260zM326 1440v-563h-258v563h258z" />
    <glyph glyph-name="numbersign" unicode="#" horiz-adv-x="1575" 
d="M946 834h-239l-78 -213h239zM938 1470l-129 -366h227l129 366h289l-129 -366h256l-100 -270h-252l-76 -213h258l-100 -271h-254l-131 -366h-289l131 366h-227l-131 -366h-289l131 366h-258l100 271h254l74 213h-258l98 270h258l129 366h289z" />
    <glyph glyph-name="dollar" unicode="$" horiz-adv-x="1958" 
d="M907 938l0.000976562 190c-56 0 -98 -8 -126 -24s-42 -40 -42 -72s13.167 -55.333 39.5 -70s69.166 -22.667 128.499 -24zM1043 340c56.667 1.33301 99 10.333 127 27s42 41 42 73c0 33.333 -13.833 58.833 -41.5 76.5s-67.5 26.5 -119.5 26.5h-9zM870.001 -152
l0.00292969 152h-36c-212.667 0 -378.834 41.167 -498.501 123.5s-187.834 201.5 -204.501 357.5h612c6.66699 -45.333 23.167 -79.166 49.5 -101.499s64.5 -34.166 114.5 -35.499v213c-290 23.333 -490.5 66.666 -601.5 129.999s-166.5 162 -166.5 296
c0 141.333 63.333 251.666 190 330.999s307 122 541 128v133h211v-133c223.333 -4 392.333 -43.167 507 -117.5s179.334 -186.166 194.001 -335.499h-585c-6.66699 41.333 -22.334 72.666 -47.001 93.999s-60.334 33.666 -107.001 36.999l-1 -198
c287.333 -15.333 490 -56.166 608 -122.499s177 -170.5 177 -312.5c0 -156.667 -62.833 -276 -188.5 -358s-311.5 -125 -557.5 -129v-152h-211z" />
    <glyph glyph-name="percent" unicode="%" horiz-adv-x="2318" 
d="M1733 553c-59.333 0 -106.333 -17.5 -141 -52.5s-52 -82.5 -52 -142.5s17.167 -107.333 51.5 -142s81.5 -52 141.5 -52c59.333 0 106.5 17.5 141.5 52.5s52.5 82.167 52.5 141.5c0 60 -17.5 107.5 -52.5 142.5s-82.167 52.5 -141.5 52.5zM1225 358
c0 126.667 44.333 224.667 133 294s214.334 104 377.001 104c161.333 0 286.333 -34.667 375 -104s133 -167.333 133 -294c0 -126 -44.333 -223.667 -133 -293s-213.667 -104 -375 -104c-162.667 0 -288.334 34.667 -377.001 104s-133 167 -133 293zM418 -39l1227 1518h256
l-1227 -1518h-256zM584 1278c-58.667 0 -105.5 -17.832 -140.5 -53.499s-52.5 -83.5 -52.5 -143.5s17.167 -107 51.5 -141s81.5 -51 141.5 -51s107.333 17.167 142 51.5s52 81.166 52 140.499c0 60.667 -17.5 108.667 -52.5 144s-82.167 53 -141.5 53zM76 1083
c0 126 44.332 223.501 132.999 292.501s214.334 103.5 377.001 103.5c162 0 287.167 -34.5 375.5 -103.5s132.5 -166.5 132.5 -292.5c0 -126.667 -44.333 -224.834 -133 -294.501s-213.667 -104.5 -375 -104.5c-162 0 -287.5 35 -376.5 105s-133.5 168 -133.5 294z" />
    <glyph glyph-name="ampersand" unicode="&#x26;" horiz-adv-x="2148" 
d="M1022 1022c44.667 14.667 78.666 32.999 101.999 54.999s35 46.667 35 74c0 26.667 -11.667 48 -35 64s-54.666 24 -93.999 24c-40.667 0 -72 -6.66699 -94 -20s-33 -32.666 -33 -57.999c0 -22 10 -44.667 30 -68s49.667 -47 89 -71zM1094 357.999l-338 310.002
c-34 -19.333 -59.333 -42.333 -76 -69s-25 -57 -25 -91c0 -56.667 24.333 -105.334 73 -146.001s107.667 -61 177 -61c32 0 63.5 4.66699 94.5 14s62.5 23.666 94.5 42.999zM1477 0.000976562l-117 115c-86 -54 -181 -94.167 -285 -120.5s-218.667 -39.5 -344 -39.5
c-190.667 0 -344.167 44.833 -460.5 134.5s-174.5 206.5 -174.5 350.5c0 118.667 36.667 218.667 110 300s174 133 302 155c-41.333 28 -72.833 63 -94.5 105s-32.5 89 -32.5 141c0 117.333 51.833 207.333 155.5 270s252.5 94 446.5 94
c198.667 0 352.5 -31.833 461.5 -95.5s163.5 -153.167 163.5 -268.5c0 -89.333 -31.167 -161 -93.5 -215s-152.833 -87.667 -271.5 -101l250 -221c53.333 32.667 106 73.167 158 121.5s101.667 103.5 149 165.5l250 -223c-38 -53.333 -80.667 -104.333 -128 -153
s-101 -96.667 -161 -144l412 -371h-696z" />
    <glyph glyph-name="quotesingle" unicode="'" horiz-adv-x="393" 
d="M326 1440v-563h-258v563h258z" />
    <glyph glyph-name="parenleft" unicode="(" horiz-adv-x="1053" 
d="M1004 -424c-6.66699 0 -16.4971 -0.332031 -29.4971 -0.999023s-22.5 -1 -28.5 -1c-286 0 -503.5 81.5 -652.5 244.5s-223.5 400.833 -223.5 713.5c0 313.333 74.667 551.833 224 715.5s366.666 245.5 651.999 245.5c6 0 15.5 -0.333008 28.5 -1s22.833 -1 29.5 -1v-416
h-31c-126.667 0 -220.834 -44.5 -282.501 -133.5s-92.5 -225.5 -92.5 -409.5c0 -182.667 30.667 -318.334 92 -407.001s155.666 -133 282.999 -133h31v-416z" />
    <glyph glyph-name="parenright" unicode=")" horiz-adv-x="1053" 
d="M49 1491c6 0 15.5 0.332031 28.5 0.999023s22.5 1 28.5 1c286 0 503.667 -81.833 653 -245.5s224 -402.167 224 -715.5c0 -312.667 -74.667 -550.5 -224 -713.5s-367 -244.5 -653 -244.5c-6 0 -15.5 0.333008 -28.5 1s-22.5 1 -28.5 1v416h31
c126.667 0 220.834 44.333 282.501 133s92.5 224.334 92.5 407.001c0 184 -30.833 320.5 -92.5 409.5s-155.834 133.5 -282.501 133.5h-31v416z" />
    <glyph glyph-name="asterisk" unicode="*" horiz-adv-x="1327" 
d="M664 795l-183 -252l-217 155l185 254l-297 97l81 254l297 -97v312h267v-312l297 97l82 -254l-295 -97l182 -254l-217 -155z" />
    <glyph glyph-name="plus" unicode="+" 
d="M993 1221v-473h459v-273h-459v-475h-280v475h-459v273h459v473h280z" />
    <glyph glyph-name="comma" unicode="," horiz-adv-x="979" 
d="M221 0l-0.000976562 473.001h537v-313c0 -86 -9.33301 -151.5 -28 -196.5s-50.334 -84.833 -95.001 -119.5c-42.667 -33.333 -92.667 -63.666 -150 -90.999s-122.666 -51.333 -195.999 -72l-45 188c46 15.333 79.333 33.166 100 53.499s31.334 46.166 32.001 77.499h-155
z" />
    <glyph glyph-name="hyphen" unicode="-" horiz-adv-x="995" 
d="M127 373v401h743v-401h-743z" />
    <glyph glyph-name="period" unicode="." horiz-adv-x="979" 
d="M221 0v473h537v-473h-537z" />
    <glyph glyph-name="slash" unicode="/" horiz-adv-x="977" 
d="M-74 -190l801 1708h254l-795 -1708h-260z" />
    <glyph glyph-name="zero" unicode="0" horiz-adv-x="1958" 
d="M72 721c0 241.333 78.833 428 236.5 560s381.167 198 670.5 198s512.833 -66 670.5 -198s236.5 -318.667 236.5 -560c0 -242 -78.833 -429.167 -236.5 -561.5s-381.167 -198.5 -670.5 -198.5s-512.833 66.167 -670.5 198.5s-236.5 319.5 -236.5 561.5zM979 1108
c-105.333 0 -189.333 -34.833 -252 -104.5s-94 -163.834 -94 -282.501s31.333 -213.167 94 -283.5s146.667 -105.5 252 -105.5c106 0 190.167 35 252.5 105s93.5 164.667 93.5 284c0 118.667 -31.167 212.834 -93.5 282.501s-146.5 104.5 -252.5 104.5z" />
    <glyph glyph-name="one" unicode="1" horiz-adv-x="1958" 
d="M784 0v932.001c-50 -16 -98 -28.333 -144 -37s-91.333 -14 -136 -16v362c90 15.333 166.5 39.666 229.5 72.999s113.5 76 151.5 128h411v-1442h-512z" />
    <glyph glyph-name="two" unicode="2" horiz-adv-x="1958" 
d="M37 0c10.667 231.333 71.332 408.666 181.999 531.999s292.334 215 545.001 275c52.667 12.667 123 28 211 46c195.333 39.333 293 87.333 293 144c0 38.667 -20.667 67.834 -62 87.501s-102 29.5 -182 29.5c-108.667 0 -188.334 -15.833 -239.001 -47.5
s-76 -81.167 -76 -148.5v-5h-619c8 189.333 85.833 331 233.5 425s366.167 141 655.5 141c296 0 518.5 -39.667 667.5 -119s223.5 -197.333 223.5 -354c0 -120 -37.333 -214.167 -112 -282.5s-200 -121.833 -376 -160.5c-65.333 -14 -155.666 -31.333 -270.999 -52
c-244 -43.333 -393.667 -91.333 -449 -144h1177v-367h-1802z" />
    <glyph glyph-name="three" unicode="3" horiz-adv-x="1958" 
d="M57 489h594.001c15.333 -51.333 49.333 -89 102 -113s127.334 -36 224.001 -36c100.667 0 174.667 10.5 222 31.5s71 53.5 71 97.5c0 44.667 -19.833 76.334 -59.5 95.001s-110.834 28 -213.501 28h-317v340h293c104.667 0 173.834 6.83301 207.501 20.5
s50.5 38.167 50.5 73.5c0 36.667 -22.167 64.334 -66.5 83.001s-110.833 28 -199.5 28c-72.667 0 -127.334 -6.33301 -164.001 -19s-58.667 -32.334 -66 -59.001h-624c10.667 145.333 83.334 251.666 218.001 318.999s343.667 101 627 101
c306.667 0 530.5 -32.167 671.5 -96.5s211.5 -166.166 211.5 -305.499c0 -78.667 -21.333 -142.834 -64 -192.501s-106 -83.167 -190 -100.5c99.333 -19.333 173.666 -57 222.999 -113s74 -130 74 -222c0 -164 -73.833 -285.667 -221.5 -365s-372.834 -119 -675.501 -119
c-318 0 -550.167 41.5 -696.5 124.5s-223.5 216.167 -231.5 399.5z" />
    <glyph glyph-name="four" unicode="4" horiz-adv-x="1958" 
d="M1122 573v537l-528 -537h528zM1116 0v227h-1042v373l825 842h727v-860h260v-355h-260v-227h-510z" />
    <glyph glyph-name="five" unicode="5" horiz-adv-x="1958" 
d="M59 479l603.998 0.000976562c5.33301 -46 33.833 -80.333 85.5 -103s127.834 -34 228.501 -34c99.333 0 174.333 13.5 225 40.5s76 67.5 76 121.5c0 56 -26.333 98 -79 126s-132 42 -238 42c-50 0 -97 -4 -141 -12s-86 -19.667 -126 -35h-567l145 817h1518v-348h-1149
l-29 -160c63.333 19.333 131.166 33.666 203.499 42.999s152.166 14 239.499 14c268 0 471.833 -42 611.5 -126s209.5 -206.333 209.5 -367c0 -174.667 -77.667 -307.167 -233 -397.5s-382.666 -135.5 -681.999 -135.5c-313.333 0 -540.166 40.5 -680.499 121.5
s-214.166 211.833 -221.499 392.5z" />
    <glyph glyph-name="six" unicode="6" horiz-adv-x="1958" 
d="M711 467c0 -49.333 23.5 -85.833 70.5 -109.5s119.5 -35.5 217.5 -35.5c96.667 0 168.667 11.833 216 35.5s71 60.167 71 109.5c0 48.667 -23.667 85 -71 109s-119.333 36 -216 36c-98 0 -170.5 -11.833 -217.5 -35.5s-70.5 -60.167 -70.5 -109.5zM657 864
c66 29.333 135.5 50.999 208.5 64.999s151.167 21 234.5 21c254.667 0 448.667 -41.167 582 -123.5s200 -202.166 200 -359.499c0 -168.667 -69.667 -295.5 -209 -380.5s-346.666 -127.5 -621.999 -127.5c-335.333 0 -579 60.167 -731 180.5s-228 312.833 -228 577.5
c0 258 75 449.833 225 575.5s380.333 188.5 691 188.5c269.333 0 474.666 -38 615.999 -114s221.333 -191 240 -345h-582c-8.66699 34 -33.667 58.833 -75 74.5s-101.666 23.5 -180.999 23.5c-110 0 -195.333 -21 -256 -63s-98.334 -106.333 -113.001 -193z" />
    <glyph glyph-name="seven" unicode="7" horiz-adv-x="1958" 
d="M299 0c5.33301 69.333 16 131.997 32 187.997s37.333 105.333 64 148c36 57.333 80.667 112.833 134 166.5s140.666 126.5 261.999 218.5l122 91c158.667 116.667 260.667 206.334 306 269.001h-1127v361h1810c-0.666992 -81.333 -9.66699 -156.833 -27 -226.5
s-43.666 -135.5 -78.999 -197.5c-50 -88.667 -161.667 -207 -335 -355l-13 -12l-42 -36c-122 -104 -205.667 -190.333 -251 -259c-35.333 -53.333 -62 -109.166 -80 -167.499s-28.333 -121.166 -31 -188.499h-745z" />
    <glyph glyph-name="eight" unicode="8" horiz-adv-x="1958" 
d="M678 455c0 -43.333 22.833 -74.333 68.5 -93s123.167 -28 232.5 -28s186.833 9.33301 232.5 28s68.5 49.667 68.5 93c0 42.667 -23.167 73.334 -69.5 92.001s-123.5 28 -231.5 28s-185.167 -9.33301 -231.5 -28s-69.5 -49.334 -69.5 -92.001zM696 1014
c0 -37.333 21.5 -64.166 64.5 -80.499s115.833 -24.5 218.5 -24.5s175.5 8.16699 218.5 24.5s64.5 43.166 64.5 80.499s-21.5 64 -64.5 80s-115.833 24 -218.5 24s-175.5 -8 -218.5 -24s-64.5 -42.667 -64.5 -80zM260 766c-53.333 24.667 -92.665 58.5 -117.998 101.5
s-38 97.833 -38 164.5c0 151.333 71.167 263.333 213.5 336s362.833 109 661.5 109c298 0 518.167 -36.333 660.5 -109s213.5 -184.667 213.5 -336c0 -66.667 -12.5 -121.5 -37.5 -164.5s-64.167 -76.833 -117.5 -101.5c58 -29.333 101.167 -69.166 129.5 -119.499
s42.5 -112.166 42.5 -185.499c0 -171.333 -71.333 -296.833 -214 -376.5s-368.334 -119.5 -677.001 -119.5s-534.334 39.833 -677.001 119.5s-214 205.167 -214 376.5c0 73.333 14.167 135.166 42.5 185.499s71.5 90.166 129.5 119.499z" />
    <glyph glyph-name="nine" unicode="9" horiz-adv-x="1958" 
d="M670 973c0 -49.333 23.332 -85.668 69.999 -109.001s119.334 -35 218.001 -35c97.333 0 169.5 11.833 216.5 35.5s70.5 59.834 70.5 108.501s-23.667 85 -71 109s-119.333 36 -216 36c-98 0 -170.5 -11.833 -217.5 -35.5s-70.5 -60.167 -70.5 -109.5zM93.999 417.998
l580 -0.000976562c8.66699 -33.333 33.667 -57.666 75 -72.999s102.333 -23 183 -23c110 0 195 20.667 255 62s97 105 111 191c-64 -28 -132.5 -48.833 -205.5 -62.5s-151.833 -20.5 -236.5 -20.5c-254.667 0 -448.334 40.833 -581.001 122.5s-199 201.167 -199 358.5
c0 168.667 69.333 295.5 208 380.5s345.667 127.5 621 127.5c336 0 580.167 -60.333 732.5 -181s228.5 -313 228.5 -577c0 -258.667 -75 -450.667 -225 -576s-380.333 -188 -691 -188c-269.333 0 -474.666 38 -615.999 114s-221.333 191 -240 345z" />
    <glyph glyph-name="colon" unicode=":" horiz-adv-x="901" 
d="M182 674v473h537v-473h-537zM182 0v473h537v-473h-537z" />
    <glyph glyph-name="semicolon" unicode=";" horiz-adv-x="901" 
d="M182 674v473h537v-473h-537zM182 0l-0.000976562 473.001h537v-313c0 -86 -9.33301 -151.5 -28 -196.5s-50.334 -84.833 -95.001 -119.5c-42.667 -33.333 -92.667 -63.666 -150 -90.999s-122.666 -51.333 -195.999 -72l-45 188c46 15.333 79.333 33.166 100 53.499
s31.334 46.166 32.001 77.499h-155z" />
    <glyph glyph-name="less" unicode="&#x3c;" 
d="M1442 938l-801 -328l801 -327v-299l-1178 487v281l1178 487v-301z" />
    <glyph glyph-name="equal" unicode="=" 
d="M1452 512v-272h-1198v272h1198zM1452 983v-272h-1198v272h1198z" />
    <glyph glyph-name="greater" unicode="&#x3e;" 
d="M1442 752v-281l-1178 -487v299l801 327l-801 328v301z" />
    <glyph glyph-name="question" unicode="?" horiz-adv-x="1745" 
d="M588 0v473h536v-473h-536zM588 573l-0.00292969 25.002c0 66.667 16.333 121.167 49 163.5s87.334 79.166 164.001 110.499c28.667 12 67.834 25.667 117.501 41s82.167 27.666 97.5 36.999c24.667 16 42.667 33.167 54 51.5s17 40.166 17 65.499
c0 39.333 -18 69.333 -54 90s-88 31 -156 31c-89.333 0 -156.5 -19.333 -201.5 -58s-67.5 -96 -67.5 -172v-10h-577c0 198.667 65.5 343.667 196.5 435s339.833 137 626.5 137c284 0 494 -36.5 630 -109.5s204 -185.5 204 -337.5c0 -85.333 -22 -154.166 -66 -206.499
s-122.667 -100.833 -236 -145.5c-20 -8 -48.667 -18.667 -86 -32c-101.333 -36 -160.666 -74.667 -177.999 -116h-534z" />
    <glyph glyph-name="at" unicode="@" horiz-adv-x="2048" 
d="M1241 911l49 82.002h242l-156 -627c-1.33301 -8 -2.33301 -14.167 -3 -18.5s-1 -8.16602 -1 -11.499c0 -16 4.16699 -28.167 12.5 -36.5s19.833 -12.5 34.5 -12.5c85.333 0 162.333 47.333 231 142s103 205 103 331c0 157.333 -58.167 284.333 -174.5 381
s-270.5 145 -462.5 145c-94.667 0 -183.334 -11.833 -266.001 -35.5s-157.667 -58.834 -225 -105.501c-102.667 -72 -182 -161.667 -238 -269s-84 -224 -84 -350c0 -196 66.5 -352.167 199.5 -468.5s311.5 -174.5 535.5 -174.5c106.667 0 209.167 15.667 307.5 47
s191.166 78 278.499 140l115 -160c-109.333 -81.333 -223.333 -141.666 -342 -180.999s-245.667 -59 -381 -59c-125.333 0 -243.666 18.167 -354.999 54.5s-209.333 88.5 -294 156.5c-99.333 79.333 -173.666 172.333 -222.999 279s-74 226.667 -74 360
c0 117.333 18.5 228.166 55.5 332.499s91.5 199.166 163.5 284.499c99.333 118 219.833 208.5 361.5 271.5s295.5 94.5 461.5 94.5c257.333 0 466 -68.667 626 -206s240 -315 240 -533c0 -114 -22.667 -218.833 -68 -314.5s-110.666 -176.5 -195.999 -242.5
c-46.667 -36.667 -97.834 -64.667 -153.501 -84s-113.834 -29 -174.501 -29c-72.667 0 -128.167 12.667 -166.5 38s-60.5 63.666 -66.5 114.999c-39.333 -52.667 -81.833 -91 -127.5 -115s-99.5 -36 -161.5 -36c-114 0 -199.833 29.333 -257.5 88s-86.5 146 -86.5 262
c0 164.667 47.833 301.834 143.5 411.501s214.5 164.5 356.5 164.5c49.333 0 92.833 -9.33301 130.5 -28s67.834 -46.334 90.501 -83.001zM1126 494.002l47 195c-4.66699 44.667 -18.667 79.5 -42 104.5s-53.666 37.5 -90.999 37.5c-63.333 0 -119 -38.833 -167 -116.5
s-72 -169.167 -72 -274.5c0 -48 10.167 -85.167 30.5 -111.5s49.166 -39.5 86.499 -39.5c48 0 91 18.5 129 55.5s64.333 86.833 79 149.5z" />
    <glyph glyph-name="A" unicode="A" horiz-adv-x="1849" 
d="M743 510h367l-178 520zM-59 0l641 1479h727l598 -1479h-621l-49 145h-629l-53 -145h-614z" />
    <glyph glyph-name="B" unicode="B" horiz-adv-x="2062" 
d="M735 369h406c93.333 0 153.833 8.66699 181.5 26s41.5 48.666 41.5 93.999c0 46.667 -14.333 78.834 -43 96.501s-88.667 26.5 -180 26.5h-406v-243zM735 1133v-209h385c83.333 0 137.333 7.5 162 22.5s37 42.167 37 81.5c0 40 -11.333 67.5 -34 82.5
s-77.667 22.5 -165 22.5h-385zM1352 1479c206.667 0 352.834 -28.499 438.501 -85.499s128.5 -151.5 128.5 -283.5c0 -72.667 -16.667 -136.334 -50 -191.001s-82.333 -99 -147 -133c85.333 -27.333 149.666 -71.833 192.999 -133.5s65 -138.5 65 -230.5
c0 -140.667 -46 -246.167 -138 -316.5s-230.333 -105.5 -415 -105.5h-1265v1479h1190z" />
    <glyph glyph-name="C" unicode="C" horiz-adv-x="2105" 
d="M1395 858c-9.33301 91.333 -41.666 161.003 -96.999 209.003s-131 72 -227 72c-122.667 0 -216.5 -34.333 -281.5 -103s-97.5 -167.667 -97.5 -297c0 -128.667 32.5 -227 97.5 -295s158.833 -102 281.5 -102c88.667 0 160.167 20.167 214.5 60.5
s90.166 100.166 107.499 179.499h661c-30 -204.667 -128.167 -359.334 -294.5 -464.001s-395.833 -157 -688.5 -157c-328.667 0 -576.667 65.5 -744 196.5s-251 324.833 -251 581.5c0 257.333 83.667 451.5 251 582.5s415.333 196.5 744 196.5
c306.667 0 544 -56.833 712 -170.5s257 -276.834 267 -489.501h-655z" />
    <glyph glyph-name="D" unicode="D" horiz-adv-x="2132" 
d="M735 1114v-720.999h285c148.667 0 255.167 28.167 319.5 84.5s96.5 148.5 96.5 276.5c0 127.333 -32.5 219.166 -97.5 275.499s-171.167 84.5 -318.5 84.5h-285zM162 1481h947.999c306.667 0 540.334 -63.167 701.001 -189.5s241 -310.5 241 -552.5
c0 -241.333 -80 -424.833 -240 -550.5s-394 -188.5 -702 -188.5h-948v1481z" />
    <glyph glyph-name="E" unicode="E" horiz-adv-x="1800" 
d="M162 0v1479h1567v-363h-994v-176h805v-365h-805v-194h1043v-381h-1616z" />
    <glyph glyph-name="F" unicode="F" horiz-adv-x="1659" 
d="M162 0v1479h1476v-363h-903v-201h738v-364h-738v-551h-573z" />
    <glyph glyph-name="G" unicode="G" horiz-adv-x="2152" 
d="M1718 131c-66.667 -58.667 -152.168 -101.667 -256.501 -129s-234.5 -41 -390.5 -41c-328.667 0 -576.667 65.5 -744 196.5s-251 324.833 -251 581.5c0 257.333 83.667 451.5 251 582.5s415.333 196.5 744 196.5c276.667 0 498.334 -47 665.001 -141
s261 -224.667 283 -392h-628c-30.667 60 -71.167 104.667 -121.5 134s-111.166 44 -182.499 44c-119.333 0 -215 -38.333 -287 -115s-108 -179.667 -108 -309c0 -130.667 35.5 -232.167 106.5 -304.5s170.167 -108.5 297.5 -108.5c95.333 0 174.666 17.333 237.999 52
s102 82 116 142h-238v320h826v-840h-258z" />
    <glyph glyph-name="H" unicode="H" horiz-adv-x="2124" 
d="M162 0v1479h573v-512h654v512h573v-1479h-573v598h-654v-598h-573z" />
    <glyph glyph-name="I" unicode="I" horiz-adv-x="895" 
d="M162 0v1479h573v-1479h-573z" />
    <glyph glyph-name="J" unicode="J" horiz-adv-x="1659" 
d="M33 633h574.997v-21c0 -89.333 14.333 -155.333 43 -198s73 -64 133 -64c68.667 0 116.334 20.333 143.001 61s40 123.334 40 248.001v820h573v-762c0 -172.667 -7.66699 -294 -23 -364s-41.666 -129.667 -78.999 -179c-54 -71.333 -133.167 -125 -237.5 -161
s-232.166 -54 -383.499 -54c-280 0 -480.667 47.167 -602 141.5s-182 249.166 -182 464.499v68z" />
    <glyph glyph-name="K" unicode="K" horiz-adv-x="2001" 
d="M162 0v1479h573v-512l527 512h774l-617 -535l678 -944h-713l-399 600l-250 -203v-397h-573z" />
    <glyph glyph-name="L" unicode="L" horiz-adv-x="1657" 
d="M162 0v1479h573v-1073h903v-406h-1476z" />
    <glyph glyph-name="M" unicode="M" horiz-adv-x="2531" 
d="M162 0v1479h850l250 -901l270 901h838v-1479h-531v1155l-352 -1155h-447l-348 1155v-1155h-530z" />
    <glyph glyph-name="N" unicode="N" horiz-adv-x="2126" 
d="M160 0v1479h678l571 -852v852h555v-1479h-643l-621 866v-866h-540z" />
    <glyph glyph-name="O" unicode="O" horiz-adv-x="2142" 
d="M692 739c0 -128.667 32.5 -227 97.5 -295s158.833 -102 281.5 -102s216.5 34 281.5 102s97.5 166.333 97.5 295c0 129.333 -32.5 228.333 -97.5 297s-158.833 103 -281.5 103s-216.5 -34.333 -281.5 -103s-97.5 -167.667 -97.5 -297zM76 739
c0 257.333 83.667 451.5 251 582.5s415.333 196.5 744 196.5s576.667 -65.5 744 -196.5s251 -325.167 251 -582.5c0 -256.667 -83.667 -450.5 -251 -581.5s-415.333 -196.5 -744 -196.5s-576.667 65.5 -744 196.5s-251 324.833 -251 581.5z" />
    <glyph glyph-name="P" unicode="P" horiz-adv-x="1956" 
d="M1049 1161l-314 -0.000976562v-319h314c93.333 0 157.833 11.833 193.5 35.5s53.5 64.834 53.5 123.501c0 59.333 -17.833 100.833 -53.5 124.5s-100.167 35.5 -193.5 35.5zM162 -0.000976562v1479h1106c209.333 0 370.833 -41.833 484.5 -125.5
s170.5 -201.834 170.5 -354.501c0 -152 -56.833 -269.833 -170.5 -353.5s-275.167 -125.5 -484.5 -125.5h-533v-520h-573z" />
    <glyph glyph-name="Q" unicode="Q" horiz-adv-x="2142" 
d="M1094 342l-96.999 98.001l269 265l151 -156c11.333 25.333 19.666 53.166 24.999 83.499s8 65.833 8 106.5c0 129.333 -32.5 228.333 -97.5 297s-158.833 103 -281.5 103s-216.5 -34.333 -281.5 -103s-97.5 -167.667 -97.5 -297c0 -127.333 32.333 -225.333 97 -294
s156.667 -103 276 -103h29zM1436 -5.99902c-48 -11.333 -100.999 -19.666 -158.999 -24.999s-121.333 -8 -190 -8c-336.667 0 -589.334 65 -758.001 195s-253 324.333 -253 583c0 257.333 83.667 451.5 251 582.5s415.333 196.5 744 196.5s576.667 -65.5 744 -196.5
s251 -325.167 251 -582.5c0 -132 -21.5 -246.333 -64.5 -343s-108.167 -177.334 -195.5 -242.001l179 -181l-271 -264z" />
    <glyph glyph-name="R" unicode="R" horiz-adv-x="2030" 
d="M1288 1479c128.667 0 231.666 -6.17188 308.999 -18.5049s137.666 -31.5 180.999 -57.5c55.333 -32.667 97.5 -76.5 126.5 -131.5s43.5 -118.5 43.5 -190.5c0 -87.333 -21.667 -164.166 -65 -230.499s-103 -114.166 -179 -143.499
c65.333 -27.333 111.166 -61.166 137.499 -101.499s41.833 -111.5 46.5 -213.5c0.666992 -11.333 1.33398 -27 2.00098 -47c9.33301 -193.333 35.333 -300.666 78 -321.999v-23h-637c-19.333 31.333 -30 92 -32 182c-1.33301 52.667 -3.66602 93.334 -6.99902 122.001
c-6 54 -24.167 92 -54.5 114s-81.166 33 -152.499 33h-342v-451h-581v1479h1126zM742.999 839.995l334.001 -0.000976562c87.333 0 148.833 10.333 184.5 31s53.5 55.334 53.5 104.001c0 48 -16.833 81.5 -50.5 100.5s-100.834 28.5 -201.501 28.5h-320v-264z" />
    <glyph glyph-name="S" unicode="S" horiz-adv-x="2005" 
d="M70 450l693.999 1.00098c5.33301 -40 30.333 -70.833 75 -92.5s105.667 -32.5 183 -32.5s135.166 8.83301 173.499 26.5s57.5 44.167 57.5 79.5c0 31.333 -16.667 56.5 -50 75.5s-84.666 32.833 -153.999 41.5l-428 53c-177.333 21.333 -310.833 69 -400.5 143
s-134.5 173 -134.5 297c0 165.333 67.833 286 203.5 362s351.834 114 648.501 114c308 0 537 -38 687 -114s231 -194.333 243 -355h-666c-7.33301 46.667 -35.333 81.834 -84 105.501s-117 35.5 -205 35.5c-64 0 -114.333 -8.83301 -151 -26.5s-55 -41.5 -55 -71.5
c0 -28 14.167 -49.333 42.5 -64s87.166 -28.334 176.499 -41.001l522 -74c163.333 -23.333 285.333 -70.833 366 -142.5s121 -168.167 121 -289.5c0 -181.333 -80.667 -314.333 -242 -399s-415.666 -127 -762.999 -127c-276 0 -487.833 42.667 -635.5 128
s-222.5 207.666 -224.5 366.999z" />
    <glyph glyph-name="T" unicode="T" horiz-adv-x="1653" 
d="M539 0v1104h-535v375h1645v-375h-537v-1104h-573z" />
    <glyph glyph-name="U" unicode="U" horiz-adv-x="2071" 
d="M735 1479l0.000976562 -722.998c0 -148.667 22.5 -251.834 67.5 -309.501s122.833 -86.5 233.5 -86.5s188.167 28.667 232.5 86s66.5 160.666 66.5 309.999v723h574v-777c0 -256.667 -69.833 -444.667 -209.5 -564s-360.834 -179 -663.501 -179
c-300.667 0 -521.5 60 -662.5 180s-211.5 307.667 -211.5 563v777h573z" />
    <glyph glyph-name="V" unicode="V" horiz-adv-x="1751" 
d="M563 0l-653 1479h647l313 -990l330 990h641l-680 -1479h-598z" />
    <glyph glyph-name="W" unicode="W" horiz-adv-x="2511" 
d="M383 0l-506 1479h617l256 -1033l274 1033h473l277 -1033l241 1033h619l-508 -1479h-623l-250 956l-254 -956h-616z" />
    <glyph glyph-name="X" unicode="X" horiz-adv-x="1849" 
d="M-51 0l659 780l-565 699h692l203 -320l219 320h684l-573 -699l647 -780h-717l-264 397l-270 -397h-715z" />
    <glyph glyph-name="Y" unicode="Y" 
d="M561 0v418l-649 1061h674l266 -609l283 609h659l-659 -1061v-418h-574z" />
    <glyph glyph-name="Z" unicode="Z" horiz-adv-x="1747" 
d="M51 0v328l867 780h-816v371h1594v-336l-862 -754h833v-389h-1616z" />
    <glyph glyph-name="bracketleft" unicode="[" horiz-adv-x="1053" 
d="M127 -377v1868h881v-393h-359v-1082h359v-393h-881z" />
    <glyph glyph-name="backslash" unicode="\" horiz-adv-x="977" 
d="M981 -190h-260l-795 1708h254z" />
    <glyph glyph-name="bracketright" unicode="]" horiz-adv-x="1053" 
d="M926 1491v-1868h-881v393h358v1082h-358v393h881z" />
    <glyph glyph-name="asciicircum" unicode="^" horiz-adv-x="2048" 
d="M1192 1462l442 -565h-303l-307 309l-309 -309h-303l442 565h338z" />
    <glyph glyph-name="underscore" unicode="_" horiz-adv-x="1024" 
d="M1024 -201v-282h-1024v282h1024z" />
    <glyph glyph-name="grave" unicode="`" horiz-adv-x="1024" 
d="M285 1298l-303 314h602l188 -314h-487z" />
    <glyph glyph-name="a" unicode="a" horiz-adv-x="1825" 
d="M1177 534c-53.333 -26.667 -144.667 -44.333 -274 -53c-37.333 -2 -66 -4 -86 -6c-75.333 -6.66699 -126.5 -17.667 -153.5 -33s-40.5 -39 -40.5 -71c0 -36 16.167 -63.833 48.5 -83.5s78.166 -29.5 137.499 -29.5c112.667 0 202.667 22.667 270 68s101 105.333 101 180
c0 8 -0.166992 13.833 -0.5 17.5s-1.16602 7.16699 -2.49902 10.5zM1179 157.001c-64 -67.333 -141.169 -116.499 -231.502 -147.499s-204.833 -46.5 -343.5 -46.5c-187.333 0 -328 31.333 -422 94s-141 157 -141 283c0 41.333 5.33301 79.5 16 114.5s25.667 65.167 45 90.5
c39.333 48.667 91.833 84.834 157.5 108.501s189.5 41.5 371.5 53.5c60 4 138 7.66699 234 11c193.333 8 290 35 290 81c0 31.333 -20.333 56.5 -61 75.5s-96 28.5 -166 28.5c-90.667 0 -155.334 -8.66699 -194.001 -26s-61.334 -47 -68.001 -89h-529
c10.667 139.333 75.834 239.166 195.501 299.499s316.834 90.5 591.501 90.5c150 0 276.333 -10.5 379 -31.5s180.334 -52.167 233.001 -93.5c57.333 -44.667 98 -98.5 122 -161.5s36 -153.167 36 -270.5v-443c0 -42.667 3.83301 -75.5 11.5 -98.5
s20.834 -41.167 39.501 -54.5v-25h-533c-9.33301 22.667 -16.833 47.167 -22.5 73.5s-9.16699 54.166 -10.5 83.499z" />
    <glyph glyph-name="b" unicode="b" horiz-adv-x="1778" 
d="M651 573c0 -76.667 24 -138.167 72 -184.5s111.333 -69.5 190 -69.5c80 0 143.833 23.167 191.5 69.5s71.5 107.833 71.5 184.5c0 77.333 -23.833 139 -71.5 185s-111.5 69 -191.5 69c-78.667 0 -142 -23 -190 -69s-72 -107.667 -72 -185zM139 0l-0.000976562 1491h512
v-438c62 41.333 127.833 72.166 197.5 92.499s145.834 30.5 228.501 30.5c194.667 0 349.5 -54.333 464.5 -163s172.5 -255.334 172.5 -440.001c0 -182 -57 -327.833 -171 -437.5s-266.667 -164.5 -458 -164.5c-90 0 -172.667 11.833 -248 35.5s-144 59.167 -206 106.5
l-4 -113h-488z" />
    <glyph glyph-name="c" unicode="c" horiz-adv-x="1767" 
d="M1702 504c-18.667 -180.667 -96.5 -316.334 -233.5 -407.001s-332.167 -136 -585.5 -136c-262 0 -464.5 53.333 -607.5 160s-214.5 257.334 -214.5 452.001c0 194 71.5 344.667 214.5 452s345.5 161 607.5 161c243.333 0 433 -41.667 569 -125s216 -207 240 -371h-549
c-20.667 52.667 -51.667 92.167 -93 118.5s-93 39.5 -155 39.5c-91.333 0 -163 -24.167 -215 -72.5s-78 -115.166 -78 -200.499c0 -82.667 25.333 -148.334 76 -197.001s119 -73 205 -73c71.333 0 131.5 17.833 180.5 53.5s79.5 84.167 91.5 145.5h547z" />
    <glyph glyph-name="d" unicode="d" horiz-adv-x="1778" 
d="M1126 573c0 77.333 -23.833 139 -71.5 185s-111.167 69 -190.5 69s-142.833 -23 -190.5 -69s-71.5 -107.667 -71.5 -185c0 -76.667 23.833 -138.167 71.5 -184.5s111.167 -69.5 190.5 -69.5s142.833 23.167 190.5 69.5s71.5 107.833 71.5 184.5zM1638 1491
l-0.000976562 -1491h-487l-4 113c-62 -47.333 -130.667 -82.833 -206 -106.5s-158.333 -35.5 -249 -35.5c-191.333 0 -344 54.833 -458 164.5s-171 255.5 -171 437.5c0 184.667 57.5 331.334 172.5 440.001s269.833 163 464.5 163c82.667 0 158.834 -10.167 228.501 -30.5
s135.5 -51.166 197.5 -92.499v438h512z" />
    <glyph glyph-name="e" unicode="e" horiz-adv-x="1776" 
d="M584 700h608c-7.33301 63.333 -36 112.333 -86 147s-117 52 -201 52c-90.667 0 -163.5 -17 -218.5 -51s-89.167 -83.333 -102.5 -148zM1708 350c-38.667 -127.333 -128.333 -224.001 -269 -290.001s-328 -99 -562 -99c-260 0 -461 53.333 -603 160
s-213 257.334 -213 452.001c0 195.333 71 346.333 213 453s343 160 603 160c276 0 485.167 -60.167 627.5 -180.5s213.5 -297.166 213.5 -530.499v-20h-1108c0 -62 26 -110 78 -144s125 -51 219 -51c62 0 113.667 7.66699 155 23s71 37.666 89 66.999h557z" />
    <glyph glyph-name="f" unicode="f" horiz-adv-x="954" 
d="M190 0l-0.00195312 815.001h-190v322h190v59c0 117.333 31.833 200.666 95.5 249.999s171.834 74 324.501 74c30.667 0 68.834 -0.833008 114.501 -2.5s109.167 -4.5 190.5 -8.5v-270h-110c-38 0 -64.667 -6.66699 -80 -20s-23 -36 -23 -68v-14h213v-322h-204v-815h-521z
" />
    <glyph glyph-name="g" unicode="g" horiz-adv-x="1778" 
d="M602 614c0 -65.333 23.667 -117.5 71 -156.5s111 -58.5 191 -58.5s143.667 19.5 191 58.5s71 91.167 71 156.5c0 66 -23.833 118.667 -71.5 158s-111.167 59 -190.5 59c-78.667 0 -142 -19.667 -190 -59s-72 -92 -72 -158zM1638 254c0 -100 -3.33301 -173 -10 -219
s-18.334 -83 -35.001 -111c-63.333 -106 -155 -183.333 -275 -232s-280 -73 -480 -73c-230 0 -405 30.667 -525 92s-192.333 157 -217 287h686c8 -25.333 22.5 -43.666 43.5 -54.999s50.167 -17 87.5 -17c76.667 0 131.667 16.667 165 50s50 88.333 50 165
c0 16.667 -0.166992 29.167 -0.5 37.5s-0.833008 16.166 -1.5 23.499c-57.333 -42.667 -123 -74.334 -197 -95.001s-158.333 -31 -253 -31c-186.667 0 -335.5 49.833 -446.5 149.5s-166.5 232.834 -166.5 399.501c0 166 55.833 299.333 167.5 400s260.834 151 447.501 151
c98 0 185.667 -11.5 263 -34.5s146 -58.167 206 -105.5l4 111h487v-893z" />
    <glyph glyph-name="h" unicode="h" horiz-adv-x="1720" 
d="M139 0l0.000976562 1491h512v-463c68.667 48 140 83.5 214 106.5s153.667 34.5 239 34.5c168 0 291.167 -42.667 369.5 -128s117.5 -220.666 117.5 -405.999v-635h-512v539c0 84.667 -13.833 143.334 -41.5 176.001s-75.834 49 -144.501 49
c-75.333 0 -134.5 -18 -177.5 -54s-64.5 -85.667 -64.5 -149v-561h-512z" />
    <glyph glyph-name="i" unicode="i" horiz-adv-x="827" 
d="M154 0v1147h522v-1147h-522zM154 1241v291h522v-291h-522z" />
    <glyph glyph-name="j" unicode="j" horiz-adv-x="817" 
d="M166 1241v291h516v-291h-516zM-51 25l75.999 -0.00195312c56 0 93.5 12 112.5 36s28.5 92.333 28.5 205v881h516v-1124c0 -93.333 -7.16699 -159.166 -21.5 -197.499s-39.166 -72.166 -74.499 -101.499c-34.667 -30 -84.5 -52.667 -149.5 -68s-142.833 -23 -233.5 -23
c-42 0 -84 2.16699 -126 6.5s-84.667 10.5 -128 18.5v367z" />
    <glyph glyph-name="k" unicode="k" horiz-adv-x="1702" 
d="M139 0v1491h512v-705l369 361h686l-453 -397l506 -750h-614l-275 446l-219 -188v-258h-512z" />
    <glyph glyph-name="l" unicode="l" horiz-adv-x="827" 
d="M154 0v1491h522v-1491h-522z" />
    <glyph glyph-name="m" unicode="m" horiz-adv-x="2589" 
d="M135 0l-0.00195312 1147h508v-119c68 48.667 137.667 84.334 209 107.001s148.333 34 231 34c92.667 0 170.334 -16.5 233.001 -49.5s116.334 -85.167 161.001 -156.5c75.333 70.667 154.333 122.667 237 156s174.334 50 275.001 50c162 0 280.667 -42.667 356 -128
s113 -220.666 113 -405.999v-635h-506v539c0 84 -13.333 142.5 -40 175.5s-72 49.5 -136 49.5c-72 0 -128.333 -18 -169 -54s-61 -85.667 -61 -149v-561h-497v539c0 84 -13.333 142.5 -40 175.5s-72.334 49.5 -137.001 49.5c-71.333 0 -127.333 -18 -168 -54
s-61 -85.667 -61 -149v-561h-508z" />
    <glyph glyph-name="n" unicode="n" horiz-adv-x="1716" 
d="M135 0v1147h512v-119c68.667 48 140 83.5 214 106.5s153.667 34.5 239 34.5c168 0 290.833 -42.667 368.5 -128s116.5 -220.666 116.5 -405.999v-635h-512v539c0 85.333 -13.667 144.166 -41 176.499s-75 48.5 -143 48.5c-75.333 0 -134.5 -18 -177.5 -54
s-64.5 -85.667 -64.5 -149v-561h-512z" />
    <glyph glyph-name="o" unicode="o" horiz-adv-x="1735" 
d="M602 573c0 -78.667 23.833 -141.334 71.5 -188.001s111.834 -70 192.501 -70s144.834 23.333 192.501 70s71.5 109.334 71.5 188.001c0 79.333 -23.833 142.166 -71.5 188.499s-111.834 69.5 -192.501 69.5s-144.834 -23.167 -192.501 -69.5
s-71.5 -109.166 -71.5 -188.499zM61 573c0 194.667 70.333 345.5 211 452.5s339.334 160.5 596.001 160.5c257.333 0 455.833 -53.333 595.5 -160s209.5 -257.667 209.5 -453c0 -194.667 -69.833 -345.334 -209.5 -452.001s-338.167 -160 -595.5 -160
c-256.667 0 -455.334 53.333 -596.001 160s-211 257.334 -211 452.001z" />
    <glyph glyph-name="p" unicode="p" horiz-adv-x="1778" 
d="M651 573c0 -76.667 24 -138.167 72 -184.5s111.333 -69.5 190 -69.5c80 0 143.833 23.167 191.5 69.5s71.5 107.833 71.5 184.5c0 77.333 -23.833 139 -71.5 185s-111.5 69 -191.5 69c-78.667 0 -142 -23 -190 -69s-72 -107.667 -72 -185zM139 -371l0.00195312 1518h488
l4 -111c60.667 46.667 128.667 81.667 204 105s158.666 35 249.999 35c191.333 0 344 -54.833 458 -164.5s171 -255.834 171 -438.501c0 -184 -57.5 -330.333 -172.5 -439s-269.833 -163 -464.5 -163c-82.667 0 -158.834 10.167 -228.501 30.5s-135.5 51.166 -197.5 92.499
v-465h-512z" />
    <glyph glyph-name="q" unicode="q" horiz-adv-x="1778" 
d="M602 573c0 -76.667 23.833 -138.167 71.5 -184.5s111.167 -69.5 190.5 -69.5s142.833 23.167 190.5 69.5s71.5 107.833 71.5 184.5c0 77.333 -23.833 139 -71.5 185s-111.167 69 -190.5 69s-142.833 -23 -190.5 -69s-71.5 -107.667 -71.5 -185zM1126 94
c-62 -41.333 -127.832 -72.168 -197.499 -92.501s-145.834 -30.5 -228.501 -30.5c-194.667 0 -349.5 54.333 -464.5 163s-172.5 255 -172.5 439c0 182.667 57 328.834 171 438.501s266.667 164.5 458 164.5c92 0 175.5 -11.667 250.5 -35s143.167 -58.333 204.5 -105l4 111
h487v-1518h-512v465z" />
    <glyph glyph-name="r" unicode="r" horiz-adv-x="1403" 
d="M141 0l-0.000976562 1147h508l6 -88c38.667 38.667 84.667 67.834 138 87.501s113.333 29.5 180 29.5c132 0 228.833 -35.833 290.5 -107.5s92.5 -184.834 92.5 -339.501v-100h-453v8c0 58 -10 101.167 -30 129.5s-50.333 42.5 -91 42.5
c-43.333 0 -74.166 -16.333 -92.499 -49s-27.5 -88.667 -27.5 -168v-592h-521z" />
    <glyph glyph-name="s" unicode="s" horiz-adv-x="1716" 
d="M51 366l624.996 1c4 -40 21.5 -68.833 52.5 -86.5s81.167 -26.5 150.5 -26.5c58 0 101.833 6.5 131.5 19.5s44.5 32.5 44.5 58.5c0 45.333 -77.667 75 -233 89c-30.667 3.33301 -54 5.66602 -70 6.99902h-4c-250.667 24.667 -420 56.667 -508 96
c-51.333 22.667 -90.833 58.334 -118.5 107.001s-41.5 106 -41.5 172c0 132.667 60.667 229.667 182 291s314.666 92 579.999 92c250.667 0 437.167 -31.333 559.5 -94s187.5 -159.667 195.5 -291h-589c-3.33301 38.667 -21.166 66.667 -53.499 84s-84.166 26 -155.499 26
c-60.667 0 -105.167 -6.5 -133.5 -19.5s-42.5 -33.167 -42.5 -60.5c0 -44 66.667 -71.333 200 -82l64 -6c10.667 -0.666992 27.334 -2 50.001 -4c268.667 -24 425.334 -43.667 470.001 -59c88 -31.333 150 -69.833 186 -115.5s54 -108.167 54 -187.5
c0 -146.667 -64.5 -252.667 -193.5 -318s-340.5 -98 -634.5 -98c-261.333 0 -453.166 32.5 -575.499 97.5s-186.5 167.5 -192.5 307.5z" />
    <glyph glyph-name="t" unicode="t" horiz-adv-x="952" 
d="M909 2c-44.667 -7.33301 -88 -12.833 -130 -16.5s-82.667 -5.5 -122 -5.5c-63.333 0 -120.333 3.83301 -171 11.5s-96 19.5 -136 35.5c-56.667 23.333 -96.667 57.333 -120 102s-35 117.667 -35 219v449h-183v321h183v375h516v-375h184v-321h-184v-238
c0 -113.333 8.33301 -182 25 -206s50 -36 100 -36h73v-315z" />
    <glyph glyph-name="u" unicode="u" horiz-adv-x="1716" 
d="M1069 119c-68 -48 -139.168 -83.668 -213.501 -107.001s-154.166 -35 -239.499 -35c-168 0 -290.833 42.833 -368.5 128.5s-116.5 221.167 -116.5 406.5v635h512v-539c0 -85.333 13.667 -144.166 41 -176.499s75 -48.5 143 -48.5c75.333 0 134.5 18 177.5 54
s64.5 85.667 64.5 149v561h512v-1147h-512v119z" />
    <glyph glyph-name="v" unicode="v" horiz-adv-x="1565" 
d="M492 0l-535 1147h590l182 -512c10 -28 19 -57 27 -87s14.667 -61 20 -93c6 27.333 13 54.833 21 82.5s17.333 56.834 28 87.501l183 522h583l-534 -1147h-565z" />
    <glyph glyph-name="w" unicode="w" horiz-adv-x="2396" 
d="M375 0l-388.998 1147h555l135 -492c8 -30.667 16.167 -66.5 24.5 -107.5s16.5 -86.833 24.5 -137.5c10 39.333 32.333 104 67 194l7 17l202 526h383l209 -522c8.66699 -20.667 18 -46.334 28 -77.001l34 -108c3.33301 24 8.66602 51 15.999 81s19.666 74.667 36.999 134
l145 492h557l-397 -1147h-588l-188 467c-10 24 -19.167 49.167 -27.5 75.5s-15.5 53.833 -21.5 82.5c-6.66699 -30 -13.667 -57.333 -21 -82s-15.333 -47.334 -24 -68.001l-193 -475h-575z" />
    <glyph glyph-name="x" unicode="x" horiz-adv-x="1579" 
d="M-104 0l532.002 602l-481 545h641l139 -215c14.667 -22.667 26.167 -42 34.5 -58s14.5 -30.667 18.5 -44c6 15.333 13.5 31.333 22.5 48s20.167 34 33.5 52l153 217h629l-485 -543l528 -604h-660l-161 233c-18.667 27.333 -31.834 48.5 -39.501 63.5
s-13.834 30.167 -18.501 45.5c-8 -21.333 -15.833 -39.5 -23.5 -54.5s-16.167 -28.833 -25.5 -41.5l-176 -246h-661z" />
    <glyph glyph-name="y" unicode="y" horiz-adv-x="1479" 
d="M123 -16l113 0.00195312c72.667 0 125.667 12.667 159 38s58 71.333 74 138l-528 987h559l186 -408c16 -33.333 29.333 -64.833 40 -94.5s19.334 -58.834 26.001 -87.501c5.33301 22.667 12.5 46.667 21.5 72s19.5 52.666 31.5 81.999l184 436h545l-485 -993
c-54 -110 -99.833 -196.667 -137.5 -260s-69.834 -108 -96.501 -134c-42 -40 -87.5 -68.333 -136.5 -85s-115.5 -25 -199.5 -25h-356v334z" />
    <glyph glyph-name="z" unicode="z" horiz-adv-x="1446" 
d="M25 0v303l630 494h-563v350h1290v-301l-616 -481h602v-365h-1343z" />
    <glyph glyph-name="braceleft" unicode="{" horiz-adv-x="1024" 
d="M905 1192c-5.33301 0 -12.834 0.329102 -22.501 0.996094s-16.5 1 -20.5 1c-58 0 -97 -10 -117 -30s-30 -62.667 -30 -128v-239c0 -89.333 -15.667 -152.5 -47 -189.5s-88 -62.833 -170 -77.5c82.667 -15.333 139.5 -41.166 170.5 -77.499s46.5 -98.5 46.5 -186.5v-241
c0 -64 9.83301 -106 29.5 -126s58.167 -30 115.5 -30c4.66699 0 12 0.333008 22 1s17.667 1 23 1v-285h-80c-92.667 0 -163.167 3.5 -211.5 10.5s-88.166 18.5 -119.499 34.5c-40 20 -68.167 48.167 -84.5 84.5s-24.5 98.5 -24.5 186.5v258
c0 84.667 -15.5 144.334 -46.5 179.001s-83.833 52 -158.5 52c-3.33301 0 -8.83301 -0.333008 -16.5 -1s-13.834 -1 -18.501 -1v283c4.66699 0 10.834 -0.333008 18.501 -1s13.167 -1 16.5 -1c74.667 0 127.5 17.333 158.5 52s46.5 94.334 46.5 179.001v258
c0 88.667 8.16699 151.334 24.5 188.001s44.5 65 84.5 85c32 16 72.167 27.5 120.5 34.5s118.5 10.5 210.5 10.5h80v-285z" />
    <glyph glyph-name="bar" unicode="|" horiz-adv-x="1024" 
d="M653 1565v-2048h-280v2048h280z" />
    <glyph glyph-name="braceright" unicode="}" horiz-adv-x="1024" 
d="M641 1159l0.000976562 -257.999c0 -84.667 15.5 -144.334 46.5 -179.001s83.833 -52 158.5 -52c3.33301 0 8.83301 0.333008 16.5 1s13.834 1 18.501 1v-283c-4.66699 0 -10.834 0.333008 -18.501 1s-13.167 1 -16.5 1c-74.667 0 -127.5 -17.333 -158.5 -52
s-46.5 -94.334 -46.5 -179.001v-258c0 -86.667 -8.33301 -148.667 -25 -186s-45.334 -66.333 -86.001 -87c-30 -15.333 -68.333 -26.333 -115 -33s-113.334 -10 -200.001 -10h-94v283c6 0 13.667 -0.333008 23 -1s16 -1 20 -1c58 0 97 10 117 30s30 62.667 30 128v241
c0 88 15.5 150.167 46.5 186.5s87.833 62.166 170.5 77.499c-82 14.667 -138.667 40.334 -170 77.001s-47 99.334 -47 188.001v241c0 65.333 -10 108 -30 128s-59 30 -117 30c-4 0 -10.667 -0.333008 -20 -1s-17 -1 -23 -1v285h80c92 0 162 -3.5 210 -10.5
s87.667 -18.5 119 -34.5c40.667 -20.667 69.334 -49.667 86.001 -87s25 -99.333 25 -186z" />
    <glyph glyph-name="asciitilde" unicode="~" 
d="M1530 543c-68 -46 -131.998 -79.667 -191.998 -101s-119.667 -32 -179 -32c-36 0 -73.167 3.83301 -111.5 11.5s-89.833 22.834 -154.5 45.501c-82.667 28 -147.5 46.667 -194.5 56s-92.833 14 -137.5 14c-56 0 -114.667 -12.667 -176 -38s-130.333 -65.333 -207 -120
v299c79.333 50 151.5 86.333 216.5 109s128.833 34 191.5 34c38.667 0 79.667 -4 123 -12s95 -21.667 155 -41c14.667 -4.66699 36 -12 64 -22c101.333 -36 179.666 -54 234.999 -54c57.333 0 115.666 12.167 174.999 36.5s123.333 62.166 192 113.499v-299z" />
    <glyph glyph-name="nonbreakingspace" unicode="&#xa0;" horiz-adv-x="1958" 
 />
    <glyph glyph-name="exclamdown" unicode="&#xa1;" horiz-adv-x="901" 
d="M684 905l51 -905h-571l53 905h467zM717 1479v-473h-535v473h535z" />
    <glyph glyph-name="cent" unicode="&#xa2;" horiz-adv-x="1802" 
d="M825 348v536.998c-70 -11.333 -124.667 -40.666 -164 -87.999s-59 -107.666 -59 -180.999s18.667 -132.5 56 -177.5s93 -75.167 167 -90.5zM1702 544.998c-16.667 -168.667 -86.168 -299.331 -208.501 -391.998s-292.5 -143.667 -510.5 -153v-217h-190v217
c-230.667 10 -410.334 69 -539.001 177s-193 253.667 -193 437c0 182.667 63.833 327.834 191.5 435.501s307.834 167.5 540.501 179.5v213h190v-213c208 -8 373 -54.833 495 -140.5s193.333 -204.834 214 -357.501h-549c-17.333 46 -42.333 81.833 -75 107.5
s-72.667 41.167 -120 46.5v-537c58.667 11.333 104.834 33.166 138.501 65.499s56.5 76.166 68.5 131.499h547z" />
    <glyph glyph-name="sterling" unicode="&#xa3;" horiz-adv-x="1958" 
d="M377 -31l-172.002 368.999c43.333 34 75.333 69 96 105s31 74.667 31 116c0 8.66699 -0.5 17.667 -1.5 27s-2.5 19.333 -4.5 30h-121v246h100c-2.66699 17.333 -4.66699 35.5 -6 54.5s-2 38.5 -2 58.5c0 167.333 61.667 292.166 185 374.499s310.666 123.5 561.999 123.5
c272 0 471.833 -41.5 599.5 -124.5s192.167 -212.833 193.5 -389.5h-596c-3.33301 46.667 -19.666 82.5 -48.999 107.5s-69.666 37.5 -120.999 37.5c-53.333 0 -94 -14 -122 -42s-42 -68.667 -42 -122c0 -10 1 -28.667 3 -56c0.666992 -10 1 -17.333 1 -22h377v-246h-385
c0 -26 -6.16699 -52.667 -18.5 -80s-31.833 -57.666 -58.5 -90.999c28 4.66699 54.833 8.16699 80.5 10.5s50.5 3.5 74.5 3.5c48.667 0 120.667 -8.16699 216 -24.5s166 -24.5 212 -24.5c64 0 121.5 9.16699 172.5 27.5s102.167 47.833 153.5 88.5l118 -401
c-67.333 -53.333 -138.833 -93 -214.5 -119s-158.167 -39 -247.5 -39c-33.333 0 -69.166 2 -107.499 6s-87.166 11 -146.499 21c-48.667 7.33301 -123.834 22.5 -225.501 45.5s-174.834 34.5 -219.501 34.5c-48 0 -98.167 -8.66699 -150.5 -26
s-107.166 -43.666 -164.499 -78.999z" />
    <glyph glyph-name="currency" unicode="&#xa4;" horiz-adv-x="1241" 
d="M866 885c0 65.333 -24.166 122.166 -72.499 170.499s-105.166 72.5 -170.499 72.5c-66.667 0 -124.334 -24.167 -173.001 -72.5s-73 -105.166 -73 -170.499c0 -66.667 24.167 -124 72.5 -172s106.166 -72 173.499 -72c66 0 123 24.167 171 72.5s72 105.5 72 171.5z
M385.001 1253c35.333 23.333 72.166 40.5 110.499 51.5s80.833 16.5 127.5 16.5c45.333 0 87.5 -5.5 126.5 -16.5s75.167 -28.167 108.5 -51.5l199 199l133 -135l-197 -203c22.667 -36 39.334 -72.833 50.001 -110.5s16 -77.167 16 -118.5s-5.5 -81 -16.5 -119
s-27.5 -75 -49.5 -111l197 -200l-133 -138l-199 201c-34.667 -23.333 -71.5 -40.666 -110.5 -51.999s-80.5 -17 -124.5 -17c-45.333 0 -87.333 5.66699 -126 17s-76 28.666 -112 51.999l-199 -201l-133 138l197 200c-22 34.667 -38.5 71 -49.5 109s-16.5 79 -16.5 123
c0 42 5.5 81.667 16.5 119s27.5 73.333 49.5 108l-197 203l133 135z" />
    <glyph glyph-name="yen" unicode="&#xa5;" 
d="M1765 1442l-307 -484h203v-145h-301l-109 -178h410v-146h-506l-49 -81v-408h-514v408l-53 81h-502v146h409l-108 178h-301v145h209l-303 484h643l266 -594l283 594h630z" />
    <glyph glyph-name="brokenbar" unicode="&#xa6;" horiz-adv-x="1024" 
d="M653 408v-758h-280v758h280zM653 1432v-758h-280v758h280z" />
    <glyph glyph-name="section" unicode="&#xa7;" horiz-adv-x="1946" 
d="M1411 449c1.33301 5.33301 3.33008 12.665 5.99707 21.998c8.66699 30.667 13 49.667 13 57c0 27.333 -9.33301 48.5 -28 63.5s-51 26.833 -97 35.5l-662 129c-2 0 -6.33301 0.666992 -13 2c-37.333 6 -69 14 -95 24c-7.33301 -14.667 -12.666 -28.5 -15.999 -41.5
s-5 -25.833 -5 -38.5c0 -26.667 9 -47 27 -61s52 -26.333 102 -37l662 -129c20.667 -3.33301 39.334 -7.16602 56.001 -11.499s33.334 -9.16602 50.001 -14.499zM138.997 132.999l550.998 -0.00585938c7.33301 -46 33.5 -80.333 78.5 -103s109.167 -34 192.5 -34
c89.333 0 155 6.16699 197 18.5s63 31.5 63 57.5c0 27.333 -39.667 49 -119 65c-9.33301 2 -16 3.33301 -20 4l-408 80c-104 20.667 -186.333 38.834 -247 54.501s-109.334 31.167 -146.001 46.5c-78.667 30.667 -138.667 76.334 -180 137.001s-62 133 -62 217
c0 76 17.5 139.5 52.5 190.5s86.5 87.833 154.5 110.5c-20 24.667 -34.667 50.334 -44 77.001s-14 56.334 -14 89.001c0 126 60.667 220 182 282s305.333 93 552 93c262.667 0 461.834 -35.333 597.501 -106s208.167 -176.667 217.5 -318h-549
c-6 44.667 -27.667 75.834 -65 93.501s-103.666 26.5 -198.999 26.5c-74 0 -126 -5.33301 -156 -16s-45 -29 -45 -55c0 -16 7.83301 -28.5 23.5 -37.5s47.5 -17.833 95.5 -26.5l484 -90c9.33301 -2 23 -4.66699 41 -8c142 -27.333 243.333 -51.333 304 -72
c76.667 -26.667 135.167 -68 175.5 -124s60.5 -124.333 60.5 -205c0 -79.333 -16.167 -143.333 -48.5 -192s-81.166 -83 -146.499 -103c29.333 -25.333 51 -54.166 65 -86.499s21 -69.833 21 -112.5c0 -137.333 -66.833 -238.5 -200.5 -303.5s-341.167 -97.5 -622.5 -97.5
c-260 0 -460.667 38 -602 114s-219.333 187.333 -234 334z" />
    <glyph glyph-name="dieresis" unicode="&#xa8;" horiz-adv-x="1024" 
d="M575 1309v290h408v-290h-408zM39 1309v290h407v-290h-407z" />
    <glyph glyph-name="copyright" unicode="&#xa9;" 
d="M987 883c-2 42 -14.6631 75.002 -37.9961 99.002s-54.333 36 -93 36c-48.667 0 -86.834 -23.833 -114.501 -71.5s-41.5 -114.834 -41.5 -201.501c0 -87.333 13.667 -152.833 41 -196.5s68.333 -65.5 123 -65.5c40 0 70.667 12.167 92 36.5s33 59.833 35 106.5l248 1
c-4 -99.333 -40.333 -178.5 -109 -237.5s-159.334 -88.5 -272.001 -88.5c-130 0 -232.167 38.667 -306.5 116s-111.5 184 -111.5 320c0 133.333 37 241.166 111 323.499s170.333 123.5 289 123.5c117.333 0 210.166 -26.5 278.499 -79.5s105.166 -126.833 110.499 -221.5
h-242zM1452 743.002c0 80 -15.001 156.33 -45.001 228.997s-73 137 -129 193c-58 58 -122.833 101.833 -194.5 131.5s-148.167 44.5 -229.5 44.5c-82 0 -158.667 -14.5 -230 -43.5s-134.666 -71.833 -189.999 -128.5c-57.333 -58 -101.333 -123.667 -132 -197
s-46 -149.666 -46 -228.999s15.167 -155.166 45.5 -227.499s73.833 -136.833 130.5 -193.5c57.333 -57.333 122 -101.166 194 -131.499s148 -45.5 228 -45.5c79.333 0 155.5 15.333 228.5 46s138.833 75 197.5 133c56.667 55.333 99.5 118.5 128.5 189.5
s43.5 147.5 43.5 229.5zM852.003 1493c103.333 0 200.834 -18.666 292.501 -55.999s173.167 -91.666 244.5 -162.999c69.333 -70 122.833 -151 160.5 -243s56.5 -188.667 56.5 -290c0 -102.667 -18.5 -198.834 -55.5 -288.501s-90.833 -168.834 -161.5 -237.501
c-74 -72 -157.333 -127.5 -250 -166.5s-188.334 -58.5 -287.001 -58.5c-99.333 0 -194 19 -284 57s-171.333 93.333 -244 166c-72 71.333 -127 152.333 -165 243s-57 185.667 -57 285c0 100.667 19.167 197 57.5 289s93.833 174.667 166.5 248
c68.667 70 148 123.333 238 160s186 55 288 55z" />
    <glyph glyph-name="ordfeminine" unicode="&#xaa;" horiz-adv-x="1368" 
d="M883 1050c-38 -18 -104.001 -30.334 -198.001 -37.001c-32 -2 -56 -3.66699 -72 -5c-56 -4.66699 -94.333 -12.334 -115 -23.001s-31 -27 -31 -49c0 -25.333 12.167 -45 36.5 -59s58.5 -21 102.5 -21c84.667 0 152.334 15.833 203.001 47.5s76 73.834 76 126.501
c0 5.33301 -0.166992 9.33301 -0.5 12s-0.833008 5.33398 -1.5 8.00098zM884.999 785.999c-48 -48 -106 -82.834 -174 -104.501s-154 -32.5 -258 -32.5c-140.667 0 -246.167 22 -316.5 66s-105.5 110 -105.5 198c0 30 4 57 12 81s19.667 45 35 63
c52.667 62.667 183.667 100.667 393 114h2c44 3.33301 101.667 6 173 8c146.667 5.33301 220 24 220 56c0 22 -15.167 39.833 -45.5 53.5s-71.833 20.5 -124.5 20.5c-66.667 0 -114.834 -6.16699 -144.501 -18.5s-47.167 -32.833 -52.5 -61.5h-397
c9.33301 97.333 59 167 149 209s237 63 441 63c112 0 206.667 -7.33301 284 -22s136.333 -36.667 177 -66c42.667 -30.667 72.834 -68 90.501 -112s26.5 -107.667 26.5 -191v-309c0 -30 3 -53.167 9 -69.5s15.667 -29.166 29 -38.499l1 -17h-400
c-6.66699 16 -12.167 33.333 -16.5 52s-6.83301 38 -7.5 58z" />
    <glyph glyph-name="guillemotleft" unicode="&#xab;" horiz-adv-x="1395" 
d="M131 711l506 397v-416l-162 -119l162 -118v-416l-506 397v275zM748 711l505 397v-416l-161 -119l161 -118v-416l-505 397v275z" />
    <glyph glyph-name="logicalnot" unicode="&#xac;" 
d="M1452 868v-501h-272v235h-926v266h1198z" />
    <glyph glyph-name="sfthyphen" unicode="&#xad;" horiz-adv-x="995" 
d="M127 373v401h743v-401h-743z" />
    <glyph glyph-name="registered" unicode="&#xae;" 
d="M823 1006h-39v-193h54c38.667 0 68 8.33301 88 25s30 41 30 73c0 32.667 -10.667 56.667 -32 72s-55 23 -101 23zM862 1165c116 0 204.5 -20.333 265.5 -61s91.5 -100 91.5 -178c0 -52 -14.333 -97 -43 -135s-69 -66 -121 -84l178 -355h-279l-145 312h-25v-312h-256v813
h334zM1452 743c0 80 -15.001 156.33 -45.001 228.997s-73 137 -129 193c-58 58 -122.833 101.833 -194.5 131.5s-148.167 44.5 -229.5 44.5c-82 0 -158.667 -14.5 -230 -43.5s-134.666 -71.833 -189.999 -128.5c-57.333 -58 -101.333 -123.667 -132 -197
s-46 -149.666 -46 -228.999s15.167 -155.166 45.5 -227.499s73.833 -136.833 130.5 -193.5c57.333 -57.333 122 -101.166 194 -131.499s148 -45.5 228 -45.5c79.333 0 155.5 15.333 228.5 46s138.833 75 197.5 133c56.667 55.333 99.5 118.5 128.5 189.5
s43.5 147.5 43.5 229.5zM851.999 1493c103.333 0 200.834 -18.666 292.501 -55.999s173.167 -91.666 244.5 -162.999c69.333 -70 122.833 -151 160.5 -243s56.5 -188.667 56.5 -290c0 -102.667 -18.5 -198.834 -55.5 -288.501s-90.833 -168.834 -161.5 -237.501
c-74 -72 -157.333 -127.5 -250 -166.5s-188.334 -58.5 -287.001 -58.5c-99.333 0 -194 19 -284 57s-171.333 93.333 -244 166c-72 71.333 -127 152.333 -165 243s-57 185.667 -57 285c0 100.667 19.167 197 57.5 289s93.833 174.667 166.5 248
c68.667 70 148 123.333 238 160s186 55 288 55z" />
    <glyph glyph-name="macron" unicode="&#xaf;" horiz-adv-x="1024" 
d="M41 1319v270h942v-270h-942z" />
    <glyph glyph-name="degree" unicode="&#xb0;" horiz-adv-x="674" 
d="M489 1151c0 41.333 -15.001 77 -45.001 107s-66 45 -108 45c-41.333 0 -76.666 -14.833 -105.999 -44.5s-44 -65.5 -44 -107.5c0 -42.667 14.667 -79 44 -109s65.333 -45 108 -45c41.333 0 76.833 15.333 106.5 46s44.5 66.667 44.5 108zM337.999 1473
c89.333 0 165.166 -31.499 227.499 -94.499s93.5 -139.5 93.5 -229.5c0 -88 -31.5 -163.667 -94.5 -227s-139.167 -95 -228.5 -95s-165.333 31.167 -228 93.5s-94 138.5 -94 228.5c0 89.333 31.833 165.666 95.5 228.999s139.834 95 228.501 95z" />
    <glyph glyph-name="plusminus" unicode="&#xb1;" 
d="M1452 231v-272h-1198v272h1198zM993 1262v-310h459v-272h-459v-309h-280v309h-459v272h459v310h280z" />
    <glyph glyph-name="twosuperior" unicode="&#xb2;" horiz-adv-x="1292" 
d="M25 575c6.66699 138.667 46.501 244.999 119.501 318.999s192.833 129 359.5 165l141 28c128.667 24 193 53 193 87c0 22.667 -13.833 39.834 -41.5 51.501s-67.834 17.5 -120.501 17.5c-72 0 -124.833 -9.33301 -158.5 -28s-50.5 -48.334 -50.5 -89.001v-2h-408
c5.33301 113.333 56.5 198 153.5 254s241.167 84 432.5 84c195.333 0 342.5 -23.667 441.5 -71s148.5 -117.666 148.5 -210.999c0 -72 -24.5 -128.5 -73.5 -169.5s-131.833 -73.5 -248.5 -97.5c-42 -8 -100.333 -18 -175 -30c-163.333 -26 -264 -55.333 -302 -88h778v-220
h-1189z" />
    <glyph glyph-name="threesuperior" unicode="&#xb3;" horiz-adv-x="1292" 
d="M37 868l393.001 0.00195312c10 -30 32.333 -52.167 67 -66.5s84 -21.5 148 -21.5c66 0 114.667 6.16699 146 18.5s47 31.5 47 57.5c0 27.333 -13 46.5 -39 57.5s-73.333 16.5 -142 16.5h-208v205h194c69.333 0 115 4.16699 137 12.5s33 23.166 33 44.499
s-14.833 37.5 -44.5 48.5s-73.5 16.5 -131.5 16.5c-46.667 0 -82.334 -3.66699 -107.001 -11s-39.667 -19.333 -45 -36h-411c6.66699 88 54.334 152 143.001 192s226.667 60 414 60c202.667 0 350.5 -19.167 443.5 -57.5s139.5 -98.833 139.5 -181.5
c0 -48 -14 -86.833 -42 -116.5s-69.667 -49.5 -125 -59.5c65.333 -12.667 114.333 -35.834 147 -69.501s49 -78.167 49 -133.5c0 -97.333 -48.833 -169.833 -146.5 -217.5s-246.834 -71.5 -447.501 -71.5c-210 0 -363 24.833 -459 74.5s-147 129.167 -153 238.5z" />
    <glyph glyph-name="acute" unicode="&#xb4;" horiz-adv-x="1024" 
d="M252 1298l188 314h602l-303 -314h-487z" />
    <glyph glyph-name="mu" unicode="&#xb5;" horiz-adv-x="1372" 
d="M602 1087l-83.999 -614.002l-3 -33.5c-0.666992 -7.66699 -1 -14.167 -1 -19.5c0 -45.333 10.5 -78.833 31.5 -100.5s52.833 -32.5 95.5 -32.5c52.667 0 94 17.333 124 52s50 88.334 60 161.001l84 587h418l-158 -1087h-368l18 131
c-24 -45.333 -51.5 -79.166 -82.5 -101.499s-66.167 -33.5 -105.5 -33.5c-40.667 0 -75.834 10.5 -105.501 31.5s-53.167 52.167 -70.5 93.5l-72 -543h-412l209 1509h422z" />
    <glyph glyph-name="paragraph" unicode="&#xb6;" horiz-adv-x="1024" 
d="M1014 1337l-101 0.000976562v-1337h-202v1337h-140v-1337h-202v784c-108.667 5.33301 -195.667 39.666 -261 102.999s-98 144.333 -98 243c0 104.667 35.5 189 106.5 253s165.167 96 282.5 96h615v-142z" />
    <glyph glyph-name="periodcentered" unicode="&#xb7;" horiz-adv-x="979" 
d="M201 721c0 80.667 27.833 149 83.5 205s123.834 84 204.501 84c81.333 0 149.833 -28 205.5 -84s83.5 -124.333 83.5 -205s-27.833 -149 -83.5 -205s-124.167 -84 -205.5 -84c-80.667 0 -148.834 28 -204.501 84s-83.5 124.333 -83.5 205z" />
    <glyph glyph-name="cedilla" unicode="&#xb8;" horiz-adv-x="1024" 
d="M463 0l148.997 -0.00195312l-90 -127c24.667 5.33301 46.667 9.33301 66 12s37 4 53 4c62.667 0 111.834 -16 147.501 -48s53.5 -76 53.5 -132c0 -63.333 -24 -111.166 -72 -143.499s-119 -48.5 -213 -48.5c-48.667 0 -103.334 6.33301 -164.001 19
s-126.667 31.334 -198 56.001l47 109c48.667 -18 92.834 -31.667 132.501 -41s71.834 -14 96.501 -14c30.667 0 54.667 6.5 72 19.5s26 30.833 26 53.5c0 14.667 -6.66699 28 -20 40s-28.333 18 -45 18c-11.333 0 -22.666 -2 -33.999 -6s-23.333 -10.333 -36 -19l-78 51z
" />
    <glyph glyph-name="onesuperior" unicode="&#xb9;" horiz-adv-x="1292" 
d="M516 575l0.000976562 560.001c-31.333 -9.33301 -62 -16.666 -92 -21.999s-60.667 -9 -92 -11v219c59.333 9.33301 109.666 23.666 150.999 42.999s75 44.666 101 75.999h270v-865h-338z" />
    <glyph glyph-name="ordmasculine" unicode="&#xba;" horiz-adv-x="1300" 
d="M453 1077c0 -55.333 17.667 -99.167 53 -131.5s83 -48.5 143 -48.5c61.333 0 109.833 16.167 145.5 48.5s53.5 76.166 53.5 131.499c0 56 -17.833 100 -53.5 132s-84.167 48 -145.5 48c-60 0 -107.667 -16.167 -143 -48.5s-53 -76.166 -53 -131.499zM47 1077
c0 136.667 52.5 242.167 157.5 316.5s253.833 111.5 446.5 111.5s341.5 -37.167 446.5 -111.5s157.5 -179.833 157.5 -316.5c0 -136 -52.5 -241.333 -157.5 -316s-253.833 -112 -446.5 -112s-341.5 37.333 -446.5 112s-157.5 180 -157.5 316z" />
    <glyph glyph-name="guillemotright" unicode="&#xbb;" horiz-adv-x="1395" 
d="M1262 436l-504 -397v416l162 118l-162 119v416l504 -397v-275zM645 436l-504 -397v416l162 118l-162 119v416l504 -397v-275z" />
    <glyph glyph-name="onequarter" unicode="&#xbc;" horiz-adv-x="2941" 
d="M2413 322v301l-332 -301h332zM2408 0v127h-655v209l520 471h457v-481h164v-199h-164v-127h-322zM748 -39l1208 1518h237l-1210 -1518h-235zM494 633v521.999c-31.333 -9.33301 -61.5 -16.5 -90.5 -21.5s-57.5 -8.16699 -85.5 -9.5l-1 203
c57.333 9.33301 105.833 23.333 145.5 42s71.167 42.334 94.5 71.001h258v-807h-321z" />
    <glyph glyph-name="onehalf" unicode="&#xbd;" horiz-adv-x="2941" 
d="M1729 0c6.66699 129.333 45 228.667 115 298s184.333 121 343 155c33.333 6.66699 77.333 15 132 25c124 22 186 49 186 81c0 21.333 -13.167 37.666 -39.5 48.999s-64.5 17 -114.5 17c-68 0 -118.167 -9 -150.5 -27s-48.5 -46 -48.5 -84v-2h-389
c5.33301 105.333 54.333 184.166 147 236.499s230 78.5 412 78.5c186.667 0 327 -22 421 -66s141 -110 141 -198c0 -67.333 -23.667 -120.166 -71 -158.499s-126.333 -68.166 -237 -89.499c-41.333 -8 -98.666 -18 -172 -30c-153.333 -24 -247.333 -50.667 -282 -80h743
v-205h-1136zM748 -38.999l1208 1518h237l-1210 -1518h-235zM494 633.001v521.999c-31.333 -9.33301 -61.5 -16.5 -90.5 -21.5s-57.5 -8.16699 -85.5 -9.5l-1 203c57.333 9.33301 105.833 23.333 145.5 42s71.167 42.334 94.5 71.001h258v-807h-321z" />
    <glyph glyph-name="threequarters" unicode="&#xbe;" horiz-adv-x="2941" 
d="M2413 322v301l-332 -301h332zM2408 0v127h-655v209l520 471h457v-481h164v-199h-164v-127h-322zM748 -39l1208 1518h237l-1210 -1518h-235zM37 907l373 0.00292969c10 -28.667 31.5 -49.834 64.5 -63.501s80.167 -20.5 141.5 -20.5c62.667 0 109.167 6 139.5 18
s45.5 30 45.5 54c0 25.333 -12.667 43.333 -38 54s-70 16 -134 16h-201v190h184c66.667 0 110.667 4 132 12s32 21.667 32 41c0 20.667 -14 36.167 -42 46.5s-70 15.5 -126 15.5c-45.333 0 -79.666 -3.5 -102.999 -10.5s-37.333 -17.833 -42 -32.5h-393
c6.66699 80.667 52.5 139.667 137.5 177s216.5 56 394.5 56c192.667 0 333.667 -17.833 423 -53.5s134 -92.167 134 -169.5c0 -44.667 -13.333 -80.834 -40 -108.501s-66.667 -46.834 -120 -57.501c62 -10 108.667 -30.667 140 -62s47 -72.666 47 -123.999
c0 -92.667 -46.333 -161.334 -139 -206.001s-234.667 -67 -426 -67c-200.667 0 -346.834 23.333 -438.501 70s-140.167 121.667 -145.5 225z" />
    <glyph glyph-name="questiondown" unicode="&#xbf;" horiz-adv-x="1745" 
d="M1128 907l-0.00195312 -23.999c0 -68 -16.167 -123.167 -48.5 -165.5s-87.166 -79.5 -164.499 -111.5c-29.333 -12 -68.666 -25.333 -117.999 -40s-81.666 -26.667 -96.999 -36c-24 -14.667 -41.5 -31.334 -52.5 -50.001s-16.5 -40.667 -16.5 -66
c0 -39.333 17.833 -69.333 53.5 -90s87.5 -31 155.5 -31c89.333 0 156.666 19 201.999 57s68 94.667 68 170v10h578c0 -198 -65.667 -342.333 -197 -433s-341 -136 -629 -136c-283.333 0 -493 36.5 -629 109.5s-204 185.5 -204 337.5c0 85.333 21.833 154 65.5 206
s122.167 100.667 235.5 146c20 8 48.667 18.667 86 32c102 36 161.333 74.333 178 115h534zM1128 1481v-475h-534v475h534z" />
    <glyph glyph-name="Agrave" unicode="&#xc0;" horiz-adv-x="1849" 
d="M743 510h367l-178 520zM-59 0l641 1479h727l598 -1479h-621l-49 145h-629l-53 -145h-614zM717 1630l-303 314h602l188 -314h-487z" />
    <glyph glyph-name="Aacute" unicode="&#xc1;" horiz-adv-x="1849" 
d="M743 510h367l-178 520zM-59 0l641 1479h727l598 -1479h-621l-49 145h-629l-53 -145h-614zM684 1630l188 314h602l-303 -314h-487z" />
    <glyph glyph-name="Acircumflex" unicode="&#xc2;" horiz-adv-x="1849" 
d="M743 510h367l-178 520zM-59 0l641 1479h727l598 -1479h-621l-49 145h-629l-53 -145h-614zM1237 1942l315 -314h-506l-102 148l-102 -148h-506l325 314h576z" />
    <glyph glyph-name="Atilde" unicode="&#xc3;" horiz-adv-x="1849" 
d="M743 510h367l-178 520zM-59 0l641 1479h727l598 -1479h-621l-49 145h-629l-53 -145h-614zM405 1632c12.667 103.333 45.834 182.165 99.501 236.498s125.167 81.5 214.5 81.5c64 0 134 -12.667 210 -38s122 -38 138 -38c24.667 0 44.5 6.83301 59.5 20.5
s23.167 32.167 24.5 55.5h332c-12.667 -103.333 -45.834 -182.166 -99.501 -236.499s-125.167 -81.5 -214.5 -81.5c-64 0 -134 12.667 -210 38s-122 38 -138 38c-24.667 0 -44.5 -6.66699 -59.5 -20s-23.167 -31.666 -24.5 -54.999z" />
    <glyph glyph-name="Adieresis" unicode="&#xc4;" horiz-adv-x="1849" 
d="M743 510h367l-178 520zM-59 0l641 1479h727l598 -1479h-621l-49 145h-629l-53 -145h-614zM1007 1641v290h408v-290h-408zM471 1641v290h407v-290h-407z" />
    <glyph glyph-name="Aring" unicode="&#xc5;" horiz-adv-x="1849" 
d="M825 1747c0 -27.333 8.83301 -49.168 26.5 -65.501s41.167 -24.5 70.5 -24.5s53.333 8.33301 72 25s28 38.334 28 65.001s-9.16699 48 -27.5 64s-42.5 24 -72.5 24s-53.667 -7.83301 -71 -23.5s-26 -37.167 -26 -64.5zM621 1747c0 70 26.834 125 80.501 165
s127.834 60 222.501 60c94 0 168 -20 222 -60s81 -95 81 -165c0 -70.667 -26.833 -126.167 -80.5 -166.5s-127.834 -60.5 -222.501 -60.5s-168.834 20.333 -222.501 61s-80.5 96 -80.5 166zM743.001 509.998h367l-178 520zM-58.999 -0.00195312l632 1454h744l590 -1454h-621
l-49 145h-629l-53 -145h-614z" />
    <glyph glyph-name="AE" unicode="&#xc6;" horiz-adv-x="2726" 
d="M-160 0l926 1479h1886v-363h-993v-176h807v-365h-807v-194h1044v-381h-1599v250h-563l-140 -250h-561zM731 596h373v543h-66z" />
    <glyph glyph-name="Ccedilla" unicode="&#xc7;" horiz-adv-x="2105" 
d="M1395 858c-9.33301 91.333 -41.666 161.003 -96.999 209.003s-131 72 -227 72c-122.667 0 -216.5 -34.333 -281.5 -103s-97.5 -167.667 -97.5 -297c0 -128.667 32.5 -227 97.5 -295s158.833 -102 281.5 -102c88.667 0 160.167 20.167 214.5 60.5
s90.166 100.166 107.499 179.499h661c-30 -204.667 -128.167 -359.334 -294.5 -464.001s-395.833 -157 -688.5 -157c-328.667 0 -576.667 65.5 -744 196.5s-251 324.833 -251 581.5c0 257.333 83.667 451.5 251 582.5s415.333 196.5 744 196.5
c306.667 0 544 -56.833 712 -170.5s257 -276.834 267 -489.501h-655zM1114 0.00292969l148.997 -0.00195312l-90 -127c24.667 5.33301 46.667 9.33301 66 12s37 4 53 4c62.667 0 111.834 -16 147.501 -48s53.5 -76 53.5 -132c0 -63.333 -24 -111.166 -72 -143.499
s-119 -48.5 -213 -48.5c-48.667 0 -103.334 6.33301 -164.001 19s-126.667 31.334 -198 56.001l47 109c48.667 -18 92.834 -31.667 132.501 -41s71.834 -14 96.501 -14c30.667 0 54.667 6.5 72 19.5s26 30.833 26 53.5c0 14.667 -6.66699 28 -20 40s-28.333 18 -45 18
c-11.333 0 -22.666 -2 -33.999 -6s-23.333 -10.333 -36 -19l-78 51z" />
    <glyph glyph-name="Egrave" unicode="&#xc8;" horiz-adv-x="1800" 
d="M162 0v1479h1567v-363h-994v-176h805v-365h-805v-194h1043v-381h-1616zM717 1630l-303 314h602l188 -314h-487z" />
    <glyph glyph-name="Eacute" unicode="&#xc9;" horiz-adv-x="1800" 
d="M162 0v1479h1567v-363h-994v-176h805v-365h-805v-194h1043v-381h-1616zM684 1630l188 314h602l-303 -314h-487z" />
    <glyph glyph-name="Ecircumflex" unicode="&#xca;" horiz-adv-x="1800" 
d="M162 0v1479h1567v-363h-994v-176h805v-365h-805v-194h1043v-381h-1616zM1237 1942l315 -314h-506l-102 148l-102 -148h-506l325 314h576z" />
    <glyph glyph-name="Edieresis" unicode="&#xcb;" horiz-adv-x="1800" 
d="M162 0v1479h1567v-363h-994v-176h805v-365h-805v-194h1043v-381h-1616zM1007 1641v290h408v-290h-408zM471 1641v290h407v-290h-407z" />
    <glyph glyph-name="Igrave" unicode="&#xcc;" horiz-adv-x="895" 
d="M162 0v1479h573v-1479h-573zM222 1630l-303 314h602l188 -314h-487z" />
    <glyph glyph-name="Iacute" unicode="&#xcd;" horiz-adv-x="895" 
d="M162 0v1479h573v-1479h-573zM189 1630l188 314h602l-303 -314h-487z" />
    <glyph glyph-name="Icircumflex" unicode="&#xce;" horiz-adv-x="895" 
d="M162 0v1479h573v-1479h-573zM742 1942l315 -314h-506l-102 148l-102 -148h-506l325 314h576z" />
    <glyph glyph-name="Idieresis" unicode="&#xcf;" horiz-adv-x="895" 
d="M162 0v1479h573v-1479h-573zM512 1641v290h408v-290h-408zM-24 1641v290h407v-290h-407z" />
    <glyph glyph-name="Eth" unicode="&#xd0;" horiz-adv-x="2142" 
d="M743 1114l0.000976562 -230.999h342v-238h-342v-252h287c148 0 254 28 318 84s96 148.333 96 277c0 127.333 -32.333 219.166 -97 275.499s-170.334 84.5 -317.001 84.5h-287zM170.001 1481h950c306.667 0 540 -63.167 700 -189.5s240 -310.5 240 -552.5
c0 -241.333 -79.667 -424.833 -239 -550.5s-393 -188.5 -701 -188.5h-950v645h-160v238h160v598z" />
    <glyph glyph-name="Ntilde" unicode="&#xd1;" horiz-adv-x="2126" 
d="M160 0v1479h678l571 -852v852h555v-1479h-643l-621 866v-866h-540zM524 1632c12.667 103.333 45.834 182.165 99.501 236.498s125.167 81.5 214.5 81.5c64 0 134 -12.667 210 -38s122 -38 138 -38c24.667 0 44.5 6.83301 59.5 20.5s23.167 32.167 24.5 55.5h332
c-12.667 -103.333 -45.834 -182.166 -99.501 -236.499s-125.167 -81.5 -214.5 -81.5c-64 0 -134 12.667 -210 38s-122 38 -138 38c-24.667 0 -44.5 -6.66699 -59.5 -20s-23.167 -31.666 -24.5 -54.999z" />
    <glyph glyph-name="Ograve" unicode="&#xd2;" horiz-adv-x="2142" 
d="M692 739c0 -128.667 32.5 -227 97.5 -295s158.833 -102 281.5 -102s216.5 34 281.5 102s97.5 166.333 97.5 295c0 129.333 -32.5 228.333 -97.5 297s-158.833 103 -281.5 103s-216.5 -34.333 -281.5 -103s-97.5 -167.667 -97.5 -297zM76 739
c0 257.333 83.667 451.5 251 582.5s415.333 196.5 744 196.5s576.667 -65.5 744 -196.5s251 -325.167 251 -582.5c0 -256.667 -83.667 -450.5 -251 -581.5s-415.333 -196.5 -744 -196.5s-576.667 65.5 -744 196.5s-251 324.833 -251 581.5zM844 1630l-303 314h602l188 -314
h-487z" />
    <glyph glyph-name="Oacute" unicode="&#xd3;" horiz-adv-x="2142" 
d="M692 739c0 -128.667 32.5 -227 97.5 -295s158.833 -102 281.5 -102s216.5 34 281.5 102s97.5 166.333 97.5 295c0 129.333 -32.5 228.333 -97.5 297s-158.833 103 -281.5 103s-216.5 -34.333 -281.5 -103s-97.5 -167.667 -97.5 -297zM76 739
c0 257.333 83.667 451.5 251 582.5s415.333 196.5 744 196.5s576.667 -65.5 744 -196.5s251 -325.167 251 -582.5c0 -256.667 -83.667 -450.5 -251 -581.5s-415.333 -196.5 -744 -196.5s-576.667 65.5 -744 196.5s-251 324.833 -251 581.5zM811 1630l188 314h602l-303 -314
h-487z" />
    <glyph glyph-name="Ocircumflex" unicode="&#xd4;" horiz-adv-x="2142" 
d="M692 739c0 -128.667 32.5 -227 97.5 -295s158.833 -102 281.5 -102s216.5 34 281.5 102s97.5 166.333 97.5 295c0 129.333 -32.5 228.333 -97.5 297s-158.833 103 -281.5 103s-216.5 -34.333 -281.5 -103s-97.5 -167.667 -97.5 -297zM76 739
c0 257.333 83.667 451.5 251 582.5s415.333 196.5 744 196.5s576.667 -65.5 744 -196.5s251 -325.167 251 -582.5c0 -256.667 -83.667 -450.5 -251 -581.5s-415.333 -196.5 -744 -196.5s-576.667 65.5 -744 196.5s-251 324.833 -251 581.5zM1364 1942l315 -314h-506
l-102 148l-102 -148h-506l325 314h576z" />
    <glyph glyph-name="Otilde" unicode="&#xd5;" horiz-adv-x="2142" 
d="M692 739c0 -128.667 32.5 -227 97.5 -295s158.833 -102 281.5 -102s216.5 34 281.5 102s97.5 166.333 97.5 295c0 129.333 -32.5 228.333 -97.5 297s-158.833 103 -281.5 103s-216.5 -34.333 -281.5 -103s-97.5 -167.667 -97.5 -297zM76 739
c0 257.333 83.667 451.5 251 582.5s415.333 196.5 744 196.5s576.667 -65.5 744 -196.5s251 -325.167 251 -582.5c0 -256.667 -83.667 -450.5 -251 -581.5s-415.333 -196.5 -744 -196.5s-576.667 65.5 -744 196.5s-251 324.833 -251 581.5zM532 1632
c12.667 103.333 45.834 182.165 99.501 236.498s125.167 81.5 214.5 81.5c64 0 134 -12.667 210 -38s122 -38 138 -38c24.667 0 44.5 6.83301 59.5 20.5s23.167 32.167 24.5 55.5h332c-12.667 -103.333 -45.834 -182.166 -99.501 -236.499s-125.167 -81.5 -214.5 -81.5
c-64 0 -134 12.667 -210 38s-122 38 -138 38c-24.667 0 -44.5 -6.66699 -59.5 -20s-23.167 -31.666 -24.5 -54.999z" />
    <glyph glyph-name="Odieresis" unicode="&#xd6;" horiz-adv-x="2142" 
d="M692 739c0 -128.667 32.5 -227 97.5 -295s158.833 -102 281.5 -102s216.5 34 281.5 102s97.5 166.333 97.5 295c0 129.333 -32.5 228.333 -97.5 297s-158.833 103 -281.5 103s-216.5 -34.333 -281.5 -103s-97.5 -167.667 -97.5 -297zM76 739
c0 257.333 83.667 451.5 251 582.5s415.333 196.5 744 196.5s576.667 -65.5 744 -196.5s251 -325.167 251 -582.5c0 -256.667 -83.667 -450.5 -251 -581.5s-415.333 -196.5 -744 -196.5s-576.667 65.5 -744 196.5s-251 324.833 -251 581.5zM1134 1641v290h408v-290h-408z
M598 1641v290h407v-290h-407z" />
    <glyph glyph-name="multiply" unicode="&#xd7;" 
d="M874 805l426 426l195 -195l-426 -426l426 -426l-195 -194l-426 426l-425 -426l-195 194l426 426l-426 426l195 195z" />
    <glyph glyph-name="Oslash" unicode="&#xd8;" horiz-adv-x="2142" 
d="M717 565l604 502c-29.333 24 -64.5 42 -105.5 54s-89.167 18 -144.5 18c-121.333 0 -214.833 -33.833 -280.5 -101.5s-98.5 -164.167 -98.5 -289.5c0 -27.333 2 -56 6 -86s10.333 -62.333 19 -97zM1423 907l-594 -499c30.667 -22.667 65.334 -39.334 104.001 -50.001
s84.667 -16 138 -16c123.333 0 217.666 34.667 282.999 104s98 170 98 302c0 30 -2.33301 58.333 -7 85s-12 51.334 -22 74.001zM281 201c-69.333 64 -120.832 140.334 -154.499 229.001s-50.5 191.667 -50.5 309c0 257.333 83.667 451.5 251 582.5s415.333 196.5 744 196.5
c139.333 0 262 -10.667 368 -32s195 -53 267 -95l205 170l123 -142l-170 -143c68.667 -64.667 119.5 -141 152.5 -229s49.5 -190.667 49.5 -308c0 -256.667 -83.667 -450.5 -251 -581.5s-415.333 -196.5 -744 -196.5c-134 0 -252.833 10.167 -356.5 30.5
s-193.834 51.166 -270.501 92.499l-243 -207l-125 148z" />
    <glyph glyph-name="Ugrave" unicode="&#xd9;" horiz-adv-x="2071" 
d="M735 1479l0.000976562 -722.998c0 -148.667 22.5 -251.834 67.5 -309.501s122.833 -86.5 233.5 -86.5s188.167 28.667 232.5 86s66.5 160.666 66.5 309.999v723h574v-777c0 -256.667 -69.833 -444.667 -209.5 -564s-360.834 -179 -663.501 -179
c-300.667 0 -521.5 60 -662.5 180s-211.5 307.667 -211.5 563v777h573zM809.001 1630l-303 314h602l188 -314h-487z" />
    <glyph glyph-name="Uacute" unicode="&#xda;" horiz-adv-x="2071" 
d="M735 1479l0.000976562 -722.998c0 -148.667 22.5 -251.834 67.5 -309.501s122.833 -86.5 233.5 -86.5s188.167 28.667 232.5 86s66.5 160.666 66.5 309.999v723h574v-777c0 -256.667 -69.833 -444.667 -209.5 -564s-360.834 -179 -663.501 -179
c-300.667 0 -521.5 60 -662.5 180s-211.5 307.667 -211.5 563v777h573zM776.001 1630l188 314h602l-303 -314h-487z" />
    <glyph glyph-name="Ucircumflex" unicode="&#xdb;" horiz-adv-x="2071" 
d="M735 1479l0.000976562 -722.998c0 -148.667 22.5 -251.834 67.5 -309.501s122.833 -86.5 233.5 -86.5s188.167 28.667 232.5 86s66.5 160.666 66.5 309.999v723h574v-777c0 -256.667 -69.833 -444.667 -209.5 -564s-360.834 -179 -663.501 -179
c-300.667 0 -521.5 60 -662.5 180s-211.5 307.667 -211.5 563v777h573zM1329 1942l315 -314h-506l-102 148l-102 -148h-506l325 314h576z" />
    <glyph glyph-name="Udieresis" unicode="&#xdc;" horiz-adv-x="2071" 
d="M735 1479l0.000976562 -722.998c0 -148.667 22.5 -251.834 67.5 -309.501s122.833 -86.5 233.5 -86.5s188.167 28.667 232.5 86s66.5 160.666 66.5 309.999v723h574v-777c0 -256.667 -69.833 -444.667 -209.5 -564s-360.834 -179 -663.501 -179
c-300.667 0 -521.5 60 -662.5 180s-211.5 307.667 -211.5 563v777h573zM1099 1641v290h408v-290h-408zM563.001 1641v290h407v-290h-407z" />
    <glyph glyph-name="Yacute" unicode="&#xdd;" 
d="M561 0v418l-649 1061h674l266 -609l283 609h659l-659 -1061v-418h-574zM594 1630l188 314h602l-303 -314h-487z" />
    <glyph glyph-name="Thorn" unicode="&#xde;" horiz-adv-x="1956" 
d="M1049 596c93.333 0 157.833 11.999 193.5 35.999s53.5 65.333 53.5 124s-17.833 99.834 -53.5 123.501s-100.167 35.5 -193.5 35.5h-314v-319h314zM162 -0.000976562v1479h573v-246h533c209.333 0 370.833 -41.833 484.5 -125.5s170.5 -201.5 170.5 -353.5
c0 -152.667 -56.833 -270.834 -170.5 -354.501s-275.167 -125.5 -484.5 -125.5h-533v-274h-573z" />
    <glyph glyph-name="germandbls" unicode="&#xdf;" horiz-adv-x="1866" 
d="M135 0l0.000976562 946.001c0 122.667 15 217 45 283s81.333 124 154 174c58.667 40.667 141 71.667 247 93s232.667 32 380 32c256 0 443.833 -32.333 563.5 -97s179.5 -165.667 179.5 -303c0 -68 -15.667 -124 -47 -168s-79.333 -77.333 -144 -100
c92 -21.333 161.833 -64.833 209.5 -130.5s71.5 -150.5 71.5 -254.5c0 -168 -57.333 -294 -172 -378s-286.667 -126 -516 -126c-60 0 -118.833 4 -176.5 12s-113.5 19.667 -167.5 35v359c45.333 -10 87 -17.333 125 -22s74 -7 108 -7c84 0 146.667 13.5 188 40.5
s62 68.167 62 123.5c0 63.333 -25.167 107.166 -75.5 131.499s-149.5 36.5 -297.5 36.5h-63v270h94c84 0 143.667 9.16699 179 27.5s53 48.833 53 91.5c0 39.333 -15 68.333 -45 87s-77.333 28 -142 28c-59.333 0 -108.833 -5.5 -148.5 -16.5s-69.834 -27.5 -90.501 -49.5
c-22 -23.333 -37.5 -57.5 -46.5 -102.5s-13.5 -115.833 -13.5 -212.5v-803h-514z" />
    <glyph glyph-name="agrave" unicode="&#xe0;" horiz-adv-x="1825" 
d="M1177 534c-53.333 -26.667 -144.667 -44.333 -274 -53c-37.333 -2 -66 -4 -86 -6c-75.333 -6.66699 -126.5 -17.667 -153.5 -33s-40.5 -39 -40.5 -71c0 -36 16.167 -63.833 48.5 -83.5s78.166 -29.5 137.499 -29.5c112.667 0 202.667 22.667 270 68s101 105.333 101 180
c0 8 -0.166992 13.833 -0.5 17.5s-1.16602 7.16699 -2.49902 10.5zM1179 157.001c-64 -67.333 -141.169 -116.499 -231.502 -147.499s-204.833 -46.5 -343.5 -46.5c-187.333 0 -328 31.333 -422 94s-141 157 -141 283c0 41.333 5.33301 79.5 16 114.5s25.667 65.167 45 90.5
c39.333 48.667 91.833 84.834 157.5 108.501s189.5 41.5 371.5 53.5c60 4 138 7.66699 234 11c193.333 8 290 35 290 81c0 31.333 -20.333 56.5 -61 75.5s-96 28.5 -166 28.5c-90.667 0 -155.334 -8.66699 -194.001 -26s-61.334 -47 -68.001 -89h-529
c10.667 139.333 75.834 239.166 195.501 299.499s316.834 90.5 591.501 90.5c150 0 276.333 -10.5 379 -31.5s180.334 -52.167 233.001 -93.5c57.333 -44.667 98 -98.5 122 -161.5s36 -153.167 36 -270.5v-443c0 -42.667 3.83301 -75.5 11.5 -98.5
s20.834 -41.167 39.501 -54.5v-25h-533c-9.33301 22.667 -16.833 47.167 -22.5 73.5s-9.16699 54.166 -10.5 83.499zM706.997 1298l-303 314h602l188 -314h-487z" />
    <glyph glyph-name="aacute" unicode="&#xe1;" horiz-adv-x="1825" 
d="M1177 534c-53.333 -26.667 -144.667 -44.333 -274 -53c-37.333 -2 -66 -4 -86 -6c-75.333 -6.66699 -126.5 -17.667 -153.5 -33s-40.5 -39 -40.5 -71c0 -36 16.167 -63.833 48.5 -83.5s78.166 -29.5 137.499 -29.5c112.667 0 202.667 22.667 270 68s101 105.333 101 180
c0 8 -0.166992 13.833 -0.5 17.5s-1.16602 7.16699 -2.49902 10.5zM1179 157.001c-64 -67.333 -141.169 -116.499 -231.502 -147.499s-204.833 -46.5 -343.5 -46.5c-187.333 0 -328 31.333 -422 94s-141 157 -141 283c0 41.333 5.33301 79.5 16 114.5s25.667 65.167 45 90.5
c39.333 48.667 91.833 84.834 157.5 108.501s189.5 41.5 371.5 53.5c60 4 138 7.66699 234 11c193.333 8 290 35 290 81c0 31.333 -20.333 56.5 -61 75.5s-96 28.5 -166 28.5c-90.667 0 -155.334 -8.66699 -194.001 -26s-61.334 -47 -68.001 -89h-529
c10.667 139.333 75.834 239.166 195.501 299.499s316.834 90.5 591.501 90.5c150 0 276.333 -10.5 379 -31.5s180.334 -52.167 233.001 -93.5c57.333 -44.667 98 -98.5 122 -161.5s36 -153.167 36 -270.5v-443c0 -42.667 3.83301 -75.5 11.5 -98.5
s20.834 -41.167 39.501 -54.5v-25h-533c-9.33301 22.667 -16.833 47.167 -22.5 73.5s-9.16699 54.166 -10.5 83.499zM673.997 1298l188 314h602l-303 -314h-487z" />
    <glyph glyph-name="acircumflex" unicode="&#xe2;" horiz-adv-x="1825" 
d="M1177 534c-53.333 -26.667 -144.667 -44.333 -274 -53c-37.333 -2 -66 -4 -86 -6c-75.333 -6.66699 -126.5 -17.667 -153.5 -33s-40.5 -39 -40.5 -71c0 -36 16.167 -63.833 48.5 -83.5s78.166 -29.5 137.499 -29.5c112.667 0 202.667 22.667 270 68s101 105.333 101 180
c0 8 -0.166992 13.833 -0.5 17.5s-1.16602 7.16699 -2.49902 10.5zM1179 157.001c-64 -67.333 -141.169 -116.499 -231.502 -147.499s-204.833 -46.5 -343.5 -46.5c-187.333 0 -328 31.333 -422 94s-141 157 -141 283c0 41.333 5.33301 79.5 16 114.5s25.667 65.167 45 90.5
c39.333 48.667 91.833 84.834 157.5 108.501s189.5 41.5 371.5 53.5c60 4 138 7.66699 234 11c193.333 8 290 35 290 81c0 31.333 -20.333 56.5 -61 75.5s-96 28.5 -166 28.5c-90.667 0 -155.334 -8.66699 -194.001 -26s-61.334 -47 -68.001 -89h-529
c10.667 139.333 75.834 239.166 195.501 299.499s316.834 90.5 591.501 90.5c150 0 276.333 -10.5 379 -31.5s180.334 -52.167 233.001 -93.5c57.333 -44.667 98 -98.5 122 -161.5s36 -153.167 36 -270.5v-443c0 -42.667 3.83301 -75.5 11.5 -98.5
s20.834 -41.167 39.501 -54.5v-25h-533c-9.33301 22.667 -16.833 47.167 -22.5 73.5s-9.16699 54.166 -10.5 83.499zM1227 1610l315 -314h-506l-102 148l-102 -148h-506l325 314h576z" />
    <glyph glyph-name="atilde" unicode="&#xe3;" horiz-adv-x="1825" 
d="M1177 534c-53.333 -26.667 -144.667 -44.333 -274 -53c-37.333 -2 -66 -4 -86 -6c-75.333 -6.66699 -126.5 -17.667 -153.5 -33s-40.5 -39 -40.5 -71c0 -36 16.167 -63.833 48.5 -83.5s78.166 -29.5 137.499 -29.5c112.667 0 202.667 22.667 270 68s101 105.333 101 180
c0 8 -0.166992 13.833 -0.5 17.5s-1.16602 7.16699 -2.49902 10.5zM1179 157.001c-64 -67.333 -141.169 -116.499 -231.502 -147.499s-204.833 -46.5 -343.5 -46.5c-187.333 0 -328 31.333 -422 94s-141 157 -141 283c0 41.333 5.33301 79.5 16 114.5s25.667 65.167 45 90.5
c39.333 48.667 91.833 84.834 157.5 108.501s189.5 41.5 371.5 53.5c60 4 138 7.66699 234 11c193.333 8 290 35 290 81c0 31.333 -20.333 56.5 -61 75.5s-96 28.5 -166 28.5c-90.667 0 -155.334 -8.66699 -194.001 -26s-61.334 -47 -68.001 -89h-529
c10.667 139.333 75.834 239.166 195.501 299.499s316.834 90.5 591.501 90.5c150 0 276.333 -10.5 379 -31.5s180.334 -52.167 233.001 -93.5c57.333 -44.667 98 -98.5 122 -161.5s36 -153.167 36 -270.5v-443c0 -42.667 3.83301 -75.5 11.5 -98.5
s20.834 -41.167 39.501 -54.5v-25h-533c-9.33301 22.667 -16.833 47.167 -22.5 73.5s-9.16699 54.166 -10.5 83.499zM394.997 1300c12.667 103.333 45.834 182.165 99.501 236.498s125.167 81.5 214.5 81.5c64 0 134 -12.667 210 -38s122 -38 138 -38
c24.667 0 44.5 6.83301 59.5 20.5s23.167 32.167 24.5 55.5h332c-12.667 -103.333 -45.834 -182.166 -99.501 -236.499s-125.167 -81.5 -214.5 -81.5c-64 0 -134 12.667 -210 38s-122 38 -138 38c-24.667 0 -44.5 -6.66699 -59.5 -20s-23.167 -31.666 -24.5 -54.999z" />
    <glyph glyph-name="adieresis" unicode="&#xe4;" horiz-adv-x="1825" 
d="M1177 534c-53.333 -26.667 -144.667 -44.333 -274 -53c-37.333 -2 -66 -4 -86 -6c-75.333 -6.66699 -126.5 -17.667 -153.5 -33s-40.5 -39 -40.5 -71c0 -36 16.167 -63.833 48.5 -83.5s78.166 -29.5 137.499 -29.5c112.667 0 202.667 22.667 270 68s101 105.333 101 180
c0 8 -0.166992 13.833 -0.5 17.5s-1.16602 7.16699 -2.49902 10.5zM1179 157.001c-64 -67.333 -141.169 -116.499 -231.502 -147.499s-204.833 -46.5 -343.5 -46.5c-187.333 0 -328 31.333 -422 94s-141 157 -141 283c0 41.333 5.33301 79.5 16 114.5s25.667 65.167 45 90.5
c39.333 48.667 91.833 84.834 157.5 108.501s189.5 41.5 371.5 53.5c60 4 138 7.66699 234 11c193.333 8 290 35 290 81c0 31.333 -20.333 56.5 -61 75.5s-96 28.5 -166 28.5c-90.667 0 -155.334 -8.66699 -194.001 -26s-61.334 -47 -68.001 -89h-529
c10.667 139.333 75.834 239.166 195.501 299.499s316.834 90.5 591.501 90.5c150 0 276.333 -10.5 379 -31.5s180.334 -52.167 233.001 -93.5c57.333 -44.667 98 -98.5 122 -161.5s36 -153.167 36 -270.5v-443c0 -42.667 3.83301 -75.5 11.5 -98.5
s20.834 -41.167 39.501 -54.5v-25h-533c-9.33301 22.667 -16.833 47.167 -22.5 73.5s-9.16699 54.166 -10.5 83.499zM996.997 1309v290h408v-290h-408zM460.997 1309v290h407v-290h-407z" />
    <glyph glyph-name="aring" unicode="&#xe5;" horiz-adv-x="1825" 
d="M825 1470c0 -26.667 8.83301 -48.333 26.5 -65s41.167 -25 70.5 -25s53.333 8.5 72 25.5s28 38.5 28 64.5c0 27.333 -9.16699 49.333 -27.5 66s-42.5 25 -72.5 25s-53.667 -8.16699 -71 -24.5s-26 -38.5 -26 -66.5zM621 1470c0 70 26.834 125.167 80.501 165.5
s127.834 60.5 222.501 60.5c94 0 168 -20.167 222 -60.5s81 -95.5 81 -165.5c0 -70.667 -26.833 -126.167 -80.5 -166.5s-127.834 -60.5 -222.501 -60.5s-168.834 20.333 -222.501 61s-80.5 96 -80.5 166zM1177 534.001c-53.333 -26.667 -144.667 -44.333 -274 -53
c-37.333 -2 -66 -4 -86 -6c-75.333 -6.66699 -126.5 -17.667 -153.5 -33s-40.5 -39 -40.5 -71c0 -36 16.167 -63.833 48.5 -83.5s78.166 -29.5 137.499 -29.5c112.667 0 202.667 22.667 270 68s101 105.333 101 180c0 8 -0.166992 13.833 -0.5 17.5
s-1.16602 7.16699 -2.49902 10.5zM1179 157.002c-64 -67.333 -141.169 -116.499 -231.502 -147.499s-204.833 -46.5 -343.5 -46.5c-187.333 0 -328 31.333 -422 94s-141 157 -141 283c0 41.333 5.33301 79.5 16 114.5s25.667 65.167 45 90.5
c39.333 48.667 91.833 84.834 157.5 108.501s189.5 41.5 371.5 53.5c60 4 138 7.66699 234 11c193.333 8 290 35 290 81c0 31.333 -20.333 56.5 -61 75.5s-96 28.5 -166 28.5c-90.667 0 -155.334 -8.66699 -194.001 -26s-61.334 -47 -68.001 -89h-529
c10.667 139.333 75.834 239.166 195.501 299.499s316.834 90.5 591.501 90.5c150 0 276.333 -10.5 379 -31.5s180.334 -52.167 233.001 -93.5c57.333 -44.667 98 -98.5 122 -161.5s36 -153.167 36 -270.5v-443c0 -42.667 3.83301 -75.5 11.5 -98.5
s20.834 -41.167 39.501 -54.5v-25h-533c-9.33301 22.667 -16.833 47.167 -22.5 73.5s-9.16699 54.166 -10.5 83.499z" />
    <glyph glyph-name="ae" unicode="&#xe6;" horiz-adv-x="2789" 
d="M1599 700h609c-7.33301 63.333 -36.166 112.333 -86.5 147c-50.333 34.667 -117.833 52 -202.5 52c-90.667 0 -163.167 -16.833 -217.5 -50.5s-88.5 -83.167 -102.5 -148.5zM1177 534c-53.333 -26.667 -144.667 -44.333 -274 -53c-37.333 -2 -66 -4 -86 -6
c-75.333 -6.66699 -126.5 -17.667 -153.5 -33s-40.5 -39 -40.5 -71c0 -36 16.167 -63.833 48.5 -83.5s78.166 -29.5 137.499 -29.5c112.667 0 202.667 22.667 270 68s101 105.333 101 180c0 8 -0.166992 13.833 -0.5 17.5s-1.16602 7.16699 -2.49902 10.5zM1268 170.001
c-81.333 -71.333 -176.998 -123.999 -286.998 -157.999s-240.333 -51 -391 -51c-180 0 -316.5 32.167 -409.5 96.5s-139.5 158.5 -139.5 282.5c0 41.333 5.33301 79.5 16 114.5s25.667 65.167 45 90.5c39.333 48.667 91.833 84.834 157.5 108.501s189.5 41.5 371.5 53.5
c60 4 138 7.66699 234 11c193.333 8 290 35 290 81c0 31.333 -20 55.833 -60 73.5s-95.667 26.5 -167 26.5c-93.333 0 -158.833 -8.33301 -196.5 -25s-59.5 -45.334 -65.5 -86.001h-529c10 136.667 74.5 237.167 193.5 301.5s300.167 96.5 543.5 96.5
c126.667 0 230.834 -11.167 312.501 -33.5s149.167 -57.5 202.5 -105.5c59.333 46 132.833 80.667 220.5 104s189.5 35 305.5 35c262 0 463.667 -60.667 605 -182s212 -295 212 -521v-28h-1108c0 -62 26 -110 78 -144s125 -51 219 -51c62 0 113.667 7.66699 155 23
s71 37.666 89 66.999h557c-38.667 -127.333 -128.334 -224 -269 -290c-140.667 -66 -328.334 -99 -563.001 -99c-148.667 0 -276.334 17.833 -383.001 53.5s-186.334 87.5 -239.001 155.5z" />
    <glyph glyph-name="ccedilla" unicode="&#xe7;" horiz-adv-x="1767" 
d="M1702 504c-18.667 -180.667 -96.5 -316.334 -233.5 -407.001s-332.167 -136 -585.5 -136c-262 0 -464.5 53.333 -607.5 160s-214.5 257.334 -214.5 452.001c0 194 71.5 344.667 214.5 452s345.5 161 607.5 161c243.333 0 433 -41.667 569 -125s216 -207 240 -371h-549
c-20.667 52.667 -51.667 92.167 -93 118.5s-93 39.5 -155 39.5c-91.333 0 -163 -24.167 -215 -72.5s-78 -115.166 -78 -200.499c0 -82.667 25.333 -148.334 76 -197.001s119 -73 205 -73c71.333 0 131.5 17.833 180.5 53.5s79.5 84.167 91.5 145.5h547zM682 0
l148.997 -0.00195312l-90 -127c24.667 5.33301 46.667 9.33301 66 12s37 4 53 4c62.667 0 111.834 -16 147.501 -48s53.5 -76 53.5 -132c0 -63.333 -24 -111.166 -72 -143.499s-119 -48.5 -213 -48.5c-48.667 0 -103.334 6.33301 -164.001 19s-126.667 31.334 -198 56.001
l47 109c48.667 -18 92.834 -31.667 132.501 -41s71.834 -14 96.501 -14c30.667 0 54.667 6.5 72 19.5s26 30.833 26 53.5c0 14.667 -6.66699 28 -20 40s-28.333 18 -45 18c-11.333 0 -22.666 -2 -33.999 -6s-23.333 -10.333 -36 -19l-78 51z" />
    <glyph glyph-name="egrave" unicode="&#xe8;" horiz-adv-x="1776" 
d="M584 700h608c-7.33301 63.333 -36 112.333 -86 147s-117 52 -201 52c-90.667 0 -163.5 -17 -218.5 -51s-89.167 -83.333 -102.5 -148zM1708 350c-38.667 -127.333 -128.333 -224.001 -269 -290.001s-328 -99 -562 -99c-260 0 -461 53.333 -603 160
s-213 257.334 -213 452.001c0 195.333 71 346.333 213 453s343 160 603 160c276 0 485.167 -60.167 627.5 -180.5s213.5 -297.166 213.5 -530.499v-20h-1108c0 -62 26 -110 78 -144s125 -51 219 -51c62 0 113.667 7.66699 155 23s71 37.666 89 66.999h557zM662.001 1298
l-303 314h602l188 -314h-487z" />
    <glyph glyph-name="eacute" unicode="&#xe9;" horiz-adv-x="1776" 
d="M584 700h608c-7.33301 63.333 -36 112.333 -86 147s-117 52 -201 52c-90.667 0 -163.5 -17 -218.5 -51s-89.167 -83.333 -102.5 -148zM1708 350c-38.667 -127.333 -128.333 -224.001 -269 -290.001s-328 -99 -562 -99c-260 0 -461 53.333 -603 160
s-213 257.334 -213 452.001c0 195.333 71 346.333 213 453s343 160 603 160c276 0 485.167 -60.167 627.5 -180.5s213.5 -297.166 213.5 -530.499v-20h-1108c0 -62 26 -110 78 -144s125 -51 219 -51c62 0 113.667 7.66699 155 23s71 37.666 89 66.999h557zM629.001 1298
l188 314h602l-303 -314h-487z" />
    <glyph glyph-name="ecircumflex" unicode="&#xea;" horiz-adv-x="1776" 
d="M584 700h608c-7.33301 63.333 -36 112.333 -86 147s-117 52 -201 52c-90.667 0 -163.5 -17 -218.5 -51s-89.167 -83.333 -102.5 -148zM1708 350c-38.667 -127.333 -128.333 -224.001 -269 -290.001s-328 -99 -562 -99c-260 0 -461 53.333 -603 160
s-213 257.334 -213 452.001c0 195.333 71 346.333 213 453s343 160 603 160c276 0 485.167 -60.167 627.5 -180.5s213.5 -297.166 213.5 -530.499v-20h-1108c0 -62 26 -110 78 -144s125 -51 219 -51c62 0 113.667 7.66699 155 23s71 37.666 89 66.999h557zM1182 1610
l315 -314h-506l-102 148l-102 -148h-506l325 314h576z" />
    <glyph glyph-name="edieresis" unicode="&#xeb;" horiz-adv-x="1776" 
d="M584 700h608c-7.33301 63.333 -36 112.333 -86 147s-117 52 -201 52c-90.667 0 -163.5 -17 -218.5 -51s-89.167 -83.333 -102.5 -148zM1708 350c-38.667 -127.333 -128.333 -224.001 -269 -290.001s-328 -99 -562 -99c-260 0 -461 53.333 -603 160
s-213 257.334 -213 452.001c0 195.333 71 346.333 213 453s343 160 603 160c276 0 485.167 -60.167 627.5 -180.5s213.5 -297.166 213.5 -530.499v-20h-1108c0 -62 26 -110 78 -144s125 -51 219 -51c62 0 113.667 7.66699 155 23s71 37.666 89 66.999h557zM952.001 1309v290
h408v-290h-408zM416.001 1309v290h407v-290h-407z" />
    <glyph glyph-name="igrave" unicode="&#xec;" horiz-adv-x="827" 
d="M154 0v1147h522v-1147h-522zM187 1298l-303 314h602l188 -314h-487z" />
    <glyph glyph-name="iacute" unicode="&#xed;" horiz-adv-x="827" 
d="M154 0v1147h522v-1147h-522zM154 1298l188 314h602l-303 -314h-487z" />
    <glyph glyph-name="icircumflex" unicode="&#xee;" horiz-adv-x="827" 
d="M154 0v1147h522v-1147h-522zM707 1610l315 -314h-506l-102 148l-102 -148h-506l325 314h576z" />
    <glyph glyph-name="idieresis" unicode="&#xef;" horiz-adv-x="827" 
d="M154 0v1147h522v-1147h-522zM477 1309v290h408v-290h-408zM-59 1309v290h407v-290h-407z" />
    <glyph glyph-name="eth" unicode="&#xf0;" horiz-adv-x="1575" 
d="M915 1010c-14.667 25.333 -30.3311 49.833 -46.998 73.5s-35 47.5 -55 71.5l-438 -96l-29 133l361 82c-7.33301 9.33301 -15.5 18.833 -24.5 28.5l-39.5 40.5l209 197c22.667 -16 52.167 -41 88.5 -75s77.166 -74.667 122.499 -122l346 72l33 -131l-271 -57
c116 -131.333 201.667 -255.333 257 -372s83 -231 83 -343c0 -174 -63.167 -309.333 -189.5 -406s-304.833 -145 -535.5 -145c-230 0 -408.333 48.333 -535 145s-190 232 -190 406c0 163.333 62.333 288.5 187 375.5s304.667 130.5 540 130.5
c22.667 0 59.667 -2.33301 111 -7c7.33301 -0.666992 12.666 -1 15.999 -1zM549.003 512c0 -70.667 21.5 -126.834 64.5 -168.501s100.5 -62.5 172.5 -62.5s129.667 20.833 173 62.5s65 97.834 65 168.501s-21.667 127.167 -65 169.5s-101 63.5 -173 63.5
s-129.5 -21 -172.5 -63s-64.5 -98.667 -64.5 -170z" />
    <glyph glyph-name="ntilde" unicode="&#xf1;" horiz-adv-x="1716" 
d="M135 0v1147h512v-119c68.667 48 140 83.5 214 106.5s153.667 34.5 239 34.5c168 0 290.833 -42.667 368.5 -128s116.5 -220.666 116.5 -405.999v-635h-512v539c0 85.333 -13.667 144.166 -41 176.499s-75 48.5 -143 48.5c-75.333 0 -134.5 -18 -177.5 -54
s-64.5 -85.667 -64.5 -149v-561h-512zM319 1300c12.667 103.333 45.834 182.165 99.501 236.498s125.167 81.5 214.5 81.5c64 0 134 -12.667 210 -38s122 -38 138 -38c24.667 0 44.5 6.83301 59.5 20.5s23.167 32.167 24.5 55.5h332
c-12.667 -103.333 -45.834 -182.166 -99.501 -236.499s-125.167 -81.5 -214.5 -81.5c-64 0 -134 12.667 -210 38s-122 38 -138 38c-24.667 0 -44.5 -6.66699 -59.5 -20s-23.167 -31.666 -24.5 -54.999z" />
    <glyph glyph-name="ograve" unicode="&#xf2;" horiz-adv-x="1735" 
d="M602 573c0 -78.667 23.833 -141.334 71.5 -188.001s111.834 -70 192.501 -70s144.834 23.333 192.501 70s71.5 109.334 71.5 188.001c0 79.333 -23.833 142.166 -71.5 188.499s-111.834 69.5 -192.501 69.5s-144.834 -23.167 -192.501 -69.5
s-71.5 -109.166 -71.5 -188.499zM61 573c0 194.667 70.333 345.5 211 452.5s339.334 160.5 596.001 160.5c257.333 0 455.833 -53.333 595.5 -160s209.5 -257.667 209.5 -453c0 -194.667 -69.833 -345.334 -209.5 -452.001s-338.167 -160 -595.5 -160
c-256.667 0 -455.334 53.333 -596.001 160s-211 257.334 -211 452.001zM641 1298l-303 314h602l188 -314h-487z" />
    <glyph glyph-name="oacute" unicode="&#xf3;" horiz-adv-x="1735" 
d="M602 573c0 -78.667 23.833 -141.334 71.5 -188.001s111.834 -70 192.501 -70s144.834 23.333 192.501 70s71.5 109.334 71.5 188.001c0 79.333 -23.833 142.166 -71.5 188.499s-111.834 69.5 -192.501 69.5s-144.834 -23.167 -192.501 -69.5
s-71.5 -109.166 -71.5 -188.499zM61 573c0 194.667 70.333 345.5 211 452.5s339.334 160.5 596.001 160.5c257.333 0 455.833 -53.333 595.5 -160s209.5 -257.667 209.5 -453c0 -194.667 -69.833 -345.334 -209.5 -452.001s-338.167 -160 -595.5 -160
c-256.667 0 -455.334 53.333 -596.001 160s-211 257.334 -211 452.001zM608 1298l188 314h602l-303 -314h-487z" />
    <glyph glyph-name="ocircumflex" unicode="&#xf4;" horiz-adv-x="1735" 
d="M602 573c0 -78.667 23.833 -141.334 71.5 -188.001s111.834 -70 192.501 -70s144.834 23.333 192.501 70s71.5 109.334 71.5 188.001c0 79.333 -23.833 142.166 -71.5 188.499s-111.834 69.5 -192.501 69.5s-144.834 -23.167 -192.501 -69.5
s-71.5 -109.166 -71.5 -188.499zM61 573c0 194.667 70.333 345.5 211 452.5s339.334 160.5 596.001 160.5c257.333 0 455.833 -53.333 595.5 -160s209.5 -257.667 209.5 -453c0 -194.667 -69.833 -345.334 -209.5 -452.001s-338.167 -160 -595.5 -160
c-256.667 0 -455.334 53.333 -596.001 160s-211 257.334 -211 452.001zM1161 1610l315 -314h-506l-102 148l-102 -148h-506l325 314h576z" />
    <glyph glyph-name="otilde" unicode="&#xf5;" horiz-adv-x="1735" 
d="M602 573c0 -78.667 23.833 -141.334 71.5 -188.001s111.834 -70 192.501 -70s144.834 23.333 192.501 70s71.5 109.334 71.5 188.001c0 79.333 -23.833 142.166 -71.5 188.499s-111.834 69.5 -192.501 69.5s-144.834 -23.167 -192.501 -69.5
s-71.5 -109.166 -71.5 -188.499zM61 573c0 194.667 70.333 345.5 211 452.5s339.334 160.5 596.001 160.5c257.333 0 455.833 -53.333 595.5 -160s209.5 -257.667 209.5 -453c0 -194.667 -69.833 -345.334 -209.5 -452.001s-338.167 -160 -595.5 -160
c-256.667 0 -455.334 53.333 -596.001 160s-211 257.334 -211 452.001zM329 1300c12.667 103.333 45.834 182.165 99.501 236.498s125.167 81.5 214.5 81.5c64 0 134 -12.667 210 -38s122 -38 138 -38c24.667 0 44.5 6.83301 59.5 20.5s23.167 32.167 24.5 55.5h332
c-12.667 -103.333 -45.834 -182.166 -99.501 -236.499s-125.167 -81.5 -214.5 -81.5c-64 0 -134 12.667 -210 38s-122 38 -138 38c-24.667 0 -44.5 -6.66699 -59.5 -20s-23.167 -31.666 -24.5 -54.999z" />
    <glyph glyph-name="odieresis" unicode="&#xf6;" horiz-adv-x="1735" 
d="M602 573c0 -78.667 23.833 -141.334 71.5 -188.001s111.834 -70 192.501 -70s144.834 23.333 192.501 70s71.5 109.334 71.5 188.001c0 79.333 -23.833 142.166 -71.5 188.499s-111.834 69.5 -192.501 69.5s-144.834 -23.167 -192.501 -69.5
s-71.5 -109.166 -71.5 -188.499zM61 573c0 194.667 70.333 345.5 211 452.5s339.334 160.5 596.001 160.5c257.333 0 455.833 -53.333 595.5 -160s209.5 -257.667 209.5 -453c0 -194.667 -69.833 -345.334 -209.5 -452.001s-338.167 -160 -595.5 -160
c-256.667 0 -455.334 53.333 -596.001 160s-211 257.334 -211 452.001zM931 1309v290h408v-290h-408zM395 1309v290h407v-290h-407z" />
    <glyph glyph-name="divide" unicode="&#xf7;" 
d="M854 371c49.333 0 92 -17.999 128 -53.999s54 -79 54 -129c0 -49.333 -18 -92 -54 -128s-79.333 -54 -130 -54s-93.667 17.667 -129 53s-53 78.333 -53 129c0 51.333 17.833 94.666 53.5 129.999s79.167 53 130.5 53zM1452 748.001v-273h-1198v273h1198zM854 1217
c49.333 0 92 -18.333 128 -55s54 -80 54 -130c0 -49.333 -18 -92 -54 -128s-79.333 -54 -130 -54s-93.667 17.667 -129 53s-53 78.333 -53 129c0 51.333 18 95 54 131s79.333 54 130 54z" />
    <glyph glyph-name="oslash" unicode="&#xf8;" horiz-adv-x="1735" 
d="M610 469l417.999 328c-24.667 14.667 -50.167 25.5 -76.5 32.5s-54.166 10.5 -83.499 10.5c-82 0 -147.833 -24.167 -197.5 -72.5s-74.5 -112.5 -74.5 -192.5c0 -18 1.16699 -35.833 3.5 -53.5s5.83301 -35.167 10.5 -52.5zM1122 684l-421.999 -330
c28 -16 55.667 -27.833 83 -35.5s55.666 -11.5 84.999 -11.5c82.667 0 148.5 24.167 197.5 72.5s73.5 112.833 73.5 193.5c0 22 -1.33301 42 -4 60s-7 35 -13 51zM215 174c-52 56 -90.6699 116.834 -116.003 182.501s-38 137.834 -38 216.501
c0 194.667 70.333 345.5 211 452.5s339.334 160.5 596.001 160.5c109.333 0 206.333 -8.66699 291 -26s158.334 -43.666 221.001 -78.999l187 148l100 -129l-151 -121c52 -54.667 91.167 -115.834 117.5 -183.501s39.5 -141.834 39.5 -222.501
c0 -194.667 -69.833 -345.334 -209.5 -452.001s-338.167 -160 -595.5 -160c-111.333 0 -209.666 9 -294.999 27s-160.333 45.333 -225 82l-192 -154l-99 129z" />
    <glyph glyph-name="ugrave" unicode="&#xf9;" horiz-adv-x="1716" 
d="M1069 119c-68 -48 -139.168 -83.668 -213.501 -107.001s-154.166 -35 -239.499 -35c-168 0 -290.833 42.833 -368.5 128.5s-116.5 221.167 -116.5 406.5v635h512v-539c0 -85.333 13.667 -144.166 41 -176.499s75 -48.5 143 -48.5c75.333 0 134.5 18 177.5 54
s64.5 85.667 64.5 149v561h512v-1147h-512v119zM630.999 1298l-303 314h602l188 -314h-487z" />
    <glyph glyph-name="uacute" unicode="&#xfa;" horiz-adv-x="1716" 
d="M1069 119c-68 -48 -139.168 -83.668 -213.501 -107.001s-154.166 -35 -239.499 -35c-168 0 -290.833 42.833 -368.5 128.5s-116.5 221.167 -116.5 406.5v635h512v-539c0 -85.333 13.667 -144.166 41 -176.499s75 -48.5 143 -48.5c75.333 0 134.5 18 177.5 54
s64.5 85.667 64.5 149v561h512v-1147h-512v119zM597.999 1298l188 314h602l-303 -314h-487z" />
    <glyph glyph-name="ucircumflex" unicode="&#xfb;" horiz-adv-x="1716" 
d="M1069 119c-68 -48 -139.168 -83.668 -213.501 -107.001s-154.166 -35 -239.499 -35c-168 0 -290.833 42.833 -368.5 128.5s-116.5 221.167 -116.5 406.5v635h512v-539c0 -85.333 13.667 -144.166 41 -176.499s75 -48.5 143 -48.5c75.333 0 134.5 18 177.5 54
s64.5 85.667 64.5 149v561h512v-1147h-512v119zM1151 1610l315 -314h-506l-102 148l-102 -148h-506l325 314h576z" />
    <glyph glyph-name="udieresis" unicode="&#xfc;" horiz-adv-x="1716" 
d="M1069 119c-68 -48 -139.168 -83.668 -213.501 -107.001s-154.166 -35 -239.499 -35c-168 0 -290.833 42.833 -368.5 128.5s-116.5 221.167 -116.5 406.5v635h512v-539c0 -85.333 13.667 -144.166 41 -176.499s75 -48.5 143 -48.5c75.333 0 134.5 18 177.5 54
s64.5 85.667 64.5 149v561h512v-1147h-512v119zM920.999 1309v290h408v-290h-408zM384.999 1309v290h407v-290h-407z" />
    <glyph glyph-name="yacute" unicode="&#xfd;" horiz-adv-x="1479" 
d="M123 -16l113 0.00195312c72.667 0 125.667 12.667 159 38s58 71.333 74 138l-528 987h559l186 -408c16 -33.333 29.333 -64.833 40 -94.5s19.334 -58.834 26.001 -87.501c5.33301 22.667 12.5 46.667 21.5 72s19.5 52.666 31.5 81.999l184 436h545l-485 -993
c-54 -110 -99.833 -196.667 -137.5 -260s-69.834 -108 -96.501 -134c-42 -40 -87.5 -68.333 -136.5 -85s-115.5 -25 -199.5 -25h-356v334zM479 1298l188 314h602l-303 -314h-487z" />
    <glyph glyph-name="thorn" unicode="&#xfe;" horiz-adv-x="1778" 
d="M139 -371v1862h512v-436c64 40.667 131.333 71 202 91s147.334 30 230.001 30c192.667 0 346 -54.667 460 -164s171 -255.666 171 -438.999c0 -184 -57.5 -330.333 -172.5 -439s-269.833 -163 -464.5 -163c-82.667 0 -158.834 10.167 -228.501 30.5
s-135.5 51.166 -197.5 92.499v-465h-512zM651 573c0 -76.667 23.833 -138.167 71.5 -184.5s111.167 -69.5 190.5 -69.5c80 0 143.833 23.167 191.5 69.5s71.5 107.833 71.5 184.5c0 77.333 -24 139 -72 185s-111.667 69 -191 69c-78.667 0 -142 -23 -190 -69
s-72 -107.667 -72 -185z" />
    <glyph glyph-name="ydieresis" unicode="&#xff;" horiz-adv-x="1479" 
d="M123 -16l113 0.00195312c72.667 0 125.667 12.667 159 38s58 71.333 74 138l-528 987h559l186 -408c16 -33.333 29.333 -64.833 40 -94.5s19.334 -58.834 26.001 -87.501c5.33301 22.667 12.5 46.667 21.5 72s19.5 52.666 31.5 81.999l184 436h545l-485 -993
c-54 -110 -99.833 -196.667 -137.5 -260s-69.834 -108 -96.501 -134c-42 -40 -87.5 -68.333 -136.5 -85s-115.5 -25 -199.5 -25h-356v334zM802 1309v290h408v-290h-408zM266 1309v290h407v-290h-407z" />
    <glyph glyph-name="Cacute" unicode="&#x106;" horiz-adv-x="2105" 
d="M1395 858c-9.33301 91.333 -41.666 161.003 -96.999 209.003s-131 72 -227 72c-122.667 0 -216.5 -34.333 -281.5 -103s-97.5 -167.667 -97.5 -297c0 -128.667 32.5 -227 97.5 -295s158.833 -102 281.5 -102c88.667 0 160.167 20.167 214.5 60.5
s90.166 100.166 107.499 179.499h661c-30 -204.667 -128.167 -359.334 -294.5 -464.001s-395.833 -157 -688.5 -157c-328.667 0 -576.667 65.5 -744 196.5s-251 324.833 -251 581.5c0 257.333 83.667 451.5 251 582.5s415.333 196.5 744 196.5
c306.667 0 544 -56.833 712 -170.5s257 -276.834 267 -489.501h-655zM793 1630l188 314h602l-303 -314h-487z" />
    <glyph glyph-name="cacute" unicode="&#x107;" horiz-adv-x="1767" 
d="M1702 504c-18.667 -180.667 -96.5 -316.334 -233.5 -407.001s-332.167 -136 -585.5 -136c-262 0 -464.5 53.333 -607.5 160s-214.5 257.334 -214.5 452.001c0 194 71.5 344.667 214.5 452s345.5 161 607.5 161c243.333 0 433 -41.667 569 -125s216 -207 240 -371h-549
c-20.667 52.667 -51.667 92.167 -93 118.5s-93 39.5 -155 39.5c-91.333 0 -163 -24.167 -215 -72.5s-78 -115.166 -78 -200.499c0 -82.667 25.333 -148.334 76 -197.001s119 -73 205 -73c71.333 0 131.5 17.833 180.5 53.5s79.5 84.167 91.5 145.5h547zM625 1298l188 314
h602l-303 -314h-487z" />
    <glyph glyph-name="Ccaron" unicode="&#x10c;" horiz-adv-x="2105" 
d="M1395 858c-9.33301 91.333 -41.666 161.003 -96.999 209.003s-131 72 -227 72c-122.667 0 -216.5 -34.333 -281.5 -103s-97.5 -167.667 -97.5 -297c0 -128.667 32.5 -227 97.5 -295s158.833 -102 281.5 -102c88.667 0 160.167 20.167 214.5 60.5
s90.166 100.166 107.499 179.499h661c-30 -204.667 -128.167 -359.334 -294.5 -464.001s-395.833 -157 -688.5 -157c-328.667 0 -576.667 65.5 -744 196.5s-251 324.833 -251 581.5c0 257.333 83.667 451.5 251 582.5s415.333 196.5 744 196.5
c306.667 0 544 -56.833 712 -170.5s257 -276.834 267 -489.501h-655zM760 1630l-315 314h506l102 -146l102 146h506l-325 -314h-576z" />
    <glyph glyph-name="ccaron" unicode="&#x10d;" horiz-adv-x="1767" 
d="M1702 504c-18.667 -180.667 -96.5 -316.334 -233.5 -407.001s-332.167 -136 -585.5 -136c-262 0 -464.5 53.333 -607.5 160s-214.5 257.334 -214.5 452.001c0 194 71.5 344.667 214.5 452s345.5 161 607.5 161c243.333 0 433 -41.667 569 -125s216 -207 240 -371h-549
c-20.667 52.667 -51.667 92.167 -93 118.5s-93 39.5 -155 39.5c-91.333 0 -163 -24.167 -215 -72.5s-78 -115.166 -78 -200.499c0 -82.667 25.333 -148.334 76 -197.001s119 -73 205 -73c71.333 0 131.5 17.833 180.5 53.5s79.5 84.167 91.5 145.5h547zM592 1298l-315 314
h506l102 -146l102 146h506l-325 -314h-576z" />
    <glyph glyph-name="dcroat" unicode="&#x111;" horiz-adv-x="1788" 
d="M1126 559c0 76.667 -23.833 138.167 -71.5 184.5s-111.167 69.5 -190.5 69.5c-78.667 0 -142 -23.167 -190 -69.5s-72 -107.833 -72 -184.5s24 -138.167 72 -184.5s111.333 -69.5 190 -69.5c79.333 0 142.833 23.167 190.5 69.5s71.5 107.833 71.5 184.5zM1638 1491
v-108.999h140v-165h-140v-1217h-487l-4 113c-63.333 -48 -132.5 -83.667 -207.5 -107s-157.5 -35 -247.5 -35c-188.667 0 -340.667 54.167 -456 162.5s-173 250.833 -173 427.5c0 177.333 58.167 319.666 174.5 426.999s270.5 161 462.5 161
c82.667 0 158.667 -10.167 228 -30.5s135.333 -51.833 198 -94.5v193h-448v165h448v109h512z" />
    <glyph glyph-name="Gbreve" unicode="&#x11e;" horiz-adv-x="2152" 
d="M1718 131c-66.667 -58.667 -152.168 -101.667 -256.501 -129s-234.5 -41 -390.5 -41c-328.667 0 -576.667 65.5 -744 196.5s-251 324.833 -251 581.5c0 257.333 83.667 451.5 251 582.5s415.333 196.5 744 196.5c276.667 0 498.334 -47 665.001 -141
s261 -224.667 283 -392h-628c-30.667 60 -71.167 104.667 -121.5 134s-111.166 44 -182.499 44c-119.333 0 -215 -38.333 -287 -115s-108 -179.667 -108 -309c0 -130.667 35.5 -232.167 106.5 -304.5s170.167 -108.5 297.5 -108.5c95.333 0 174.666 17.333 237.999 52
s102 82 116 142h-238v320h826v-840h-258zM601.999 1954h357.999v-12c0 -29.333 10.5 -52.333 31.5 -69s49.5 -25 85.5 -25c38.667 0 67.834 8.33301 87.501 25s29.5 41.667 29.5 75v6h358c-11.333 -103.333 -58.833 -183.833 -142.5 -241.5s-194.5 -86.5 -332.5 -86.5
s-248.833 28.833 -332.5 86.5s-131.167 138.167 -142.5 241.5z" />
    <glyph glyph-name="gbreve" unicode="&#x11f;" horiz-adv-x="1778" 
d="M602 614c0 -65.333 23.667 -117.5 71 -156.5s111 -58.5 191 -58.5s143.667 19.5 191 58.5s71 91.167 71 156.5c0 66 -23.833 118.667 -71.5 158s-111.167 59 -190.5 59c-78.667 0 -142 -19.667 -190 -59s-72 -92 -72 -158zM1638 254c0 -100 -3.33301 -173 -10 -219
s-18.334 -83 -35.001 -111c-63.333 -106 -155 -183.333 -275 -232s-280 -73 -480 -73c-230 0 -405 30.667 -525 92s-192.333 157 -217 287h686c8 -25.333 22.5 -43.666 43.5 -54.999s50.167 -17 87.5 -17c76.667 0 131.667 16.667 165 50s50 88.333 50 165
c0 16.667 -0.166992 29.167 -0.5 37.5s-0.833008 16.166 -1.5 23.499c-57.333 -42.667 -123 -74.334 -197 -95.001s-158.333 -31 -253 -31c-186.667 0 -335.5 49.833 -446.5 149.5s-166.5 232.834 -166.5 399.501c0 166 55.833 299.333 167.5 400s260.834 151 447.501 151
c98 0 185.667 -11.5 263 -34.5s146 -58.167 206 -105.5l4 111h487v-893zM414 1622h357.999v-12c0 -29.333 10.5 -52.333 31.5 -69s49.5 -25 85.5 -25c38.667 0 67.834 8.33301 87.501 25s29.5 41.667 29.5 75v6h358c-11.333 -103.333 -58.833 -183.833 -142.5 -241.5
s-194.5 -86.5 -332.5 -86.5s-248.833 28.833 -332.5 86.5s-131.167 138.167 -142.5 241.5z" />
    <glyph glyph-name="Idotaccent" unicode="&#x130;" horiz-adv-x="895" 
d="M162 0v1479h573v-1479h-573zM195 1641v290h508v-290h-508z" />
    <glyph glyph-name="dotlessi" unicode="&#x131;" horiz-adv-x="827" 
d="M154 0v1147h522v-1147h-522z" />
    <glyph glyph-name="Lslash" unicode="&#x141;" horiz-adv-x="1675" 
d="M180 0v498l-125 -86l-135 192l260 178v697h574v-394l315 220l133 -191l-448 -313v-395h905v-406h-1479z" />
    <glyph glyph-name="lslash" unicode="&#x142;" horiz-adv-x="856" 
d="M168 0v545l-125 -86l-88 137l213 147v748h522v-465l125 86l88 -137l-213 -150v-825h-522z" />
    <glyph glyph-name="OE" unicode="&#x152;" horiz-adv-x="3039" 
d="M3015 0h-1616v119c-54.667 -54.667 -123.167 -95 -205.5 -121s-183.833 -39 -304.5 -39c-258 0 -458 65.833 -600 197.5s-213 316.5 -213 554.5c0 258.667 73.167 458.167 219.5 598.5s355.166 210.5 626.499 210.5c108.667 0 201.667 -12.333 279 -37
s143.333 -63 198 -115v111h1567v-363h-994v-176h805v-365h-805v-194h1043v-381zM1399 629v223c0 93.333 -28 164.5 -84 213.5s-137.333 73.5 -244 73.5c-122.667 0 -216.5 -34.333 -281.5 -103s-97.5 -167.667 -97.5 -297c0 -128.667 32.5 -227 97.5 -295
s158.833 -102 281.5 -102c111.333 0 193.833 23.5 247.5 70.5s80.5 119.167 80.5 216.5z" />
    <glyph glyph-name="oe" unicode="&#x153;" horiz-adv-x="2740" 
d="M1550 700h609c-7.33301 63.333 -36.166 112.333 -86.499 147s-117.833 52 -202.5 52c-90.667 0 -163.334 -16.833 -218.001 -50.5s-88.667 -83.167 -102 -148.5zM602 573c0 -78.667 23.833 -141.334 71.5 -188.001s111.834 -70 192.501 -70s144.834 23.333 192.501 70
s71.5 109.334 71.5 188.001c0 79.333 -23.833 142.166 -71.5 188.499s-111.834 69.5 -192.501 69.5s-144.834 -23.167 -192.501 -69.5s-71.5 -109.166 -71.5 -188.499zM1354 141c-72 -60.667 -152.17 -105.834 -240.503 -135.501s-187.166 -44.5 -296.499 -44.5
c-231.333 0 -415.166 55.333 -551.499 166s-204.5 259.334 -204.5 446.001c0 190.667 69.167 340.5 207.5 449.5s328.833 163.5 571.5 163.5c107.333 0 203.5 -14 288.5 -42s160.833 -70.667 227.5 -128c58 56.667 129.833 99.167 215.5 127.5s186.5 42.5 302.5 42.5
c258.667 0 458.167 -61 598.5 -183s210.5 -295.333 210.5 -520v-28h-1108c0 -62 25.833 -110 77.5 -144s124.834 -51 219.501 -51c62 0 113.667 7.66699 155 23s71 37.666 89 66.999h557c-36 -122.667 -123.333 -218.167 -262 -286.5s-315.667 -102.5 -531 -102.5
c-108 0 -205.167 14.833 -291.5 44.5s-164.5 74.834 -234.5 135.501z" />
    <glyph glyph-name="Scedilla" unicode="&#x15e;" horiz-adv-x="2005" 
d="M70 450l693.999 1.00098c5.33301 -40 30.333 -70.833 75 -92.5s105.667 -32.5 183 -32.5s135.166 8.83301 173.499 26.5s57.5 44.167 57.5 79.5c0 31.333 -16.667 56.5 -50 75.5s-84.666 32.833 -153.999 41.5l-428 53c-177.333 21.333 -310.833 69 -400.5 143
s-134.5 173 -134.5 297c0 165.333 67.833 286 203.5 362s351.834 114 648.501 114c308 0 537 -38 687 -114s231 -194.333 243 -355h-666c-7.33301 46.667 -35.333 81.834 -84 105.501s-117 35.5 -205 35.5c-64 0 -114.333 -8.83301 -151 -26.5s-55 -41.5 -55 -71.5
c0 -28 14.167 -49.333 42.5 -64s87.166 -28.334 176.499 -41.001l522 -74c163.333 -23.333 285.333 -70.833 366 -142.5s121 -168.167 121 -289.5c0 -181.333 -80.667 -314.333 -242 -399s-415.666 -127 -762.999 -127c-276 0 -487.833 42.667 -635.5 128
s-222.5 207.666 -224.5 366.999zM1063 0.000976562l148.997 -0.00195312l-90 -127c24.667 5.33301 46.667 9.33301 66 12s37 4 53 4c62.667 0 111.834 -16 147.501 -48s53.5 -76 53.5 -132c0 -63.333 -24 -111.166 -72 -143.499s-119 -48.5 -213 -48.5
c-48.667 0 -103.334 6.33301 -164.001 19s-126.667 31.334 -198 56.001l47 109c48.667 -18 92.834 -31.667 132.501 -41s71.834 -14 96.501 -14c30.667 0 54.667 6.5 72 19.5s26 30.833 26 53.5c0 14.667 -6.66699 28 -20 40s-28.333 18 -45 18
c-11.333 0 -22.666 -2 -33.999 -6s-23.333 -10.333 -36 -19l-78 51z" />
    <glyph glyph-name="scedilla" unicode="&#x15f;" horiz-adv-x="1716" 
d="M51 366l624.996 1c4 -40 21.5 -68.833 52.5 -86.5s81.167 -26.5 150.5 -26.5c58 0 101.833 6.5 131.5 19.5s44.5 32.5 44.5 58.5c0 45.333 -77.667 75 -233 89c-30.667 3.33301 -54 5.66602 -70 6.99902h-4c-250.667 24.667 -420 56.667 -508 96
c-51.333 22.667 -90.833 58.334 -118.5 107.001s-41.5 106 -41.5 172c0 132.667 60.667 229.667 182 291s314.666 92 579.999 92c250.667 0 437.167 -31.333 559.5 -94s187.5 -159.667 195.5 -291h-589c-3.33301 38.667 -21.166 66.667 -53.499 84s-84.166 26 -155.499 26
c-60.667 0 -105.167 -6.5 -133.5 -19.5s-42.5 -33.167 -42.5 -60.5c0 -44 66.667 -71.333 200 -82l64 -6c10.667 -0.666992 27.334 -2 50.001 -4c268.667 -24 425.334 -43.667 470.001 -59c88 -31.333 150 -69.833 186 -115.5s54 -108.167 54 -187.5
c0 -146.667 -64.5 -252.667 -193.5 -318s-340.5 -98 -634.5 -98c-261.333 0 -453.166 32.5 -575.499 97.5s-186.5 167.5 -192.5 307.5zM808.996 0l148.997 -0.00195312l-90 -127c24.667 5.33301 46.667 9.33301 66 12s37 4 53 4c62.667 0 111.834 -16 147.501 -48
s53.5 -76 53.5 -132c0 -63.333 -24 -111.166 -72 -143.499s-119 -48.5 -213 -48.5c-48.667 0 -103.334 6.33301 -164.001 19s-126.667 31.334 -198 56.001l47 109c48.667 -18 92.834 -31.667 132.501 -41s71.834 -14 96.501 -14c30.667 0 54.667 6.5 72 19.5
s26 30.833 26 53.5c0 14.667 -6.66699 28 -20 40s-28.333 18 -45 18c-11.333 0 -22.666 -2 -33.999 -6s-23.333 -10.333 -36 -19l-78 51z" />
    <glyph glyph-name="Scaron" unicode="&#x160;" horiz-adv-x="2005" 
d="M70 450l693.999 1.00098c5.33301 -40 30.333 -70.833 75 -92.5s105.667 -32.5 183 -32.5s135.166 8.83301 173.499 26.5s57.5 44.167 57.5 79.5c0 31.333 -16.667 56.5 -50 75.5s-84.666 32.833 -153.999 41.5l-428 53c-177.333 21.333 -310.833 69 -400.5 143
s-134.5 173 -134.5 297c0 165.333 67.833 286 203.5 362s351.834 114 648.501 114c308 0 537 -38 687 -114s231 -194.333 243 -355h-666c-7.33301 46.667 -35.333 81.834 -84 105.501s-117 35.5 -205 35.5c-64 0 -114.333 -8.83301 -151 -26.5s-55 -41.5 -55 -71.5
c0 -28 14.167 -49.333 42.5 -64s87.166 -28.334 176.499 -41.001l522 -74c163.333 -23.333 285.333 -70.833 366 -142.5s121 -168.167 121 -289.5c0 -181.333 -80.667 -314.333 -242 -399s-415.666 -127 -762.999 -127c-276 0 -487.833 42.667 -635.5 128
s-222.5 207.666 -224.5 366.999zM710.999 1630l-315 314h506l102 -146l102 146h506l-325 -314h-576z" />
    <glyph glyph-name="scaron" unicode="&#x161;" horiz-adv-x="1716" 
d="M51 366l624.996 1c4 -40 21.5 -68.833 52.5 -86.5s81.167 -26.5 150.5 -26.5c58 0 101.833 6.5 131.5 19.5s44.5 32.5 44.5 58.5c0 45.333 -77.667 75 -233 89c-30.667 3.33301 -54 5.66602 -70 6.99902h-4c-250.667 24.667 -420 56.667 -508 96
c-51.333 22.667 -90.833 58.334 -118.5 107.001s-41.5 106 -41.5 172c0 132.667 60.667 229.667 182 291s314.666 92 579.999 92c250.667 0 437.167 -31.333 559.5 -94s187.5 -159.667 195.5 -291h-589c-3.33301 38.667 -21.166 66.667 -53.499 84s-84.166 26 -155.499 26
c-60.667 0 -105.167 -6.5 -133.5 -19.5s-42.5 -33.167 -42.5 -60.5c0 -44 66.667 -71.333 200 -82l64 -6c10.667 -0.666992 27.334 -2 50.001 -4c268.667 -24 425.334 -43.667 470.001 -59c88 -31.333 150 -69.833 186 -115.5s54 -108.167 54 -187.5
c0 -146.667 -64.5 -252.667 -193.5 -318s-340.5 -98 -634.5 -98c-261.333 0 -453.166 32.5 -575.499 97.5s-186.5 167.5 -192.5 307.5zM564.996 1298l-315 314h506l102 -146l102 146h506l-325 -314h-576z" />
    <glyph glyph-name="Ydieresis" unicode="&#x178;" 
d="M561 0v418l-649 1061h674l266 -609l283 609h659l-659 -1061v-418h-574zM917 1641v290h408v-290h-408zM381 1641v290h407v-290h-407z" />
    <glyph glyph-name="Zcaron" unicode="&#x17d;" horiz-adv-x="1747" 
d="M51 0v328l867 780h-816v371h1594v-336l-862 -754h833v-389h-1616zM581 1630l-315 314h506l102 -146l102 146h506l-325 -314h-576z" />
    <glyph glyph-name="zcaron" unicode="&#x17e;" horiz-adv-x="1446" 
d="M25 0v303l630 494h-563v350h1290v-301l-616 -481h602v-365h-1343zM430 1298l-315 314h506l102 -146l102 146h506l-325 -314h-576z" />
    <glyph glyph-name="florin" unicode="&#x192;" horiz-adv-x="1958" 
d="M1124 -25c-34.667 -162 -87 -271.333 -157 -328s-182.667 -85 -338 -85c-43.333 0 -90.333 3.16699 -141 9.5s-107.667 16.166 -171 29.499l60 276h96c44.667 0 76 7.5 94 22.5s31.667 45.833 41 92.5l121 594h-201l56 264h202l45 217
c34.667 160.667 87.167 269.5 157.5 326.5s183.166 85.5 338.499 85.5c42.667 0 89.5 -3.16699 140.5 -9.5s107.833 -16.166 170.5 -29.499l-57 -275h-96c-44 0 -75.167 -7.66699 -93.5 -23s-32.166 -46.333 -41.499 -93l-37 -199h198l-57 -264h-199z" />
    <glyph glyph-name="circumflex" unicode="&#x2c6;" horiz-adv-x="1024" 
d="M805 1610l315 -314h-506l-102 148l-102 -148h-506l325 314h576z" />
    <glyph glyph-name="caron" unicode="&#x2c7;" horiz-adv-x="1024" 
d="M219 1298l-315 314h506l102 -146l102 146h506l-325 -314h-576z" />
    <glyph glyph-name="breve" unicode="&#x2d8;" horiz-adv-x="1024" 
d="M37 1622h357.999v-12c0 -29.333 10.5 -52.333 31.5 -69s49.5 -25 85.5 -25c38.667 0 67.834 8.33301 87.501 25s29.5 41.667 29.5 75v6h358c-11.333 -103.333 -58.833 -183.833 -142.5 -241.5s-194.5 -86.5 -332.5 -86.5s-248.833 28.833 -332.5 86.5
s-131.167 138.167 -142.5 241.5z" />
    <glyph glyph-name="dotaccent" unicode="&#x2d9;" horiz-adv-x="1024" 
d="M258 1309v290h508v-290h-508z" />
    <glyph glyph-name="ring" unicode="&#x2da;" horiz-adv-x="1024" 
d="M209 1526c0 70 26.832 125 80.499 165s127.834 60 222.501 60s168.834 -20 222.501 -60s80.5 -95 80.5 -165c0 -70.667 -26.833 -126.334 -80.5 -167.001s-127.834 -61 -222.501 -61c-94 0 -168 20.333 -222 61s-81 96.334 -81 167.001zM413.999 1526
c0 -27.333 8.66797 -49.166 26.001 -65.499s40.666 -24.5 69.999 -24.5s53 8.16699 71 24.5s27 38.166 27 65.499c0 26.667 -8.83301 48 -26.5 64s-41.5 24 -71.5 24s-53.5 -7.83301 -70.5 -23.5s-25.5 -37.167 -25.5 -64.5z" />
    <glyph glyph-name="ogonek" unicode="&#x2db;" horiz-adv-x="1024" 
d="M682 0c-46 -20 -80.002 -38.832 -102.002 -56.499s-33 -35.167 -33 -52.5c0 -14.667 7.16699 -25.5 21.5 -32.5s37.833 -10.5 70.5 -10.5h127v-288h-107c-159.333 0 -265.666 13.5 -318.999 40.5s-80 74.833 -80 143.5c0 48.667 21.333 93.167 64 133.5
s111.334 81.166 206.001 122.499h152z" />
    <glyph glyph-name="tilde" unicode="&#x2dc;" horiz-adv-x="1024" 
d="M-27 1300c12.667 103.333 45.834 182.165 99.501 236.498s125.167 81.5 214.5 81.5c64 0 134 -12.667 210 -38s122 -38 138 -38c24.667 0 44.5 6.83301 59.5 20.5s23.167 32.167 24.5 55.5h332c-12.667 -103.333 -45.834 -182.166 -99.501 -236.499
s-125.167 -81.5 -214.5 -81.5c-64 0 -134 12.667 -210 38s-122 38 -138 38c-24.667 0 -44.5 -6.66699 -59.5 -20s-23.167 -31.666 -24.5 -54.999z" />
    <glyph glyph-name="hungarumlaut" unicode="&#x2dd;" horiz-adv-x="1024" 
d="M0 1319l209 270h401l-313 -270h-297zM485 1319l260 270h422l-364 -270h-318z" />
    <glyph glyph-name="Omega" unicode="&#x3a9;" 
d="M1671 350l-0.000976562 -350.001h-661v403c44.667 54 78.334 112.833 101.001 176.5s34 131.167 34 202.5c0 110 -26.667 197.667 -80 263s-124.333 98 -213 98s-159.334 -32.667 -212.001 -98s-79 -153 -79 -263c0 -71.333 11.333 -138.833 34 -202.5
s56.334 -122.5 101.001 -176.5v-403h-661v350h371c-96 54.667 -167.833 124.5 -215.5 209.5s-71.5 185.167 -71.5 300.5c0 194 67.167 351 201.5 471s311.5 180 531.5 180s397.5 -60.167 532.5 -180.5s202.5 -277.166 202.5 -470.499
c0 -115.333 -23.833 -215.5 -71.5 -300.5s-119.5 -154.833 -215.5 -209.5h371z" />
    <glyph glyph-name="pi" unicode="&#x3c0;" horiz-adv-x="1716" 
d="M1661 846h-180l-119 -846h-418l119 846h-227l-119 -846h-418l119 846h-29c-21.333 0 -40.5 -12.333 -57.5 -37s-27.833 -56.667 -32.5 -96h-258c24 144 66.5 242.333 127.5 295s165.167 79 312.5 79h1221z" />
    <glyph glyph-name="endash" unicode="&#x2013;" horiz-adv-x="1024" 
d="M0 420v332h1024v-332h-1024z" />
    <glyph glyph-name="emdash" unicode="&#x2014;" horiz-adv-x="2048" 
d="M0 420v332h2048v-332h-2048z" />
    <glyph glyph-name="quoteleft" unicode="&#x2018;" horiz-adv-x="854" 
d="M694 1198l0.000976562 -474.998h-536v313c0 86.667 9.33301 152.667 28 198s50.334 85.333 95.001 120c42 33.333 91.667 63.666 149 90.999s123 51.666 197 72.999l45 -189c-46.667 -14.667 -80.334 -32.5 -101.001 -53.5s-31.334 -46.833 -32.001 -77.5h155z" />
    <glyph glyph-name="quoteright" unicode="&#x2019;" horiz-adv-x="854" 
d="M160 1006l-0.000976562 472.998h534v-314c0 -87.333 -9.16699 -153.166 -27.5 -197.499s-49.5 -83.5 -93.5 -117.5c-42 -33.333 -91.667 -63.666 -149 -90.999s-123 -51.666 -197 -72.999l-45 186c45.333 14.667 78.333 32.667 99 54s31.334 47.666 32.001 78.999z" />
    <glyph glyph-name="quotesinglbase" unicode="&#x201a;" horiz-adv-x="854" 
d="M160 0v472.998h534v-313c0 -88 -9.16699 -154.167 -27.5 -198.5s-49.5 -83.5 -93.5 -117.5c-42 -33.333 -91.667 -63.666 -149 -90.999s-123 -51.333 -197 -72l-45 188c46 14.667 79.167 32.334 99.5 53.001s30.833 46.667 31.5 78h-153z" />
    <glyph glyph-name="quotedblleft" unicode="&#x201c;" horiz-adv-x="1550" 
d="M1391 1198l-0.000976562 -474.998h-535v313c0 88 9.16699 154.5 27.5 199.5s49.5 84.5 93.5 118.5c42.667 33.333 92.667 63.666 150 90.999s122.666 51.666 195.999 72.999l45 -189c-45.333 -14.667 -78.166 -32.167 -98.499 -52.5s-31.166 -46.5 -32.499 -78.5h154z
M693.999 1198l0.000976562 -474.998h-536v313c0 86.667 9.33301 152.667 28 198s50.334 85.333 95.001 120c42 33.333 91.667 63.666 149 90.999s123 51.666 197 72.999l45 -189c-46.667 -14.667 -80.334 -32.5 -101.001 -53.5s-31.334 -46.833 -32.001 -77.5h155z" />
    <glyph glyph-name="quotedblright" unicode="&#x201d;" horiz-adv-x="1550" 
d="M154 1006v473.001h536v-314c0 -86 -9.33301 -151.5 -28 -196.5s-50.334 -84.5 -95.001 -118.5c-42.667 -34 -92.5 -64.5 -149.5 -91.5s-121.833 -51.167 -194.5 -72.5l-45 186c45.333 14.667 78.333 32.667 99 54s31.334 47.666 32.001 78.999zM852 1006
l-0.00195312 472.997h534v-314c0 -87.333 -9 -153.166 -27 -197.499s-49 -83.5 -93 -117.5c-42.667 -33.333 -92.667 -63.666 -150 -90.999s-122.666 -51.666 -195.999 -72.999l-46 186c45.333 14.667 78.333 32.667 99 54s31.334 48 32.001 80h-153z" />
    <glyph glyph-name="quotedblbase" unicode="&#x201e;" horiz-adv-x="1550" 
d="M154 0l0.000976562 473h536v-313c0 -86 -9.33301 -151.5 -28 -196.5s-50.334 -84.833 -95.001 -119.5c-42.667 -34 -92.5 -64.5 -149.5 -91.5s-121.833 -50.833 -194.5 -71.5l-45 188c46 14.667 79 32.167 99 52.5s30.667 46.5 32 78.5h-155zM852.001 0
l-0.000976562 472.998h534v-313c0 -88 -9 -154.167 -27 -198.5s-49 -83.5 -93 -117.5c-42.667 -33.333 -92.667 -63.666 -150 -90.999s-122.666 -51.333 -195.999 -72l-46 188c46 14.667 79.167 32.334 99.5 53.001s30.833 46.667 31.5 78h-153z" />
    <glyph glyph-name="dagger" unicode="&#x2020;" horiz-adv-x="1946" 
d="M1239 -313h-530v968h-508v469h508v355h530v-355h508v-469h-508v-968z" />
    <glyph glyph-name="daggerdbl" unicode="&#x2021;" horiz-adv-x="1946" 
d="M1239 426h506v-455h-506v-284h-532v284h-508v455h510v313h-508v455h508v285h530v-285h508v-455h-508v-313z" />
    <glyph glyph-name="bullet" unicode="&#x2022;" horiz-adv-x="1208" 
d="M307 762c0 82 28.999 151.666 86.999 208.999s128 86 210 86c81.333 0 150.833 -28.833 208.5 -86.5s86.5 -127.167 86.5 -208.5s-29.167 -151.166 -87.5 -209.499s-128.166 -87.5 -209.499 -87.5c-82 0 -151.667 29 -209 87s-86 128 -86 210z" />
    <glyph glyph-name="ellipsis" unicode="&#x2026;" horiz-adv-x="2048" 
d="M74 0v473h537v-473h-537zM756 0v473h537v-473h-537zM1440 0v473h537v-473h-537z" />
    <glyph glyph-name="perthousand" unicode="&#x2030;" horiz-adv-x="3422" 
d="M2836 553c-58.667 0 -105.334 -17.501 -140 -52.501c-34.667 -35 -52 -82.5 -52 -142.5s17.167 -107.333 51.5 -142s81.166 -52 140.5 -52c60 0 107.167 17.333 141.5 52s51.5 82 51.5 142c0 60.667 -17.167 108.334 -51.5 143.001s-81.5 52 -141.5 52zM2329 357.999
c0 126.667 44.167 224.667 132.5 294s213.166 104 374.5 104c162.667 0 288.334 -34.667 377 -104c88.667 -69.333 133 -167.333 133 -294c0 -126 -44.333 -223.667 -133 -293s-214.334 -104 -377 -104c-161.333 0 -286.166 34.667 -374.5 104
c-88.333 69.333 -132.5 167 -132.5 293zM1733 552.999c-59.333 0 -106.333 -17.5 -141 -52.5s-52 -82.5 -52 -142.5s17.167 -107.333 51.5 -142s81.5 -52 141.5 -52c59.333 0 106.5 17.5 141.5 52.5s52.5 82.167 52.5 141.5c0 60 -17.5 107.5 -52.5 142.5
s-82.167 52.5 -141.5 52.5zM1225 357.999c0 126.667 44.333 224.667 133 294s214.334 104 377.001 104c161.333 0 286.333 -34.667 375 -104s133 -167.333 133 -294c0 -126 -44.333 -223.667 -133 -293s-213.667 -104 -375 -104c-162.667 0 -288.334 34.667 -377.001 104
s-133 167 -133 293zM436 -39.001l1209 1518h237l-1208 -1518h-238zM584 1278c-58.667 0 -105.5 -17.832 -140.5 -53.499s-52.5 -83.5 -52.5 -143.5s17.167 -107 51.5 -141s81.5 -51 141.5 -51s107.333 17.167 142 51.5s52 81.166 52 140.499
c0 60.667 -17.5 108.667 -52.5 144s-82.167 53 -141.5 53zM76 1083c0 126 44.332 223.501 132.999 292.501s214.334 103.5 377.001 103.5c162 0 287.167 -34.5 375.5 -103.5s132.5 -166.5 132.5 -292.5c0 -126.667 -44.333 -224.834 -133 -294.501
s-213.667 -104.5 -375 -104.5c-162 0 -287.5 35 -376.5 105s-133.5 168 -133.5 294z" />
    <glyph glyph-name="guilsinglleft" unicode="&#x2039;" horiz-adv-x="782" 
d="M137 711l504 397v-416l-162 -119l162 -118v-416l-504 397v275z" />
    <glyph glyph-name="guilsinglright" unicode="&#x203a;" horiz-adv-x="782" 
d="M645 436l-504 -397v416l162 118l-162 119v416l504 -397v-275z" />
    <glyph glyph-name="franc" unicode="&#x20a3;" horiz-adv-x="3062" 
d="M162 0v1479h1476v-363h-903v-201h738v-364h-738v-551h-573zM1800 0v1147h508l6 -88c38.667 38.667 84.667 67.834 138 87.501s113.333 29.5 180 29.5c132 0 228.833 -35.833 290.5 -107.5s92.5 -184.834 92.5 -339.501v-100h-453v8c0 58 -10 101.167 -30 129.5
s-50.333 42.5 -91 42.5c-43.333 0 -74.166 -16.333 -92.5 -49c-18.333 -32.667 -27.5 -88.667 -27.5 -168v-592h-521z" />
    <glyph glyph-name="trademark" unicode="&#x2122;" 
d="M1044 1468l99 -266l98 266h256v-559h-182v367l-137 -367h-70l-137 367v-367h-183v559h256zM690 1468v-151h-162v-408h-202v408h-162v151h526z" />
    <glyph glyph-name="partialdiff" unicode="&#x2202;" horiz-adv-x="1139" 
d="M770 715c16.667 84.667 28.334 154.666 35.001 209.999s10 105.333 10 150c0 70 -8.83301 123 -26.5 159s-43.5 54 -77.5 54c-21.333 0 -40.333 -7 -57 -21s-34 -37.667 -52 -71c-29.333 -53.333 -59.833 -93 -91.5 -119s-65.167 -39 -100.5 -39
c-41.333 0 -75.666 12.5 -102.999 37.5s-41 56.833 -41 95.5c0 58 34.167 107.333 102.5 148s151.5 61 249.5 61c149.333 0 266.666 -54.167 351.999 -162.5s128 -258.166 128 -449.499c0 -232 -55.833 -421.833 -167.5 -569.5s-255.834 -221.5 -432.501 -221.5
c-143.333 0 -256 38.5 -338 115.5s-123 182.833 -123 317.5c0 136 42 249.5 126 340.5s186.667 136.5 308 136.5c64 0 121.333 -14.5 172 -43.5s93 -71.833 127 -128.5zM694 552.999c0 76 -11.334 133.501 -34.001 172.501s-55.667 58.5 -99 58.5
c-60 0 -110.167 -46.833 -150.5 -140.5s-60.5 -211.834 -60.5 -354.501c0 -76.667 11.333 -134.167 34 -172.5s56.334 -57.5 101.001 -57.5c60 0 109.833 46.667 149.5 140s59.5 211.333 59.5 354z" />
    <glyph glyph-name="Delta" unicode="&#x2206;" horiz-adv-x="1505" 
d="M958 309l-206 705l-207 -705h413zM991 1473l518 -1473h-1515l518 1473h479z" />
    <glyph glyph-name="product" unicode="&#x220f;" horiz-adv-x="1688" 
d="M139 1473h1399v-1866h-473v1474h-453v-1474h-473v1866z" />
    <glyph glyph-name="summation" unicode="&#x2211;" horiz-adv-x="1583" 
d="M80 1473h1368v-353h-778l559 -557l-541 -600h846v-356h-1475v200l664 738l-643 629v299z" />
    <glyph glyph-name="minus" unicode="&#x2212;" 
d="M1452 750v-277h-1198v277h1198z" />
    <glyph glyph-name="fraction" unicode="&#x2215;" horiz-adv-x="473" 
d="M-485 -39l1208 1518h238l-1211 -1518h-235z" />
    <glyph glyph-name="periodcentered" unicode="&#x2219;" horiz-adv-x="979" 
d="M201 721c0 80.667 27.833 149 83.5 205s123.834 84 204.501 84c81.333 0 149.833 -28 205.5 -84s83.5 -124.333 83.5 -205s-27.833 -149 -83.5 -205s-124.167 -84 -205.5 -84c-80.667 0 -148.834 28 -204.501 84s-83.5 124.333 -83.5 205z" />
    <glyph glyph-name="radical" unicode="&#x221a;" horiz-adv-x="1395" 
d="M1399 1737v-172h-86l-588 -1606h-143l-301 827l-156 -59l-41 154l395 139l209 -600l483 1317h228z" />
    <glyph glyph-name="infinity" unicode="&#x221e;" 
d="M975 561c26.667 -38 58.333 -66.667 95 -86s78 -29 124 -29c56 0 101.667 14.333 137 43s53 65 53 109c0 43.333 -16 79.833 -48 109.5s-71 44.5 -117 44.5c-44 0 -84.833 -14.667 -122.5 -44s-78.167 -78.333 -121.5 -147zM730.999 653
c-27.333 38.667 -59.001 67.5 -95.001 86.5s-77.333 28.5 -124 28.5c-56 0 -101.333 -14.333 -136 -43s-52 -65.667 -52 -111c0 -42.667 15.833 -78.5 47.5 -107.5s70.834 -43.5 117.501 -43.5c44.667 0 85.667 14.667 123 44s77 78 119 146zM855.998 791
c46 85.333 95.667 148.833 149 190.5s111.666 62.5 174.999 62.5c95.333 0 176.833 -42 244.5 -126s101.5 -188 101.5 -312c0 -129.333 -30.167 -234.333 -90.5 -315s-138.166 -121 -233.499 -121c-58.667 0 -113.334 17.667 -164.001 53s-113.334 102.333 -188.001 201
c-44.667 -86 -93.5 -149.833 -146.5 -191.5s-111.5 -62.5 -175.5 -62.5c-96 0 -177.667 42 -245 126s-101 188 -101 312c0 130 29.833 235.167 89.5 315.5s137.167 120.5 232.5 120.5c56.667 0 110.334 -17.667 161.001 -53s114.334 -102 191.001 -200z" />
    <glyph glyph-name="integral" unicode="&#x222b;" horiz-adv-x="1331" 
d="M379 -244c18.667 0 36.668 14 54.001 42s31.333 66 42 114c12.667 61.333 21.334 189.666 26.001 384.999c2.66699 123.333 5.66699 221 9 293c15.333 343.333 63.333 590.666 144 741.999s203.334 227 368.001 227c78.667 0 142 -19.5 190 -58.5s72 -89.167 72 -150.5
c0 -46 -15.333 -83.5 -46 -112.5s-69.334 -43.5 -116.001 -43.5c-44.667 0 -78.334 13.5 -101.001 40.5s-34 66.833 -34 119.5c0 1.33301 0.333008 4.83301 1 10.5s1 10.834 1 15.501c0 17.333 -2.83301 30 -8.5 38s-14.5 12 -26.5 12
c-68.667 0 -110.667 -220.333 -126 -661l-3 -88c-7.33301 -222.667 -19.333 -384.167 -36 -484.5s-41.334 -189.166 -74.001 -266.499c-43.333 -100 -98.833 -175.5 -166.5 -226.5s-146.834 -76.5 -237.501 -76.5c-78.667 0 -141.667 19 -189 57s-71 88.667 -71 152
c0 48 15 86 45 114s70.333 42 121 42c41.333 0 73.5 -12.5 96.5 -37.5s34.5 -59.833 34.5 -104.5c0 -8 -0.333008 -18 -1 -30s-1 -19.667 -1 -23c0 -13.333 2.83301 -23.5 8.5 -30.5s13.834 -10.5 24.501 -10.5z" />
    <glyph glyph-name="approxequal" unicode="&#x2248;" 
d="M1530 309c-70.667 -46 -135.829 -79.667 -195.496 -101s-118.834 -32 -177.501 -32c-58 0 -151.333 21.5 -280 64.5s-234 64.5 -316 64.5c-54.667 0 -112.167 -12.333 -172.5 -37s-130.5 -65 -210.5 -121v299c76.667 49.333 147.667 85.333 213 108s131 34 197 34
c79.333 0 182.166 -21.5 308.499 -64.5s215.833 -64.5 268.5 -64.5c55.333 0 111.666 11.5 168.999 34.5s122.666 61.167 195.999 114.5v-299zM1530 774c-70.667 -46.667 -135.663 -80.5 -194.996 -101.5s-118 -31.5 -176 -31.5c-58.667 0 -152.334 21.5 -281.001 64.5
s-234.334 64.5 -317.001 64.5c-56 0 -113.667 -12 -173 -36s-129.333 -64 -210 -120v299c77.333 48.667 148.666 84.167 213.999 106.5s130.666 33.5 195.999 33.5c79.333 0 182.166 -21.167 308.499 -63.5s215.833 -63.5 268.5 -63.5c56.667 0 113.834 11.667 171.501 35
s122.167 61.333 193.5 114v-301z" />
    <glyph glyph-name="notequal" unicode="&#x2260;" 
d="M1384 1116l-112 -139h180v-260h-358l-172 -211h530v-262h-704l-242 -299l-199 159l113 140h-166v262h340l170 211h-510v260h690l244 301z" />
    <glyph glyph-name="lessequal" unicode="&#x2264;" 
d="M1454 236v-271h-1200v271h1200zM1452 999l-704 -208l704 -209v-281l-1198 371v237l1198 373v-283z" />
    <glyph glyph-name="greaterequal" unicode="&#x2265;" 
d="M1454 236v-271h-1200v271h1200zM1452 909v-237l-1196 -371v281l705 209l-705 208v283z" />
    <glyph glyph-name="lozenge" unicode="&#x25ca;" horiz-adv-x="1012" 
d="M506 1409l-385 -821l385 -821l385 821zM506 1653l500 -1065l-500 -1065l-500 1065z" />
    <glyph glyph-name="apple" unicode="&#xf000;" horiz-adv-x="1618" 
d="M836 1216c-0.666992 4 -1.16699 8.66895 -1.5 14.002s-0.5 13 -0.5 23c0 82.667 31.667 159.167 95 229.5s142 114.166 236 131.499c0.666992 -6.66699 1.16699 -14.334 1.5 -23.001s0.5 -21.667 0.5 -39c0 -87.333 -34.5 -165.5 -103.5 -234.5
s-136.833 -103.5 -203.5 -103.5h-8c-2 0 -4.5 0.333008 -7.5 1s-5.83301 1 -8.5 1zM1505 403.002c-76 -164.667 -144.335 -278.835 -205.002 -342.502s-128.667 -95.5 -204 -95.5c-33.333 0 -77.166 11 -131.499 33s-95.166 33 -122.499 33c-30 0 -73.667 -11 -131 -33
s-99.666 -33 -126.999 -33c-42.667 0 -85.5 14.667 -128.5 44s-86.167 73.333 -129.5 132c-68 93.333 -120.5 191.833 -157.5 295.5s-55.5 203.834 -55.5 300.501c0 146 41.667 264.833 125 356.5s191 137.5 323 137.5c45.333 0 97 -11.333 155 -34s99.333 -34 124 -34
c22.667 0 63.167 11.333 121.5 34s109.166 34 152.499 34c74 0 140.333 -13.167 199 -39.5s112 -67.166 160 -122.499c-68 -43.333 -118.5 -91.833 -151.5 -145.5s-49.5 -114.5 -49.5 -182.5c0 -75.333 20 -142 60 -200s97.667 -104 173 -138z" />
    <glyph glyph-name="fi" unicode="&#xf001;" horiz-adv-x="1749" 
d="M1079 0v1147h520v-1147h-520zM1079 1237v295h520v-295h-520zM190 0l-0.000976562 814.999h-190v322h190c-0.666992 7.33301 -1.16699 15 -1.5 23s-0.5 20 -0.5 36c0 116.667 32 199.834 96 249.501s172.667 74.5 326 74.5c30.667 0 68.834 -0.833008 114.501 -2.5
s109.167 -4.5 190.5 -8.5v-270h-110c-38 0 -64.667 -6.66699 -80 -20s-23 -36 -23 -68v-14h213v-322h-204v-815h-521z" />
    <glyph glyph-name="fl" unicode="&#xf002;" horiz-adv-x="1739" 
d="M1067 0v1491h520v-1491h-520zM190 0l-0.000976562 814.999h-190v322h190c-0.666992 7.33301 -1.16699 15 -1.5 23s-0.5 20 -0.5 36c0 116.667 32 199.834 96 249.501s172.667 74.5 326 74.5c30.667 0 68.834 -0.833008 114.501 -2.5s109.167 -4.5 190.5 -8.5v-270h-110
c-38 0 -64.667 -6.66699 -80 -20s-23 -36 -23 -68v-14h213v-322h-204v-815h-521z" />
    <glyph glyph-name=".null" horiz-adv-x="0" 
 />
    <glyph glyph-name="nonmarkingreturn" horiz-adv-x="979" 
 />
    </font>
</defs>
</svg>
