<?xml version="1.0" standalone="no"?>
<!DOCTYPE svg PUBLIC "-//W3C//DTD SVG 1.1//EN" "http://www.w3.org/Graphics/SVG/1.1/DTD/svg11.dtd" >
<svg>
<metadata>
Created by FontForge 20090914 at Thu Feb 26 06:01:28 2015
 By www-data
Copyright 1990-1993 Bitstream Inc.  All rights reserved.
</metadata>
<defs>
<font id="Swiss911BT-ExtraCompressed" horiz-adv-x="778" >
  <font-face 
    font-family="Swiss911 XCm BT"
    font-weight="400"
    font-stretch="condensed"
    units-per-em="2048"
    panose-1="2 11 7 8 3 7 2 6 2 4"
    ascent="1638"
    descent="-410"
    x-height="1180"
    cap-height="1475"
    bbox="-260 -483 2048 1878"
    underline-thickness="180"
    underline-position="-98"
    unicode-range="U+0020-U+F002"
  />
<missing-glyph horiz-adv-x="1229" 
d="M102 -362v1806h1024v-1806h-1024zM217 -248h795v1577h-795v-1577z" />
    <glyph glyph-name=".notdef" horiz-adv-x="1229" 
d="M102 -362v1806h1024v-1806h-1024zM217 -248h795v1577h-795v-1577z" />
    <glyph glyph-name="space" unicode=" " horiz-adv-x="389" 
 />
    <glyph glyph-name="exclam" unicode="!" horiz-adv-x="436" 
d="M84 0v305h268v-305h-268zM84 377v1098h268v-1098h-268z" />
    <glyph glyph-name="quotedbl" unicode="&#x22;" horiz-adv-x="678" 
d="M406 1438h192v-559h-192v559zM80 1438h192v-559h-192v559z" />
    <glyph glyph-name="numbersign" unicode="#" horiz-adv-x="1575" 
d="M709 848l-88 -244h251l86 244h-249zM709 1464h221l-146 -415h242l148 415h221l-148 -415h283l-74 -201h-280l-84 -242h290l-71 -200h-291l-148 -416h-221l148 416h-244l-149 -416h-220l146 416h-287l76 200h282l86 242h-299l74 201h297z" />
    <glyph glyph-name="dollar" unicode="$" 
d="M442 940l-0.000976562 242c0 33.333 -3.83301 56 -11.5 68s-20.834 18 -39.501 18c-21.333 0 -36.166 -7.66699 -44.499 -23s-12.5 -47.333 -12.5 -96c0 -84.667 23 -151 69 -199c6.66699 -7.33301 11.667 -12.666 15 -15.999l170 -180
c66 -70.667 107.333 -128.5 124 -173.5s25 -101.833 25 -170.5c0 -156.667 -21.667 -260.167 -65 -310.5s-122 -83.5 -236 -99.5v-221h-98v221c-111.333 14 -188.666 46.167 -231.999 96.5s-65 140.5 -65 270.5v194h293v-287c0 -32.667 3.66699 -55.167 11 -67.5
s20 -18.5 38 -18.5c22 0 37 8 45 24s12 53.333 12 112v38c0 83.333 -23.333 149.666 -70 198.999c-6 6.66699 -10.667 11.334 -14 14.001l-168 181c-1.33301 1.33301 -3.66602 4 -6.99902 8c-93.333 99.333 -140 210.666 -140 333.999c0 129.333 21.667 220 65 272
s120.666 85.333 231.999 100v170h98v-170c112 -12.667 189.5 -42 232.5 -88s64.5 -136.667 64.5 -272v-170h-291z" />
    <glyph glyph-name="percent" unicode="%" horiz-adv-x="1128" 
d="M774 1507h117l-541 -1540h-117zM307 895v403c0 24.667 -3.16699 42.167 -9.5 52.5s-16.833 15.5 -31.5 15.5c-14 0 -24.333 -5.16699 -31 -15.5s-10 -27.833 -10 -52.5v-403c0 -24 3.33301 -41.333 10 -52s17 -16 31 -16c14.667 0 25.167 5.33301 31.5 16s9.5 28 9.5 52z
M49 1249c0 90.667 17.333 156 52 196s89.667 60 165 60c76 0 131.167 -20 165.5 -60s51.5 -105.333 51.5 -196v-305c0 -90 -17.167 -155.167 -51.5 -195.5s-89.5 -60.5 -165.5 -60.5c-75.333 0 -130.333 20.167 -165 60.5s-52 105.5 -52 195.5v305zM643 528
c0 90 17.167 154.833 51.5 194.5s89.5 59.5 165.5 59.5s131.167 -19.833 165.5 -59.5s51.5 -104.5 51.5 -194.5v-305c0 -90 -17.167 -155.167 -51.5 -195.5s-89.5 -60.5 -165.5 -60.5c-75.333 0 -130.333 20.167 -165 60.5s-52 105.5 -52 195.5v305zM901 172v406
c0 24 -3.16699 41.167 -9.5 51.5s-16.833 15.5 -31.5 15.5c-14 0 -24.333 -5.16699 -31 -15.5s-10 -27.5 -10 -51.5v-406c0 -24 3.33301 -41.333 10 -52s17 -16 31 -16c14.667 0 25.167 5.33301 31.5 16s9.5 28 9.5 52z" />
    <glyph glyph-name="ampersand" unicode="&#x26;" horiz-adv-x="862" 
d="M362 975c27.333 14.667 45.166 28 53.499 40s12.5 30 12.5 54v160c0 27.333 -3.66699 46 -11 56s-20 15 -38 15c-16.667 0 -28.667 -5.5 -36 -16.5s-11 -31.167 -11 -60.5v-158c0 -18.667 2.33301 -34.667 7 -48s12.334 -27.333 23.001 -42zM303 625v-286.999
c0 -44.667 10 -79.667 30 -105s47.667 -38 83 -38c18.667 0 36.667 3.66699 54 11s33.333 18.666 48 33.999zM23 344.001l-0.00195312 278.999c0 60.667 10 108.834 30 144.501s55.667 69.167 107 100.5c-34.667 51.333 -58 93.333 -70 126s-18 70.667 -18 114v133
c0 86 27.5 151.833 82.5 197.5s133.833 68.5 236.5 68.5c89.333 0 161.166 -22.167 215.499 -66.5s81.5 -102.5 81.5 -174.5v-156c0 -59.333 -16.167 -110.166 -48.5 -152.499s-93.166 -89.166 -182.499 -140.499c20 -31.333 56 -97 108 -197
c5.33301 -10.667 9.66602 -18.667 12.999 -24c-2.66699 11.333 -4.5 22.666 -5.5 33.999s-1.5 25.333 -1.5 42v18v121h238v-440c0 -22.667 -2.33301 -43.5 -7 -62.5s-12 -37.833 -22 -56.5c10.667 -10 21.167 -17 31.5 -21s22.5 -6 36.5 -6
c2.66699 0 6.33398 0.333008 11.001 1s8.33398 1 11.001 1v-227h-137c-14 0 -27.833 4.16699 -41.5 12.5s-27.167 21.166 -40.5 38.499c-35.333 -30 -73.166 -51.5 -113.499 -64.5s-92.5 -19.5 -156.5 -19.5c-120.667 0 -210.5 31.167 -269.5 93.5
s-88.5 156.833 -88.5 283.5z" />
    <glyph glyph-name="quotesingle" unicode="'" horiz-adv-x="352" 
d="M80 1438h192v-559h-192v559z" />
    <glyph glyph-name="parenleft" unicode="(" horiz-adv-x="598" 
d="M578 1475c-74.667 -130.667 -130.667 -267 -168 -409s-56 -288.333 -56 -439c0 -152 18.667 -299 56 -441s93.333 -278.333 168 -409h-234c-84 149.333 -146 293 -186 431s-60 277.667 -60 419c0 138.667 20.167 277 60.5 415s102.833 282.333 187.5 433h232z" />
    <glyph glyph-name="parenright" unicode=")" horiz-adv-x="598" 
d="M20 -223c74 130.667 129.832 267.17 167.499 409.503s56.5 289.166 56.5 440.499s-18.667 297.666 -56 438.999s-93.333 277.666 -168 408.999h234c84.667 -150 146.834 -293.667 186.501 -431s59.5 -276.333 59.5 -417c0 -139.333 -20.167 -278.333 -60.5 -417
s-102.833 -283 -187.5 -433h-232z" />
    <glyph glyph-name="asterisk" unicode="*" horiz-adv-x="807" 
d="M141 930l129 174l-198 61l53 164l197 -65v211h165v-211l195 63l53 -162l-200 -63l122 -166l-135 -102l-125 170l-116 -173z" />
    <glyph glyph-name="plus" unicode="+" horiz-adv-x="1706" 
d="M752 1221h202v-510h498v-199h-498v-512h-202v512h-498v199h498v510z" />
    <glyph glyph-name="comma" unicode="," horiz-adv-x="389" 
d="M6 -264l80 563h274l-172 -563h-182z" />
    <glyph glyph-name="hyphen" unicode="-" horiz-adv-x="483" 
d="M59 489v201h365v-201h-365z" />
    <glyph glyph-name="period" unicode="." horiz-adv-x="389" 
d="M59 0v301h271v-301h-271z" />
    <glyph glyph-name="slash" unicode="/" horiz-adv-x="569" 
d="M197 -190h-152l324 1697h151z" />
    <glyph glyph-name="zero" unicode="0" 
d="M45 1126c0 137.333 26.667 235.168 80 293.501s141.333 87.5 264 87.5c123.333 0 211.5 -28.833 264.5 -86.5s79.5 -155.834 79.5 -294.501v-778c0 -138 -26.5 -236 -79.5 -294s-141.167 -87 -264.5 -87s-211.5 29 -264.5 87s-79.5 156 -79.5 294v778zM338 1225
l-0.000976562 -963.001c0 -25.333 4 -43.666 12 -54.999s21 -17 39 -17s30.667 5.5 38 16.5s11 29.5 11 55.5v963c0 26.667 -3.66699 45.167 -11 55.5s-20 15.5 -38 15.5c-17.333 0 -30.166 -5.83301 -38.499 -17.5s-12.5 -29.5 -12.5 -53.5z" />
    <glyph glyph-name="one" unicode="1" 
d="M266 0l0.000976562 1128h-162v179h7c56.667 0 104.167 14.833 142.5 44.5s63.166 70.834 74.499 123.501h231v-1475h-293z" />
    <glyph glyph-name="two" unicode="2" 
d="M432 1225c0 25.333 -3.99902 43.8301 -11.999 55.4971s-20.333 17.5 -37 17.5c-18 0 -30.667 -5.33301 -38 -16s-11 -29.667 -11 -57v-269h-291v170c0 138.667 26.5 236.834 79.5 294.501s141.167 86.5 264.5 86.5c115.333 0 201.5 -28.167 258.5 -84.5
s85.5 -141.5 85.5 -255.5c0 -133.333 -70.667 -307.666 -212 -522.999l-62 -97c-50 -78.667 -84 -140.5 -102 -185.5s-27 -86.167 -27 -123.5c0 -3.33301 0.333008 -7.66602 1 -12.999s1 -9.33301 1 -12h403v-213h-692v244c0 60 10.667 119.667 32 179
s64.666 139.666 129.999 240.999l63 96c110.667 168.667 166 285.334 166 350.001v115z" />
    <glyph glyph-name="three" unicode="3" 
d="M45 580h292.998v-318c0 -25.333 4 -43.666 12 -54.999s21 -17 39 -17c17.333 0 29.833 5.5 37.5 16.5s11.5 29.5 11.5 55.5v277c0 33.333 -8.83301 61 -26.5 83s-39.5 33 -65.5 33h-102v213h102c29.333 0 52 10.333 68 31s24 49.334 24 86.001v240
c0 24.667 -3.83301 42.667 -11.5 54s-20.167 17 -37.5 17c-18 0 -31 -5.33301 -39 -16s-12 -29 -12 -55v-273h-293v174c0 139.333 26.333 237.666 79 294.999s140.334 86 263.001 86c113.333 0 199 -25.667 257 -77s87 -127.333 87 -228v-170
c0 -71.333 -18 -128.833 -54 -172.5s-91 -74.834 -165 -93.501c74.667 -9.33301 129.834 -33.5 165.501 -72.5s53.5 -94.833 53.5 -167.5v-258c0 -96.667 -29.667 -171 -89 -223s-144.333 -78 -255 -78c-122 0 -209.5 29 -262.5 87s-79.5 156 -79.5 294v232z" />
    <glyph glyph-name="four" unicode="4" 
d="M387 0v365h-387v210l281 900h399v-900h90v-210h-90v-365h-293zM225 575h172l2 443c0 19.333 1.66699 54 5 104s8 106 14 168h-19c-14 -80 -35 -177.833 -63 -293.5s-65 -256.167 -111 -421.5z" />
    <glyph glyph-name="five" unicode="5" 
d="M731 782v-514.001c0 -96.667 -29.667 -171 -89 -223s-144.333 -78 -255 -78c-122 0 -209.5 28.833 -262.5 86.5s-79.5 155.167 -79.5 292.5v229h293v-313c0 -25.333 4 -43.666 12 -54.999s21 -17 39 -17c17.333 0 29.833 5.5 37.5 16.5s11.5 29.5 11.5 55.5v465
c0 23.333 -4 40.5 -12 51.5s-20.333 16.5 -37 16.5c-17.333 0 -30.166 -5.16699 -38.499 -15.5s-12.5 -25.833 -12.5 -46.5h-293v742h680v-201h-401v-301c27.333 25.333 55.5 43.5 84.5 54.5s63.5 16.5 103.5 16.5c71.333 0 125.666 -22.167 162.999 -66.5
s56 -109.5 56 -195.5z" />
    <glyph glyph-name="six" unicode="6" 
d="M338 555v-293.003c0 -25.333 4 -43.666 12 -54.999s21 -17 39 -17s30.667 5.5 38 16.5s11 29.5 11 55.5v293c0 26.667 -3.66699 45.334 -11 56.001s-20 16 -38 16s-31 -5.66699 -39 -17s-12 -29.666 -12 -54.999zM733 347.997c0 -138 -26.499 -236 -79.499 -294
s-141.167 -87 -264.5 -87s-211.5 29 -264.5 87s-79.5 156 -79.5 294v778c0 138 26.667 236 80 294s141.333 87 264 87c108 0 192.333 -25 253 -75s91 -119.667 91 -209v-271h-295v273c0 25.333 -3.83301 43.5 -11.5 54.5s-20.167 16.5 -37.5 16.5c-18 0 -31 -5.5 -39 -16.5
s-12 -29.167 -12 -54.5v-398c25.333 20 51.166 34.667 77.499 44s53.833 14 82.5 14c76 0 134.167 -22 174.5 -66s60.5 -107.333 60.5 -190v-281z" />
    <glyph glyph-name="seven" unicode="7" 
d="M80 0l377 1270h-439v205h738v-195l-369 -1280h-307z" />
    <glyph glyph-name="eight" unicode="8" 
d="M438 965v252c0 25.333 -3.83301 43.5 -11.5 54.5s-20.167 16.5 -37.5 16.5c-18 0 -31 -5.5 -39 -16.5s-12 -29.167 -12 -54.5v-252c0 -26 4 -44.5 12 -55.5s21 -16.5 39 -16.5c17.333 0 29.833 5.5 37.5 16.5s11.5 29.5 11.5 55.5zM338 582v-324.001
c0 -25.333 4 -43.666 12 -54.999s21 -17 39 -17s30.667 5.5 38 16.5s11 29.5 11 55.5v324c0 26 -3.66699 44.333 -11 55s-20 16 -38 16s-31 -5.5 -39 -16.5s-12 -29.167 -12 -54.5zM733 318.999c0 -121.333 -27.667 -210.332 -83 -266.999s-142.333 -85 -261 -85
c-120 0 -207.333 28 -262 84s-82 145.333 -82 268v187c0 81.333 13.5 141 40.5 179s74.167 68.333 141.5 91c-64 21.333 -110.333 52.333 -139 93s-43 95.667 -43 165v166c0 99.333 29.667 175.333 89 228s144.333 79 255 79c111.333 0 196.5 -26.333 255.5 -79
s88.5 -128.667 88.5 -228v-166c0 -69.333 -14.833 -124.833 -44.5 -166.5s-76.167 -72.167 -139.5 -91.5c68 -18.667 115.667 -47.834 143 -87.501s41 -100.5 41 -182.5v-187z" />
    <glyph glyph-name="nine" unicode="9" 
d="M438 842v370c0 26 -3.83301 44.5 -11.5 55.5s-20.167 16.5 -37.5 16.5c-18 0 -31 -5.5 -39 -16.5s-12 -29.5 -12 -55.5v-370c0 -26 4 -44.5 12 -55.5s21 -16.5 39 -16.5c17.333 0 29.833 5.5 37.5 16.5s11.5 29.5 11.5 55.5zM338 262
c0 -25.333 3.99805 -43.665 11.998 -54.998s21 -17 39 -17s30.667 5.5 38 16.5s11 29.5 11 55.5v311c-24.667 -18.667 -49.667 -32.5 -75 -41.5s-52.666 -13.5 -81.999 -13.5c-76 0 -134.333 22 -175 66s-61 107.333 -61 190v352c0 138 26.5 236 79.5 294
s141.167 87 264.5 87c122.667 0 210.334 -28.833 263.001 -86.5s79 -155.834 79 -294.501v-778c0 -138 -26.5 -236 -79.5 -294s-140.5 -87 -262.5 -87c-108 0 -192.333 25.167 -253 75.5s-91 120.166 -91 209.499v190h293v-180z" />
    <glyph glyph-name="colon" unicode=":" horiz-adv-x="412" 
d="M72 879v301h270v-301h-270zM72 0v301h270v-301h-270z" />
    <glyph glyph-name="semicolon" unicode=";" horiz-adv-x="412" 
d="M14 -264l80 561h275l-174 -561h-181zM80 879v301h272v-301h-272z" />
    <glyph glyph-name="less" unicode="&#x3c;" horiz-adv-x="1706" 
d="M1442 1194v-219l-893 -365l893 -364v-219l-1178 485v199z" />
    <glyph glyph-name="equal" unicode="=" horiz-adv-x="1706" 
d="M254 496h1198v-199h-1198v199zM254 926h1198v-199h-1198v199z" />
    <glyph glyph-name="greater" unicode="&#x3e;" horiz-adv-x="1706" 
d="M264 1194l1178 -483v-199l-1178 -485v219l895 364l-895 365v219z" />
    <glyph glyph-name="question" unicode="?" horiz-adv-x="768" 
d="M244 0v303h268v-303h-268zM244 371l0.000976562 311.004c0 71.333 26.667 140 80 206l30 39l2 3c48 63.333 72 115.666 72 156.999v146c0 28 -3.66699 47.333 -11 58s-20 16 -38 16c-16.667 0 -28.334 -5.33301 -35.001 -16s-10 -29.334 -10 -56.001v-289h-271v266
c0 95.333 29.667 168.333 89 219s144 76 254 76c94 0 167.333 -24.833 220 -74.5s79 -119.5 79 -209.5v-144c0 -36.667 -3.66699 -68.834 -11 -96.501s-19 -52.834 -35 -75.501l-98 -145c-3.33301 -5.33301 -8.33301 -12.333 -15 -21c-22.667 -29.333 -34 -63.333 -34 -102
v-268h-268z" />
    <glyph glyph-name="at" unicode="@" horiz-adv-x="2048" 
d="M1167 272c-36.667 -56 -79 -97.1602 -127 -123.493s-104.667 -39.5 -170 -39.5c-105.333 0 -185.5 28.667 -240.5 86s-82.5 142 -82.5 254c0 159.333 46.5 293 139.5 401s207.5 162 343.5 162c53.333 0 99.666 -11 138.999 -33s71.666 -54.667 96.999 -98l53 98h178
l-147 -598c-2 -7.33301 -3.66699 -14.833 -5 -22.5s-2 -13.834 -2 -18.501c0 -23.333 8 -40.833 24 -52.5s39.667 -17.5 71 -17.5c26 0 53.167 6.66699 81.5 20s54.833 32 79.5 56c57.333 53.333 100.833 115.666 130.5 186.999s44.5 149.666 44.5 234.999
c0 160 -61.833 291.5 -185.5 394.5s-283.167 154.5 -478.5 154.5c-94 0 -181.5 -11.333 -262.5 -34s-154.5 -56.334 -220.5 -101.001c-113.333 -76 -200.5 -171 -261.5 -285s-91.5 -239 -91.5 -375c0 -204.667 69 -368.167 207 -490.5s322.333 -183.5 553 -183.5
c108 0 213.5 16.333 316.5 49s198.833 80 287.5 142l82 -117c-102 -76.667 -210.167 -134.334 -324.5 -173.001s-233.5 -58 -357.5 -58c-128 0 -245.667 16.167 -353 48.5s-202.666 80.166 -285.999 143.499c-103.333 80.667 -180.666 173.667 -231.999 279
s-77 224.666 -77 357.999c0 111.333 17.5 217.5 52.5 318.5s86.5 192.833 154.5 275.5c98.667 120.667 217.334 212 356.001 274s293 93 463 93c112.667 0 218.5 -15.167 317.5 -45.5s185.167 -73.166 258.5 -128.499c90 -70 157.167 -149.833 201.5 -239.5
s66.5 -190.834 66.5 -303.501c0 -110 -21.833 -211.5 -65.5 -304.5s-106.5 -172.5 -188.5 -238.5c-46.667 -37.333 -97.5 -65.833 -152.5 -85.5s-112.167 -29.5 -171.5 -29.5c-70.667 0 -123.834 14 -159.501 42s-54.167 69.333 -55.5 124zM1217 700.007
c-8.66699 54 -27.833 95.167 -57.5 123.5s-68.834 42.5 -117.501 42.5c-76 0 -142 -41.333 -198 -124s-84 -182 -84 -298c0 -61.333 13.5 -108 40.5 -140s66.167 -48 117.5 -48c55.333 0 105.833 21 151.5 63s76.834 96.667 93.501 164z" />
    <glyph glyph-name="A" unicode="A" horiz-adv-x="811" 
d="M12 0l236 1475h377l174 -1475h-305l-29 393h-146l-38 -393h-269zM342 610l109 0.00195312l-33 450c-2 25.333 -3.66699 71 -5 137c-0.666992 28.667 -1 51 -1 67h-11c-2.66699 -56.667 -5 -101.834 -7 -135.501s-3.66699 -55.834 -5 -66.501z" />
    <glyph glyph-name="B" unicode="B" horiz-adv-x="770" 
d="M440 291v309c0 30 -6.16699 51.167 -18.5 63.5s-33.5 18.5 -63.5 18.5h-16v-473h16c30 0 51.167 6.16699 63.5 18.5s18.5 33.5 18.5 63.5zM440 969v235.001c0 33.333 -6.16699 55.666 -18.5 66.999s-38.833 17 -79.5 17v-405c40 0 66.333 5.83301 79 17.5
s19 34.5 19 68.5zM47 0.000976562l0.000976562 1475h344c115.333 0 201.166 -20.833 257.499 -62.5s84.5 -104.834 84.5 -189.501v-174c0 -79.333 -16.667 -137.666 -50 -174.999s-92.333 -64.333 -177 -81v-8c76.667 -6.66699 133.667 -29.5 171 -68.5s56 -95.5 56 -169.5
v-228c0 -116 -27.333 -198.167 -82 -246.5s-148 -72.5 -280 -72.5h-324z" />
    <glyph glyph-name="C" unicode="C" horiz-adv-x="758" 
d="M41 1126c0 138 26.501 236.002 79.501 294.002s140.5 87 262.5 87c122.667 0 210.667 -28.833 264 -86.5s80 -155.834 80 -294.501v-163h-293v262c0 26 -3.83301 44.333 -11.5 55s-20.834 16 -39.501 16c-18 0 -30.667 -5.33301 -38 -16s-11 -29 -11 -55v-963
c0 -26 3.83301 -44.5 11.5 -55.5s20.167 -16.5 37.5 -16.5c18.667 0 31.834 5.66699 39.501 17s11.5 29.666 11.5 54.999v297h293v-213c0 -137.333 -26.5 -234.833 -79.5 -292.5s-141.167 -86.5 -264.5 -86.5c-122.667 0 -210.334 28.5 -263.001 85.5s-79 154.833 -79 293.5
v780z" />
    <glyph glyph-name="D" unicode="D" horiz-adv-x="776" 
d="M340 1276l-0.000976562 -1067h16c30.667 0 52.334 6.33301 65.001 19s19 33.667 19 63v899c0 34 -6.5 56.833 -19.5 68.5s-39.833 17.5 -80.5 17.5zM46.999 0v1475h344c125.333 0 214 -27.167 266 -81.5s78 -148.166 78 -281.499v-747c0 -132.667 -28 -226.667 -84 -282
s-149.333 -83 -280 -83h-324z" />
    <glyph glyph-name="E" unicode="E" horiz-adv-x="629" 
d="M47 0v1475h549v-205h-254v-340h248v-213h-248v-494h254v-223h-549z" />
    <glyph glyph-name="F" unicode="F" horiz-adv-x="627" 
d="M51 0v1475h549v-205h-254v-340h248v-213h-248v-717h-295z" />
    <glyph glyph-name="G" unicode="G" horiz-adv-x="764" 
d="M39 1126c0 138 26.5 236 79.5 294s141.167 87 264.5 87c115.333 0 201.5 -26.833 258.5 -80.5s85.5 -134.5 85.5 -242.5v-221h-293v262c0 26 -3.83301 44.333 -11.5 55s-20.834 16 -39.501 16c-17.333 0 -29.833 -5.66699 -37.5 -17s-11.5 -29.333 -11.5 -54v-963
c0 -26 3.83301 -44.5 11.5 -55.5s20.167 -16.5 37.5 -16.5c18.667 0 31.834 5.66699 39.501 17s11.5 29.666 11.5 54.999v260h-74v228h367v-750h-145l-19 92c-34 -43.333 -71.667 -75.666 -113 -96.999s-87 -32 -137 -32c-91.333 0 -159.833 32 -205.5 96
s-68.5 160.333 -68.5 289v778z" />
    <glyph glyph-name="H" unicode="H" horiz-adv-x="774" 
d="M47 0v1475h293v-547h92v547h295v-1475h-295v713h-92v-713h-293z" />
    <glyph glyph-name="I" unicode="I" horiz-adv-x="387" 
d="M45 0v1475h295v-1475h-295z" />
    <glyph glyph-name="J" unicode="J" horiz-adv-x="770" 
d="M430 1475l293 0.000976562v-1129c0 -137.333 -26.5 -234.833 -79.5 -292.5s-141.167 -86.5 -264.5 -86.5s-211.5 28.833 -264.5 86.5s-79.5 155.167 -79.5 292.5v213h295v-297c0 -26 3.66699 -44.5 11 -55.5s20 -16.5 38 -16.5s31 5.66699 39 17s12 29.666 12 54.999
v1213z" />
    <glyph glyph-name="K" unicode="K" horiz-adv-x="758" 
d="M47 0v1475h295v-650h4l146 650h282l-182 -611l184 -864h-293l-137 760h-4v-760h-295z" />
    <glyph glyph-name="L" unicode="L" horiz-adv-x="627" 
d="M47 0v1475h295v-1252h254v-223h-549z" />
    <glyph glyph-name="M" unicode="M" horiz-adv-x="1198" 
d="M47 0l-0.000976562 1475h422l96 -770c8 -60 15.667 -142.333 23 -247c0.666992 -8.66699 1.33398 -15.334 2.00098 -20.001l10 1c3.33301 46.667 7.5 92.5 12.5 137.5s11.833 94.5 20.5 148.5l115 750h403v-1475h-268v780c0 40.667 0.5 87.5 1.5 140.5
s2.5 112.5 4.5 178.5l-8 1c-4 -86.667 -13.333 -170.667 -28 -252c-0.666992 -3.33301 -1 -5.33301 -1 -6l-143 -842h-250l-137 800c-4.66699 26.667 -9.5 65.834 -14.5 117.501s-9.83301 112.167 -14.5 181.5l-10 1v-34c1.33301 -308.667 2 -664 2 -1066h-238z" />
    <glyph glyph-name="N" unicode="N" horiz-adv-x="868" 
d="M45 0l-0.000976562 1475h404l104 -625c9.33301 -56 17.333 -118.667 24 -188s12.334 -148.666 17.001 -237.999h12c-4.66699 104 -8.16699 194.833 -10.5 272.5s-3.5 133.5 -3.5 167.5l-2 611h231v-1475h-346l-151 801c-6 31.333 -13.5 78.666 -22.5 141.999
s-18.167 132.666 -27.5 207.999h-8c4 -61.333 7.16699 -115 9.5 -161s3.5 -83.667 3.5 -113v-877h-234z" />
    <glyph glyph-name="O" unicode="O" horiz-adv-x="768" 
d="M39 1126c0 137.333 26.667 235.168 80 293.501s141.333 87.5 264 87.5s210.667 -28.833 264 -86.5s80 -155.834 80 -294.501v-778c0 -138 -26.5 -236 -79.5 -294s-141.167 -87 -264.5 -87s-211.5 29 -264.5 87s-79.5 156 -79.5 294v778zM334 1225v-962.999
c0 -26 3.83301 -44.5 11.5 -55.5s20.167 -16.5 37.5 -16.5c18.667 0 31.834 5.66699 39.501 17s11.5 29.666 11.5 54.999v963c0 26 -3.83301 44.333 -11.5 55s-20.834 16 -39.501 16c-17.333 0 -29.833 -5.66699 -37.5 -17s-11.5 -29.333 -11.5 -54z" />
    <glyph glyph-name="P" unicode="P" horiz-adv-x="758" 
d="M440 862v342.001c0 33.333 -5.83301 55.666 -17.5 66.999s-34.5 17 -68.5 17h-12v-508h18c30.667 0 51.667 6 63 18s17 33.333 17 64zM47 0.000976562v1475h344c118 0 204.5 -21.5 259.5 -64.5s82.5 -110.5 82.5 -202.5v-315c0 -114.667 -27.167 -196.334 -81.5 -245.001
s-145.833 -73 -274.5 -73h-35v-575h-295z" />
    <glyph glyph-name="Q" unicode="Q" horiz-adv-x="768" 
d="M334 1225v-962.999c0 -26 3.83301 -44.5 11.5 -55.5s20.167 -16.5 37.5 -16.5c18.667 0 31.834 5.66699 39.501 17s11.5 29.666 11.5 54.999v963c0 26 -3.83301 44.333 -11.5 55s-20.834 16 -39.501 16c-17.333 0 -29.833 -5.66699 -37.5 -17s-11.5 -29.333 -11.5 -54z
M39 1126c0 137.333 26.665 235.167 79.998 293.5s141.333 87.5 264 87.5s210.667 -28.833 264 -86.5s80 -155.834 80 -294.501v-780c0 -100.667 -12.667 -176.5 -38 -227.5s-68.666 -90.5 -129.999 -118.5c0 -16 3.5 -27.5 10.5 -34.5s17.833 -10.5 32.5 -10.5h119v-215
h-182c-38 0 -67.333 18.667 -88 56s-31 91 -31 161v10c-11.333 -0.666992 -21.666 -1.16699 -30.999 -1.5s-18.333 -0.5 -27 -0.5c-111.333 0 -193 30.333 -245 91s-78 157.334 -78 290.001v780z" />
    <glyph glyph-name="R" unicode="R" horiz-adv-x="764" 
d="M440 969v235.002c0 33.333 -6.5 55.666 -19.5 66.999s-39.167 17 -78.5 17v-403h16c30.667 0 52 6.16699 64 18.5s18 34.166 18 65.499zM47 0.00195312l-0.000976562 1475h344c120 0 207 -21.167 261 -63.5s81 -110.166 81 -203.499v-155
c0 -77.333 -19 -136.666 -57 -177.999s-94.667 -64 -170 -68v-8c84 -5.33301 142.833 -26.166 176.5 -62.499s50.5 -98.166 50.5 -185.499v-375c0 -30 2.33301 -60.167 7 -90.5s11.334 -58.833 20.001 -85.5h-291c-9.33301 25.333 -16.5 53.5 -21.5 84.5
s-7.5 64.167 -7.5 99.5v54v321c0 41.333 -7.83301 72.5 -23.5 93.5s-39.167 31.5 -70.5 31.5h-4v-684h-295z" />
    <glyph glyph-name="S" unicode="S" horiz-adv-x="754" 
d="M33 1210c0 94 30.1689 166.999 90.502 218.999s144.833 78 253.5 78c109.333 0 193.666 -26.167 252.999 -78.5s89 -127.166 89 -224.499v-241h-293v262c0 26.667 -3.66699 45.167 -11 55.5s-20 15.5 -38 15.5c-18.667 0 -31.834 -5.5 -39.501 -16.5
s-11.5 -29.167 -11.5 -54.5v-131c0 -22 2.83301 -41.167 8.5 -57.5s14.834 -32.166 27.501 -47.499l283 -311c26.667 -28.667 45.667 -59 57 -91s17 -83 17 -153v-172c0 -94.667 -29.833 -167.5 -89.5 -218.5s-144.5 -76.5 -254.5 -76.5
c-112.667 0 -197.834 26.667 -255.501 80s-86.5 132 -86.5 236v276h293v-297c0 -25.333 3.83301 -43.666 11.5 -54.999s20.834 -17 39.501 -17c17.333 0 29.833 5.5 37.5 16.5s11.5 29.5 11.5 55.5v156c0 21.333 -3.83301 41.166 -11.5 59.499
s-20.834 38.166 -39.501 59.499l-266 301c-27.333 30.667 -46.833 61.5 -58.5 92.5s-17.5 72.5 -17.5 124.5v22v133z" />
    <glyph glyph-name="T" unicode="T" horiz-adv-x="688" 
d="M197 0v1266h-189v209h672v-209h-191v-1266h-292z" />
    <glyph glyph-name="U" unicode="U" 
d="M733 1475v-1129c0 -137.333 -26.5 -234.833 -79.5 -292.5s-141.167 -86.5 -264.5 -86.5s-211.5 28.833 -264.5 86.5s-79.5 155.167 -79.5 292.5v1129h293v-1213c0 -25.333 4 -43.666 12 -54.999s21 -17 39 -17s30.667 5.5 38 16.5s11 29.5 11 55.5v1213h295z" />
    <glyph glyph-name="V" unicode="V" horiz-adv-x="784" 
d="M178 0l-164 1475h303l58 -927c2 -26 4.33301 -61 7 -105s5.33398 -91.333 8.00098 -142h7c4 56.667 8.16699 110.5 12.5 161.5s9.16602 100.833 14.499 149.5l86 863h262l-203 -1475h-391z" />
    <glyph glyph-name="W" unicode="W" horiz-adv-x="1239" 
d="M170 0l-147 1475h296l35 -563c3.33301 -49.333 6.16602 -103.5 8.49902 -162.5s5.16602 -144.167 8.49902 -255.5h10c4.66699 66 9.5 127.833 14.5 185.5s9.83301 106.167 14.5 145.5l77 650h312l61 -696c0.666992 -11.333 3.66699 -49.5 9 -114.5l14 -170.5h10
c2.66699 81.333 5.83398 156.666 9.50098 225.999s7.83398 136.333 12.501 201l46 554h247l-159 -1475h-340l-74 791c-2.66699 28 -5.16699 60.5 -7.5 97.5s-4.5 84.833 -6.5 143.5h-11l-104 -1032h-336z" />
    <glyph glyph-name="X" unicode="X" horiz-adv-x="774" 
d="M-12 0l176.001 762.001l-156 713h303l60 -334c4.66699 -30 9.16699 -61 13.5 -93s7.83301 -64.333 10.5 -97l10 -1l15.5 110.5c5 34.333 9.5 63.166 13.5 86.499l70 328h264l-166 -668l172 -807h-311l-72 461c-6.66699 45.333 -11.167 79.5 -13.5 102.5
s-3.83301 44.5 -4.5 64.5l-8 1c-4 -47.333 -11.667 -100 -23 -158c-0.666992 -5.33301 -1.33398 -9.33301 -2.00098 -12l-78 -459h-274z" />
    <glyph glyph-name="Y" unicode="Y" horiz-adv-x="729" 
d="M217 0v559l-223 916h303l53 -336c6.66699 -41.333 12 -81.5 16 -120.5s7 -78.167 9 -117.5h12c6 52 11.5 97.667 16.5 137s9.83301 72.333 14.5 99l59 338h262l-229 -916v-559h-293z" />
    <glyph glyph-name="Z" unicode="Z" horiz-adv-x="643" 
d="M31 0v227l274 1035h-274v213h577v-175l-289 -1077h291v-223h-579z" />
    <glyph glyph-name="bracketleft" unicode="[" horiz-adv-x="592" 
d="M113 -225v1700h452v-191h-203v-1323h203v-186h-452z" />
    <glyph glyph-name="backslash" unicode="\" horiz-adv-x="569" 
d="M369 -190l-324 1697h152l323 -1697h-151z" />
    <glyph glyph-name="bracketright" unicode="]" horiz-adv-x="592" 
d="M477 1475v-1700h-450v188h202v1325h-202v187h450z" />
    <glyph glyph-name="asciicircum" unicode="^" horiz-adv-x="2048" 
d="M897 1460h252l481 -561h-235l-371 371l-373 -371h-235z" />
    <glyph glyph-name="underscore" unicode="_" horiz-adv-x="1024" 
d="M0 -279h1024v-204h-1024v204z" />
    <glyph glyph-name="grave" unicode="`" horiz-adv-x="1024" 
d="M467 1251l-188 224h251l99 -224h-162z" />
    <glyph glyph-name="a" unicode="a" horiz-adv-x="694" 
d="M395 266v313.001c-4 -2.66699 -9.33301 -6.66699 -16 -12c-52 -40 -78 -75.333 -78 -106v-195c0 -26.667 3.5 -44.834 10.5 -54.501s19.167 -14.5 36.5 -14.5c16 0 27.833 5.5 35.5 16.5s11.5 28.5 11.5 52.5zM39 938.001c0 89.333 25.834 156.666 77.501 201.999
s128.167 68 229.5 68c110.667 0 189.5 -25.167 236.5 -75.5s70.5 -137.166 70.5 -260.499v-718c0 -31.333 1.5 -59.166 4.5 -83.499s7.83301 -47.833 14.5 -70.5h-264c-3.33301 14 -6 28.167 -8 42.5s-3 27.5 -3 39.5v18h-4
c-18.667 -38.667 -43.834 -68.334 -75.501 -89.001s-68.5 -31 -110.5 -31c-55.333 0 -97.166 16.667 -125.499 50s-42.5 82.666 -42.5 147.999v250c0 62 11.167 112.5 33.5 151.5s58.166 71.833 107.499 98.5c16 8.66699 38.667 20.334 68 35.001c98 50 147 97.667 147 143
v84c0 25.333 -3.83301 43.666 -11.5 54.999s-20.167 17 -37.5 17c-16 0 -27.5 -5.66699 -34.5 -17s-10.5 -29.666 -10.5 -54.999v-172h-262v170z" />
    <glyph glyph-name="b" unicode="b" horiz-adv-x="696" 
d="M397 258v657.001c0 27.333 -3.5 45.833 -10.5 55.5s-19.167 14.5 -36.5 14.5c-16 0 -27.833 -5.66699 -35.5 -17s-11.5 -29 -11.5 -53v-657c0 -24 3.83301 -42 11.5 -54s19.5 -18 35.5 -18c17.333 0 29.5 5.16699 36.5 15.5s10.5 29.166 10.5 56.499zM43 0.000976562
l-0.000976562 1475h260v-394h4c20 40.667 45 71 75 91s65.667 30 107 30c56.667 0 99.167 -16.833 127.5 -50.5s42.5 -83.834 42.5 -150.501v-831c0 -66 -14 -115.667 -42 -149s-70.667 -50 -128 -50c-44 0 -81.667 11 -113 33s-55.666 54.667 -72.999 98h-4v-102h-256z" />
    <glyph glyph-name="c" unicode="c" horiz-adv-x="684" 
d="M39 307l-0.000976562 564.999c0 124 23.333 211 70 261s125 75 235 75c96.667 0 172.334 -22.5 227.001 -67.5s82 -107.167 82 -186.5v-186h-260v184c0 26 -3.66699 44.5 -11 55.5s-19.333 16.5 -36 16.5s-28.667 -5.5 -36 -16.5s-11 -29.5 -11 -55.5v-714
c0 -26 3.66699 -44.5 11 -55.5s19.333 -16.5 36 -16.5s28.667 5.5 36 16.5s11 29.5 11 55.5v221h260v-219c0 -85.333 -26.833 -151.5 -80.5 -198.5s-129.167 -70.5 -226.5 -70.5c-110 0 -188.667 25.333 -236 76s-71 137.334 -71 260.001z" />
    <glyph glyph-name="d" unicode="d" horiz-adv-x="696" 
d="M653 0l-255.999 0.000976562v102h-4c-17.333 -43.333 -41.5 -76 -72.5 -98s-68.833 -33 -113.5 -33c-56.667 0 -98.834 16.5 -126.501 49.5s-41.5 82.833 -41.5 149.5v831c0 67.333 14 117.666 42 150.999s70 50 126 50c41.333 0 77 -10 107 -30s55 -50.333 75 -91h4v394
h260v-1475zM299.001 258.001c0 -27.333 3.5 -46.167 10.5 -56.5s19.167 -15.5 36.5 -15.5c16 0 27.833 6 35.5 18s11.5 30 11.5 54v657c0 24 -3.83301 41.667 -11.5 53s-19.5 17 -35.5 17c-17.333 0 -29.5 -4.83301 -36.5 -14.5s-10.5 -28.167 -10.5 -55.5v-657z" />
    <glyph glyph-name="e" unicode="e" horiz-adv-x="692" 
d="M299 952v-223h94v223c0 26 -3.66699 44.5 -11 55.5s-19.333 16.5 -36 16.5s-28.667 -5.5 -36 -16.5s-11 -29.5 -11 -55.5zM299 238c0 -26 3.66602 -44.501 10.999 -55.501s19.333 -16.5 36 -16.5s28.667 5.5 36 16.5s11 29.5 11 55.5v221h260v-219
c0 -85.333 -26.833 -151.5 -80.5 -198.5s-129.167 -70.5 -226.5 -70.5c-110 0 -188.667 25.333 -236 76s-71 137.334 -71 260.001v565c0 124 23.333 211 70 261s125 75 235 75c96.667 0 172.334 -22.5 227.001 -67.5s82 -107.167 82 -186.5v-401h-354v-315z" />
    <glyph glyph-name="f" unicode="f" horiz-adv-x="432" 
d="M84 0l0.000976562 993.001h-64v187h64v112c0 57.333 17.333 102.166 52 134.499s83 48.5 145 48.5h147v-185c-30.667 0 -52.334 -3.5 -65.001 -10.5s-19 -19.167 -19 -36.5v-63h84v-187h-84v-993h-260z" />
    <glyph glyph-name="g" unicode="g" horiz-adv-x="694" 
d="M299 412c0 -27.333 3.5 -46.167 10.5 -56.5s19.167 -15.5 36.5 -15.5c16 0 27.833 5.83301 35.5 17.5s11.5 29.834 11.5 54.501v512c0 24 -3.83301 41.5 -11.5 52.5s-19.5 16.5 -35.5 16.5c-17.333 0 -29.5 -4.83301 -36.5 -14.5s-10.5 -27.834 -10.5 -54.501v-512z
M393 259.999h-4.00195c-18.667 -44 -43.167 -76.833 -73.5 -98.5s-67.166 -32.5 -110.499 -32.5c-57.333 0 -99.333 15.833 -126 47.5s-40 82.167 -40 151.5v690c0 59.333 14.333 104.833 43 136.5s70.334 47.5 125.001 47.5c41.333 0 77 -9.66699 107 -29
s56.333 -50 79 -92h6v99h254v-1110c0 -123.333 -23.667 -210.166 -71 -260.499s-126 -75.5 -236 -75.5c-97.333 0 -172.833 23.5 -226.5 70.5s-80.5 112.833 -80.5 197.5v90h260v-92c0 -26 3.66699 -44.5 11 -55.5s19.333 -16.5 36 -16.5s28.667 5.66699 36 17
s11 29.666 11 54.999v260z" />
    <glyph glyph-name="h" unicode="h" horiz-adv-x="698" 
d="M43 0v1475h260v-394h4c19.333 41.333 44 71.833 74 91.5s66 29.5 108 29.5c56.667 0 99.167 -16.833 127.5 -50.5s42.5 -83.834 42.5 -150.501v-1001h-262v915c0 27.333 -3.5 45.833 -10.5 55.5s-19.167 14.5 -36.5 14.5c-16 0 -27.833 -5.66699 -35.5 -17
s-11.5 -29 -11.5 -53v-915h-260z" />
    <glyph glyph-name="i" unicode="i" horiz-adv-x="346" 
d="M43 0v1180h260v-1180h-260zM43 1251v224h260v-224h-260z" />
    <glyph glyph-name="j" unicode="j" horiz-adv-x="348" 
d="M47 1251v224h260v-224h-260zM47 -12l0.000976562 1192h260v-1266c0 -62.667 -14.833 -108.334 -44.5 -137.001s-76.834 -43 -141.501 -43h-187v184h21c38.667 0 63.667 4.16699 75 12.5s17 27.5 17 57.5z" />
    <glyph glyph-name="k" unicode="k" horiz-adv-x="676" 
d="M43 0v1475h260v-809h4l111 514h266l-129 -510l129 -670h-274l-103 618h-4v-618h-260z" />
    <glyph glyph-name="l" unicode="l" horiz-adv-x="346" 
d="M43 0v1475h260v-1475h-260z" />
    <glyph glyph-name="m" unicode="m" horiz-adv-x="1044" 
d="M43 0v1180h254v-99h4c20.667 40.667 46.5 71 77.5 91s67.167 30 108.5 30c39.333 0 72.333 -10.167 99 -30.5s46.334 -50.5 59.001 -90.5h4c23.333 40.667 50.5 71 81.5 91s66.833 30 107.5 30c57.333 0 99.666 -16.333 126.999 -49s41 -83.334 41 -152.001v-1001h-261
v915c0 27.333 -3.5 45.833 -10.5 55.5s-19.167 14.5 -36.5 14.5c-16 0 -27.833 -5.66699 -35.5 -17s-11.5 -29 -11.5 -53v-915h-256v915c0 27.333 -3.5 45.833 -10.5 55.5s-19.167 14.5 -36.5 14.5c-16 0 -27.833 -5.66699 -35.5 -17s-11.5 -29 -11.5 -53v-915h-258z" />
    <glyph glyph-name="n" unicode="n" horiz-adv-x="698" 
d="M43 0l-0.000976562 1180h256v-99h4c22 41.333 48.333 71.833 79 91.5s66.334 29.5 107.001 29.5c56.667 0 99.167 -16.833 127.5 -50.5s42.5 -83.834 42.5 -150.501v-1001h-262v915c0 27.333 -3.5 45.833 -10.5 55.5s-19.167 14.5 -36.5 14.5
c-16 0 -27.833 -5.66699 -35.5 -17s-11.5 -29 -11.5 -53v-915h-260z" />
    <glyph glyph-name="o" unicode="o" horiz-adv-x="692" 
d="M301 952v-713.998c0 -26 3.66699 -44.5 11 -55.5s19.333 -16.5 36 -16.5s28.667 5.5 36 16.5s11 29.5 11 55.5v714c0 25.333 -3.83301 43.666 -11.5 54.999s-20.167 17 -37.5 17c-16 0 -27.5 -5.33301 -34.5 -16s-10.5 -29.334 -10.5 -56.001zM39 872.002
c0 122 23.833 208.5 71.5 259.5s126.167 76.5 235.5 76.5s187.833 -25.5 235.5 -76.5s71.5 -137.5 71.5 -259.5v-565c0 -121.333 -23.833 -207.666 -71.5 -258.999s-126.167 -77 -235.5 -77s-187.833 25.667 -235.5 77s-71.5 137.666 -71.5 258.999v565z" />
    <glyph glyph-name="p" unicode="p" horiz-adv-x="696" 
d="M303 915v-655c0 -24 3.83301 -41.667 11.5 -53s19.5 -17 35.5 -17c17.333 0 29.5 5 36.5 15s10.5 28.333 10.5 55v655c0 27.333 -3.5 45.833 -10.5 55.5s-19.167 14.5 -36.5 14.5c-16 0 -27.833 -5.66699 -35.5 -17s-11.5 -29 -11.5 -53zM43 -266l-0.000976562 1446h256
v-99h4c22 41.333 48.333 71.833 79 91.5s66.334 29.5 107.001 29.5c56.667 0 99.167 -16.833 127.5 -50.5s42.5 -83.834 42.5 -150.501v-825c0 -66.667 -14.167 -116.834 -42.5 -150.501s-70.833 -50.5 -127.5 -50.5c-40 0 -75.167 9.5 -105.5 28.5
s-55.833 47.167 -76.5 84.5h-4v-354h-260z" />
    <glyph glyph-name="q" unicode="q" horiz-adv-x="696" 
d="M395 915c0 24 -3.83301 41.667 -11.5 53s-19.5 17 -35.5 17c-17.333 0 -29.5 -4.83301 -36.5 -14.5s-10.5 -28.167 -10.5 -55.5v-655c0 -26.667 3.5 -45 10.5 -55s19.167 -15 36.5 -15c16 0 27.833 5.66699 35.5 17s11.5 29 11.5 53v655zM657 -266l-262 -0.00195312v354
h-4c-20 -38 -45 -66.333 -75 -85s-65 -28 -105 -28c-56.667 0 -99.167 16.833 -127.5 50.5s-42.5 83.834 -42.5 150.501v825c0 66.667 14.167 116.834 42.5 150.501s70.833 50.5 127.5 50.5c40.667 0 76 -9.83301 106 -29.5s56 -50.167 78 -91.5h6v99h256v-1446z" />
    <glyph glyph-name="r" unicode="r" horiz-adv-x="678" 
d="M43 0l-0.000976562 1180h256v-99h4c22 41.333 48.333 71.833 79 91.5s66.334 29.5 107.001 29.5c56.667 0 99.167 -16.833 127.5 -50.5s42.5 -83.834 42.5 -150.501v-456h-262v370c0 27.333 -3.5 45.833 -10.5 55.5s-19.167 14.5 -36.5 14.5
c-16 0 -27.833 -5.66699 -35.5 -17s-11.5 -29 -11.5 -53v-915h-260z" />
    <glyph glyph-name="s" unicode="s" horiz-adv-x="682" 
d="M651 244c0 -88 -26.334 -155.5 -79.001 -202.5s-128.667 -70.5 -228 -70.5c-97.333 0 -173.166 23.667 -227.499 71s-81.5 113.333 -81.5 198v219h262v-221c0 -26 3.66699 -44.5 11 -55.5s19.333 -16.5 36 -16.5s28.667 5.5 36 16.5s11 29.5 11 55.5v106
c0 48 -43.333 106.667 -130 176l-44 35l-2 2c-120 99.333 -180 199 -180 299v105c0 78 27 138.667 81 182s129.333 65 226 65c98 0 174 -22.667 228 -68s81 -109.333 81 -192v-180h-260v184c0 26 -3.66699 44.5 -11 55.5s-19.333 16.5 -36 16.5s-28.667 -5.5 -36 -16.5
s-11 -29.5 -11 -55.5v-63c0 -53.333 41.667 -112 125 -176l45 -35c82 -66 133.167 -117.5 153.5 -154.5s30.5 -85.167 30.5 -144.5v-135z" />
    <glyph glyph-name="t" unicode="t" horiz-adv-x="408" 
d="M2 991l-0.000976562 189.001h66v219h262v-219h76v-189h-76v-717c0 -36.667 4.5 -59.834 13.5 -69.501s26.833 -14.5 53.5 -14.5h9v-190h-164c-63.333 0 -108.166 14.5 -134.499 43.5s-39.5 83.5 -39.5 163.5v784h-66z" />
    <glyph glyph-name="u" unicode="u" horiz-adv-x="698" 
d="M659 1180v-1180h-256v98h-6c-22 -40.667 -47.833 -70.5 -77.5 -89.5s-65.167 -28.5 -106.5 -28.5c-56.667 0 -99.167 16.5 -127.5 49.5s-42.5 82.5 -42.5 148.5v1002h260v-916c0 -26 3.83301 -44 11.5 -54s20.167 -15 37.5 -15c16 0 27.5 5.33301 34.5 16
s10.5 28.334 10.5 53.001v916h262z" />
    <glyph glyph-name="v" unicode="v" horiz-adv-x="625" 
d="M154 0l-170.002 1180h262l57 -584c4.66699 -44 8.33398 -92.167 11.001 -144.5s4.66699 -108.5 6 -168.5h8c1.33301 64.667 3.83301 126.834 7.5 186.501s7.83398 114.5 12.501 164.5l53 546h246l-170 -1180h-323z" />
    <glyph glyph-name="w" unicode="w" horiz-adv-x="1057" 
d="M145 0l-161.001 1180h264l49 -611c2.66699 -38.667 4.66699 -81.334 6 -128.001s2 -96 2 -148h10c2.66699 98 9.66699 195 21 291c0.666992 7.33301 1.33398 12.666 2.00098 15.999l65 580h273l53 -611c0.666992 -6 2.16699 -39.333 4.5 -100
s4.83301 -119.334 7.5 -176.001h11c4 87.333 10.333 177.333 19 270c2 18.667 3 30.334 3 35.001l53 582h252l-176 -1180h-301l-49 541c-1.33301 16.667 -3 50 -5 100s-4 107.333 -6 172h-10c-3.33301 -87.333 -10 -170.666 -20 -249.999v-4l-70 -559h-297z" />
    <glyph glyph-name="x" unicode="x" horiz-adv-x="659" 
d="M-25 0l161.999 621l-131 559h275l45 -271c4 -24 7.5 -50.333 10.5 -79s4.83301 -58 5.5 -88l8 -1c4 58 12 118.333 24 181c0 2 0.333008 4 1 6l49 252h242l-134 -566l134 -614h-275l-53 295c-4 22.667 -7.16699 49.5 -9.5 80.5s-4.16602 64.833 -5.49902 101.5h-7
c-2.66699 -38 -6 -73.833 -10 -107.5s-7.66699 -58.5 -11 -74.5l-59 -295h-261z" />
    <glyph glyph-name="y" unicode="y" horiz-adv-x="627" 
d="M467 -8c-15.333 -100.667 -40.166 -168.832 -74.499 -204.499s-90.166 -53.5 -167.499 -53.5h-221v190h111c17.333 0 29.833 2.83301 37.5 8.5s11.5 15.167 11.5 28.5c0 4.66699 -0.666992 12.667 -2 24s-4 32.666 -8 63.999l-172 1131h268l45 -593
c2 -28 4 -66.333 6 -115l7 -177h7c3.33301 44 7.16602 90.167 11.499 138.5s10.166 107.833 17.499 178.5l59 568h244z" />
    <glyph glyph-name="z" unicode="z" horiz-adv-x="522" 
d="M16 0v205l215 780h-208v195h489v-170l-225 -811h225v-199h-496z" />
    <glyph glyph-name="braceleft" unicode="{" horiz-adv-x="1024" 
d="M883 1477v-208.998c-6 0 -14.333 0.333008 -25 1s-18 1 -22 1c-67.333 0 -112.833 -12.833 -136.5 -38.5s-35.5 -79.834 -35.5 -162.501v-240c0 -98.667 -15 -168.667 -45 -210s-84 -71 -162 -89c78 -18 132 -47.333 162 -88s45 -110.334 45 -209.001v-241
c0 -82 11.667 -135.667 35 -161s69 -38 137 -38c4 0 11.333 0.333008 22 1s19 1 25 1v-209c-9.33301 0 -22.333 -0.333008 -39 -1s-29 -1 -37 -1c-66.667 0 -122.334 4 -167.001 12s-82.667 20.333 -114 37c-38 22.667 -64.833 53.167 -80.5 91.5s-23.5 104.833 -23.5 199.5
v252c0 91.333 -17 156.166 -51 194.499s-91.333 57.5 -172 57.5c-4 0 -10.667 -0.333008 -20 -1s-16.333 -1 -21 -1v209c4.66699 0 11.667 -0.333008 21 -1s16 -1 20 -1c80 0 137.167 19.333 171.5 58s51.5 104 51.5 196v250c0 95.333 7.83301 162.333 23.5 201
s42.5 69.334 80.5 92.001c31.333 16.667 69.333 29 114 37s100.334 12 167.001 12c8 0 20.333 -0.333008 37 -1s29.667 -1 39 -1z" />
    <glyph glyph-name="bar" unicode="|" horiz-adv-x="1024" 
d="M410 1565h206v-2048h-206v2048z" />
    <glyph glyph-name="braceright" unicode="}" horiz-adv-x="1024" 
d="M143 1477h68.001c73.333 0 132.333 -4 177 -12s82 -20.667 112 -38c38 -21.333 64.833 -51.833 80.5 -91.5s23.5 -105.834 23.5 -198.501v-252c0 -91.333 17 -156.166 51 -194.499s91.333 -57.5 172 -57.5c4 0 10.667 0.333008 20 1s16.333 1 21 1v-209h-37
c-83.333 0 -142 -18.667 -176 -56s-51 -102 -51 -194v-252c0 -95.333 -7.83301 -162.333 -23.5 -201s-42.5 -68.667 -80.5 -90c-31.333 -16.667 -69.333 -29 -114 -37s-100.334 -12 -167.001 -12c-8 0 -20.333 0.333008 -37 1s-29.667 1 -39 1v209
c6 0 14.333 -0.333008 25 -1s18 -1 22 -1c67.333 0 112.833 12.833 136.5 38.5s35.5 79.167 35.5 160.5v239c0 100 15 170.5 45 211.5s84 70.167 162 87.5c-78 18 -132 47.667 -162 89s-45 111.333 -45 210v242c0 81.333 -11.833 134.833 -35.5 160.5
s-69.167 38.5 -136.5 38.5c-4 0 -11.333 -0.333008 -22 -1s-19 -1 -25 -1v209z" />
    <glyph glyph-name="asciitilde" unicode="~" horiz-adv-x="1706" 
d="M1530 803l0.00390625 -221c-69.333 -47.333 -134.833 -82.166 -196.5 -104.499s-122.5 -33.5 -182.5 -33.5c-30.667 0 -61.334 2.66699 -92.001 8s-61.334 13 -92.001 23c-16 5.33301 -39.667 13.666 -71 24.999c-146 50 -257 75 -333 75
c-56.667 0 -115.834 -12.5 -177.501 -37.5s-130.834 -64.833 -207.501 -119.5v221c71.333 48 139.333 83.833 204 107.5s125.667 35.5 183 35.5c78 0 175 -19.333 291 -58c2 -0.666992 3.33301 -1 4 -1l55 -19c103.333 -36.667 183.333 -55 240 -55s115 12.333 175 37
s126.667 63.667 200 117z" />
    <glyph glyph-name="nonbreakingspace" unicode="&#xa0;" 
 />
    <glyph glyph-name="exclamdown" unicode="&#xa1;" horiz-adv-x="436" 
d="M350 1475v-306h-266v306h266zM350 1098v-1098h-266v1098h266z" />
    <glyph glyph-name="cent" unicode="&#xa2;" 
d="M80 332v552.998c0 117.333 19.333 199.666 58 246.999s106.667 76.333 204 87v196h94v-196c84 -7.33301 148.333 -32.666 193 -75.999s67 -102 67 -176v-183h-260v181c0 25.333 -3.66699 43.5 -11 54.5s-19.333 16.5 -36 16.5s-28.667 -5.5 -36 -16.5
s-11 -29.167 -11 -54.5v-713c0 -26 3.66699 -44.833 11 -56.5s19.333 -17.5 36 -17.5s28.667 5.83301 36 17.5s11 30.5 11 56.5v229h260v-217c0 -78 -22.333 -139.667 -67 -185s-109 -71.666 -193 -78.999v-213h-94v213c-98 11.333 -166.167 40.333 -204.5 87
s-57.5 128.334 -57.5 245.001z" />
    <glyph glyph-name="sterling" unicode="&#xa3;" 
d="M41 0v217.001c39.333 25.333 68.333 58.166 87 98.499s28 90.833 28 151.5c0 18 -1.16699 38.667 -3.5 62s-6.16602 53 -11.499 89h-100v158h74c-24 117.333 -39.667 203.666 -47 258.999s-11 105.666 -11 150.999c0 104.667 29.167 184.334 87.5 239.001
s142.5 82 252.5 82c112.667 0 197.167 -26.5 253.5 -79.5s84.5 -132.167 84.5 -237.5v-248h-289v268c0 34.667 -3.5 57.667 -10.5 69s-19.833 17 -38.5 17c-20 0 -33.833 -7.16699 -41.5 -21.5s-11.5 -46.5 -11.5 -96.5c0 -72 9.66699 -152 29 -240s29.333 -142 30 -162h332
v-158h-313c2 -22 3.5 -42 4.5 -60s1.5 -33.333 1.5 -46c0 -75.333 -15 -137.666 -45 -186.999s-75 -85.333 -135 -108v-16c30.667 5.33301 60.167 9.33301 88.5 12s56.166 4 83.499 4h315v-217h-694z" />
    <glyph glyph-name="currency" unicode="&#xa4;" horiz-adv-x="1241" 
d="M623 1161c-75.333 0 -140.333 -27.333 -195 -82s-82 -119.334 -82 -194.001c0 -76 27 -140.833 81 -194.5s119.333 -80.5 196 -80.5c75.333 0 140.166 26.833 194.499 80.5s81.5 118.5 81.5 194.5c0 74.667 -27.167 139.334 -81.5 194.001s-119.166 82 -194.499 82z
M172 1438l204.999 -203c36 26 74 45.5 114 58.5s83.333 19.5 130 19.5s90.5 -6.5 131.5 -19.5s79.5 -32.5 115.5 -58.5l203 203l105 -107l-203 -205c25.333 -35.333 44.333 -73.166 57 -113.499s19 -82.833 19 -127.5s-6.33301 -87 -19 -127s-31.667 -78.333 -57 -115
l203 -205l-105 -104l-203 203c-36 -26.667 -74.333 -46.334 -115 -59.001s-84 -19 -130 -19c-48 0 -92.167 6.33301 -132.5 19s-78.166 32.334 -113.499 59.001l-205 -203l-104 104l202 205c-25.333 36 -44.166 73.833 -56.499 113.5s-18.5 82.5 -18.5 128.5
c0 44.667 6.16699 87.167 18.5 127.5s31.166 78.166 56.499 113.499l-202 205z" />
    <glyph glyph-name="yen" unicode="&#xa5;" 
d="M756 1475l-140 -555h142v-113h-170l-33 -133h203v-115h-232v-559h-284v559h-224v115h193l-31 133h-162v113h136l-136 555h295l52 -336c6 -43.333 11.5 -85.166 16.5 -125.499s8.83301 -77.833 11.5 -112.5h17l22.5 155.5c7.66699 52.333 11.5 79.166 11.5 80.499l60 338
h252z" />
    <glyph glyph-name="brokenbar" unicode="&#xa6;" horiz-adv-x="1024" 
d="M410 408h206v-758h-206v758zM410 1432h206v-758h-206v758z" />
    <glyph glyph-name="section" unicode="&#xa7;" horiz-adv-x="807" 
d="M535 496l0.000976562 129.001c0 50.667 -6.83301 85.167 -20.5 103.5s-55.5 45.166 -125.5 80.499l-117 57v-149c0 -41.333 8.16699 -71.5 24.5 -90.5s67.166 -48.833 152.499 -89.5zM745.001 1014l-215.001 -0.00488281v174c0 46 -10.333 79 -31 99s-54.667 30 -102 30
c-42.667 0 -74.167 -9.33301 -94.5 -28s-30.5 -47.667 -30.5 -87c0 -38 9 -67.667 27 -89s63 -49.666 135 -84.999l123 -59c75.333 -36.667 127 -74.5 155 -113.5s42 -94.833 42 -167.5c0 -90.667 -7 -152.167 -21 -184.5s-38.667 -56.833 -74 -73.5
c35.333 -21.333 60 -46.5 74 -75.5s21 -72.833 21 -131.5c0 -75.333 -4.66699 -130.166 -14 -164.499s-25.333 -64.833 -48 -91.5c-32 -37.333 -72.5 -65.333 -121.5 -84s-106.167 -28 -171.5 -28c-60 0 -114 8.5 -162 25.5s-86 41.167 -114 72.5
c-25.333 27.333 -43.333 59.166 -54 95.499s-16 97.166 -16 182.499v134h219v-185c0 -46.667 10.333 -80.167 31 -100.5s54 -30.5 100 -30.5c50 0 84.5 8.83301 103.5 26.5s28.5 49.834 28.5 96.501c0 62.667 -52.333 119 -157 169
c-3.33301 1.33301 -5.66602 2.33301 -6.99902 3l-123 59c-76.667 37.333 -128.334 76.833 -155.001 118.5s-40 110.834 -40 207.501c0 64 6.66699 111.333 20 142s36 54.334 68 71.001c-32 26.667 -54.667 56.667 -68 90s-20 81.333 -20 144
c0 111.333 29.333 194.333 88 249s147 82 265 82c62 0 116.5 -8.16699 163.5 -24.5s84.5 -40.166 112.5 -71.499c22.667 -25.333 38.834 -52.666 48.501 -81.999s14.5 -70.333 14.5 -123v-67v-125z" />
    <glyph glyph-name="dieresis" unicode="&#xa8;" horiz-adv-x="1024" 
d="M555 1262v200h184v-200h-184zM285 1262v200h182v-200h-182z" />
    <glyph glyph-name="copyright" unicode="&#xa9;" horiz-adv-x="1706" 
d="M1212 897l-188.001 -0.00195312c-5.33301 46.667 -23 82.834 -53 108.501s-69.667 38.5 -119 38.5c-60.667 0 -108.334 -27.167 -143.001 -81.5s-52 -130.166 -52 -227.499c0 -98 17.333 -172.667 52 -224s85 -77 151 -77c48.667 0 87.667 14 117 42s47 67.667 53 119
l193 1c-5.33301 -92.667 -41.666 -167 -108.999 -223s-154 -84 -260 -84c-124 0 -221.833 39.333 -293.5 118s-107.5 186 -107.5 322c0 137.333 36.5 246.833 109.5 328.5s170.833 122.5 293.5 122.5c101.333 0 184.833 -26 250.5 -78s100.834 -120.333 105.501 -205z
M853.999 1356c-85.333 0 -165.168 -15.3311 -239.501 -45.998s-140.5 -75.334 -198.5 -134.001c-59.333 -60 -104.666 -127.833 -135.999 -203.5s-47 -154.834 -47 -237.501c0 -83.333 15.667 -162.333 47 -237s76.666 -141.667 135.999 -201
c58.667 -58.667 125.667 -103.667 201 -135s154.333 -47 237 -47s161.834 15.667 237.501 47s143.834 77 204.501 137c58.667 57.333 103.167 123 133.5 197s45.5 153.667 45.5 239c0 84 -15.5 163.5 -46.5 238.5s-75.833 141.833 -134.5 200.5
c-59.333 59.333 -126.333 104.5 -201 135.5s-154.334 46.5 -239.001 46.5zM851.997 1479c101.333 0 197.167 -18.668 287.5 -56.001s171.166 -91.666 242.499 -162.999c70 -70 123.333 -150.167 160 -240.5s55 -185.833 55 -286.5c0 -101.333 -18.167 -196 -54.5 -284
s-89.833 -166.667 -160.5 -236c-74 -72 -156.667 -127.167 -248 -165.5s-185.333 -57.5 -282 -57.5c-98 0 -191.5 18.833 -280.5 56.5s-169.5 92.5 -241.5 164.5c-71.333 70.667 -125.666 150.834 -162.999 240.501s-56 183.5 -56 281.5c0 99.333 18.667 194.166 56 284.499
s91.666 171.833 162.999 244.5c70 70.667 149.333 124.5 238 161.5s183.334 55.5 284.001 55.5z" />
    <glyph glyph-name="ordfeminine" unicode="&#xaa;" horiz-adv-x="520" 
d="M297 836l-1 218c-3.33301 -2.66699 -9 -6.66699 -17 -12c-36 -26 -54 -49 -54 -69v-137c0 -19.333 2.83301 -32.5 8.5 -39.5s15.167 -10.5 28.5 -10.5c12 0 20.833 4 26.5 12s8.5 20.667 8.5 38zM29 1307c0 62 19.5 108.834 58.5 140.501s96.5 47.5 172.5 47.5
c82.667 0 141.5 -17.5 176.5 -52.5s52.5 -95.833 52.5 -182.5v-502c0.666992 -20.667 2 -39.334 4 -56.001s5.33301 -34.334 10 -53.001l-198 1c-2 8.66699 -3.5 18 -4.5 28s-1.5 19.667 -1.5 29v12h-4c-13.333 -27.333 -32 -48.166 -56 -62.499s-51.667 -21.5 -83 -21.5
c-42 0 -73.667 11.667 -95 35s-32 58 -32 104v174c0 44 8.33301 79.5 25 106.5s43.667 50.167 81 69.5c12.667 6.66699 29.667 15 51 25c74 35.333 111 68.666 111 99.999v58c0 18 -2.83301 31 -8.5 39s-15.167 12 -28.5 12c-12 0 -20.833 -4.16699 -26.5 -12.5
s-8.5 -21.166 -8.5 -38.499v-119h-196v119z" />
    <glyph glyph-name="guillemotleft" unicode="&#xab;" horiz-adv-x="748" 
d="M700 123l-294 328v262l294 329v-262l-182 -198l182 -199v-260zM342 123l-295 328v262l295 329v-262l-182 -198l182 -199v-260z" />
    <glyph glyph-name="logicalnot" unicode="&#xac;" horiz-adv-x="1706" 
d="M254 864h1198v-502h-199v306h-999v196z" />
    <glyph glyph-name="sfthyphen" unicode="&#xad;" horiz-adv-x="483" 
d="M59 489v201h365v-201h-365z" />
    <glyph glyph-name="registered" unicode="&#xae;" horiz-adv-x="1706" 
d="M745 1034l-0.000976562 -239h99c58.667 0 101.667 9.33301 129 28s41 48 41 88c0 42 -14.667 73 -44 93s-74.666 30 -135.999 30h-89zM544.999 1161l323 0.00195312c117.333 0 205.5 -19.833 264.5 -59.5s88.5 -98.834 88.5 -177.501
c0 -54.667 -16 -101.334 -48 -140.001s-76.333 -65 -133 -79l185 -369h-224l-157 338h-99v-338h-200v825zM853.999 1356c-84.667 0 -163.331 -14.834 -235.998 -44.501s-138 -73.5 -196 -131.5c-60.667 -60.667 -107.334 -129.5 -140.001 -206.5s-49 -156.5 -49 -238.5
c0 -82.667 15.333 -161.167 46 -235.5s75 -140.5 133 -198.5c59.333 -60.667 127 -107.167 203 -139.5s155 -48.5 237 -48.5c80 0 157.833 15.667 233.5 47s144.5 76.333 206.5 135c58 56 103 121.333 135 196s48 152 48 232c0 88.667 -14.833 170.334 -44.5 245.001
s-73.834 141.667 -132.501 201c-60 62 -127.5 108.667 -202.5 140s-155.5 47 -241.5 47zM852.002 1479c102.667 0 199.498 -19.1689 290.498 -57.502s172.167 -93.833 243.5 -166.5c68.667 -69.333 121 -148.666 157 -237.999s54 -184 54 -284
c0 -101.333 -18.667 -197.166 -56 -287.499s-91.666 -169.833 -162.999 -238.5c-71.333 -70 -152.5 -123.667 -243.5 -161s-185.167 -56 -282.5 -56c-99.333 0 -194.333 19.333 -285 58s-171.667 94.334 -243 167.001c-69.333 70 -122.166 149.5 -158.499 238.5
s-54.5 182.167 -54.5 279.5c0 68 9 134.167 27 198.5s45 127.166 81 188.499c67.333 113.333 156.333 201.5 267 264.5s232.667 94.5 366 94.5z" />
    <glyph glyph-name="macron" unicode="&#xaf;" horiz-adv-x="1024" 
d="M295 1298v129h434v-129h-434z" />
    <glyph glyph-name="degree" unicode="&#xb0;" horiz-adv-x="674" 
d="M338 1335c-48.667 0 -90.167 -17 -124.5 -51s-51.5 -75 -51.5 -123c0 -49.333 17 -91 51 -125s75.667 -51 125 -51c48 0 89 17.333 123 52s51 76 51 124s-17 89 -51 123s-75 51 -123 51zM338 1464c84 0 155.5 -29.835 214.5 -89.502s88.5 -131.5 88.5 -215.5
c0 -83.333 -29.667 -154.666 -89 -213.999s-131.333 -89 -216 -89c-84 0 -155.167 29.333 -213.5 88s-87.5 130.334 -87.5 215.001s29.5 156.667 88.5 216s130.5 89 214.5 89z" />
    <glyph glyph-name="plusminus" unicode="&#xb1;" horiz-adv-x="1706" 
d="M254 197h1198v-199h-1198v199zM752 1223h202v-326h498v-199h-498v-325h-202v325h-498v199h498v326z" />
    <glyph glyph-name="twosuperior" unicode="&#xb2;" horiz-adv-x="514" 
d="M285 1325c0 15.333 -2.66699 26.332 -8 32.999s-13.666 10 -24.999 10s-19.333 -3.16699 -24 -9.5s-7 -17.5 -7 -33.5v-162h-192v103c0 83.333 17.5 142.333 52.5 177s93.167 52 174.5 52c76 0 132.833 -17 170.5 -51s56.5 -85.333 56.5 -154
c0 -79.333 -46.333 -183.666 -139 -312.999l-43 -59c-32.667 -46.667 -54.834 -83.5 -66.501 -110.5s-17.5 -51.833 -17.5 -74.5v-16h266v-127h-456v145c0 35.333 6.5 70 19.5 104s41.833 83.333 86.5 148l43 60c72.667 100.667 109 170 109 208v70z" />
    <glyph glyph-name="threesuperior" unicode="&#xb3;" horiz-adv-x="514" 
d="M31 938l191.996 -0.00292969v-190c0 -15.333 2.66699 -26.333 8 -33s13.666 -10 24.999 -10c12 0 20.5 3.16699 25.5 9.5s7.5 17.5 7.5 33.5v165c0 20 -5.66699 36.667 -17 50s-25.666 20 -42.999 20h-67v127h67c18.667 0 33.334 6.33301 44.001 19s16 30.334 16 53.001
v143c0 15.333 -2.66699 26.333 -8 33s-13.666 10 -24.999 10s-19.666 -3.33301 -24.999 -10s-8 -17.667 -8 -33v-164h-192v105c0 84 17.333 143.167 52 177.5s92.334 51.5 173.001 51.5c74.667 0 131.167 -15.5 169.5 -46.5s57.5 -76.833 57.5 -137.5v-103
c0 -42.667 -11.833 -77 -35.5 -103s-60.167 -44.667 -109.5 -56c49.333 -5.33301 85.833 -19.666 109.5 -42.999s35.5 -57 35.5 -101v-153c0 -59.333 -19.5 -104.666 -58.5 -135.999s-95.167 -47 -168.5 -47c-80 0 -137.5 17.667 -172.5 53s-52.5 94.333 -52.5 177v139z" />
    <glyph glyph-name="acute" unicode="&#xb4;" horiz-adv-x="1024" 
d="M559 1251h-162l97 224h254z" />
    <glyph glyph-name="mu" unicode="&#xb5;" horiz-adv-x="1249" 
d="M205 1092h289.001l-76 -435c-10 -53.333 -17.667 -103.833 -23 -151.5s-8 -86.5 -8 -116.5c0 -62 14 -108.167 42 -138.5s70.667 -45.5 128 -45.5c66.667 0 118.5 27.333 155.5 82s67.833 151.667 92.5 291l90 514h289l-193 -1092h-268l18 117
c-28 -52 -59.167 -90 -93.5 -114s-74.833 -36 -121.5 -36c-44.667 0 -84.334 9.83301 -119.001 29.5s-66 50.167 -94 91.5l-90 -526h-286z" />
    <glyph glyph-name="paragraph" unicode="&#xb6;" horiz-adv-x="1024" 
d="M983 1479v-111h-113v-1368h-151v1368h-158v-1368h-153v784c-111.333 4 -200.333 37.667 -267 101s-100 145 -100 245c0 105.333 35.667 189.833 107 253.5s166 95.5 284 95.5h551z" />
    <glyph glyph-name="periodcentered" unicode="&#xb7;" horiz-adv-x="389" 
d="M195 895c43.333 0 80.333 -15.5 111 -46.5s46 -68.167 46 -111.5c0 -44 -15.333 -81.5 -46 -112.5s-67.667 -46.5 -111 -46.5c-44 0 -81.667 15.5 -113 46.5s-47 68.5 -47 112.5s15.5 81.333 46.5 112s68.833 46 113.5 46z" />
    <glyph glyph-name="cedilla" unicode="&#xb8;" horiz-adv-x="1024" 
d="M287 -266l159 198h170l-92 -198h-237z" />
    <glyph glyph-name="onesuperior" unicode="&#xb9;" horiz-adv-x="514" 
d="M174 590v678h-106v106h4c38 0 69.5 8.83301 94.5 26.5s41.167 42.5 48.5 74.5h154v-885h-195z" />
    <glyph glyph-name="ordmasculine" unicode="&#xba;" horiz-adv-x="520" 
d="M225 1317v-502c0 -17.333 2.83301 -29.833 8.5 -37.5s15.167 -11.5 28.5 -11.5c12.667 0 21.667 3.83301 27 11.5s8 20.167 8 37.5v502c0 16.667 -3 29 -9 37s-15.333 12 -28 12c-12 0 -20.833 -3.66699 -26.5 -11s-8.5 -20 -8.5 -38zM29 1260
c0 85.333 17.833 145.833 53.5 181.5s94.834 53.5 177.501 53.5c82 0 140.667 -18 176 -54s53 -96.333 53 -181v-396c0 -85.333 -17.667 -145.833 -53 -181.5s-94 -53.5 -176 -53.5c-82.667 0 -141.834 17.833 -177.501 53.5s-53.5 96.167 -53.5 181.5v396z" />
    <glyph glyph-name="guillemotright" unicode="&#xbb;" horiz-adv-x="748" 
d="M47 1040l295 -327v-262l-295 -328v260l180 199l-180 198v260zM406 1040l294 -327v-262l-294 -328v260l180 199l-180 198v260z" />
    <glyph glyph-name="onequarter" unicode="&#xbc;" horiz-adv-x="1239" 
d="M991 0v205h-243v117l176 503h252v-503h57v-117h-57v-205h-185zM889 322l108 -0.00195312l2 247c0 14 1.16699 34.833 3.5 62.5s5.5 58.167 9.5 91.5h-13c-10 -47.333 -24.167 -104.166 -42.5 -170.499s-40.833 -143.166 -67.5 -230.499zM346 -33.002h-117l662 1540h117z
M166 648.998l0.00195312 633h-100v98h2c35.333 0 65.166 8.5 89.499 25.5s40.166 39.833 47.499 68.5l145 1v-826h-184z" />
    <glyph glyph-name="onehalf" unicode="&#xbd;" horiz-adv-x="1239" 
d="M1020 686c0 14 -2.5 24.334 -7.5 31.001s-12.833 10 -23.5 10s-18.5 -3 -23.5 -9s-7.5 -16.667 -7.5 -32v-149h-184v94c0 77.333 16.667 132.166 50 164.499s89 48.5 167 48.5c72.667 0 127 -15.833 163 -47.5s54 -79.5 54 -143.5c0 -74 -45 -171.667 -135 -293l-39 -53
c-31.333 -46.667 -52.5 -82.334 -63.5 -107.001s-16.5 -47 -16.5 -67v-14h256v-119h-436v137c0 34 6.66699 67.333 20 100s40 77.334 80 134.001l42 56c69.333 94 104 159.333 104 196v63zM346 -32.999h-117l662 1540h117zM166 649.001l0.00195312 633h-100v98h2
c35.333 0 65.166 8.5 89.499 25.5s40.166 39.833 47.499 68.5l145 1v-826h-184z" />
    <glyph glyph-name="threequarters" unicode="&#xbe;" horiz-adv-x="1239" 
d="M991 0v205h-243v117l176 503h252v-503h57v-117h-57v-205h-185zM889 322l108 -0.00195312l2 247c0 14 1.16699 34.833 3.5 62.5s5.5 58.167 9.5 91.5h-13c-10 -47.333 -24.167 -104.166 -42.5 -170.499s-40.833 -143.166 -67.5 -230.499zM346 -33.002h-117l662 1540h117z
M29 972.998l183.999 0.00292969v-176c0 -15.333 2.5 -26 7.5 -32s13.5 -9 25.5 -9c10.667 0 18.334 3.16699 23.001 9.5s7 16.833 7 31.5v153c0 19.333 -5.66699 35.166 -17 47.499s-25.333 18.5 -42 18.5h-63v119h63c18.667 0 33.167 5.83301 43.5 17.5
s15.5 27.5 15.5 47.5v135c0 13.333 -2.5 23.166 -7.5 29.499s-12.5 9.5 -22.5 9.5c-12 0 -20.5 -3 -25.5 -9s-7.5 -16 -7.5 -30v-153h-184v98c0 78 16.333 133 49 165s88 48 166 48c71.333 0 125.333 -14.333 162 -43s55 -71 55 -127v-96
c0 -39.333 -11.167 -71.333 -33.5 -96s-56.833 -42.667 -103.5 -54c46.667 -5.33301 81.167 -18.833 103.5 -40.5s33.5 -52.5 33.5 -92.5v-145c0 -54 -18.833 -95.5 -56.5 -124.5s-91.167 -43.5 -160.5 -43.5c-76.667 0 -131.667 16.167 -165 48.5s-50 87.166 -50 164.499
v129z" />
    <glyph glyph-name="questiondown" unicode="&#xbf;" horiz-adv-x="768" 
d="M522 1475v-304h-268v304h268zM522 1104l0.000976562 -311c0 -72 -26.667 -141 -80 -207c-13.333 -16.667 -23.333 -29.667 -30 -39c-31.333 -41.333 -51.166 -72.333 -59.499 -93s-12.5 -43 -12.5 -67v-145c0 -28.667 3.66699 -48.5 11 -59.5s20 -16.5 38 -16.5
c16 0 27.5 5.33301 34.5 16s10.5 30 10.5 58v286h271v-264c0 -94.667 -29.833 -167.5 -89.5 -218.5s-144.834 -76.5 -255.501 -76.5c-94 0 -167.333 25 -220 75s-79 120 -79 210v143c0 37.333 3.66699 69.833 11 97.5s18.666 52.5 33.999 74.5l101 146c2.66699 4 7 10 13 18
c22.667 30 34 65 34 105v268h268z" />
    <glyph glyph-name="Agrave" unicode="&#xc0;" horiz-adv-x="811" 
d="M12 0l236 1475h377l174 -1475h-305l-29 393h-146l-38 -393h-269zM342 610l109 0.00195312l-33 450c-2 25.333 -3.66699 71 -5 137c-0.666992 28.667 -1 51 -1 67h-11c-2.66699 -56.667 -5 -101.834 -7 -135.501s-3.66699 -55.834 -5 -66.501zM387 1550l-188 224h251
l99 -224h-162z" />
    <glyph glyph-name="Aacute" unicode="&#xc1;" horiz-adv-x="811" 
d="M12 0l236 1475h377l174 -1475h-305l-29 393h-146l-38 -393h-269zM342 610l109 0.00195312l-33 450c-2 25.333 -3.66699 71 -5 137c-0.666992 28.667 -1 51 -1 67h-11c-2.66699 -56.667 -5 -101.834 -7 -135.501s-3.66699 -55.834 -5 -66.501zM479 1550h-162l97 224h254z
" />
    <glyph glyph-name="Acircumflex" unicode="&#xc2;" horiz-adv-x="811" 
d="M12 0l236 1475h377l174 -1475h-305l-29 393h-146l-38 -393h-269zM342 610l109 0.00195312l-33 450c-2 25.333 -3.66699 71 -5 137c-0.666992 28.667 -1 51 -1 67h-11c-2.66699 -56.667 -5 -101.834 -7 -135.501s-3.66699 -55.834 -5 -66.501zM342 1550h-162l154 224h196
l154 -224h-162l-90 111z" />
    <glyph glyph-name="Atilde" unicode="&#xc3;" horiz-adv-x="811" 
d="M12 0l236 1475h377l174 -1475h-305l-29 393h-146l-38 -393h-269zM342 610l109 0.00195312l-33 450c-2 25.333 -3.66699 71 -5 137c-0.666992 28.667 -1 51 -1 67h-11c-2.66699 -56.667 -5 -101.834 -7 -135.501s-3.66699 -55.834 -5 -66.501zM686 1763v-15.999
c0 -58 -14.167 -103.5 -42.5 -136.5s-66.833 -49.5 -115.5 -49.5c-30 0 -65.833 10.5 -107.5 31.5s-69.834 31.5 -84.501 31.5c-16 0 -28.5 -5 -37.5 -15s-13.5 -23.333 -13.5 -40v-8h-107v16c0 57.333 14.167 102.666 42.5 135.999s66.833 50 115.5 50
c30 0 65.833 -10.5 107.5 -31.5s69.834 -31.5 84.501 -31.5c16 0 28.5 5 37.5 15s13.5 23.333 13.5 40v8h107z" />
    <glyph glyph-name="Adieresis" unicode="&#xc4;" horiz-adv-x="811" 
d="M12 0l236 1475h377l174 -1475h-305l-29 393h-146l-38 -393h-269zM342 610l109 0.00195312l-33 450c-2 25.333 -3.66699 71 -5 137c-0.666992 28.667 -1 51 -1 67h-11c-2.66699 -56.667 -5 -101.834 -7 -135.501s-3.66699 -55.834 -5 -66.501zM475 1561v200h184v-200h-184
zM205 1561v200h182v-200h-182z" />
    <glyph glyph-name="Aring" unicode="&#xc5;" horiz-adv-x="811" 
d="M12 0l236 1475h377l174 -1475h-305l-29 393h-146l-38 -393h-269zM342 610l109 0.00195312l-33 450c-2 25.333 -3.66699 71 -5 137c-0.666992 28.667 -1 51 -1 67h-11c-2.66699 -56.667 -5 -101.834 -7 -135.501s-3.66699 -55.834 -5 -66.501zM262 1700
c0 49.333 17.5 91.333 52.5 126s76.833 52 125.5 52c49.333 0 91.333 -17.333 126 -52s52 -76.667 52 -126c0 -50 -17.167 -92.167 -51.5 -126.5s-76.5 -51.5 -126.5 -51.5s-92.167 17.167 -126.5 51.5s-51.5 76.5 -51.5 126.5zM373 1700c0 -18.667 6.33301 -34.667 19 -48
s28 -20 46 -20c19.333 0 35.5 6.66699 48.5 20s19.5 29.333 19.5 48c0 19.333 -6.33301 35 -19 47s-29 18 -49 18c-18 0 -33.333 -6.33301 -46 -19s-19 -28 -19 -46z" />
    <glyph glyph-name="AE" unicode="&#xc6;" horiz-adv-x="1028" 
d="M997 1475v-205h-245v-340h245v-213h-245v-494h245v-223h-534v397h-141l-66 -397h-274l311 1475h704zM358 627h105v643h-18c-4.66699 -46 -10 -93.333 -16 -142c-0.666992 -6 -1 -10 -1 -12z" />
    <glyph glyph-name="Ccedilla" unicode="&#xc7;" horiz-adv-x="758" 
d="M41 1126c0 138 26.501 236.002 79.501 294.002s140.5 87 262.5 87c122.667 0 210.667 -28.833 264 -86.5s80 -155.834 80 -294.501v-163h-293v262c0 26 -3.83301 44.333 -11.5 55s-20.834 16 -39.501 16c-18 0 -30.667 -5.33301 -38 -16s-11 -29 -11 -55v-963
c0 -26 3.83301 -44.5 11.5 -55.5s20.167 -16.5 37.5 -16.5c18.667 0 31.834 5.66699 39.501 17s11.5 29.666 11.5 54.999v297h293v-213c0 -137.333 -26.5 -234.833 -79.5 -292.5s-141.167 -86.5 -264.5 -86.5c-122.667 0 -210.334 28.5 -263.001 85.5s-79 154.833 -79 293.5
v780zM154.001 -265.998l159 198h170l-92 -198h-237z" />
    <glyph glyph-name="Egrave" unicode="&#xc8;" horiz-adv-x="629" 
d="M47 0v1475h549v-205h-254v-340h248v-213h-248v-494h254v-223h-549zM279 1550l-188 224h251l99 -224h-162z" />
    <glyph glyph-name="Eacute" unicode="&#xc9;" horiz-adv-x="629" 
d="M47 0v1475h549v-205h-254v-340h248v-213h-248v-494h254v-223h-549zM371 1550h-162l97 224h254z" />
    <glyph glyph-name="Ecircumflex" unicode="&#xca;" horiz-adv-x="629" 
d="M47 0v1475h549v-205h-254v-340h248v-213h-248v-494h254v-223h-549zM234 1550h-162l154 224h196l154 -224h-162l-90 111z" />
    <glyph glyph-name="Edieresis" unicode="&#xcb;" horiz-adv-x="629" 
d="M47 0v1475h549v-205h-254v-340h248v-213h-248v-494h254v-223h-549zM367 1561v200h184v-200h-184zM97 1561v200h182v-200h-182z" />
    <glyph glyph-name="Igrave" unicode="&#xcc;" horiz-adv-x="387" 
d="M45 0v1475h295v-1475h-295zM150 1550l-188 224h251l99 -224h-162z" />
    <glyph glyph-name="Iacute" unicode="&#xcd;" horiz-adv-x="387" 
d="M45 0v1475h295v-1475h-295zM242 1550h-162l97 224h254z" />
    <glyph glyph-name="Icircumflex" unicode="&#xce;" horiz-adv-x="387" 
d="M45 0v1475h295v-1475h-295zM105 1550h-162l154 224h196l154 -224h-162l-90 111z" />
    <glyph glyph-name="Idieresis" unicode="&#xcf;" horiz-adv-x="387" 
d="M45 0v1475h295v-1475h-295zM238 1561v200h184v-200h-184zM-32 1561v200h182v-200h-182z" />
    <glyph glyph-name="Eth" unicode="&#xd0;" horiz-adv-x="842" 
d="M383 731l-0.000976562 -522.001c3.33301 0 8.33301 -0.333008 15 -1s11.334 -1 14.001 -1c36 0 61.667 6.33301 77 19s23 34.334 23 65.001v899c0 34 -7 56.833 -21 68.5s-43.333 17.5 -88 17.5h-20v-354h84v-191h-84zM456.999 1475
c124.667 0 213.167 -27.168 265.5 -81.501s78.5 -148.166 78.5 -281.499v-747c0 -132.667 -28 -226.667 -84 -282s-149.667 -83 -281 -83h-342v731h-82v191h82v553h363z" />
    <glyph glyph-name="Ntilde" unicode="&#xd1;" horiz-adv-x="868" 
d="M45 0l-0.000976562 1475h404l104 -625c9.33301 -56 17.333 -118.667 24 -188s12.334 -148.666 17.001 -237.999h12c-4.66699 104 -8.16699 194.833 -10.5 272.5s-3.5 133.5 -3.5 167.5l-2 611h231v-1475h-346l-151 801c-6 31.333 -13.5 78.666 -22.5 141.999
s-18.167 132.666 -27.5 207.999h-8c4 -61.333 7.16699 -115 9.5 -161s3.5 -83.667 3.5 -113v-877h-234zM697.999 1763v-15.999c0 -58 -14.167 -103.5 -42.5 -136.5s-66.833 -49.5 -115.5 -49.5c-30 0 -65.833 10.5 -107.5 31.5s-69.834 31.5 -84.501 31.5
c-16 0 -28.5 -5 -37.5 -15s-13.5 -23.333 -13.5 -40v-8h-107v16c0 57.333 14.167 102.666 42.5 135.999s66.833 50 115.5 50c30 0 65.833 -10.5 107.5 -31.5s69.834 -31.5 84.501 -31.5c16 0 28.5 5 37.5 15s13.5 23.333 13.5 40v8h107z" />
    <glyph glyph-name="Ograve" unicode="&#xd2;" horiz-adv-x="768" 
d="M39 1126c0 137.333 26.667 235.168 80 293.501s141.333 87.5 264 87.5s210.667 -28.833 264 -86.5s80 -155.834 80 -294.501v-778c0 -138 -26.5 -236 -79.5 -294s-141.167 -87 -264.5 -87s-211.5 29 -264.5 87s-79.5 156 -79.5 294v778zM334 1225v-962.999
c0 -26 3.83301 -44.5 11.5 -55.5s20.167 -16.5 37.5 -16.5c18.667 0 31.834 5.66699 39.501 17s11.5 29.666 11.5 54.999v963c0 26 -3.83301 44.333 -11.5 55s-20.834 16 -39.501 16c-17.333 0 -29.833 -5.66699 -37.5 -17s-11.5 -29.333 -11.5 -54zM340 1550l-188 224h251
l99 -224h-162z" />
    <glyph glyph-name="Oacute" unicode="&#xd3;" horiz-adv-x="768" 
d="M39 1126c0 137.333 26.667 235.168 80 293.501s141.333 87.5 264 87.5s210.667 -28.833 264 -86.5s80 -155.834 80 -294.501v-778c0 -138 -26.5 -236 -79.5 -294s-141.167 -87 -264.5 -87s-211.5 29 -264.5 87s-79.5 156 -79.5 294v778zM334 1225v-962.999
c0 -26 3.83301 -44.5 11.5 -55.5s20.167 -16.5 37.5 -16.5c18.667 0 31.834 5.66699 39.501 17s11.5 29.666 11.5 54.999v963c0 26 -3.83301 44.333 -11.5 55s-20.834 16 -39.501 16c-17.333 0 -29.833 -5.66699 -37.5 -17s-11.5 -29.333 -11.5 -54zM432 1550h-162l97 224
h254z" />
    <glyph glyph-name="Ocircumflex" unicode="&#xd4;" horiz-adv-x="768" 
d="M39 1126c0 137.333 26.667 235.168 80 293.501s141.333 87.5 264 87.5s210.667 -28.833 264 -86.5s80 -155.834 80 -294.501v-778c0 -138 -26.5 -236 -79.5 -294s-141.167 -87 -264.5 -87s-211.5 29 -264.5 87s-79.5 156 -79.5 294v778zM334 1225v-962.999
c0 -26 3.83301 -44.5 11.5 -55.5s20.167 -16.5 37.5 -16.5c18.667 0 31.834 5.66699 39.501 17s11.5 29.666 11.5 54.999v963c0 26 -3.83301 44.333 -11.5 55s-20.834 16 -39.501 16c-17.333 0 -29.833 -5.66699 -37.5 -17s-11.5 -29.333 -11.5 -54zM295 1550h-162l154 224
h196l154 -224h-162l-90 111z" />
    <glyph glyph-name="Otilde" unicode="&#xd5;" horiz-adv-x="768" 
d="M39 1126c0 137.333 26.667 235.168 80 293.501s141.333 87.5 264 87.5s210.667 -28.833 264 -86.5s80 -155.834 80 -294.501v-778c0 -138 -26.5 -236 -79.5 -294s-141.167 -87 -264.5 -87s-211.5 29 -264.5 87s-79.5 156 -79.5 294v778zM334 1225v-962.999
c0 -26 3.83301 -44.5 11.5 -55.5s20.167 -16.5 37.5 -16.5c18.667 0 31.834 5.66699 39.501 17s11.5 29.666 11.5 54.999v963c0 26 -3.83301 44.333 -11.5 55s-20.834 16 -39.501 16c-17.333 0 -29.833 -5.66699 -37.5 -17s-11.5 -29.333 -11.5 -54zM639 1763v-15.999
c0 -58 -14.167 -103.5 -42.5 -136.5s-66.833 -49.5 -115.5 -49.5c-30 0 -65.833 10.5 -107.5 31.5s-69.834 31.5 -84.501 31.5c-16 0 -28.5 -5 -37.5 -15s-13.5 -23.333 -13.5 -40v-8h-107v16c0 57.333 14.167 102.666 42.5 135.999s66.833 50 115.5 50
c30 0 65.833 -10.5 107.5 -31.5s69.834 -31.5 84.501 -31.5c16 0 28.5 5 37.5 15s13.5 23.333 13.5 40v8h107z" />
    <glyph glyph-name="Odieresis" unicode="&#xd6;" horiz-adv-x="768" 
d="M39 1126c0 137.333 26.667 235.168 80 293.501s141.333 87.5 264 87.5s210.667 -28.833 264 -86.5s80 -155.834 80 -294.501v-778c0 -138 -26.5 -236 -79.5 -294s-141.167 -87 -264.5 -87s-211.5 29 -264.5 87s-79.5 156 -79.5 294v778zM334 1225v-962.999
c0 -26 3.83301 -44.5 11.5 -55.5s20.167 -16.5 37.5 -16.5c18.667 0 31.834 5.66699 39.501 17s11.5 29.666 11.5 54.999v963c0 26 -3.83301 44.333 -11.5 55s-20.834 16 -39.501 16c-17.333 0 -29.833 -5.66699 -37.5 -17s-11.5 -29.333 -11.5 -54zM428 1561v200h184v-200
h-184zM158 1561v200h182v-200h-182z" />
    <glyph glyph-name="multiply" unicode="&#xd7;" horiz-adv-x="1706" 
d="M416 1202l450 -450l451 450l141 -139l-450 -453l450 -450l-141 -140l-451 451l-450 -451l-140 140l451 450l-451 453z" />
    <glyph glyph-name="Oslash" unicode="&#xd8;" horiz-adv-x="768" 
d="M322 385v-123.001c0 -27.333 4.5 -46.166 13.5 -56.499s24.833 -15.5 47.5 -15.5c22 0 38 5.83301 48 17.5s15 29.834 15 54.501v580c-6.66699 -28.667 -12.667 -53.334 -18 -74.001s-9.33301 -35 -12 -43zM446 1133l0.000976562 92c0 25.333 -4.83301 43.5 -14.5 54.5
s-25.834 16.5 -48.501 16.5c-22 0 -37.667 -5.33301 -47 -16s-14 -29 -14 -55v-541l15.5 65c3.66699 14.667 6.5 25 8.5 31zM41.001 1126c0 138 26.5 236.001 79.5 294.001s140.5 87 262.5 87c33.333 0 64.333 -2.83301 93 -8.5s55.667 -14.167 81 -25.5l57 167h119
l-76 -231c25.333 -28 43.333 -61.5 54 -100.5s16 -99.833 16 -182.5v-780c0 -142 -27.167 -241 -81.5 -297s-147.833 -84 -280.5 -84c-38.667 0 -69.5 2.83301 -92.5 8.5s-44.167 15.167 -63.5 28.5l-53 -162h-119l74 230c-25.333 31.333 -43.333 65.666 -54 102.999
s-16 95 -16 173v780z" />
    <glyph glyph-name="Ugrave" unicode="&#xd9;" 
d="M733 1475v-1129c0 -137.333 -26.5 -234.833 -79.5 -292.5s-141.167 -86.5 -264.5 -86.5s-211.5 28.833 -264.5 86.5s-79.5 155.167 -79.5 292.5v1129h293v-1213c0 -25.333 4 -43.666 12 -54.999s21 -17 39 -17s30.667 5.5 38 16.5s11 29.5 11 55.5v1213h295zM344 1550
l-188 224h251l99 -224h-162z" />
    <glyph glyph-name="Uacute" unicode="&#xda;" 
d="M733 1475v-1129c0 -137.333 -26.5 -234.833 -79.5 -292.5s-141.167 -86.5 -264.5 -86.5s-211.5 28.833 -264.5 86.5s-79.5 155.167 -79.5 292.5v1129h293v-1213c0 -25.333 4 -43.666 12 -54.999s21 -17 39 -17s30.667 5.5 38 16.5s11 29.5 11 55.5v1213h295zM436 1550
h-162l97 224h254z" />
    <glyph glyph-name="Ucircumflex" unicode="&#xdb;" 
d="M733 1475v-1129c0 -137.333 -26.5 -234.833 -79.5 -292.5s-141.167 -86.5 -264.5 -86.5s-211.5 28.833 -264.5 86.5s-79.5 155.167 -79.5 292.5v1129h293v-1213c0 -25.333 4 -43.666 12 -54.999s21 -17 39 -17s30.667 5.5 38 16.5s11 29.5 11 55.5v1213h295zM299 1550
h-162l154 224h196l154 -224h-162l-90 111z" />
    <glyph glyph-name="Udieresis" unicode="&#xdc;" 
d="M733 1475v-1129c0 -137.333 -26.5 -234.833 -79.5 -292.5s-141.167 -86.5 -264.5 -86.5s-211.5 28.833 -264.5 86.5s-79.5 155.167 -79.5 292.5v1129h293v-1213c0 -25.333 4 -43.666 12 -54.999s21 -17 39 -17s30.667 5.5 38 16.5s11 29.5 11 55.5v1213h295zM432 1561
v200h184v-200h-184zM162 1561v200h182v-200h-182z" />
    <glyph glyph-name="Yacute" unicode="&#xdd;" horiz-adv-x="729" 
d="M217 0v559l-223 916h303l53 -336c6.66699 -41.333 12 -81.5 16 -120.5s7 -78.167 9 -117.5h12c6 52 11.5 97.667 16.5 137s9.83301 72.333 14.5 99l59 338h262l-229 -916v-559h-293zM412 1550h-162l97 224h254z" />
    <glyph glyph-name="Thorn" unicode="&#xde;" horiz-adv-x="758" 
d="M47 0l-0.000976562 1475h295v-234h49c120.667 0 207.834 -21 261.501 -63s80.5 -110.333 80.5 -205v-314c0 -114.667 -27.167 -196.167 -81.5 -244.5s-145.833 -72.5 -274.5 -72.5h-35v-342h-295zM439.999 629l0.000976562 342c0 32.667 -5.83301 54.834 -17.5 66.501
s-34.5 17.5 -68.5 17.5h-12v-508c2.66699 0 6.66699 -0.333008 12 -1s9.66602 -1 12.999 -1c26.667 0 45.5 6.16699 56.5 18.5s16.5 34.166 16.5 65.499z" />
    <glyph glyph-name="germandbls" unicode="&#xdf;" horiz-adv-x="688" 
d="M301 0l-260 0.00195312v1206c0 100.667 25.167 175.667 75.5 225s126.833 74 229.5 74c103.333 0 180 -24.5 230 -73.5s75 -124.167 75 -225.5v-98c0 -83.333 -12.333 -143.833 -37 -181.5s-66.334 -61.167 -125.001 -70.5v-10c60.667 -10 102.834 -32.833 126.501 -68.5
s35.5 -96.834 35.5 -183.501v-344c0 -88.667 -15.333 -152.5 -46 -191.5s-80.667 -58.5 -150 -58.5h-119v184h6c20 0 33.833 5.16699 41.5 15.5s11.5 29.166 11.5 56.499v416c0 27.333 -3.83301 46.333 -11.5 57s-21.5 16 -41.5 16h-6v181h6c20 0 33.833 5.16699 41.5 15.5
s11.5 28.833 11.5 55.5v250c0 25.333 -4 44 -12 56s-20.333 18 -37 18c-16 0 -27.5 -5.66699 -34.5 -17s-10.5 -30.333 -10.5 -57v-1247z" />
    <glyph glyph-name="agrave" unicode="&#xe0;" horiz-adv-x="694" 
d="M395 266v313.001c-4 -2.66699 -9.33301 -6.66699 -16 -12c-52 -40 -78 -75.333 -78 -106v-195c0 -26.667 3.5 -44.834 10.5 -54.501s19.167 -14.5 36.5 -14.5c16 0 27.833 5.5 35.5 16.5s11.5 28.5 11.5 52.5zM39 938.001c0 89.333 25.834 156.666 77.501 201.999
s128.167 68 229.5 68c110.667 0 189.5 -25.167 236.5 -75.5s70.5 -137.166 70.5 -260.499v-718c0 -31.333 1.5 -59.166 4.5 -83.499s7.83301 -47.833 14.5 -70.5h-264c-3.33301 14 -6 28.167 -8 42.5s-3 27.5 -3 39.5v18h-4
c-18.667 -38.667 -43.834 -68.334 -75.501 -89.001s-68.5 -31 -110.5 -31c-55.333 0 -97.166 16.667 -125.499 50s-42.5 82.666 -42.5 147.999v250c0 62 11.167 112.5 33.5 151.5s58.166 71.833 107.499 98.5c16 8.66699 38.667 20.334 68 35.001c98 50 147 97.667 147 143
v84c0 25.333 -3.83301 43.666 -11.5 54.999s-20.167 17 -37.5 17c-16 0 -27.5 -5.66699 -34.5 -17s-10.5 -29.666 -10.5 -54.999v-172h-262v170zM315.001 1251l-188 224h251l99 -224h-162z" />
    <glyph glyph-name="aacute" unicode="&#xe1;" horiz-adv-x="694" 
d="M395 266v313.001c-4 -2.66699 -9.33301 -6.66699 -16 -12c-52 -40 -78 -75.333 -78 -106v-195c0 -26.667 3.5 -44.834 10.5 -54.501s19.167 -14.5 36.5 -14.5c16 0 27.833 5.5 35.5 16.5s11.5 28.5 11.5 52.5zM39 938.001c0 89.333 25.834 156.666 77.501 201.999
s128.167 68 229.5 68c110.667 0 189.5 -25.167 236.5 -75.5s70.5 -137.166 70.5 -260.499v-718c0 -31.333 1.5 -59.166 4.5 -83.499s7.83301 -47.833 14.5 -70.5h-264c-3.33301 14 -6 28.167 -8 42.5s-3 27.5 -3 39.5v18h-4
c-18.667 -38.667 -43.834 -68.334 -75.501 -89.001s-68.5 -31 -110.5 -31c-55.333 0 -97.166 16.667 -125.499 50s-42.5 82.666 -42.5 147.999v250c0 62 11.167 112.5 33.5 151.5s58.166 71.833 107.499 98.5c16 8.66699 38.667 20.334 68 35.001c98 50 147 97.667 147 143
v84c0 25.333 -3.83301 43.666 -11.5 54.999s-20.167 17 -37.5 17c-16 0 -27.5 -5.66699 -34.5 -17s-10.5 -29.666 -10.5 -54.999v-172h-262v170zM407.001 1251h-162l97 224h254z" />
    <glyph glyph-name="acircumflex" unicode="&#xe2;" horiz-adv-x="694" 
d="M395 266v313.001c-4 -2.66699 -9.33301 -6.66699 -16 -12c-52 -40 -78 -75.333 -78 -106v-195c0 -26.667 3.5 -44.834 10.5 -54.501s19.167 -14.5 36.5 -14.5c16 0 27.833 5.5 35.5 16.5s11.5 28.5 11.5 52.5zM39 938.001c0 89.333 25.834 156.666 77.501 201.999
s128.167 68 229.5 68c110.667 0 189.5 -25.167 236.5 -75.5s70.5 -137.166 70.5 -260.499v-718c0 -31.333 1.5 -59.166 4.5 -83.499s7.83301 -47.833 14.5 -70.5h-264c-3.33301 14 -6 28.167 -8 42.5s-3 27.5 -3 39.5v18h-4
c-18.667 -38.667 -43.834 -68.334 -75.501 -89.001s-68.5 -31 -110.5 -31c-55.333 0 -97.166 16.667 -125.499 50s-42.5 82.666 -42.5 147.999v250c0 62 11.167 112.5 33.5 151.5s58.166 71.833 107.499 98.5c16 8.66699 38.667 20.334 68 35.001c98 50 147 97.667 147 143
v84c0 25.333 -3.83301 43.666 -11.5 54.999s-20.167 17 -37.5 17c-16 0 -27.5 -5.66699 -34.5 -17s-10.5 -29.666 -10.5 -54.999v-172h-262v170zM270.001 1251h-162l154 224h196l154 -224h-162l-90 111z" />
    <glyph glyph-name="atilde" unicode="&#xe3;" horiz-adv-x="694" 
d="M395 266v313.001c-4 -2.66699 -9.33301 -6.66699 -16 -12c-52 -40 -78 -75.333 -78 -106v-195c0 -26.667 3.5 -44.834 10.5 -54.501s19.167 -14.5 36.5 -14.5c16 0 27.833 5.5 35.5 16.5s11.5 28.5 11.5 52.5zM39 938.001c0 89.333 25.834 156.666 77.501 201.999
s128.167 68 229.5 68c110.667 0 189.5 -25.167 236.5 -75.5s70.5 -137.166 70.5 -260.499v-718c0 -31.333 1.5 -59.166 4.5 -83.499s7.83301 -47.833 14.5 -70.5h-264c-3.33301 14 -6 28.167 -8 42.5s-3 27.5 -3 39.5v18h-4
c-18.667 -38.667 -43.834 -68.334 -75.501 -89.001s-68.5 -31 -110.5 -31c-55.333 0 -97.166 16.667 -125.499 50s-42.5 82.666 -42.5 147.999v250c0 62 11.167 112.5 33.5 151.5s58.166 71.833 107.499 98.5c16 8.66699 38.667 20.334 68 35.001c98 50 147 97.667 147 143
v84c0 25.333 -3.83301 43.666 -11.5 54.999s-20.167 17 -37.5 17c-16 0 -27.5 -5.66699 -34.5 -17s-10.5 -29.666 -10.5 -54.999v-172h-262v170zM614.001 1464v-15.999c0 -58 -14.167 -103.5 -42.5 -136.5s-66.833 -49.5 -115.5 -49.5c-30 0 -65.833 10.5 -107.5 31.5
s-69.834 31.5 -84.501 31.5c-16 0 -28.5 -5 -37.5 -15s-13.5 -23.333 -13.5 -40v-8h-107v16c0 57.333 14.167 102.666 42.5 135.999s66.833 50 115.5 50c30 0 65.833 -10.5 107.5 -31.5s69.834 -31.5 84.501 -31.5c16 0 28.5 5 37.5 15s13.5 23.333 13.5 40v8h107z" />
    <glyph glyph-name="adieresis" unicode="&#xe4;" horiz-adv-x="694" 
d="M395 266v313.001c-4 -2.66699 -9.33301 -6.66699 -16 -12c-52 -40 -78 -75.333 -78 -106v-195c0 -26.667 3.5 -44.834 10.5 -54.501s19.167 -14.5 36.5 -14.5c16 0 27.833 5.5 35.5 16.5s11.5 28.5 11.5 52.5zM39 938.001c0 89.333 25.834 156.666 77.501 201.999
s128.167 68 229.5 68c110.667 0 189.5 -25.167 236.5 -75.5s70.5 -137.166 70.5 -260.499v-718c0 -31.333 1.5 -59.166 4.5 -83.499s7.83301 -47.833 14.5 -70.5h-264c-3.33301 14 -6 28.167 -8 42.5s-3 27.5 -3 39.5v18h-4
c-18.667 -38.667 -43.834 -68.334 -75.501 -89.001s-68.5 -31 -110.5 -31c-55.333 0 -97.166 16.667 -125.499 50s-42.5 82.666 -42.5 147.999v250c0 62 11.167 112.5 33.5 151.5s58.166 71.833 107.499 98.5c16 8.66699 38.667 20.334 68 35.001c98 50 147 97.667 147 143
v84c0 25.333 -3.83301 43.666 -11.5 54.999s-20.167 17 -37.5 17c-16 0 -27.5 -5.66699 -34.5 -17s-10.5 -29.666 -10.5 -54.999v-172h-262v170zM403.001 1262v200h184v-200h-184zM133.001 1262v200h182v-200h-182z" />
    <glyph glyph-name="aring" unicode="&#xe5;" horiz-adv-x="694" 
d="M39 938c0 89.333 25.834 156.666 77.501 201.999s128.167 68 229.5 68c110.667 0 189.5 -25.167 236.5 -75.5s70.5 -137.166 70.5 -260.499v-718c0 -31.333 1.5 -59.166 4.5 -83.499s7.83301 -47.833 14.5 -70.5h-264c-3.33301 14 -6 28.167 -8 42.5s-3 27.5 -3 39.5v18
h-4c-18.667 -38.667 -43.834 -68.334 -75.501 -89.001s-68.5 -31 -110.5 -31c-55.333 0 -97.166 16.667 -125.499 50s-42.5 82.666 -42.5 147.999v250c0 62 11.167 112.5 33.5 151.5s58.166 71.833 107.499 98.5c16 8.66699 38.667 20.334 68 35.001
c98 50 147 97.667 147 143v84c0 25.333 -3.83301 43.666 -11.5 54.999s-20.167 17 -37.5 17c-16 0 -27.5 -5.66699 -34.5 -17s-10.5 -29.666 -10.5 -54.999v-172h-262v170zM395.001 266v313.001c-4 -2.66699 -9.33301 -6.66699 -16 -12c-52 -40 -78 -75.333 -78 -106v-195
c0 -26.667 3.5 -44.834 10.5 -54.501s19.167 -14.5 36.5 -14.5c16 0 27.833 5.5 35.5 16.5s11.5 28.5 11.5 52.5zM188.001 1427c0 49.333 17.5 91.499 52.5 126.499s77.167 52.5 126.5 52.5c48.667 0 90.5 -17.5 125.5 -52.5s52.5 -77.167 52.5 -126.5
s-17.333 -91.666 -52 -126.999s-76.667 -53 -126 -53c-50 0 -92.333 17.5 -127 52.5s-52 77.5 -52 127.5zM299.001 1425c0 -18 6.66699 -33.333 20 -46s29.333 -19 48 -19s34.5 6.16699 47.5 18.5s19.5 27.833 19.5 46.5c0 20 -6.33301 36.333 -19 49s-28.667 19 -48 19
c-18.667 0 -34.667 -6.66699 -48 -20s-20 -29.333 -20 -48z" />
    <glyph glyph-name="ae" unicode="&#xe6;" horiz-adv-x="1036" 
d="M395 266v314.001c-42 -30 -68.167 -52.5 -78.5 -67.5s-15.5 -32.167 -15.5 -51.5v-195c0 -26.667 3.5 -44.834 10.5 -54.501s19.167 -14.5 36.5 -14.5c16 0 27.833 5.5 35.5 16.5s11.5 28.5 11.5 52.5zM1001 467.001l-0.000976562 -227.001
c0 -85.333 -22.833 -151.5 -68.5 -198.5s-110.167 -70.5 -193.5 -70.5c-45.333 0 -85.5 7.16699 -120.5 21.5s-67.833 36.5 -98.5 66.5c-32.667 -30.667 -68.167 -53 -106.5 -67s-84.166 -21 -137.499 -21c-74 0 -132 20.667 -174 62s-63 98.666 -63 171.999v223
c0 63.333 11.167 113.833 33.5 151.5s60.833 71.834 115.5 102.501l69 36c92 46.667 138 92.667 138 138v84c0 25.333 -3.83301 43.666 -11.5 54.999s-20.167 17 -37.5 17c-16 0 -27.5 -5.66699 -34.5 -17s-10.5 -29.666 -10.5 -54.999v-172h-262v170
c0 90.667 25.333 158.334 76 203.001s127.667 67 231 67c38 0 71 -4.66699 99 -14s53.667 -24.333 77 -45c24.667 20.667 52 35.667 82 45s65.667 14 107 14c90.667 0 161.667 -22.5 213 -67.5s77 -107.167 77 -186.5v-401h-354v-315c0 -26 3.66699 -44.5 11 -55.5
s19.333 -16.5 36 -16.5s28.667 5.5 36 16.5s11 29.5 11 55.5v229h260zM646.999 952v-222.998h94v223c0 25.333 -3.83301 43.666 -11.5 54.999s-20.167 17 -37.5 17c-16 0 -27.5 -5.33301 -34.5 -16s-10.5 -29.334 -10.5 -56.001z" />
    <glyph glyph-name="ccedilla" unicode="&#xe7;" horiz-adv-x="684" 
d="M39 307l-0.000976562 564.999c0 124 23.333 211 70 261s125 75 235 75c96.667 0 172.334 -22.5 227.001 -67.5s82 -107.167 82 -186.5v-186h-260v184c0 26 -3.66699 44.5 -11 55.5s-19.333 16.5 -36 16.5s-28.667 -5.5 -36 -16.5s-11 -29.5 -11 -55.5v-714
c0 -26 3.66699 -44.5 11 -55.5s19.333 -16.5 36 -16.5s28.667 5.5 36 16.5s11 29.5 11 55.5v221h260v-219c0 -85.333 -26.833 -151.5 -80.5 -198.5s-129.167 -70.5 -226.5 -70.5c-110 0 -188.667 25.333 -236 76s-71 137.334 -71 260.001zM116.999 -266.001l159 198h170
l-92 -198h-237z" />
    <glyph glyph-name="egrave" unicode="&#xe8;" horiz-adv-x="692" 
d="M299 952v-223h94v223c0 26 -3.66699 44.5 -11 55.5s-19.333 16.5 -36 16.5s-28.667 -5.5 -36 -16.5s-11 -29.5 -11 -55.5zM299 238c0 -26 3.66602 -44.501 10.999 -55.501s19.333 -16.5 36 -16.5s28.667 5.5 36 16.5s11 29.5 11 55.5v221h260v-219
c0 -85.333 -26.833 -151.5 -80.5 -198.5s-129.167 -70.5 -226.5 -70.5c-110 0 -188.667 25.333 -236 76s-71 137.334 -71 260.001v565c0 124 23.333 211 70 261s125 75 235 75c96.667 0 172.334 -22.5 227.001 -67.5s82 -107.167 82 -186.5v-401h-354v-315zM300.999 1251
l-188 224h251l99 -224h-162z" />
    <glyph glyph-name="eacute" unicode="&#xe9;" horiz-adv-x="692" 
d="M299 952v-223h94v223c0 26 -3.66699 44.5 -11 55.5s-19.333 16.5 -36 16.5s-28.667 -5.5 -36 -16.5s-11 -29.5 -11 -55.5zM299 238c0 -26 3.66602 -44.501 10.999 -55.501s19.333 -16.5 36 -16.5s28.667 5.5 36 16.5s11 29.5 11 55.5v221h260v-219
c0 -85.333 -26.833 -151.5 -80.5 -198.5s-129.167 -70.5 -226.5 -70.5c-110 0 -188.667 25.333 -236 76s-71 137.334 -71 260.001v565c0 124 23.333 211 70 261s125 75 235 75c96.667 0 172.334 -22.5 227.001 -67.5s82 -107.167 82 -186.5v-401h-354v-315zM392.999 1251
h-162l97 224h254z" />
    <glyph glyph-name="ecircumflex" unicode="&#xea;" horiz-adv-x="692" 
d="M299 952v-223h94v223c0 26 -3.66699 44.5 -11 55.5s-19.333 16.5 -36 16.5s-28.667 -5.5 -36 -16.5s-11 -29.5 -11 -55.5zM299 238c0 -26 3.66602 -44.501 10.999 -55.501s19.333 -16.5 36 -16.5s28.667 5.5 36 16.5s11 29.5 11 55.5v221h260v-219
c0 -85.333 -26.833 -151.5 -80.5 -198.5s-129.167 -70.5 -226.5 -70.5c-110 0 -188.667 25.333 -236 76s-71 137.334 -71 260.001v565c0 124 23.333 211 70 261s125 75 235 75c96.667 0 172.334 -22.5 227.001 -67.5s82 -107.167 82 -186.5v-401h-354v-315zM255.999 1251
h-162l154 224h196l154 -224h-162l-90 111z" />
    <glyph glyph-name="edieresis" unicode="&#xeb;" horiz-adv-x="692" 
d="M299 952v-223h94v223c0 26 -3.66699 44.5 -11 55.5s-19.333 16.5 -36 16.5s-28.667 -5.5 -36 -16.5s-11 -29.5 -11 -55.5zM299 238c0 -26 3.66602 -44.501 10.999 -55.501s19.333 -16.5 36 -16.5s28.667 5.5 36 16.5s11 29.5 11 55.5v221h260v-219
c0 -85.333 -26.833 -151.5 -80.5 -198.5s-129.167 -70.5 -226.5 -70.5c-110 0 -188.667 25.333 -236 76s-71 137.334 -71 260.001v565c0 124 23.333 211 70 261s125 75 235 75c96.667 0 172.334 -22.5 227.001 -67.5s82 -107.167 82 -186.5v-401h-354v-315zM388.999 1262
v200h184v-200h-184zM118.999 1262v200h182v-200h-182z" />
    <glyph glyph-name="igrave" unicode="&#xec;" horiz-adv-x="346" 
d="M43 0v1180h260v-1180h-260zM129 1251l-188 224h251l99 -224h-162z" />
    <glyph glyph-name="iacute" unicode="&#xed;" horiz-adv-x="346" 
d="M43 0v1180h260v-1180h-260zM221 1251h-162l97 224h254z" />
    <glyph glyph-name="icircumflex" unicode="&#xee;" horiz-adv-x="346" 
d="M43 0v1180h260v-1180h-260zM84 1251h-162l154 224h196l154 -224h-162l-90 111z" />
    <glyph glyph-name="idieresis" unicode="&#xef;" horiz-adv-x="346" 
d="M43 0v1180h260v-1180h-260zM217 1262v200h184v-200h-184zM-53 1262v200h182v-200h-182z" />
    <glyph glyph-name="eth" unicode="&#xf0;" horiz-adv-x="692" 
d="M301 231c0 -23.333 3.66699 -40.002 11 -50.002s19.333 -15 36 -15s28.667 5.16699 36 15.5s11 26.833 11 49.5v635c0 22.667 -4 39.334 -12 50.001s-20.333 16 -37 16c-16 0 -27.5 -5.16699 -34.5 -15.5s-10.5 -27.166 -10.5 -50.499v-635zM348 1092
c-11.333 20 -25.999 40.8311 -43.999 62.498s-39.333 44.5 -64 68.5l-183 -64l-28 82l137 51c-11.333 10 -23.833 20.333 -37.5 31s-30.5 22.334 -50.5 35.001l168 115l63 -57.5l58 -55.5l206 74l33 -88l-166 -60c78 -80.667 133 -158.667 165 -234s48 -176.666 48 -303.999
v-472c0 -110 -23.667 -188.333 -71 -235s-126 -70 -236 -70s-188.667 23.167 -236 69.5s-71 124.833 -71 235.5v539c0 118.667 12.833 199.167 38.5 241.5s69.5 63.5 131.5 63.5c25.333 0 49.166 -2.33301 71.499 -7s44.833 -11.667 67.5 -21z" />
    <glyph glyph-name="ntilde" unicode="&#xf1;" horiz-adv-x="698" 
d="M43 0l-0.000976562 1180h256v-99h4c22 41.333 48.333 71.833 79 91.5s66.334 29.5 107.001 29.5c56.667 0 99.167 -16.833 127.5 -50.5s42.5 -83.834 42.5 -150.501v-1001h-262v915c0 27.333 -3.5 45.833 -10.5 55.5s-19.167 14.5 -36.5 14.5
c-16 0 -27.833 -5.66699 -35.5 -17s-11.5 -29 -11.5 -53v-915h-260zM603.999 1464v-15.999c0 -58 -14.167 -103.5 -42.5 -136.5s-66.833 -49.5 -115.5 -49.5c-30 0 -65.833 10.5 -107.5 31.5s-69.834 31.5 -84.501 31.5c-16 0 -28.5 -5 -37.5 -15s-13.5 -23.333 -13.5 -40
v-8h-107v16c0 57.333 14.167 102.666 42.5 135.999s66.833 50 115.5 50c30 0 65.833 -10.5 107.5 -31.5s69.834 -31.5 84.501 -31.5c16 0 28.5 5 37.5 15s13.5 23.333 13.5 40v8h107z" />
    <glyph glyph-name="ograve" unicode="&#xf2;" horiz-adv-x="692" 
d="M301 952v-713.998c0 -26 3.66699 -44.5 11 -55.5s19.333 -16.5 36 -16.5s28.667 5.5 36 16.5s11 29.5 11 55.5v714c0 25.333 -3.83301 43.666 -11.5 54.999s-20.167 17 -37.5 17c-16 0 -27.5 -5.33301 -34.5 -16s-10.5 -29.334 -10.5 -56.001zM39 872.002
c0 122 23.833 208.5 71.5 259.5s126.167 76.5 235.5 76.5s187.833 -25.5 235.5 -76.5s71.5 -137.5 71.5 -259.5v-565c0 -121.333 -23.833 -207.666 -71.5 -258.999s-126.167 -77 -235.5 -77s-187.833 25.667 -235.5 77s-71.5 137.666 -71.5 258.999v565zM301 1251l-188 224
h251l99 -224h-162z" />
    <glyph glyph-name="oacute" unicode="&#xf3;" horiz-adv-x="692" 
d="M301 952v-713.998c0 -26 3.66699 -44.5 11 -55.5s19.333 -16.5 36 -16.5s28.667 5.5 36 16.5s11 29.5 11 55.5v714c0 25.333 -3.83301 43.666 -11.5 54.999s-20.167 17 -37.5 17c-16 0 -27.5 -5.33301 -34.5 -16s-10.5 -29.334 -10.5 -56.001zM39 872.002
c0 122 23.833 208.5 71.5 259.5s126.167 76.5 235.5 76.5s187.833 -25.5 235.5 -76.5s71.5 -137.5 71.5 -259.5v-565c0 -121.333 -23.833 -207.666 -71.5 -258.999s-126.167 -77 -235.5 -77s-187.833 25.667 -235.5 77s-71.5 137.666 -71.5 258.999v565zM393 1251h-162
l97 224h254z" />
    <glyph glyph-name="ocircumflex" unicode="&#xf4;" horiz-adv-x="692" 
d="M301 952v-713.998c0 -26 3.66699 -44.5 11 -55.5s19.333 -16.5 36 -16.5s28.667 5.5 36 16.5s11 29.5 11 55.5v714c0 25.333 -3.83301 43.666 -11.5 54.999s-20.167 17 -37.5 17c-16 0 -27.5 -5.33301 -34.5 -16s-10.5 -29.334 -10.5 -56.001zM39 872.002
c0 122 23.833 208.5 71.5 259.5s126.167 76.5 235.5 76.5s187.833 -25.5 235.5 -76.5s71.5 -137.5 71.5 -259.5v-565c0 -121.333 -23.833 -207.666 -71.5 -258.999s-126.167 -77 -235.5 -77s-187.833 25.667 -235.5 77s-71.5 137.666 -71.5 258.999v565zM256 1251h-162
l154 224h196l154 -224h-162l-90 111z" />
    <glyph glyph-name="otilde" unicode="&#xf5;" horiz-adv-x="692" 
d="M301 952v-713.998c0 -26 3.66699 -44.5 11 -55.5s19.333 -16.5 36 -16.5s28.667 5.5 36 16.5s11 29.5 11 55.5v714c0 25.333 -3.83301 43.666 -11.5 54.999s-20.167 17 -37.5 17c-16 0 -27.5 -5.33301 -34.5 -16s-10.5 -29.334 -10.5 -56.001zM39 872.002
c0 122 23.833 208.5 71.5 259.5s126.167 76.5 235.5 76.5s187.833 -25.5 235.5 -76.5s71.5 -137.5 71.5 -259.5v-565c0 -121.333 -23.833 -207.666 -71.5 -258.999s-126.167 -77 -235.5 -77s-187.833 25.667 -235.5 77s-71.5 137.666 -71.5 258.999v565zM600 1464v-15.999
c0 -58 -14.167 -103.5 -42.5 -136.5s-66.833 -49.5 -115.5 -49.5c-30 0 -65.833 10.5 -107.5 31.5s-69.834 31.5 -84.501 31.5c-16 0 -28.5 -5 -37.5 -15s-13.5 -23.333 -13.5 -40v-8h-107v16c0 57.333 14.167 102.666 42.5 135.999s66.833 50 115.5 50
c30 0 65.833 -10.5 107.5 -31.5s69.834 -31.5 84.501 -31.5c16 0 28.5 5 37.5 15s13.5 23.333 13.5 40v8h107z" />
    <glyph glyph-name="odieresis" unicode="&#xf6;" horiz-adv-x="692" 
d="M301 952v-713.998c0 -26 3.66699 -44.5 11 -55.5s19.333 -16.5 36 -16.5s28.667 5.5 36 16.5s11 29.5 11 55.5v714c0 25.333 -3.83301 43.666 -11.5 54.999s-20.167 17 -37.5 17c-16 0 -27.5 -5.33301 -34.5 -16s-10.5 -29.334 -10.5 -56.001zM39 872.002
c0 122 23.833 208.5 71.5 259.5s126.167 76.5 235.5 76.5s187.833 -25.5 235.5 -76.5s71.5 -137.5 71.5 -259.5v-565c0 -121.333 -23.833 -207.666 -71.5 -258.999s-126.167 -77 -235.5 -77s-187.833 25.667 -235.5 77s-71.5 137.666 -71.5 258.999v565zM389 1262v200h184
v-200h-184zM119 1262v200h182v-200h-182z" />
    <glyph glyph-name="divide" unicode="&#xf7;" horiz-adv-x="1706" 
d="M854 369c41.333 0 77 -15 107 -45s45 -65.667 45 -107c0 -40.667 -15 -75.667 -45 -105s-65.667 -44 -107 -44c-42 0 -77.833 14.333 -107.5 43s-44.5 64 -44.5 106s14.833 77.833 44.5 107.5s65.5 44.5 107.5 44.5zM254 711h1198v-199h-1198v199zM854 1155
c41.333 0 77 -14.833 107 -44.5s45 -65.167 45 -106.5c0 -42 -14.833 -77.833 -44.5 -107.5s-65.5 -44.5 -107.5 -44.5s-77.833 14.833 -107.5 44.5s-44.5 65.5 -44.5 107.5s14.833 77.667 44.5 107s65.5 44 107.5 44z" />
    <glyph glyph-name="oslash" unicode="&#xf8;" horiz-adv-x="692" 
d="M289 332l-0.00195312 -93.999c0 -24 4.83301 -42 14.5 -54s24.5 -18 44.5 -18c20.667 0 35.5 5.5 44.5 16.5s13.5 29.5 13.5 55.5v426c-3.33301 -10 -8.16602 -26.333 -14.499 -49s-11.166 -38.334 -14.499 -47.001zM405.998 854.001v98c0 26 -4.5 44.5 -13.5 55.5
s-23.833 16.5 -44.5 16.5c-20 0 -34.833 -6 -44.5 -18s-14.5 -30 -14.5 -54v-426c7.33301 28 18 59.667 32 95l7 18zM38.998 872.001c0 122 23.833 208.498 71.5 259.498s126.167 76.5 235.5 76.5c36 0 64.667 -2 86 -6s42 -10.667 62 -20l59 164h113l-78 -218
c23.333 -25.333 40 -56.166 50 -92.499s15 -90.833 15 -163.5v-565c0 -121.333 -23.833 -207.666 -71.5 -258.999s-126.167 -77 -235.5 -77c-32.667 0 -60 2 -82 6s-43 10.333 -63 19l-54 -154h-114l73 211c-24 25.333 -41.167 56.5 -51.5 93.5s-15.5 90.5 -15.5 160.5v565z
" />
    <glyph glyph-name="ugrave" unicode="&#xf9;" horiz-adv-x="698" 
d="M659 1180v-1180h-256v98h-6c-22 -40.667 -47.833 -70.5 -77.5 -89.5s-65.167 -28.5 -106.5 -28.5c-56.667 0 -99.167 16.5 -127.5 49.5s-42.5 82.5 -42.5 148.5v1002h260v-916c0 -26 3.83301 -44 11.5 -54s20.167 -15 37.5 -15c16 0 27.5 5.33301 34.5 16
s10.5 28.334 10.5 53.001v916h262zM305 1251l-188 224h251l99 -224h-162z" />
    <glyph glyph-name="uacute" unicode="&#xfa;" horiz-adv-x="698" 
d="M659 1180v-1180h-256v98h-6c-22 -40.667 -47.833 -70.5 -77.5 -89.5s-65.167 -28.5 -106.5 -28.5c-56.667 0 -99.167 16.5 -127.5 49.5s-42.5 82.5 -42.5 148.5v1002h260v-916c0 -26 3.83301 -44 11.5 -54s20.167 -15 37.5 -15c16 0 27.5 5.33301 34.5 16
s10.5 28.334 10.5 53.001v916h262zM397 1251h-162l97 224h254z" />
    <glyph glyph-name="ucircumflex" unicode="&#xfb;" horiz-adv-x="698" 
d="M659 1180v-1180h-256v98h-6c-22 -40.667 -47.833 -70.5 -77.5 -89.5s-65.167 -28.5 -106.5 -28.5c-56.667 0 -99.167 16.5 -127.5 49.5s-42.5 82.5 -42.5 148.5v1002h260v-916c0 -26 3.83301 -44 11.5 -54s20.167 -15 37.5 -15c16 0 27.5 5.33301 34.5 16
s10.5 28.334 10.5 53.001v916h262zM260 1251h-162l154 224h196l154 -224h-162l-90 111z" />
    <glyph glyph-name="udieresis" unicode="&#xfc;" horiz-adv-x="698" 
d="M659 1180v-1180h-256v98h-6c-22 -40.667 -47.833 -70.5 -77.5 -89.5s-65.167 -28.5 -106.5 -28.5c-56.667 0 -99.167 16.5 -127.5 49.5s-42.5 82.5 -42.5 148.5v1002h260v-916c0 -26 3.83301 -44 11.5 -54s20.167 -15 37.5 -15c16 0 27.5 5.33301 34.5 16
s10.5 28.334 10.5 53.001v916h262zM393 1262v200h184v-200h-184zM123 1262v200h182v-200h-182z" />
    <glyph glyph-name="yacute" unicode="&#xfd;" horiz-adv-x="627" 
d="M467 -8c-15.333 -100.667 -40.166 -168.832 -74.499 -204.499s-90.166 -53.5 -167.499 -53.5h-221v190h111c17.333 0 29.833 2.83301 37.5 8.5s11.5 15.167 11.5 28.5c0 4.66699 -0.666992 12.667 -2 24s-4 32.666 -8 63.999l-172 1131h268l45 -593
c2 -28 4 -66.333 6 -115l7 -177h7c3.33301 44 7.16602 90.167 11.499 138.5s10.166 107.833 17.499 178.5l59 568h244zM360 1251h-162l97 224h254z" />
    <glyph glyph-name="thorn" unicode="&#xfe;" horiz-adv-x="696" 
d="M303 915v-655c0 -24 3.83301 -41.667 11.5 -53s19.5 -17 35.5 -17c17.333 0 29.5 5.16699 36.5 15.5s10.5 28.5 10.5 54.5v655c0 26 -3.5 44.167 -10.5 54.5s-19.167 15.5 -36.5 15.5c-15.333 0 -27 -5.83301 -35 -17.5s-12 -29.167 -12 -52.5zM43 -266
l-0.000976562 1741h260v-394c18.667 39.333 44 69.333 76 90s68.667 31 110 31c57.333 0 100 -16.667 128 -50s42 -83.666 42 -150.999v-825c0 -66.667 -14.167 -116.834 -42.5 -150.501s-70.833 -50.5 -127.5 -50.5c-39.333 0 -73.666 9 -102.999 27s-57 46.667 -83 86
v-354h-260z" />
    <glyph glyph-name="ydieresis" unicode="&#xff;" horiz-adv-x="627" 
d="M467 -8c-15.333 -100.667 -40.166 -168.832 -74.499 -204.499s-90.166 -53.5 -167.499 -53.5h-221v190h111c17.333 0 29.833 2.83301 37.5 8.5s11.5 15.167 11.5 28.5c0 4.66699 -0.666992 12.667 -2 24s-4 32.666 -8 63.999l-172 1131h268l45 -593
c2 -28 4 -66.333 6 -115l7 -177h7c3.33301 44 7.16602 90.167 11.499 138.5s10.166 107.833 17.499 178.5l59 568h244zM356 1262v200h184v-200h-184zM86 1262v200h182v-200h-182z" />
    <glyph glyph-name="Cacute" unicode="&#x106;" horiz-adv-x="758" 
d="M41 1126c0 138 26.501 236.002 79.501 294.002s140.5 87 262.5 87c122.667 0 210.667 -28.833 264 -86.5s80 -155.834 80 -294.501v-163h-293v262c0 26 -3.83301 44.333 -11.5 55s-20.834 16 -39.501 16c-18 0 -30.667 -5.33301 -38 -16s-11 -29 -11 -55v-963
c0 -26 3.83301 -44.5 11.5 -55.5s20.167 -16.5 37.5 -16.5c18.667 0 31.834 5.66699 39.501 17s11.5 29.666 11.5 54.999v297h293v-213c0 -137.333 -26.5 -234.833 -79.5 -292.5s-141.167 -86.5 -264.5 -86.5c-122.667 0 -210.334 28.5 -263.001 85.5s-79 154.833 -79 293.5
v780zM430.001 1550h-162l97 224h254z" />
    <glyph glyph-name="cacute" unicode="&#x107;" horiz-adv-x="684" 
d="M39 307l-0.000976562 564.999c0 124 23.333 211 70 261s125 75 235 75c96.667 0 172.334 -22.5 227.001 -67.5s82 -107.167 82 -186.5v-186h-260v184c0 26 -3.66699 44.5 -11 55.5s-19.333 16.5 -36 16.5s-28.667 -5.5 -36 -16.5s-11 -29.5 -11 -55.5v-714
c0 -26 3.66699 -44.5 11 -55.5s19.333 -16.5 36 -16.5s28.667 5.5 36 16.5s11 29.5 11 55.5v221h260v-219c0 -85.333 -26.833 -151.5 -80.5 -198.5s-129.167 -70.5 -226.5 -70.5c-110 0 -188.667 25.333 -236 76s-71 137.334 -71 260.001zM388.999 1251h-162l97 224h254z
" />
    <glyph glyph-name="Ccaron" unicode="&#x10c;" horiz-adv-x="758" 
d="M41 1126c0 138 26.501 236.002 79.501 294.002s140.5 87 262.5 87c122.667 0 210.667 -28.833 264 -86.5s80 -155.834 80 -294.501v-163h-293v262c0 26 -3.83301 44.333 -11.5 55s-20.834 16 -39.501 16c-18 0 -30.667 -5.33301 -38 -16s-11 -29 -11 -55v-963
c0 -26 3.83301 -44.5 11.5 -55.5s20.167 -16.5 37.5 -16.5c18.667 0 31.834 5.66699 39.501 17s11.5 29.666 11.5 54.999v297h293v-213c0 -137.333 -26.5 -234.833 -79.5 -292.5s-141.167 -86.5 -264.5 -86.5c-122.667 0 -210.334 28.5 -263.001 85.5s-79 154.833 -79 293.5
v780zM473.001 1774h162l-154 -224h-196l-154 224h162l90 -111z" />
    <glyph glyph-name="ccaron" unicode="&#x10d;" horiz-adv-x="684" 
d="M39 307l-0.000976562 564.999c0 124 23.333 211 70 261s125 75 235 75c96.667 0 172.334 -22.5 227.001 -67.5s82 -107.167 82 -186.5v-186h-260v184c0 26 -3.66699 44.5 -11 55.5s-19.333 16.5 -36 16.5s-28.667 -5.5 -36 -16.5s-11 -29.5 -11 -55.5v-714
c0 -26 3.66699 -44.5 11 -55.5s19.333 -16.5 36 -16.5s28.667 5.5 36 16.5s11 29.5 11 55.5v221h260v-219c0 -85.333 -26.833 -151.5 -80.5 -198.5s-129.167 -70.5 -226.5 -70.5c-110 0 -188.667 25.333 -236 76s-71 137.334 -71 260.001zM431.999 1475h162l-154 -224h-196
l-154 224h162l90 -111z" />
    <glyph glyph-name="dcroat" unicode="&#x111;" horiz-adv-x="739" 
d="M653 1475l0.000976562 -100.999h92v-100h-92v-1274h-256v102h-4c-17.333 -43.333 -41.5 -76 -72.5 -98s-68.833 -33 -113.5 -33c-56.667 0 -98.834 16.5 -126.501 49.5s-41.5 82.833 -41.5 149.5v831c0 67.333 14 117.666 42 150.999s70 50 126 50
c41.333 0 77 -10 107 -30s55 -50.333 75 -91h4v193h-172v100h172v101h260zM299.001 258.001c0 -27.333 3.5 -46.167 10.5 -56.5s19.167 -15.5 36.5 -15.5c16 0 27.833 6 35.5 18s11.5 30 11.5 54v657c0 24 -3.83301 41.667 -11.5 53s-19.5 17 -35.5 17
c-17.333 0 -29.5 -4.83301 -36.5 -14.5s-10.5 -28.167 -10.5 -55.5v-657z" />
    <glyph glyph-name="Gbreve" unicode="&#x11e;" horiz-adv-x="764" 
d="M39 1126c0 138 26.5 236 79.5 294s141.167 87 264.5 87c115.333 0 201.5 -26.833 258.5 -80.5s85.5 -134.5 85.5 -242.5v-221h-293v262c0 26 -3.83301 44.333 -11.5 55s-20.834 16 -39.501 16c-17.333 0 -29.833 -5.66699 -37.5 -17s-11.5 -29.333 -11.5 -54v-963
c0 -26 3.83301 -44.5 11.5 -55.5s20.167 -16.5 37.5 -16.5c18.667 0 31.834 5.66699 39.501 17s11.5 29.666 11.5 54.999v260h-74v228h367v-750h-145l-19 92c-34 -43.333 -71.667 -75.666 -113 -96.999s-87 -32 -137 -32c-91.333 0 -159.833 32 -205.5 96
s-68.5 160.333 -68.5 289v778zM299 1774c0 -35.333 6.66895 -61 20.002 -77s34.666 -24 63.999 -24s50.666 8 63.999 24s20 41.667 20 77h131v-13c0 -70.667 -18.167 -124.167 -54.5 -160.5s-89.833 -54.5 -160.5 -54.5s-124.167 18.167 -160.5 54.5
s-54.5 89.833 -54.5 160.5v13h131z" />
    <glyph glyph-name="gbreve" unicode="&#x11f;" horiz-adv-x="694" 
d="M299 412c0 -27.333 3.5 -46.167 10.5 -56.5s19.167 -15.5 36.5 -15.5c16 0 27.833 5.83301 35.5 17.5s11.5 29.834 11.5 54.501v512c0 24 -3.83301 41.5 -11.5 52.5s-19.5 16.5 -35.5 16.5c-17.333 0 -29.5 -4.83301 -36.5 -14.5s-10.5 -27.834 -10.5 -54.501v-512z
M393 259.999h-4.00195c-18.667 -44 -43.167 -76.833 -73.5 -98.5s-67.166 -32.5 -110.499 -32.5c-57.333 0 -99.333 15.833 -126 47.5s-40 82.167 -40 151.5v690c0 59.333 14.333 104.833 43 136.5s70.334 47.5 125.001 47.5c41.333 0 77 -9.66699 107 -29
s56.333 -50 79 -92h6v99h254v-1110c0 -123.333 -23.667 -210.166 -71 -260.499s-126 -75.5 -236 -75.5c-97.333 0 -172.833 23.5 -226.5 70.5s-80.5 112.833 -80.5 197.5v90h260v-92c0 -26 3.66699 -44.5 11 -55.5s19.333 -16.5 36 -16.5s28.667 5.66699 36 17
s11 29.666 11 54.999v260zM263.998 1475c0 -35.333 6.66895 -61 20.002 -77s34.666 -24 63.999 -24s50.666 8 63.999 24s20 41.667 20 77h131v-13c0 -70.667 -18.167 -124.167 -54.5 -160.5s-89.833 -54.5 -160.5 -54.5s-124.167 18.167 -160.5 54.5
s-54.5 89.833 -54.5 160.5v13h131z" />
    <glyph glyph-name="Idotaccent" unicode="&#x130;" horiz-adv-x="387" 
d="M45 0v1475h295v-1475h-295zM99 1559v206h192v-206h-192z" />
    <glyph glyph-name="dotlessi" unicode="&#x131;" horiz-adv-x="346" 
d="M43 0v1180h260v-1180h-260z" />
    <glyph glyph-name="Lslash" unicode="&#x141;" horiz-adv-x="674" 
d="M94 0v567l-94 -65v213l94 67v693h295v-560l127 93v-215l-127 -91v-479h254v-223h-549z" />
    <glyph glyph-name="lslash" unicode="&#x142;" horiz-adv-x="461" 
d="M90 0v616l-90 -61v131l90 64v725h260v-615l90 64v-131l-90 -64v-729h-260z" />
    <glyph glyph-name="OE" unicode="&#x152;" horiz-adv-x="997" 
d="M336 1225l-0.000976562 -962.999c0 -26 3.83301 -44.5 11.5 -55.5s20.167 -16.5 37.5 -16.5c18.667 0 31.834 5.66699 39.501 17s11.5 29.666 11.5 54.999v963c0 25.333 -4 43.5 -12 54.5s-21 16.5 -39 16.5s-30.667 -5.33301 -38 -16s-11 -29 -11 -55z
M566.999 0.000976562c-24.667 -11.333 -50.999 -19.667 -78.999 -25s-61.667 -8 -101 -8c-122.667 0 -211 29.5 -265 88.5s-81 155.833 -81 290.5v780c0 138 26.833 236 80.5 294s142.167 87 265.5 87c37.333 0 70.166 -2.5 98.499 -7.5s55.5 -13.167 81.5 -24.5h416v-205
h-254v-340h250v-213h-250v-494h254v-223h-416z" />
    <glyph glyph-name="oe" unicode="&#x153;" horiz-adv-x="1038" 
d="M649 952v-223h94v223c0 26 -3.66699 44.5 -11 55.5s-19.333 16.5 -36 16.5s-28.667 -5.5 -36 -16.5s-11 -29.5 -11 -55.5zM649 238c0 -26 3.66602 -44.499 10.999 -55.499s19.333 -16.5 36 -16.5s28.667 5.5 36 16.5s11 29.5 11 55.5v221h261v-219
c0 -84.667 -25.667 -150.667 -77 -198s-122.666 -71 -213.999 -71c-37.333 0 -71 4.16699 -101 12.5s-60 21.5 -90 39.5c-28 -18 -58 -31.167 -90 -39.5s-67.333 -12.5 -106 -12.5c-101.333 0 -174.5 26.167 -219.5 78.5s-67.5 138.166 -67.5 257.499v565
c0 122 23.833 208.5 71.5 259.5s126.167 76.5 235.5 76.5c38.667 0 71.5 -3.83301 98.5 -11.5s52.833 -20.167 77.5 -37.5c24 17.333 49.5 29.833 76.5 37.5s58.833 11.5 95.5 11.5c96.667 0 172.5 -22.5 227.5 -67.5s82.5 -107.167 82.5 -186.5v-401h-355v-315z
M300.999 952.001v-713.998c0 -26 3.66699 -44.5 11 -55.5s19.333 -16.5 36 -16.5s28.667 5.5 36 16.5s11 29.5 11 55.5v714c0 25.333 -3.83301 43.666 -11.5 54.999s-20.167 17 -37.5 17c-16 0 -27.5 -5.33301 -34.5 -16s-10.5 -29.334 -10.5 -56.001z" />
    <glyph glyph-name="Scedilla" unicode="&#x15e;" horiz-adv-x="754" 
d="M33 1210c0 94 30.1689 166.999 90.502 218.999s144.833 78 253.5 78c109.333 0 193.666 -26.167 252.999 -78.5s89 -127.166 89 -224.499v-241h-293v262c0 26.667 -3.66699 45.167 -11 55.5s-20 15.5 -38 15.5c-18.667 0 -31.834 -5.5 -39.501 -16.5
s-11.5 -29.167 -11.5 -54.5v-131c0 -22 2.83301 -41.167 8.5 -57.5s14.834 -32.166 27.501 -47.499l283 -311c26.667 -28.667 45.667 -59 57 -91s17 -83 17 -153v-172c0 -94.667 -29.833 -167.5 -89.5 -218.5s-144.5 -76.5 -254.5 -76.5
c-112.667 0 -197.834 26.667 -255.501 80s-86.5 132 -86.5 236v276h293v-297c0 -25.333 3.83301 -43.666 11.5 -54.999s20.834 -17 39.501 -17c17.333 0 29.833 5.5 37.5 16.5s11.5 29.5 11.5 55.5v156c0 21.333 -3.83301 41.166 -11.5 59.499
s-20.834 38.166 -39.501 59.499l-266 301c-27.333 30.667 -46.833 61.5 -58.5 92.5s-17.5 72.5 -17.5 124.5v22v133zM152.002 -266.001l159 198h170l-92 -198h-237z" />
    <glyph glyph-name="scedilla" unicode="&#x15f;" horiz-adv-x="682" 
d="M651 244c0 -88 -26.334 -155.5 -79.001 -202.5s-128.667 -70.5 -228 -70.5c-97.333 0 -173.166 23.667 -227.499 71s-81.5 113.333 -81.5 198v219h262v-221c0 -26 3.66699 -44.5 11 -55.5s19.333 -16.5 36 -16.5s28.667 5.5 36 16.5s11 29.5 11 55.5v106
c0 48 -43.333 106.667 -130 176l-44 35l-2 2c-120 99.333 -180 199 -180 299v105c0 78 27 138.667 81 182s129.333 65 226 65c98 0 174 -22.667 228 -68s81 -109.333 81 -192v-180h-260v184c0 26 -3.66699 44.5 -11 55.5s-19.333 16.5 -36 16.5s-28.667 -5.5 -36 -16.5
s-11 -29.5 -11 -55.5v-63c0 -53.333 41.667 -112 125 -176l45 -35c82 -66 133.167 -117.5 153.5 -154.5s30.5 -85.167 30.5 -144.5v-135zM116.999 -266l159 198h170l-92 -198h-237z" />
    <glyph glyph-name="Scaron" unicode="&#x160;" horiz-adv-x="754" 
d="M33 1210c0 94 30.1689 166.999 90.502 218.999s144.833 78 253.5 78c109.333 0 193.666 -26.167 252.999 -78.5s89 -127.166 89 -224.499v-241h-293v262c0 26.667 -3.66699 45.167 -11 55.5s-20 15.5 -38 15.5c-18.667 0 -31.834 -5.5 -39.501 -16.5
s-11.5 -29.167 -11.5 -54.5v-131c0 -22 2.83301 -41.167 8.5 -57.5s14.834 -32.166 27.501 -47.499l283 -311c26.667 -28.667 45.667 -59 57 -91s17 -83 17 -153v-172c0 -94.667 -29.833 -167.5 -89.5 -218.5s-144.5 -76.5 -254.5 -76.5
c-112.667 0 -197.834 26.667 -255.501 80s-86.5 132 -86.5 236v276h293v-297c0 -25.333 3.83301 -43.666 11.5 -54.999s20.834 -17 39.501 -17c17.333 0 29.833 5.5 37.5 16.5s11.5 29.5 11.5 55.5v156c0 21.333 -3.83301 41.166 -11.5 59.499
s-20.834 38.166 -39.501 59.499l-266 301c-27.333 30.667 -46.833 61.5 -58.5 92.5s-17.5 72.5 -17.5 124.5v22v133zM467.002 1774h162l-154 -224h-196l-154 224h162l90 -111z" />
    <glyph glyph-name="scaron" unicode="&#x161;" horiz-adv-x="682" 
d="M651 244c0 -88 -26.334 -155.5 -79.001 -202.5s-128.667 -70.5 -228 -70.5c-97.333 0 -173.166 23.667 -227.499 71s-81.5 113.333 -81.5 198v219h262v-221c0 -26 3.66699 -44.5 11 -55.5s19.333 -16.5 36 -16.5s28.667 5.5 36 16.5s11 29.5 11 55.5v106
c0 48 -43.333 106.667 -130 176l-44 35l-2 2c-120 99.333 -180 199 -180 299v105c0 78 27 138.667 81 182s129.333 65 226 65c98 0 174 -22.667 228 -68s81 -109.333 81 -192v-180h-260v184c0 26 -3.66699 44.5 -11 55.5s-19.333 16.5 -36 16.5s-28.667 -5.5 -36 -16.5
s-11 -29.5 -11 -55.5v-63c0 -53.333 41.667 -112 125 -176l45 -35c82 -66 133.167 -117.5 153.5 -154.5s30.5 -85.167 30.5 -144.5v-135zM431.999 1475h162l-154 -224h-196l-154 224h162l90 -111z" />
    <glyph glyph-name="Ydieresis" unicode="&#x178;" horiz-adv-x="729" 
d="M217 0v559l-223 916h303l53 -336c6.66699 -41.333 12 -81.5 16 -120.5s7 -78.167 9 -117.5h12c6 52 11.5 97.667 16.5 137s9.83301 72.333 14.5 99l59 338h262l-229 -916v-559h-293zM408 1561v200h184v-200h-184zM138 1561v200h182v-200h-182z" />
    <glyph glyph-name="Zcaron" unicode="&#x17d;" horiz-adv-x="643" 
d="M31 0v227l274 1035h-274v213h577v-175l-289 -1077h291v-223h-579zM412 1774h162l-154 -224h-196l-154 224h162l90 -111z" />
    <glyph glyph-name="zcaron" unicode="&#x17e;" horiz-adv-x="522" 
d="M16 0v205l215 780h-208v195h489v-170l-225 -811h225v-199h-496zM352 1475h162l-154 -224h-196l-154 224h162l90 -111z" />
    <glyph glyph-name="florin" unicode="&#x192;" 
d="M55 -268l0.00292969 206.999h66c52.667 0 86 9.16699 100 27.5s21 56.833 21 115.5v594h-187v160h187v284c0 136 23.5 229.167 70.5 279.5s130.5 75.5 250.5 75.5c37.333 0 67.5 -0.166992 90.5 -0.5s45.5 -1.16602 67.5 -2.49902v-198h-72
c-50.667 0 -83.834 -9.16699 -99.501 -27.5s-23.5 -65.833 -23.5 -142.5v-268h195v-160h-195v-586c0 -140 -24.833 -235 -74.5 -285s-146.834 -75 -291.501 -75c-28 0 -49.333 0.166992 -64 0.5s-28.334 0.833008 -41.001 1.5z" />
    <glyph glyph-name="circumflex" unicode="&#x2c6;" horiz-adv-x="1024" 
d="M422 1251h-162l154 224h196l154 -224h-162l-90 111z" />
    <glyph glyph-name="caron" unicode="&#x2c7;" horiz-adv-x="1024" 
d="M602 1475h162l-154 -224h-196l-154 224h162l90 -111z" />
    <glyph glyph-name="breve" unicode="&#x2d8;" horiz-adv-x="1024" 
d="M428 1475c0 -35.333 6.66895 -61 20.002 -77s34.666 -24 63.999 -24s50.666 8 63.999 24s20 41.667 20 77h131v-13c0 -70.667 -18.167 -124.167 -54.5 -160.5s-89.833 -54.5 -160.5 -54.5s-124.167 18.167 -160.5 54.5s-54.5 89.833 -54.5 160.5v13h131z" />
    <glyph glyph-name="dotaccent" unicode="&#x2d9;" horiz-adv-x="1024" 
d="M416 1260v206h192v-206h-192z" />
    <glyph glyph-name="ring" unicode="&#x2da;" horiz-adv-x="1024" 
d="M334 1430c0 48.667 17.333 90.5 52 125.5s76.667 52.5 126 52.5s91.333 -17.5 126 -52.5s52 -76.833 52 -125.5c0 -50 -17.333 -92.333 -52 -127s-76.667 -52 -126 -52c-50 0 -92.167 17.167 -126.5 51.5s-51.5 76.833 -51.5 127.5zM444 1430
c0 -18.667 6.66699 -34.334 20 -47.001s29.333 -19 48 -19c19.333 0 35.5 6.33301 48.5 19s19.5 28.334 19.5 47.001c0 19.333 -6.5 35.333 -19.5 48s-29.167 19 -48.5 19c-18.667 0 -34.667 -6.66699 -48 -20s-20 -29 -20 -47z" />
    <glyph glyph-name="ogonek" unicode="&#x2db;" horiz-adv-x="1024" 
d="M629 0c-24.667 -34.667 -42.167 -64.502 -52.5 -89.502s-15.5 -49.167 -15.5 -72.5c0 -18.667 3.66699 -37 11 -55s18 -34.333 32 -49h-180c-8 16 -13.833 30 -17.5 42s-5.5 23.333 -5.5 34c0 32.667 8 62.834 24 90.501s45.667 60.834 89 99.501h115z" />
    <glyph glyph-name="tilde" unicode="&#x2dc;" horiz-adv-x="1024" 
d="M766 1464v-15.999c0 -58 -14.167 -103.5 -42.5 -136.5s-66.833 -49.5 -115.5 -49.5c-30 0 -65.833 10.5 -107.5 31.5s-69.834 31.5 -84.501 31.5c-16 0 -28.5 -5 -37.5 -15s-13.5 -23.333 -13.5 -40v-8h-107v16c0 57.333 14.167 102.666 42.5 135.999s66.833 50 115.5 50
c30 0 65.833 -10.5 107.5 -31.5s69.834 -31.5 84.501 -31.5c16 0 28.5 5 37.5 15s13.5 23.333 13.5 40v8h107z" />
    <glyph glyph-name="hungarumlaut" unicode="&#x2dd;" horiz-adv-x="1024" 
d="M700 1251h-133l80 224h209zM438 1251h-135l82 224h207z" />
    <glyph glyph-name="Omega" unicode="&#x3a9;" horiz-adv-x="1575" 
d="M1227 256l291.001 -0.000976562v-256h-609v291c84 57.333 148 129.833 192 217.5s66 186.5 66 296.5c0 135.333 -33.833 241.833 -101.5 319.5s-160.834 116.5 -279.501 116.5c-118 0 -210.833 -38.833 -278.5 -116.5s-101.5 -184.167 -101.5 -319.5
c0 -109.333 22 -208.166 66 -296.499s108 -160.833 192 -217.5v-291h-609v256h291c-84 80.667 -146.333 167.334 -187 260.001s-61 193.667 -61 303c0 208.667 62.667 375.834 188 501.501s292 188.5 500 188.5c208.667 0 375.667 -62.833 501 -188.5
s188 -292.834 188 -501.501c0 -109.333 -20.333 -210.333 -61 -303s-103 -179.334 -187 -260.001z" />
    <glyph glyph-name="pi" unicode="&#x3c0;" horiz-adv-x="1319" 
d="M1354 1092l-39 -224h-176l-154 -868h-287l152 868h-238l-151 -868h-287l152 868h-25c-36.667 0 -64.667 -10.333 -84 -31s-32.333 -53.667 -39 -99l-213 -1c20 133.333 61 225.833 123 277.5s165.667 77.5 311 77.5h955z" />
    <glyph glyph-name="endash" unicode="&#x2013;" horiz-adv-x="1024" 
d="M0 500v180h1024v-180h-1024z" />
    <glyph glyph-name="emdash" unicode="&#x2014;" horiz-adv-x="2048" 
d="M0 500v180h2048v-180h-2048z" />
    <glyph glyph-name="quoteleft" unicode="&#x2018;" horiz-adv-x="389" 
d="M340 950h-174l-137 525h245z" />
    <glyph glyph-name="quoteright" unicode="&#x2019;" horiz-adv-x="389" 
d="M49 950l66 525h245l-137 -525h-174z" />
    <glyph glyph-name="quotesinglbase" unicode="&#x201a;" horiz-adv-x="389" 
d="M43 -219l66 524h245l-137 -524h-174z" />
    <glyph glyph-name="quotedblleft" unicode="&#x201c;" horiz-adv-x="702" 
d="M653 950h-174l-137 525h246zM340 950h-174l-139 525h245z" />
    <glyph glyph-name="quotedblright" unicode="&#x201d;" horiz-adv-x="702" 
d="M47 950l68 525h243l-137 -525h-174zM362 950l66 525h246l-137 -525h-175z" />
    <glyph glyph-name="quotedblbase" unicode="&#x201e;" horiz-adv-x="702" 
d="M43 -219l66 524h245l-137 -524h-174zM356 -219l66 524h246l-138 -524h-174z" />
    <glyph glyph-name="dagger" unicode="&#x2020;" horiz-adv-x="807" 
d="M401 -150l-104 99v969h-285v194h285v363h213v-363h283v-194h-283v-969z" />
    <glyph glyph-name="daggerdbl" unicode="&#x2021;" horiz-adv-x="807" 
d="M510 766l-109 -98l-104 98v152h-285v194h285v363h213v-363h283v-194h-283v-152zM297 571l106 97l105 -97v-151h285v-195h-285v-362h-211v362h-285v195h285v151z" />
    <glyph glyph-name="bullet" unicode="&#x2022;" horiz-adv-x="1208" 
d="M307 762c0 82 28.999 151.666 86.999 208.999s128 86 210 86c81.333 0 150.833 -28.833 208.5 -86.5s86.5 -127.167 86.5 -208.5s-29.167 -151.166 -87.5 -209.499s-128.166 -87.5 -209.499 -87.5c-82 0 -151.667 29 -209 87s-86 128 -86 210z" />
    <glyph glyph-name="ellipsis" unicode="&#x2026;" horiz-adv-x="2048" 
d="M206 0v301h271v-301h-271zM888 0v301h271v-301h-271zM1572 0v301h271v-301h-271z" />
    <glyph glyph-name="perthousand" unicode="&#x2030;" horiz-adv-x="1632" 
d="M901 172v406c0 24 -3.16699 41.167 -9.5 51.5s-16.833 15.5 -31.5 15.5c-14 0 -24.333 -5.16699 -31 -15.5s-10 -27.5 -10 -51.5v-406c0 -24 3.33301 -41.333 10 -52s17 -16 31 -16c14.667 0 25.167 5.33301 31.5 16s9.5 28 9.5 52zM643 528
c0 90 17.167 154.833 51.5 194.5s89.5 59.5 165.5 59.5s131.167 -19.833 165.5 -59.5s51.5 -104.5 51.5 -194.5v-305c0 -90 -17.167 -155.167 -51.5 -195.5s-89.5 -60.5 -165.5 -60.5c-75.333 0 -130.333 20.167 -165 60.5s-52 105.5 -52 195.5v305zM49 1249
c0 90.667 17.333 156 52 196s89.667 60 165 60c76 0 131.167 -20 165.5 -60s51.5 -105.333 51.5 -196v-305c0 -90 -17.167 -155.167 -51.5 -195.5s-89.5 -60.5 -165.5 -60.5c-75.333 0 -130.333 20.167 -165 60.5s-52 105.5 -52 195.5v305zM307 895v403
c0 24.667 -3.16699 42.167 -9.5 52.5s-16.833 15.5 -31.5 15.5c-14 0 -24.333 -5.16699 -31 -15.5s-10 -27.833 -10 -52.5v-403c0 -24 3.33301 -41.333 10 -52s17 -16 31 -16c14.667 0 25.167 5.33301 31.5 16s9.5 28 9.5 52zM1151 528c0 90 17.167 154.833 51.5 194.5
s89.5 59.5 165.5 59.5s131.167 -19.833 165.5 -59.5s51.5 -104.5 51.5 -194.5v-305c0 -90 -17.167 -155.167 -51.5 -195.5s-89.5 -60.5 -165.5 -60.5s-131.167 20.167 -165.5 60.5s-51.5 105.5 -51.5 195.5v305zM1409 172v406c0 24 -3.16699 41.167 -9.5 51.5
s-16.833 15.5 -31.5 15.5c-14 0 -24 -5 -30 -15s-9 -27.333 -9 -52v-406c0 -24.667 3 -42.167 9 -52.5s16 -15.5 30 -15.5c14.667 0 25.167 5.33301 31.5 16s9.5 28 9.5 52zM774 1507h117l-541 -1540h-117z" />
    <glyph glyph-name="guilsinglleft" unicode="&#x2039;" horiz-adv-x="389" 
d="M342 123l-295 328v262l295 329v-262l-182 -198l182 -199v-260z" />
    <glyph glyph-name="guilsinglright" unicode="&#x203a;" horiz-adv-x="389" 
d="M47 1040l295 -327v-262l-295 -328v260l180 199l-180 198v260z" />
    <glyph glyph-name="franc" unicode="&#x20a3;" horiz-adv-x="1305" 
d="M51 0v1475h549v-205h-254v-340h248v-213h-248v-717h-295zM670 0l-0.000976562 1180h256v-99h4c22 41.333 48.333 71.833 79 91.5s66.334 29.5 107.001 29.5c56.667 0 99.167 -16.833 127.5 -50.5s42.5 -83.834 42.5 -150.501v-456h-262v370
c0 27.333 -3.5 45.833 -10.5 55.5s-19.167 14.5 -36.5 14.5c-16 0 -27.833 -5.66699 -35.5 -17s-11.5 -29 -11.5 -53v-915h-260z" />
    <glyph glyph-name="trademark" unicode="&#x2122;" horiz-adv-x="1706" 
d="M803 1462h196l127 -332l123 332h197v-547h-135v410l-154 -410h-61l-158 410v-410h-135v547zM207 1462h485v-112h-168v-435h-149v435h-168v112z" />
    <glyph glyph-name="partialdiff" unicode="&#x2202;" horiz-adv-x="1094" 
d="M762 662c12.667 66 22.3311 128.834 28.998 188.501s10 111.5 10 155.5c0 66.667 -8.66699 119.167 -26 157.5s-40.666 57.5 -69.999 57.5s-78 -24.333 -146 -73s-121.333 -73 -160 -73c-28 0 -51.667 10 -71 30s-29 44.333 -29 73c0 42.667 28.833 82 86.5 118
s127.834 54 210.501 54c128 0 231 -53.833 309 -161.5s117 -251.834 117 -432.501c0 -226 -52.167 -412.667 -156.5 -560s-236.5 -221 -396.5 -221c-114 0 -208 38.167 -282 114.5s-111 173.5 -111 291.5c0 132 38.667 241.833 116 329.5s173 131.5 287 131.5
c68 0 124.667 -14.5 170 -43.5s83 -74.5 113 -136.5zM699.997 518.001c0 77.333 -12.835 136.667 -38.502 178s-62.5 62 -110.5 62c-67.333 0 -123.166 -44.667 -167.499 -134s-66.5 -203 -66.5 -341c0 -78 12.833 -137.167 38.5 -177.5s62.834 -60.5 111.501 -60.5
c67.333 0 123 44.5 167 133.5s66 202.167 66 339.5z" />
    <glyph glyph-name="Delta" unicode="&#x2206;" horiz-adv-x="1427" 
d="M713 1110l-326 -854h653zM563 1473h301l563 -1473h-1427z" />
    <glyph glyph-name="product" unicode="&#x220f;" horiz-adv-x="1612" 
d="M150 1473h1308v-1866h-344v1577h-620v-1577h-344v1866z" />
    <glyph glyph-name="summation" unicode="&#x2211;" horiz-adv-x="1470" 
d="M66 1473h1308v-265h-878l620 -645l-622 -690h933v-266h-1386v172l698 772l-673 690v232z" />
    <glyph glyph-name="minus" unicode="&#x2212;" horiz-adv-x="1706" 
d="M254 713h1198v-203h-1198v203z" />
    <glyph glyph-name="fraction" unicode="&#x2215;" horiz-adv-x="258" 
d="M-143 -33h-117l661 1540h117z" />
    <glyph glyph-name="periodcentered" unicode="&#x2219;" horiz-adv-x="389" 
d="M195 895c43.333 0 80.333 -15.5 111 -46.5s46 -68.167 46 -111.5c0 -44 -15.333 -81.5 -46 -112.5s-67.667 -46.5 -111 -46.5c-44 0 -81.667 15.5 -113 46.5s-47 68.5 -47 112.5s15.5 81.333 46.5 112s68.833 46 113.5 46z" />
    <glyph glyph-name="radical" unicode="&#x221a;" horiz-adv-x="1346" 
d="M1141 1694h207v-129h-103l-592 -1606h-100l-311 858l-140 -51l-30 113l331 116l236 -661z" />
    <glyph glyph-name="infinity" unicode="&#x221e;" horiz-adv-x="1706" 
d="M942 561c30 -50 65.499 -87.667 106.499 -113s87.5 -38 139.5 -38c62.667 0 113.5 18.5 152.5 55.5s58.5 85.167 58.5 144.5c0 57.333 -18 104.833 -54 142.5s-81 56.5 -135 56.5c-49.333 0 -94.666 -19 -135.999 -57s-85.333 -101.667 -132 -191zM765.999 659
c-30.667 50.667 -66.333 88.334 -107 113.001s-87 37 -139 37c-62 0 -112.667 -18.833 -152 -56.5s-59 -85.834 -59 -144.501c0 -56.667 18 -103.834 54 -141.501s81 -56.5 135 -56.5c50 0 96 19.333 138 58s85.333 102.334 130 191.001zM858 457
c-46 -88.667 -95 -153.832 -147 -195.499s-110 -62.5 -174 -62.5c-92.667 0 -171.167 39.167 -235.5 117.5s-96.5 176.166 -96.5 293.499c0 122.667 28.5 221.667 85.5 297s131.5 113 223.5 113c62 0 118.5 -19.5 169.5 -58.5s105.833 -105.5 164.5 -199.5
c45.333 88 94.666 153.333 147.999 196s111.666 64 174.999 64c92.667 0 171.167 -39.333 235.5 -118s96.5 -176.667 96.5 -294c0 -122 -28.667 -220.667 -86 -296s-131.666 -113 -222.999 -113c-62 0 -118.167 18.833 -168.5 56.5s-106.166 104.167 -167.499 199.5z" />
    <glyph glyph-name="integral" unicode="&#x222b;" horiz-adv-x="1186" 
d="M342 -252c68 0 108.334 213 121.001 639c2 90.667 4 161 6 211c10.667 338.667 51.667 582.667 123 732s180.666 224 327.999 224c65.333 0 117.833 -16.333 157.5 -49s59.5 -75.667 59.5 -129c0 -40 -12.667 -72.167 -38 -96.5s-58.666 -36.5 -99.999 -36.5
c-30.667 0 -56.334 8 -77.001 24s-34.334 38.667 -41.001 68c-3.33301 13.333 -5.66602 31.333 -6.99902 54c-2 30.667 -12 46.334 -30 47.001c-66 0 -105.667 -211 -119 -633l-6 -178c-7.33301 -197.333 -17.666 -345.5 -30.999 -444.5s-33 -182.5 -59 -250.5
c-37.333 -98.667 -86.833 -173.834 -148.5 -225.501s-133.167 -77.5 -214.5 -77.5c-64 0 -116.167 16.333 -156.5 49s-60.5 75 -60.5 127c0 41.333 13 74.333 39 99s61 37 105 37c33.333 0 61.666 -10.5 84.999 -31.5s35 -44.833 35 -71.5c0 -38.667 2 -63 6 -73
s11.667 -15 23 -15z" />
    <glyph glyph-name="approxequal" unicode="&#x2248;" horiz-adv-x="1706" 
d="M1530 596l-0.00292969 -219c-70.667 -48 -136.667 -83.167 -198 -105.5s-121.666 -33.5 -180.999 -33.5c-63.333 0 -158.833 22.167 -286.5 66.5s-228.167 66.5 -301.5 66.5c-56 0 -114.167 -12.333 -174.5 -37s-130.5 -65 -210.5 -121v219
c74 48.667 142.833 84.667 206.5 108s123.834 35 180.501 35c82.667 0 187.834 -21.833 315.501 -65.5s219.167 -65.5 274.5 -65.5c57.333 0 115.333 11.833 174 35.5s125.667 62.5 201 116.5zM1530 1008l0.000976562 -220c-70.667 -47.333 -136.167 -82 -196.5 -104
s-120.5 -33 -180.5 -33c-62.667 0 -158 21.833 -286 65.5s-229.333 65.5 -304 65.5c-54.667 0 -111.334 -11.667 -170.001 -35s-130.334 -64 -215.001 -122v219c71.333 47.333 139.333 83 204 107s125.667 36 183 36c83.333 0 188.833 -21.833 316.5 -65.5
s218.834 -65.5 273.501 -65.5c56 0 113 11.667 171 35s126 62.333 204 117z" />
    <glyph glyph-name="notequal" unicode="&#x2260;" horiz-adv-x="1706" 
d="M1198 1233l148 -119l-154 -192h260v-191h-389l-191 -239h580v-193h-707l-245 -309l-148 119l154 190h-252v193h377l190 239h-567v191h696z" />
    <glyph glyph-name="lessequal" unicode="&#x2264;" horiz-adv-x="1706" 
d="M258 195h1192v-197h-1192v197zM1448 1241v-209l-834 -264l834 -262v-209l-1190 385v174z" />
    <glyph glyph-name="greaterequal" unicode="&#x2265;" horiz-adv-x="1706" 
d="M258 195h1192v-197h-1192v197zM260 1241l1188 -385v-174l-1188 -385v209l832 262l-832 264v209z" />
    <glyph glyph-name="lozenge" unicode="&#x25ca;" horiz-adv-x="1012" 
d="M506 1409l-385 -817l385 -825l385 825zM506 1653l500 -1061l-500 -1069l-500 1069z" />
    <glyph glyph-name="apple" unicode="&#xf000;" horiz-adv-x="1618" 
d="M836 1216c-0.666992 4 -1.16699 8.66895 -1.5 14.002s-0.5 13 -0.5 23c0 82.667 31.667 159.167 95 229.5s142 114.166 236 131.499c0.666992 -6.66699 1.16699 -14.334 1.5 -23.001s0.5 -21.667 0.5 -39c0 -87.333 -34.5 -165.5 -103.5 -234.5
s-136.833 -103.5 -203.5 -103.5h-8c-2 0 -4.5 0.333008 -7.5 1s-5.83301 1 -8.5 1zM1505 403.002c-76 -164.667 -144.336 -278.834 -205.003 -342.501s-128.667 -95.5 -204 -95.5c-33.333 0 -77.166 11 -131.499 33s-95.166 33 -122.499 33c-30 0 -73.667 -11 -131 -33
s-99.666 -33 -126.999 -33c-42.667 0 -85.5 14.667 -128.5 44s-86.167 73.333 -129.5 132c-68 93.333 -120.5 191.833 -157.5 295.5s-55.5 203.834 -55.5 300.501c0 146 41.667 264.833 125 356.5s191 137.5 323 137.5c45.333 0 97 -11.333 155 -34s99.333 -34 124 -34
c22.667 0 63.167 11.667 121.5 35s109.166 35 152.499 35c73.333 0 139.333 -13.333 198 -40s112.334 -68 161.001 -124c-68 -43.333 -118.5 -91.833 -151.5 -145.5s-49.5 -114.5 -49.5 -182.5c0 -75.333 20 -142 60 -200s97.667 -104 173 -138z" />
    <glyph glyph-name="fi" unicode="&#xf001;" horiz-adv-x="764" 
d="M461 0v1180h262v-1180h-262zM461 1251v224h262v-224h-262zM84 0l0.000976562 993h-64v187h64v112c0 58 17.167 103 51.5 135s82.833 48 145.5 48h147v-185c-30.667 0 -52.334 -3.5 -65.001 -10.5s-19 -19.167 -19 -36.5v-63h84v-187h-84v-993h-260z" />
    <glyph glyph-name="fl" unicode="&#xf002;" horiz-adv-x="764" 
d="M723 0h-262v1475h262v-1475zM84 0l0.000976562 993h-64v187h64v112c0 58 17.167 103 51.5 135s82.833 48 145.5 48h147v-185c-30.667 0 -52.334 -3.5 -65.001 -10.5s-19 -19.167 -19 -36.5v-63h84v-187h-84v-993h-260z" />
    <glyph glyph-name=".null" horiz-adv-x="0" 
 />
    <glyph glyph-name="nonmarkingreturn" horiz-adv-x="389" 
 />
    </font>
</defs>
</svg>
