<?xml version="1.0" standalone="no"?>
<!DOCTYPE svg PUBLIC "-//W3C//DTD SVG 1.1//EN" "http://www.w3.org/Graphics/SVG/1.1/DTD/svg11.dtd" >
<svg>
<metadata>
Created by FontForge 20090914 at Thu Feb 26 06:00:56 2015
 By www-data
Copyright 1990-1993 Bitstream Inc.  All rights reserved.
</metadata>
<defs>
<font id="Swiss721BT-LightItalic" horiz-adv-x="1024" >
  <font-face 
    font-family="Swis721 Lt BT"
    font-weight="400"
    font-style="italic"
    font-stretch="normal"
    units-per-em="2048"
    panose-1="2 11 4 3 2 2 2 9 2 4"
    ascent="1638"
    descent="-410"
    x-height="1063"
    cap-height="1473"
    bbox="-342 -483 2419 1972"
    underline-thickness="90"
    underline-position="-166"
    slope="-12"
    unicode-range="U+0020-U+F002"
  />
<missing-glyph horiz-adv-x="1229" 
d="M102 -362v1806h1024v-1806h-1024zM217 -248h795v1577h-795v-1577z" />
    <glyph glyph-name=".notdef" horiz-adv-x="1229" 
d="M102 -362v1806h1024v-1806h-1024zM217 -248h795v1577h-795v-1577z" />
    <glyph glyph-name="space" unicode=" " horiz-adv-x="545" 
 />
    <glyph glyph-name="exclam" unicode="!" horiz-adv-x="639" 
d="M197 346l100 592l115 535h133l-113 -535l-151 -592h-84zM94 0l39 178h148l-35 -178h-152z" />
    <glyph glyph-name="quotedbl" unicode="&#x22;" horiz-adv-x="551" 
d="M451 1434v-553h-86v553h86zM186 1434v-553h-86v553h86z" />
    <glyph glyph-name="numbersign" unicode="#" horiz-adv-x="1575" 
d="M979 866h-270l-99 -282h269zM915 1454l-174 -498h271l176 498h110l-174 -498h322l-31 -90h-323l-101 -282h348l-30 -90h-351l-174 -494h-112l176 494h-270l-179 -494h-110l174 494h-334l31 90h336l100 282h-360l28 90h365l176 498h110z" />
    <glyph glyph-name="dollar" unicode="$" horiz-adv-x="1090" 
d="M326 -170l29.999 145c-102 16.667 -180.667 58.667 -236 126s-83 156 -83 266c0 3.33301 0.333008 9.33301 1 18s1 15.667 1 21h121c0 -4.66699 -0.333008 -11 -1 -19s-1 -14 -1 -18c0 -77.333 18.333 -139.833 55 -187.5s91.334 -79.5 164.001 -95.5l117 586
c-104.667 42.667 -181 93.334 -229 152.001s-72 130 -72 214c0 115.333 38.833 209.5 116.5 282.5s178.5 109.5 302.5 109.5h27l27 124h92l-27 -133c93.333 -14 165.5 -51.5 216.5 -112.5s76.5 -140.167 76.5 -237.5v-20h-119v18c0 71.333 -16.333 127.666 -49 168.999
s-81 67 -145 77l-109 -551c126 -52.667 213.167 -108 261.5 -166s72.5 -134.333 72.5 -229c0 -120 -42.333 -217.333 -127 -292s-196 -112 -334 -112h-29l-26 -135h-94zM515.999 801l102.001 522.001h-20c-82.667 0 -150.834 -25.333 -204.501 -76
s-80.5 -115.334 -80.5 -194.001c0 -60 14.667 -108.5 44 -145.5s82.333 -72.5 159 -106.5zM467 76.001c10 0 21 -0.666992 33 -2h6c88.667 0 162 26.833 220 80.5s87 122.834 87 207.501c0 67.333 -18.5 123.166 -55.5 167.499s-96.833 81.5 -179.5 111.5z" />
    <glyph glyph-name="percent" unicode="%" horiz-adv-x="1659" 
d="M1024 340c0 -61.333 21.501 -113.501 64.501 -156.501s95.167 -64.5 156.5 -64.5s113.166 21.333 155.499 64s63.5 95 63.5 157s-21 114 -63 156s-94 63 -156 63c-61.333 0 -113.5 -21.167 -156.5 -63.5s-64.5 -94.166 -64.5 -155.499zM905.001 339.999
c0 94 32.833 173.833 98.5 239.5s146.167 98.5 241.5 98.5s175.5 -32.5 240.5 -97.5s97.5 -145.167 97.5 -240.5c0 -94.667 -32.833 -175 -98.5 -241s-145.5 -99 -239.5 -99c-94.667 0 -175 33 -241 99s-99 146.333 -99 241zM317.001 -41.001l920 1473h104l-919 -1473h-105z
M193.001 1051c0 -61.333 21.333 -113.333 64 -156s95 -64 157 -64c61.333 0 113.166 21.167 155.499 63.5s63.5 94.5 63.5 156.5s-21.167 114.333 -63.5 157s-94.166 64 -155.499 64s-113.5 -21.5 -156.5 -64.5s-64.5 -95.167 -64.5 -156.5zM76.001 1053
c0 94.667 32.667 174.667 98 240s145.333 98 240 98c95.333 0 175.833 -32.667 241.5 -98s98.5 -145.333 98.5 -240s-33.167 -175 -99.5 -241s-146.5 -99 -240.5 -99c-94.667 0 -174.667 32.833 -240 98.5s-98 146.167 -98 241.5z" />
    <glyph glyph-name="ampersand" unicode="&#x26;" horiz-adv-x="1335" 
d="M520 778c-119.333 -46.667 -206.166 -101 -260.499 -163s-81.5 -138 -81.5 -228c0 -89.333 30.5 -162.833 91.5 -220.5s139.167 -86.5 234.5 -86.5c68 0 132.167 13 192.5 39s116.166 65 167.499 117zM575 915c88.667 32.667 155.332 72.1689 199.999 118.502
s67 99.166 67 158.499c0 53.333 -15.667 95.666 -47 126.999s-73.666 47 -126.999 47c-61.333 0 -108.833 -17 -142.5 -51s-50.5 -82 -50.5 -144c0 -34 7.83301 -70.833 23.5 -110.5s41.167 -88.167 76.5 -145.5zM1016 0.00195312l-88.002 136.998
c-68.667 -60.667 -137 -104.834 -205 -132.501s-143 -41.5 -225 -41.5c-136 0 -245.167 39.333 -327.5 118s-123.5 182 -123.5 310c0 106.667 33.833 199.334 101.5 278.001s171.834 146.334 312.501 203.001c-40.667 67.333 -68.667 123 -84 167s-23 87.333 -23 130
c0 88.667 27.833 161 83.5 217s127.5 84 215.5 84c95.333 0 171.5 -25.333 228.5 -76s85.5 -117.334 85.5 -200.001c0 -77.333 -26.167 -145.666 -78.5 -204.999s-136.166 -116 -251.499 -170l307 -483c30 42 54.333 88.333 73 139s32.667 109.334 42 176.001h127
c-9.33301 -83.333 -28.333 -159.833 -57 -229.5s-67.667 -135.167 -117 -196.5l147 -225h-143z" />
    <glyph glyph-name="quotesingle" unicode="'" horiz-adv-x="285" 
d="M186 1434v-553h-86v553h86z" />
    <glyph glyph-name="parenleft" unicode="(" horiz-adv-x="647" 
d="M293 -416c-54.667 147.333 -95 283.167 -121 407.5s-39 242.5 -39 354.5c0 194.667 43.5 386.667 130.5 576s218.833 380.333 395.5 573h109c-178 -212.667 -306.833 -416 -386.5 -610s-119.5 -399.667 -119.5 -617c0 -98.667 9.5 -203 28.5 -313
s49.167 -233.667 90.5 -371h-88z" />
    <glyph glyph-name="parenright" unicode=")" horiz-adv-x="647" 
d="M279 1495c54 -147.333 94 -283.166 120 -407.499s39 -242.5 39 -354.5c0 -194 -43.333 -385.833 -130 -575.5s-218.667 -380.834 -396 -573.501h-109c178.667 212.667 307.667 415.667 387 609s119 398.666 119 615.999c0 99.333 -9.5 204.333 -28.5 315
s-49.167 234.334 -90.5 371.001h89z" />
    <glyph glyph-name="asterisk" unicode="*" 
d="M580 1026l-181 -264l-94 67l201 250l-299 80l35 115l290 -107l-4 306h119l-20 -306l288 105l41 -109l-303 -84l205 -250l-96 -69z" />
    <glyph glyph-name="plus" unicode="+" horiz-adv-x="1706" 
d="M893 1221v-570h559v-82h-559v-569h-80v569h-559v82h559v570h80z" />
    <glyph glyph-name="comma" unicode="," horiz-adv-x="545" 
d="M-12 -276l11.998 77c32.667 11.333 57.834 30.5 75.501 57.5s33.5 74.167 47.5 141.5h-72l41 176h148l-39 -176c-21.333 -98 -47.666 -166.5 -78.999 -205.5s-76 -62.5 -134 -70.5z" />
    <glyph glyph-name="hyphen" unicode="-" horiz-adv-x="670" 
d="M33 471l22 119h498l-25 -119h-495z" />
    <glyph glyph-name="period" unicode="." horiz-adv-x="545" 
d="M59 0l37 182h156l-39 -182h-154z" />
    <glyph glyph-name="slash" unicode="/" horiz-adv-x="598" 
d="M512 1511h100l-549 -1683h-100z" />
    <glyph glyph-name="zero" unicode="0" horiz-adv-x="1090" 
d="M39 489c0 115.333 16.8311 235.667 50.498 361s76.834 230.333 129.501 315c54.667 88 118.334 154.833 191.001 200.5s151.667 68.5 237 68.5c132.667 0 233.5 -43.667 302.5 -131s103.5 -215 103.5 -383c0 -130 -17.833 -260.333 -53.5 -391
s-84.167 -244.334 -145.5 -341.001c-47.333 -73.333 -106.333 -130.5 -177 -171.5s-146 -61.5 -226 -61.5c-132 0 -233.667 46.333 -305 139s-107 224.334 -107 395.001zM644.998 1321c-64.667 0 -124.666 -19.832 -179.999 -59.499s-104 -97.834 -146 -174.501
c-40.667 -74 -74.334 -168.333 -101.001 -283s-40 -226.334 -40 -335.001c0 -131.333 23.333 -230.666 70 -297.999s115.667 -101 207 -101c66.667 0 127.834 21.333 183.501 64s103.5 105.334 143.5 188.001c42 84.667 75.167 182.667 99.5 294s36.5 222.666 36.5 333.999
c0 123.333 -22.833 216 -68.5 278s-113.834 93 -204.501 93z" />
    <glyph glyph-name="one" unicode="1" horiz-adv-x="1090" 
d="M389 0l250 1176c-72 -43.333 -140.833 -76.833 -206.5 -100.5s-131.167 -39.5 -196.5 -47.5l16 94c123.333 36.667 220.333 78.834 291 126.501s128.667 108.834 174 183.501h102l-305 -1432h-125z" />
    <glyph glyph-name="two" unicode="2" horiz-adv-x="1090" 
d="M4 0c12 119.333 51.1631 222.171 117.496 308.504s175.5 173.833 327.5 262.5c23.333 14.667 58 34.334 104 59.001c112.667 61.333 189.667 114 231 158c30.667 33.333 54.5 71.166 71.5 113.499s25.5 85.833 25.5 130.5c0 90 -24 160.333 -72 211s-114.333 76 -199 76
c-90 0 -163.167 -28.833 -219.5 -86.5s-94.5 -142.834 -114.5 -255.501h-126c20.667 144 70.834 255.833 150.501 335.5s180.834 119.5 303.501 119.5c124 0 224 -35.833 300 -107.5s114 -165.167 114 -280.5c0 -192.667 -153 -376.334 -459 -551.001l-10 -6
c-137.333 -78.667 -232.666 -144.334 -285.999 -197.001s-85.666 -108.334 -96.999 -167.001h717l-27 -123h-852z" />
    <glyph glyph-name="three" unicode="3" horiz-adv-x="1090" 
d="M168 376c3.33301 -96 32.8359 -171.334 88.5029 -226.001s130.5 -82 224.5 -82c97.333 0 177.666 32.167 240.999 96.5s95 147.5 95 249.5c0 86.667 -27.833 151.667 -83.5 195s-139.167 65 -250.5 65h-61l22 108l48 -2h28c117.333 0 207.166 25 269.499 75
s93.5 122 93.5 216c0 74 -25 134.167 -75 180.5s-114.667 69.5 -194 69.5c-81.333 0 -149 -24.167 -203 -72.5s-90 -117.833 -108 -208.5h-123c20.667 126 68.5 222 143.5 288s173.167 99 294.5 99c116 0 209.667 -32.5 281 -97.5s107 -149.167 107 -252.5
c0 -86.667 -21.333 -161.167 -64 -223.5s-102.667 -107.166 -180 -134.499c61.333 -32 107 -74.5 137 -127.5s45 -117.833 45 -194.5c0 -134.667 -41.333 -241.667 -124 -321s-194.334 -119 -335.001 -119c-136 0 -243.333 37.167 -322 111.5s-118.667 176.833 -120 307.5
h125z" />
    <glyph glyph-name="four" unicode="4" horiz-adv-x="1090" 
d="M551 0l80 362h-606l20 107l809 922h121l-193 -930h213l-24 -99h-213l-78 -362h-129zM178 461h481l150 719z" />
    <glyph glyph-name="five" unicode="5" horiz-adv-x="1090" 
d="M182 338c3.33301 -83.333 30.1689 -149.167 80.502 -197.5s117.833 -72.5 202.5 -72.5c105.333 0 192.666 41.333 261.999 124s104 187.334 104 314.001c0 95.333 -26.833 170.666 -80.5 225.999s-126.5 83 -218.5 83c-55.333 0 -107.333 -12 -156 -36
s-96.334 -61 -143.001 -111l-110 10l207 713h686l-25 -115h-581l-129 -440c44 28.667 89.167 50.167 135.5 64.5s94.5 21.5 144.5 21.5c118.667 0 215 -38.5 289 -115.5s111 -177.833 111 -302.5c0 -162 -46.333 -293.667 -139 -395s-213 -152 -361 -152
c-124 0 -223 34.5 -297 103.5s-111 161.5 -111 277.5h129z" />
    <glyph glyph-name="six" unicode="6" horiz-adv-x="1090" 
d="M555 821c-103.333 0 -186.167 -39.332 -248.5 -117.999s-93.5 -183.334 -93.5 -314.001c0 -96.667 25.833 -173.667 77.5 -231s121.5 -86 209.5 -86c94 0 173.167 42 237.5 126s96.5 188 96.5 312c0 98 -24.5 174.333 -73.5 229s-117.5 82 -205.5 82zM228.999 752.001
c50.667 57.333 105.499 100.333 164.499 129s123.167 43 192.5 43c112.667 0 204.334 -38.167 275.001 -114.5s106 -176.166 106 -299.499c0 -158.667 -44.667 -289.834 -134 -393.501s-201 -155.5 -335 -155.5c-138 0 -242.833 43.5 -314.5 130.5
s-107.5 214.167 -107.5 381.5c0 280.667 56.5 511 169.5 691s257.167 270 432.5 270c108.667 0 195.5 -31.333 260.5 -94s97.5 -146 97.5 -250v-23h-118c-1.33301 81.333 -23.5 144.333 -66.5 189s-102.833 67 -179.5 67c-103.333 0 -194 -50.167 -272 -150.5
s-135 -240.5 -171 -420.5z" />
    <glyph glyph-name="seven" unicode="7" horiz-adv-x="1090" 
d="M193 0c68 218.667 160 432.998 276 642.998s259.333 422.333 430 637h-768l29 111h903l-14 -105c-172.667 -217.333 -318.167 -432.166 -436.5 -644.499s-211.833 -426.166 -280.5 -641.499h-139z" />
    <glyph glyph-name="eight" unicode="8" horiz-adv-x="1090" 
d="M530 700c-105.333 0 -189.668 -31.168 -253.001 -93.501s-95 -145.833 -95 -250.5c0 -88 27.667 -158.333 83 -211s130 -79 224 -79c102.667 0 185.334 31.333 248.001 94s94 145.334 94 248.001c0 88.667 -27.167 159.5 -81.5 212.5s-127.5 79.5 -219.5 79.5z
M613.998 1327c-82.667 0 -150.334 -25.6689 -203.001 -77.002s-79 -115.666 -79 -192.999c0 -81.333 24.333 -144.333 73 -189s117 -67 205 -67c78.667 0 144.5 26.833 197.5 80.5s79.5 120.167 79.5 199.5c0 76.667 -24.167 136.834 -72.5 180.501
s-115.166 65.5 -200.499 65.5zM355.998 775.997c-53.333 39.333 -92.499 81.501 -117.499 126.501s-37.5 95.833 -37.5 152.5c0 115.333 38 207.666 114 276.999s178.667 104 308 104c116 0 210.5 -32.5 283.5 -97.5s109.5 -148.833 109.5 -251.5
c0 -87.333 -21.333 -160.5 -64 -219.5s-105.334 -102.5 -188.001 -130.5c67.333 -34 117.666 -78.333 150.999 -133s50 -120 50 -196c0 -142 -41.833 -252.667 -125.5 -332s-201.167 -119 -352.5 -119c-138 0 -245.833 34.833 -323.5 104.5s-116.5 166.5 -116.5 290.5
c0 108 26.333 198 79 270s129.334 123.333 230.001 154z" />
    <glyph glyph-name="nine" unicode="9" horiz-adv-x="1090" 
d="M532 573c103.333 0 186.167 39.334 248.5 118.001s93.5 183.667 93.5 315c0 96.667 -25.833 173.667 -77.5 231s-121.167 86 -208.5 86c-94.667 0 -174 -42 -238 -126s-96 -188 -96 -312c0 -98.667 24.333 -175.334 73 -230.001s117 -82 205 -82zM858.001 643.001
c-50.667 -58 -105.499 -101.168 -164.499 -129.501s-122.833 -42.5 -191.5 -42.5c-112.667 0 -204.334 38 -275.001 114s-106 176 -106 300c0 158 44.667 289 134 393s201 156 335 156c137.333 0 242 -43.667 314 -131s108 -214.333 108 -381
c0 -281.333 -56.5 -511.833 -169.5 -691.5s-257.167 -269.5 -432.5 -269.5c-108.667 0 -195.667 31.167 -261 93.5s-98 145.833 -98 250.5v23l119 -1c1.33301 -81.333 23.333 -144.166 66 -188.499s102.667 -66.5 180 -66.5c103.333 0 194 50 272 150
s134.667 240.333 170 421z" />
    <glyph glyph-name="colon" unicode=":" horiz-adv-x="592" 
d="M262 860l37 182h156l-37 -182h-156zM82 0l37 182h155l-36 -182h-156z" />
    <glyph glyph-name="semicolon" unicode=";" horiz-adv-x="592" 
d="M244 862l39 180h157l-37 -180h-159zM2 -276l14 77.001c34 12 60.167 33 78.5 63s32.5 75.333 42.5 136h-69l41 178h147l-39 -178c-20.667 -96.667 -47 -164.834 -79 -204.501s-77.333 -63.5 -136 -71.5z" />
    <glyph glyph-name="less" unicode="&#x3c;" horiz-adv-x="1706" 
d="M1442 1034l-1045 -424l1045 -424v-88l-1178 482v61l1178 483v-90z" />
    <glyph glyph-name="equal" unicode="=" horiz-adv-x="1706" 
d="M1452 469v-82h-1198v82h1198zM1452 831v-79h-1198v79h1198z" />
    <glyph glyph-name="greater" unicode="&#x3e;" horiz-adv-x="1706" 
d="M1442 641v-61l-1178 -482v88l1045 424l-1045 424v90z" />
    <glyph glyph-name="question" unicode="?" horiz-adv-x="1006" 
d="M324 358c9.33301 100 30.001 181 62.001 243s80.667 115.667 146 161c19.333 13.333 48.333 32 87 56c150 92 225 194.667 225 308c0 81.333 -27.333 145.833 -82 193.5s-128.334 71.5 -221.001 71.5c-94.667 0 -170.334 -29.5 -227.001 -88.5s-87 -139.5 -91 -241.5
h-126c2.66699 137.333 43.334 244.666 122.001 321.999s186.667 116 324 116c132.667 0 237.5 -33.333 314.5 -100s115.5 -157 115.5 -271c0 -85.333 -19.333 -157.833 -58 -217.5s-125.334 -130.5 -260.001 -212.5c-77.333 -46.667 -129.666 -93.167 -156.999 -139.5
s-46 -113.166 -56 -200.499h-118zM248.001 0l31 176h147l-35 -176h-143z" />
    <glyph glyph-name="at" unicode="@" horiz-adv-x="2048" 
d="M1303 827l61.001 128.998h80l-137 -553c-6.66699 -24 -11.834 -45.5 -15.501 -64.5s-5.5 -33.5 -5.5 -43.5c0 -29.333 10.167 -52 30.5 -68s49.166 -24 86.499 -24c32 0 65.333 6.5 100 19.5s69 31.833 103 56.5c67.333 49.333 121.333 118.333 162 207
s61 182.667 61 282c0 182 -66.5 328.5 -199.5 439.5s-308.167 166.5 -525.5 166.5c-112 0 -215.5 -16 -310.5 -48s-181.167 -80 -258.5 -144c-102.667 -85.333 -180 -184.333 -232 -297s-78 -237.667 -78 -375c0 -218 73.833 -392 221.5 -522s344.834 -195 591.501 -195
c107.333 0 215.333 16.833 324 50.5s208.334 81.167 299.001 142.5l29 -45c-97.333 -73.333 -200.166 -128.333 -308.499 -165s-221.5 -55 -339.5 -55c-124.667 0 -239 15.5 -343 46.5s-196.333 77.167 -277 138.5c-101.333 76.667 -176.833 165.834 -226.5 267.501
s-74.5 217.834 -74.5 348.501c0 108 16.833 210.333 50.5 307s82.834 185 147.501 265c96 116.667 211.167 205.167 345.5 265.5s284.166 90.5 449.499 90.5c106.667 0 208.167 -14.667 304.5 -44s179.166 -70.666 248.499 -123.999c85.333 -65.333 150 -140.833 194 -226.5
s66 -178.167 66 -277.5c0 -112.667 -21 -215.334 -63 -308.001s-102.333 -170 -181 -232c-44.667 -36 -93.167 -63.5 -145.5 -82.5s-105.5 -28.5 -159.5 -28.5c-63.333 0 -111.166 12.167 -143.499 36.5s-48.5 60.5 -48.5 108.5c0 8 1 19.333 3 34c0.666992 2 1 3.66699 1 5
c-32.667 -58.667 -74.334 -104 -125.001 -136s-106 -48 -166 -48c-102.667 0 -180.5 27.667 -233.5 83s-79.5 136.333 -79.5 243c0 152 44.833 280.667 134.5 386s198.5 158 326.5 158c63.333 0 116.666 -14.333 159.999 -43s75.333 -71 96 -127zM1219 466.998l63 254
c-14.667 66 -41.834 116.333 -81.501 151s-90.167 52 -151.5 52c-101.333 0 -186.5 -46 -255.5 -138s-103.5 -205.333 -103.5 -340c0 -76.667 19.167 -136.667 57.5 -180s91.5 -65 159.5 -65c74 0 139.333 24.167 196 72.5s95.334 112.833 116.001 193.5z" />
    <glyph glyph-name="A" unicode="A" horiz-adv-x="1186" 
d="M322 571h540l-139 777zM-117 0l781 1473h155l285 -1473h-139l-80 459h-619l-237 -459h-146z" />
    <glyph glyph-name="B" unicode="B" horiz-adv-x="1300" 
d="M12 0l311.999 1473h415c98 0 170.667 -7.5 218 -22.5s89.333 -39.833 126 -74.5c35.333 -32.667 62 -70.5 80 -113.5s27 -89.833 27 -140.5c0 -88.667 -21.167 -162.667 -63.5 -222s-107.166 -106 -194.499 -140c68.667 -28.667 121 -70.5 157 -125.5
s54 -120.5 54 -196.5c0 -138.667 -45.333 -246.334 -136 -323.001s-218 -115 -382 -115h-613zM325.999 829.001h382.999c116.667 0 203.834 23 261.501 69s86.5 116 86.5 210c0 84 -26 145.667 -78 185s-134.667 59 -248 59h-293zM175.998 117.001l341.998 -0.000976562
c105.333 0 182 4 230 12s88 21.667 120 41c44.667 26 78.834 62.833 102.501 110.5s35.5 102.834 35.5 165.501c0 90.667 -30.667 158.5 -92 203.5s-153.666 67.5 -276.999 67.5h-334z" />
    <glyph glyph-name="C" unicode="C" horiz-adv-x="1427" 
d="M1286 434c-40 -143.333 -114.004 -258 -222.004 -344s-230.667 -129 -368 -129c-188.667 0 -336.167 58 -442.5 174s-159.5 277 -159.5 483c0 118.667 20.167 234.667 60.5 348s97.5 214 171.5 302c66.667 78.667 144.834 138.834 234.501 180.501
s186.167 62.5 289.5 62.5c154.667 0 277 -42 367 -126s139 -202.333 147 -355h-131c-9.33301 116.667 -48 206.667 -116 270s-159.667 95 -275 95c-171.333 0 -315.166 -74.833 -431.499 -224.5s-174.5 -333.834 -174.5 -552.501c0 -168.667 41.5 -301.167 124.5 -397.5
s197.833 -144.5 344.5 -144.5c100.667 0 191.834 32.333 273.501 97s139.834 151.667 174.501 261h133z" />
    <glyph glyph-name="D" unicode="D" horiz-adv-x="1425" 
d="M168 115l293 0.000976562c122 0 212.833 7 272.5 21s114.167 37.667 163.5 71c90.667 62 162.5 153.167 215.5 273.5s79.5 253.166 79.5 398.499c0 77.333 -9.66699 146.5 -29 207.5s-48 112.5 -86 154.5c-37.333 41.333 -81.5 70.833 -132.5 88.5
s-127.5 26.5 -229.5 26.5h-287zM12 0.000976562l300.999 1473h398c123.333 0 212.833 -8.5 268.5 -25.5s107.5 -45.5 155.5 -85.5c62.667 -52.667 110.334 -121 143.001 -205s49 -180.333 49 -289c0 -134 -22 -259.833 -66 -377.5s-106 -216.834 -186 -297.501
c-68.667 -69.333 -145 -118.833 -229 -148.5s-213 -44.5 -387 -44.5h-92h-355z" />
    <glyph glyph-name="E" unicode="E" horiz-adv-x="1161" 
d="M12 0l307 1473h840l-29 -121h-700l-111 -527h689l-25 -120h-690l-123 -590h793l-21 -115h-930z" />
    <glyph glyph-name="F" unicode="F" horiz-adv-x="1059" 
d="M12 0l312 1473h794l-24 -123h-658l-110 -525h639l-27 -118h-639l-149 -707h-138z" />
    <glyph glyph-name="G" unicode="G" horiz-adv-x="1509" 
d="M1149 193c-66.667 -79.333 -138.003 -137.83 -214.003 -175.497s-160.333 -56.5 -253 -56.5c-182 0 -325.5 58.667 -430.5 176s-157.5 277.666 -157.5 480.999c0 120 20.167 236.5 60.5 349.5s97.5 213.167 171.5 300.5c66.667 79.333 145.167 139.666 235.5 180.999
s187.833 62 292.5 62c150 0 272 -40.667 366 -122s146.667 -191.333 158 -330h-129c-13.333 105.333 -54.666 188.333 -123.999 249s-158.333 91 -267 91c-177.333 0 -325.333 -74.667 -444 -224s-178 -335 -178 -557c0 -168 41.333 -300.333 124 -397s196 -145 340 -145
c126.667 0 238.834 50.167 336.501 150.5s161.834 233.166 192.501 398.499h-496l29 112h624l-163 -739h-113z" />
    <glyph glyph-name="H" unicode="H" horiz-adv-x="1415" 
d="M12 0l307 1473h140l-129 -635h798l134 635h139l-309 -1473h-140l152 723h-799l-151 -723h-142z" />
    <glyph glyph-name="I" unicode="I" horiz-adv-x="479" 
d="M16 0l308 1473h139l-309 -1473h-138z" />
    <glyph glyph-name="J" unicode="J" horiz-adv-x="958" 
d="M-39 438l135.001 -0.000976562c-4.66699 -30 -8.16699 -56.167 -10.5 -78.5s-3.5 -43.166 -3.5 -62.499c0 -71.333 17.833 -125.333 53.5 -162s88.167 -55 157.5 -55c84.667 0 149 22.333 193 67s78.667 126.667 104 246l225 1080h137l-235 -1127
c-28.667 -136 -76.334 -233.833 -143.001 -293.5s-161 -89.5 -283 -89.5c-108.667 0 -192.834 27 -252.501 81s-89.5 130 -89.5 228c0 21.333 0.833008 43.833 2.5 67.5s4.83398 56.5 9.50098 98.5z" />
    <glyph glyph-name="K" unicode="K" horiz-adv-x="1208" 
d="M16 0l312 1473h139l-156 -738l813 738h183l-670 -603l498 -870h-150l-446 780l-271 -241l-114 -539h-138z" />
    <glyph glyph-name="L" unicode="L" horiz-adv-x="1010" 
d="M16 0l314 1473h137l-285 -1348h766l-26 -125h-906z" />
    <glyph glyph-name="M" unicode="M" horiz-adv-x="1626" 
d="M12 0l305 1473h179l202 -1293l713 1293h203l-307 -1473h-127l276 1315l-725 -1315h-123l-198 1303l-267 -1303h-131z" />
    <glyph glyph-name="N" unicode="N" horiz-adv-x="1417" 
d="M12 0l312 1473h153l524 -1311l271 1311h133l-307 -1473h-166l-514 1290l-264 -1290h-142z" />
    <glyph glyph-name="O" unicode="O" horiz-adv-x="1534" 
d="M846 1397c-173.333 0 -319.166 -75.6689 -437.499 -227.002s-177.5 -338.666 -177.5 -561.999c0 -166.667 40.167 -297.334 120.5 -392.001s191.166 -142 332.499 -142c176.667 0 323.5 76.333 440.5 229s175.5 345.334 175.5 578.001
c0 168.667 -38.5 296.834 -115.5 384.501s-189.833 131.5 -338.5 131.5zM674 -45.002c-182.667 0 -325.333 57.668 -428 173.001s-154 275.333 -154 480c0 125.333 22 248 66 368s104.667 222 182 306c70 77.333 148 135.666 234 174.999s178.667 59 278 59
c189.333 0 335 -55.167 437 -165.5s153 -267.5 153 -471.5c0 -128 -20.833 -251.5 -62.5 -370.5s-100.167 -222.833 -175.5 -311.5c-64.667 -77.333 -143.167 -137 -235.5 -179s-190.5 -63 -294.5 -63z" />
    <glyph glyph-name="P" unicode="P" horiz-adv-x="1194" 
d="M299 754h322.001c139.333 0 241.666 27.167 306.999 81.5s98 139.833 98 256.5c0 89.333 -27.5 155 -82.5 197s-141.5 63 -259.5 63h-264zM12.001 0l297 1473h359c96 0 167.667 -5.33301 215 -16s89 -28 125 -52c47.333 -31.333 84.333 -73.666 111 -126.999
s40 -111.333 40 -174c0 -96 -15.333 -176.167 -46 -240.5s-78.667 -116.5 -144 -156.5c-45.333 -27.333 -98 -46.833 -158 -58.5s-159 -17.5 -297 -17.5h-242l-120 -631h-140z" />
    <glyph glyph-name="Q" unicode="Q" horiz-adv-x="1534" 
d="M731 283l80 82l188 -189c94.667 71.333 168.5 169.166 221.5 293.499s79.5 260.833 79.5 409.5c0 170 -38 298.5 -114 385.5s-188.667 130.5 -338 130.5c-177.333 0 -324.166 -74.167 -440.499 -222.5s-174.5 -335.166 -174.5 -560.499
c0 -173.333 40.333 -306.333 121 -399s196 -139 346 -139c27.333 0 56.666 3.33301 87.999 10s67 17.667 107 33zM1180 -168l-197 199c-59.333 -26 -111.333 -44.833 -156 -56.5s-87 -17.5 -127 -17.5c-196.667 0 -346.834 55.333 -450.501 166s-155.5 271.667 -155.5 483
c0 130 21.333 253.833 64 371.5s103.334 219.167 182.001 304.5c70.667 78 148.5 136.5 233.5 175.5s177.167 58.5 276.5 58.5c193.333 0 340 -55 440 -165s150 -271 150 -483c0 -156 -32.5 -305.333 -97.5 -448s-150.833 -252.667 -257.5 -330l175 -174z" />
    <glyph glyph-name="R" unicode="R" horiz-adv-x="1290" 
d="M436 1348l-121 -568h338c146.667 0 255 26.667 325 80s105 135.333 105 246c0 80.667 -25.333 141.167 -76 181.5s-127 60.5 -229 60.5h-342zM324 1473h434c149.333 0 263.833 -31 343.5 -93s119.5 -150.667 119.5 -266c0 -108 -26.167 -196.5 -78.5 -265.5
s-128.833 -116.167 -229.5 -141.5c51.333 -28.667 88.5 -63 111.5 -103s34.5 -89.667 34.5 -149c0 -22.667 -0.166992 -40 -0.5 -52s-0.833008 -23.333 -1.5 -34l-15 -181c-0.666992 -14 -1.16699 -27.167 -1.5 -39.5s-0.5 -25.5 -0.5 -39.5
c0 -23.333 1.83301 -41.5 5.5 -54.5s9.5 -25.833 17.5 -38.5v-16h-151c-4 14 -6.83301 27.167 -8.5 39.5s-2.5 23.833 -2.5 34.5c0 12 1 34.333 3 67c0.666992 8.66699 1 15 1 19l15 193c0.666992 9.33301 1.16699 20.333 1.5 33s0.5 33.667 0.5 63
c0 78 -20.167 133.333 -60.5 166s-112.5 49 -216.5 49h-354l-141 -664h-138z" />
    <glyph glyph-name="S" unicode="S" horiz-adv-x="1214" 
d="M43 436l126.997 -0.00292969c0 -116.667 31.667 -206.167 95 -268.5s154.666 -93.5 273.999 -93.5c109.333 0 195 27.5 257 82.5s93 130.5 93 226.5c0 72.667 -19.5 131.5 -58.5 176.5s-113.167 87.833 -222.5 128.5c-175.333 66.667 -288.333 129.334 -339 188.001
s-76 136.667 -76 234c0 122 40.833 220.167 122.5 294.5s189.5 111.5 323.5 111.5c152.667 0 269.834 -38.167 351.501 -114.5s124.834 -187.833 129.501 -334.5h-127c-9.33301 114 -42.5 197.833 -99.5 251.5s-141.833 80.5 -254.5 80.5
c-96.667 0 -172.667 -25.167 -228 -75.5s-83 -118.833 -83 -205.5c0 -121.333 98.333 -219.666 295 -294.999c46.667 -18 82.667 -32.333 108 -43c98.667 -41.333 171.834 -94.166 219.501 -158.499s71.5 -142.5 71.5 -234.5c0 -131.333 -44.5 -235.833 -133.5 -313.5
s-209.833 -116.5 -362.5 -116.5c-151.333 0 -269.666 40.167 -354.999 120.5s-128 191.833 -128 334.5v24z" />
    <glyph glyph-name="T" unicode="T" horiz-adv-x="1090" 
d="M334 0l289 1354h-449l25 119h989l-25 -119h-401l-289 -1354h-139z" />
    <glyph glyph-name="U" unicode="U" horiz-adv-x="1415" 
d="M319 1473l136 0.00195312l-185 -885c-8 -38.667 -14 -74 -18 -106s-6 -61.667 -6 -89c0 -94.667 32.167 -170.834 96.5 -228.501s149.5 -86.5 255.5 -86.5c132 0 234.667 34.667 308 104s127 182.666 161 339.999l201 951h133l-187 -910
c-46.667 -226.667 -116.167 -384 -208.5 -472s-226.833 -132 -403.5 -132c-151.333 0 -271.833 37.667 -361.5 113s-134.5 174.333 -134.5 297c0 63.333 10 143.333 30 240c1.33301 6 2.33301 10.667 3 14z" />
    <glyph glyph-name="V" unicode="V" horiz-adv-x="1075" 
d="M340 0l-250 1473h127l219 -1299l611 1299h139l-703 -1473h-143z" />
    <glyph glyph-name="W" unicode="W" horiz-adv-x="1638" 
d="M256 0l-131 1473h125l108 -1235l484 1235h145l137 -1235l461 1235h137l-559 -1473h-129l-145 1282l-494 -1282h-139z" />
    <glyph glyph-name="X" unicode="X" horiz-adv-x="1034" 
d="M-123 0l563 772l-350 701h146l280 -590l428 590h160l-529 -715l383 -758h-143l-321 645l-455 -645h-162z" />
    <glyph glyph-name="Y" unicode="Y" horiz-adv-x="985" 
d="M287 0l137 657l-371 816h135l312 -701l440 701h150l-543 -850l-125 -623h-135z" />
    <glyph glyph-name="Z" unicode="Z" horiz-adv-x="1229" 
d="M-16 0l16 102l1032 1258h-796l24 113h961l-23 -113l-1028 -1251h850l-23 -109h-1013z" />
    <glyph glyph-name="bracketleft" unicode="[" horiz-adv-x="676" 
d="M16 -424l390 1894h382l-24 -100h-262l-344 -1692h258l-21 -102h-379z" />
    <glyph glyph-name="backslash" unicode="\" horiz-adv-x="598" 
d="M352 -172l-252 1683h99l254 -1683h-101z" />
    <glyph glyph-name="bracketright" unicode="]" horiz-adv-x="676" 
d="M571 1473l-389 -1897h-383l25 102h262l344 1692h-258l21 103h378z" />
    <glyph glyph-name="asciicircum" unicode="^" horiz-adv-x="2048" 
d="M1081 1458l541 -557h-125l-473 469l-475 -469h-125l539 557h118z" />
    <glyph glyph-name="underscore" unicode="_" 
d="M1024 -403v-80h-1024v80h1024z" />
    <glyph glyph-name="grave" unicode="`" 
d="M731 1200h-88l-283 348h150z" />
    <glyph glyph-name="a" unicode="a" horiz-adv-x="1055" 
d="M664 121c-58 -51.333 -116.169 -89.165 -174.502 -113.498s-121.166 -36.5 -188.499 -36.5c-98.667 0 -178 27.5 -238 82.5s-90 126.5 -90 214.5c0 59.333 13.5 113 40.5 161s66.167 87.333 117.5 118c58.667 35.333 168.667 58.666 330 69.999
c8 0.666992 14.333 1.33398 19 2.00098l38 3c180 14 270 73 270 177c0 61.333 -21.167 107.333 -63.5 138s-106.5 46 -192.5 46c-96.667 0 -170.834 -17.667 -222.501 -53s-83.167 -90 -94.5 -164h-113c16.667 106.667 62.167 186.167 136.5 238.5s178.5 78.5 312.5 78.5
c112 0 199 -24 261 -72s93 -115.333 93 -202c0 -17.333 -1.33301 -36.833 -4 -58.5s-6.66699 -44.5 -12 -68.5l-105 -488c-2 -8 -3.5 -16.167 -4.5 -24.5s-1.5 -17.833 -1.5 -28.5c0 -18.667 4.5 -32.834 13.5 -42.501s22.167 -14.5 39.5 -14.5
c13.333 0 26.333 1.16699 39 3.5s25.667 5.83301 39 10.5l-20 -98c-12 -6.66699 -24.667 -11.334 -38 -14.001s-28.666 -4 -45.999 -4c-47.333 0 -82.666 11.5 -105.999 34.5s-35 57.833 -35 104.5zM738.998 547.001c-51.333 -19.333 -126.499 -31.834 -225.499 -37.501
s-167.833 -12.5 -206.5 -20.5c-66.667 -13.333 -117.167 -38.166 -151.5 -74.499s-51.5 -83.833 -51.5 -142.5s19.833 -105.667 59.5 -141s92.5 -53 158.5 -53c118 0 211.667 38.833 281 116.5s114.666 195.167 135.999 352.5z" />
    <glyph glyph-name="b" unicode="b" horiz-adv-x="1180" 
d="M621 983c-116 0 -213.667 -53.668 -293 -161.001s-119 -238.666 -119 -393.999c0 -106 27.333 -190.5 82 -253.5s127.667 -94.5 219 -94.5c121.333 0 221 51.833 299 155.5s117 236.834 117 399.501c0 109.333 -26.833 194.666 -80.5 255.999s-128.5 92 -224.5 92z
M-12 -0.000976562l313 1473h121l-117 -547c50 56 101.833 96.833 155.5 122.5s113.167 38.5 178.5 38.5c126 0 226.833 -41.5 302.5 -124.5s113.5 -193.5 113.5 -331.5c0 -187.333 -50.333 -343.5 -151 -468.5s-227.334 -187.5 -380.001 -187.5
c-93.333 0 -170.666 20.5 -231.999 61.5s-107.333 103.167 -138 186.5l-48 -223h-118z" />
    <glyph glyph-name="c" unicode="c" horiz-adv-x="1102" 
d="M825 354l130.999 0.000976562c-29.333 -119.333 -86.666 -213 -171.999 -281s-188.333 -102 -309 -102c-140 0 -249.333 40.5 -328 121.5s-118 193.5 -118 337.5c0 188 51 344.167 153 468.5s231 186.5 387 186.5c132 0 234.333 -32.833 307 -98.5
s109.667 -158.167 111 -277.5h-117c-2.66699 85.333 -30.5 152.666 -83.5 201.999s-124.167 74 -213.5 74c-118 0 -217 -53.5 -297 -160.5s-120 -237.833 -120 -392.5c0 -110.667 28.5 -197 85.5 -259s136.167 -93 237.5 -93c81.333 0 153.333 24.833 216 74.5
s106 116.167 130 199.5z" />
    <glyph glyph-name="d" unicode="d" horiz-adv-x="1176" 
d="M567 983c-117.333 0 -215.166 -52.833 -293.499 -158.5s-117.5 -237.834 -117.5 -396.501c0 -108.667 26.667 -193.5 80 -254.5s127.666 -91.5 222.999 -91.5c122.667 0 222.167 52 298.5 156s114.5 240.333 114.5 409c0 106.667 -26.5 189.334 -79.5 248.001
s-128.167 88 -225.5 88zM760 0l26 133c-48 -54.667 -100.167 -95.334 -156.5 -122.001s-118.166 -40 -185.499 -40c-126.667 0 -227.5 41.5 -302.5 124.5s-112.5 193.833 -112.5 332.5c0 184.667 50.667 340.334 152 467.001s227.333 190 378 190
c92 0 167.667 -19.333 227 -58s106.666 -99.667 141.999 -183l133 629h123l-314 -1473h-110z" />
    <glyph glyph-name="e" unicode="e" horiz-adv-x="1100" 
d="M180 629l670 -0.00195312c0.666992 8.66699 1.16699 16.834 1.5 24.501s0.5 17.167 0.5 28.5c0 92.667 -25.333 166 -76 220s-119.667 81 -207 81c-98 0 -179.667 -29.667 -245 -89s-113.333 -147.666 -144 -264.999zM791 325.998h120
c-29.333 -113.333 -84 -200.5 -164 -261.5s-179.333 -91.5 -298 -91.5c-135.333 0 -239.5 39.5 -312.5 118.5s-109.5 191.167 -109.5 336.5c0 192 50 349.833 150 473.5s227.333 185.5 382 185.5c132 0 234.333 -39 307 -117s109 -188.333 109 -331c0 -18 -2 -50.667 -6 -98
c-1.33301 -11.333 -2 -19.666 -2 -24.999h-807c-2 -23.333 -3.5 -44.833 -4.5 -64.5s-1.5 -37.834 -1.5 -54.501c0 -98.667 27 -176.167 81 -232.5s128.667 -84.5 224 -84.5c80.667 0 149.5 21 206.5 63s98.833 103 125.5 183z" />
    <glyph glyph-name="f" unicode="f" horiz-adv-x="498" 
d="M25 0l203.998 967h-166l23 96h164l35 162c22 103.333 50 172.833 84 208.5s83 53.5 147 53.5c16 0 33.667 -1.33301 53 -4s41.333 -7 66 -13l-21 -102c-19.333 4 -36.166 7 -50.499 9s-26.166 3 -35.499 3c-34.667 0 -60.667 -9.66699 -78 -29s-33 -62 -47 -128l-32 -160
h182l-18 -96h-185l-205 -967h-120z" />
    <glyph glyph-name="g" unicode="g" horiz-adv-x="1180" 
d="M580 983c-120 0 -220.331 -53.333 -300.998 -160s-121 -237 -121 -391c0 -109.333 27 -195.333 81 -258s128.667 -94 224 -94c121.333 0 220.666 52.167 297.999 156.5s116 237.833 116 400.5c0 108.667 -26.333 193.5 -79 254.5s-125.334 91.5 -218.001 91.5z
M-5.99805 -115h118.998c6.66699 -67.333 33.167 -118.166 79.5 -152.499s110.5 -51.5 192.5 -51.5c120.667 0 210 31.167 268 93.5s101 177.833 129 346.5c-46.667 -48.667 -98.167 -85.167 -154.5 -109.5s-118.166 -36.5 -185.499 -36.5c-125.333 0 -225.833 41 -301.5 123
s-113.5 190.667 -113.5 326c0 185.333 52 341.833 156 469.5s231.333 191.5 382 191.5c92 0 169 -20.667 231 -62s108 -103 138 -185l47 223h121l-215 -1018c-40 -184.667 -96.167 -309.334 -168.5 -374.001s-182.166 -97 -329.499 -97c-121.333 0 -215.5 26.5 -282.5 79.5
s-104.5 130.833 -112.5 233.5z" />
    <glyph glyph-name="h" unicode="h" horiz-adv-x="1098" 
d="M-12 0l310.999 1473h123l-119 -562c57.333 58.667 116.333 102.334 177 131.001s124 43 190 43c92 0 164.167 -24.167 216.5 -72.5s78.5 -114.833 78.5 -199.5c0 -19.333 -1.16699 -39 -3.5 -59s-6.16602 -41.333 -11.499 -64l-145 -690h-123l149 706
c4.66699 21.333 8.33398 41.166 11.001 59.499s4 33.5 4 45.5c0 53.333 -17.667 94.666 -53 123.999s-85.333 44 -150 44c-110.667 0 -200.334 -36.333 -269.001 -109s-119.667 -185.334 -153 -338.001l-112 -532h-121z" />
    <glyph glyph-name="i" unicode="i" horiz-adv-x="416" 
d="M252 1305l35 168h141l-35 -168h-141zM-12 0l225 1063h121l-225 -1063h-121z" />
    <glyph glyph-name="j" unicode="j" horiz-adv-x="422" 
d="M258 1305l35 168h141l-35 -168h-141zM-231 -416l21.999 105.999c15.333 -1.33301 26.5 -2.16602 33.5 -2.49902s13.5 -0.5 19.5 -0.5c32 0 56.5 10.667 73.5 32s32.833 66.666 47.5 135.999l254 1208h121l-258 -1227c-20.667 -97.333 -48.667 -164.666 -84 -201.999
s-86.666 -56 -153.999 -56c-9.33301 0 -20.333 0.5 -33 1.5s-26.667 2.5 -42 4.5z" />
    <glyph glyph-name="k" unicode="k" horiz-adv-x="971" 
d="M-12 0l311 1473h121l-193 -912l572 502h162l-418 -369l282 -694h-135l-239 612l-261 -227l-81 -385h-121z" />
    <glyph glyph-name="l" unicode="l" horiz-adv-x="416" 
d="M-12 0l313 1473h121l-313 -1473h-121z" />
    <glyph glyph-name="m" unicode="m" horiz-adv-x="1690" 
d="M-16 0l223 1063h119l-37 -160c48 61.333 101 107.333 159 138s121 46 189 46c76 0 137 -14.833 183 -44.5s77 -74.834 93 -135.501c47.333 61.333 100.833 106.666 160.5 135.999s128.5 44 206.5 44c88 0 156.833 -22.667 206.5 -68s74.5 -108.666 74.5 -189.999
c0 -14 -1.33301 -30.667 -4 -50s-6.33398 -39.666 -11.001 -60.999l-151 -718h-121l147 714c6 29.333 10.333 52.333 13 69s4 30 4 40c0 51.333 -16 91.166 -48 119.499s-77 42.5 -135 42.5c-101.333 0 -182.666 -33.667 -243.999 -101s-108.333 -175.666 -141 -324.999
l-122 -559h-123l161 747c4 14.667 6.83301 29.167 8.5 43.5s2.5 29.5 2.5 45.5c0 48 -15.167 84.833 -45.5 110.5s-73.833 38.5 -130.5 38.5c-100 0 -184.333 -38.667 -253 -116s-119 -190.333 -151 -339l-115 -530h-118z" />
    <glyph glyph-name="n" unicode="n" horiz-adv-x="1094" 
d="M-18 0l225.002 1063h115l-33 -162c57.333 61.333 117.166 107.333 179.499 138s127.5 46 195.5 46c92 0 164.5 -24.167 217.5 -72.5s79.5 -114.833 79.5 -199.5c-0.666992 -20 -2.16699 -40 -4.5 -60s-5.83301 -41 -10.5 -63l-147 -690h-121l151 707
c4.66699 18 8 35.667 10 53s3 34.333 3 51c0 54 -17.5 95.5 -52.5 124.5s-85.167 43.5 -150.5 43.5c-111.333 0 -201.333 -36.333 -270 -109s-119.334 -185.334 -152.001 -338.001l-113 -532h-122z" />
    <glyph glyph-name="o" unicode="o" horiz-adv-x="1126" 
d="M565 989c-117.333 0 -214.833 -53.667 -292.5 -161s-116.5 -241.333 -116.5 -402c0 -112 26.5 -198.333 79.5 -259s128.167 -91 225.5 -91c116.667 0 214.667 54.333 294 163s119 242 119 400c0 115.333 -26 202.5 -78 261.5s-129 88.5 -231 88.5zM27 426
c0 189.333 52 348 156 476s234 192 390 192c137.333 0 243.5 -40.167 318.5 -120.5s112.5 -193.833 112.5 -340.5c0 -194.667 -50.833 -354 -152.5 -478s-232.5 -186 -392.5 -186c-136 0 -242 40.333 -318 121s-114 192.667 -114 336z" />
    <glyph glyph-name="p" unicode="p" horiz-adv-x="1180" 
d="M618 983c-116 0 -213.167 -53.501 -291.5 -160.501s-117.5 -238.5 -117.5 -394.5c0 -108.667 26.667 -194.167 80 -256.5s126.333 -93.5 219 -93.5c120.667 0 220.5 52.833 299.5 158.5s118.5 240.5 118.5 404.5c0 106.667 -27.333 190.334 -82 251.001s-130 91 -226 91z
M-109 -424.001l318.002 1487h119l-31 -137c51.333 54.667 105.166 94.834 161.499 120.501s117.833 38.5 184.5 38.5c126.667 0 227.667 -41.333 303 -124s113 -193.334 113 -332.001c0 -184 -50.833 -339 -152.5 -465s-228.5 -189 -380.5 -189
c-90.667 0 -167.834 20.167 -231.501 60.5s-111.167 99.5 -142.5 177.5l-136 -637h-125z" />
    <glyph glyph-name="q" unicode="q" horiz-adv-x="1180" 
d="M578 985c-120 0 -220 -53 -300 -159s-120 -237.333 -120 -394c0 -110.667 26.5 -196.667 79.5 -258s127.5 -92 223.5 -92c124 0 224.333 51 301 153s115 236 115 402c0 112 -25.833 198 -77.5 258s-125.5 90 -221.5 90zM668 -424l118.001 552.999
c-51.333 -53.333 -104 -92.666 -158 -117.999s-112.333 -38 -175 -38c-130 0 -232.833 41.5 -308.5 124.5s-113.5 195.167 -113.5 336.5c0 182.667 50.833 337.167 152.5 463.5s227.5 189.5 377.5 189.5c94.667 0 172.167 -19 232.5 -57s109.166 -98.667 146.499 -182
l47 217h119l-318 -1489h-120z" />
    <glyph glyph-name="r" unicode="r" horiz-adv-x="592" 
d="M-8 0l217.003 1063h113l-29 -139c52 59.333 98.5 101.833 139.5 127.5s83.167 38.5 126.5 38.5c13.333 0 27.166 -1.5 41.499 -4.5s29.166 -7.16699 44.499 -12.5l-26 -118c-18 2 -32.5 3.33301 -43.5 4s-20.5 1.33398 -28.5 2.00098
c-81.333 0 -147.333 -33.5 -198 -100.5s-91.334 -175.5 -122.001 -325.5l-108 -535h-127z" />
    <glyph glyph-name="s" unicode="s" horiz-adv-x="989" 
d="M109 332c8 -87.333 37.502 -152.499 88.502 -195.499s123.833 -64.5 218.5 -64.5c86 0 153.167 19 201.5 57s72.5 90.667 72.5 158c0 75.333 -87.667 146.333 -263 213c-10.667 4 -19 7.33301 -25 10c-110.667 42.667 -185.834 85 -225.501 127s-59.5 96 -59.5 162
c0 87.333 33.833 157.666 101.5 210.999s157.834 80 270.501 80c120 0 212.333 -27.333 277 -82s100 -135.334 106 -242.001h-114c-7.33301 76.667 -34.333 133.334 -81 170.001s-115.334 55 -206.001 55c-68 0 -123.833 -16.667 -167.5 -50s-65.5 -76 -65.5 -128
c0 -42 13.833 -76.833 41.5 -104.5s89.5 -60.5 185.5 -98.5c148 -58 243.333 -109.5 286 -154.5s64 -101.833 64 -170.5c0 -92.667 -37.667 -168.5 -113 -227.5s-174 -88.5 -296 -88.5c-130.667 0 -231.834 31 -303.501 93s-110.5 152 -116.5 270h123z" />
    <glyph glyph-name="t" unicode="t" horiz-adv-x="526" 
d="M354 0c-28 -8.66699 -50.999 -14.667 -68.999 -18s-35.333 -5 -52 -5c-63.333 0 -110.833 12.833 -142.5 38.5s-47.5 64.167 -47.5 115.5c0 20 1.83301 43.167 5.5 69.5s9.5 56.5 17.5 90.5l141 676h-158l21 96h161l64 295h121l-64 -295h197l-21 -96h-200l-148 -717
c-4 -22.667 -7 -41.167 -9 -55.5s-3 -24.5 -3 -30.5c0 -30 6.66699 -50.833 20 -62.5s37.333 -17.5 72 -17.5c15.333 0 32.666 1.83301 51.999 5.5s41 9.16699 65 16.5z" />
    <glyph glyph-name="u" unicode="u" horiz-adv-x="1094" 
d="M1022 1063l-225 -1063h-115l33 160c-58.667 -61.333 -118.834 -107.166 -180.501 -137.499s-126.5 -45.5 -194.5 -45.5c-92.667 0 -165.334 24 -218.001 72s-79 114.333 -79 199c0 19.333 1.16699 39.333 3.5 60s5.83301 42 10.5 64l148 691h121l-150 -709
c-4.66699 -20.667 -8.16699 -39.667 -10.5 -57s-3.5 -33 -3.5 -47c0 -54 17.5 -95.5 52.5 -124.5s85.167 -43.5 150.5 -43.5c110.667 0 200.334 36.167 269.001 108.5s119.334 184.833 152.001 337.5l115 535h121z" />
    <glyph glyph-name="v" unicode="v" horiz-adv-x="891" 
d="M244 0l-213 1063h114l181 -897l456 897h125l-545 -1063h-118z" />
    <glyph glyph-name="w" unicode="w" horiz-adv-x="1413" 
d="M211 0l-170 1063h117l131 -873l385 873h108l138 -873l378 873h123l-471 -1063h-106l-139 877l-390 -877h-104z" />
    <glyph glyph-name="x" unicode="x" horiz-adv-x="864" 
d="M-131 0l450 569l-270 494h125l225 -406l322 406h147l-413 -516l305 -547h-137l-242 457l-365 -457h-147z" />
    <glyph glyph-name="y" unicode="y" horiz-adv-x="891" 
d="M-106 -414l20 106l41 -3.5c11.333 -1 21.666 -1.5 30.999 -1.5c32.667 0 59.834 8 81.501 24s43.5 44.667 65.5 86l111 215l-215 1051h123l176 -901l456 901h127l-643 -1268c-46.667 -92 -89 -152.5 -127 -181.5s-85 -43.5 -141 -43.5c-15.333 0 -31.5 1.33301 -48.5 4
s-36.167 6.66699 -57.5 12z" />
    <glyph glyph-name="z" unicode="z" horiz-adv-x="907" 
d="M-92 0l26 127l764 829h-624l22 107h768l-28 -129l-760 -828h676l-23 -106h-821z" />
    <glyph glyph-name="braceleft" unicode="{" 
d="M848 1389h-36.998c-90 0 -150.667 -17.167 -182 -51.5s-47 -105.5 -47 -213.5v-241c0 -116.667 -14.333 -199.334 -43 -248.001s-79.334 -83.667 -152.001 -105c72.667 -21.333 123.334 -56 152.001 -104s43 -130.667 43 -248v-241c0 -108 15.5 -178.833 46.5 -212.5
s91.167 -50.5 180.5 -50.5h39v-88h-43c-126 0 -211.833 24.833 -257.5 74.5s-68.5 149.834 -68.5 300.501v240c0 105.333 -19.333 179.333 -58 222s-105.334 64 -200.001 64c-4.66699 0 -11.834 -0.333008 -21.501 -1s-17.5 -1 -23.5 -1v90
c6.66699 -0.666992 13.5 -1.16699 20.5 -1.5s16.5 -0.5 28.5 -0.5c92.667 0 158.167 21.5 196.5 64.5s57.5 117.167 57.5 222.5v240c0 151.333 22.833 252 68.5 302s131.5 75 257.5 75h43v-88z" />
    <glyph glyph-name="bar" unicode="|" 
d="M557 1565v-2048h-90v2048h90z" />
    <glyph glyph-name="braceright" unicode="}" 
d="M545 1100v-240c0 -105.333 19.333 -179.5 58 -222.5s105.334 -64.5 200.001 -64.5c4.66699 0 11.834 0.333008 21.501 1s17.5 1 23.5 1v-90c-6 0 -13.833 0.333008 -23.5 1s-16.834 1 -21.501 1c-94.667 0 -161.334 -21.333 -200.001 -64s-58 -116.667 -58 -222v-240
c0 -150.667 -22.833 -250.834 -68.5 -300.501s-131.5 -74.5 -257.5 -74.5h-43v88h39c89.333 0 149.5 16.833 180.5 50.5s46.5 104.5 46.5 212.5v241c0 116 14.5 198.333 43.5 247s80.167 83.667 153.5 105c-73.333 21.333 -124.5 56.333 -153.5 105
s-43.5 131.334 -43.5 248.001v241c0 108 -15.667 179.167 -47 213.5s-92 51.5 -182 51.5h-37v88h43c126 0 211.833 -25 257.5 -75s68.5 -150.667 68.5 -302z" />
    <glyph glyph-name="asciitilde" unicode="~" horiz-adv-x="1706" 
d="M1530 647c-70.667 -49.333 -138 -86.168 -202 -110.501s-125.667 -36.5 -185 -36.5c-66 0 -154.667 20.333 -266 61c-10.667 4 -18 6.66699 -22 8c-8 2.66699 -19 6.66699 -33 12c-111.333 40 -197 60 -257 60c-55.333 0 -113.666 -12.5 -174.999 -37.5
s-132 -65.833 -212 -122.5v92c70 49.333 137 86 201 110s126 36 186 36c66.667 0 157 -20.333 271 -61c8 -3.33301 14.333 -5.66602 19 -6.99902l27 -10c112 -40.667 199 -61 261 -61c55.333 0 113.666 12.5 174.999 37.5s132 65.5 212 121.5v-92z" />
    <glyph glyph-name="nonbreakingspace" unicode="&#xa0;" horiz-adv-x="1090" 
 />
    <glyph glyph-name="exclamdown" unicode="&#xa1;" horiz-adv-x="639" 
d="M451 1126l-101 -591l-112 -535h-134l111 535l152 591h84zM553 1473l-39 -181h-147l34 181h152z" />
    <glyph glyph-name="cent" unicode="&#xa2;" horiz-adv-x="1090" 
d="M608 983c-3.33301 0.666992 -7.33301 1.16699 -12 1.5s-11.667 0.5 -21 0.5c-114 0 -211 -54 -291 -162s-120 -239 -120 -393c0 -76.667 14.667 -142.167 44 -196.5s73.333 -97.5 132 -129.5zM834 354h123.999c-32 -121.333 -88.833 -215.5 -170.5 -282.5
s-180.167 -100.5 -295.5 -100.5c-18 0 -48.333 2.66699 -91 8c-2.66699 0 -4.66699 0.333008 -6 1l-80 -261l-90 11l82 268c-89.333 32.667 -156.666 85.5 -201.999 158.5s-68 164.833 -68 275.5c0 191.333 51.667 348.833 155 472.5s235.333 185.5 396 185.5
c14 0 24.5 -0.166992 31.5 -0.5s13.167 -0.833008 18.5 -1.5l77 239h92l-78 -256c87.333 -27.333 153 -71.166 197 -131.499s66.333 -137.166 67 -230.499h-114c-4.66699 70 -21.5 125.667 -50.5 167s-73.167 71.666 -132.5 90.999l-270 -885
c5.33301 -0.666992 12.666 -1.33398 21.999 -2.00098c21.333 -1.33301 35 -2 41 -2c80.667 0 152.334 25 215.001 75s106 117 130 201z" />
    <glyph glyph-name="sterling" unicode="&#xa3;" horiz-adv-x="1090" 
d="M92 -31l-32.9971 124.999c70.667 58.667 123.834 124 159.501 196s53.5 150 53.5 234c0 14 -0.5 31.667 -1.5 53s-2.5 45.333 -4.5 72h-186l22 88h148c-9.33301 63.333 -15.5 110 -18.5 140s-4.5 56.333 -4.5 79c0 144 41.167 259.333 123.5 346s191.5 130 327.5 130
c118 0 209.667 -32.167 275 -96.5s98 -154.5 98 -270.5c0 -12.667 -1.33301 -32.334 -4 -59.001c-1.33301 -13.333 -2.33301 -23 -3 -29h-118c0 2 0.333008 5.33301 1 10c2 26 3 45 3 57c0 91.333 -21.833 160 -65.5 206s-108.5 69 -194.5 69
c-92.667 0 -168.834 -31.833 -228.501 -95.5s-89.5 -145.834 -89.5 -246.501c0 -31.333 2.33301 -66.833 7 -106.5s12 -84.167 22 -133.5h350l-24 -88h-316c0 -1.33301 0.333008 -3.66602 1 -6.99902c4.66699 -55.333 7 -94.666 7 -117.999
c0 -70.667 -16.667 -142.5 -50 -215.5s-80 -138.833 -140 -197.5c28 12 55 21 81 27s52.333 9 79 9c49.333 0 118.166 -11.167 206.499 -33.5s149.166 -33.5 182.499 -33.5c24 0 50.667 4.33301 80 13s64 22.667 104 42l-31 -143c-24.667 -11.333 -50 -19.666 -76 -24.999
s-53 -8 -81 -8c-56 0 -131 12.333 -225 37s-163 37 -207 37c-37.333 0 -73.833 -4.83301 -109.5 -14.5s-75.834 -26.167 -120.501 -49.5z" />
    <glyph glyph-name="currency" unicode="&#xa4;" horiz-adv-x="1241" 
d="M954 887c0 91.333 -32.167 169.168 -96.5 233.501s-142.5 96.5 -234.5 96.5s-170.333 -32.333 -235 -97s-97 -142.334 -97 -233.001c0 -92 32.333 -170.333 97 -235s143 -97 235 -97c91.333 0 169.333 32.333 234 97s97 143 97 235zM358 1204
c40 32 81.666 55.6689 124.999 71.002s89.333 23 138 23c48 0 94 -7.83301 138 -23.5s86 -39.167 126 -70.5l205 207l59 -59l-207 -205c30 -38.667 52.833 -80.167 68.5 -124.5s23.5 -90.166 23.5 -137.499c0 -48.667 -7.66699 -94.834 -23 -138.501
s-38.333 -84.834 -69 -123.501l207 -205l-59 -60l-205 207c-38.667 -30 -80.334 -52.833 -125.001 -68.5s-91 -23.5 -139 -23.5c-49.333 0 -95.666 7.66699 -138.999 23s-84.666 38.333 -123.999 69l-206 -207l-58 60l207 205c-30 38 -52.833 79.167 -68.5 123.5
s-23.5 90.5 -23.5 138.5c0 47.333 7.83301 93.166 23.5 137.499s38.5 85.833 68.5 124.5l-207 205l58 59z" />
    <glyph glyph-name="yen" unicode="&#xa5;" horiz-adv-x="1090" 
d="M356 0l123 592h-450l14 67h426l-66 144h-329l14 67h285l-238 527h121l307 -676l465 676h131l-362 -527h284l-14 -67h-319l-103 -144h391l-14 -67h-418l-119 -592h-129z" />
    <glyph glyph-name="brokenbar" unicode="&#xa6;" 
d="M557 408v-758h-90v758h90zM557 1432v-758h-90v758h90z" />
    <glyph glyph-name="section" unicode="&#xa7;" 
d="M590 324c58.667 23.333 102.667 52.3301 132 86.9971s44 75 44 121c0 60.667 -65.667 150.334 -197 269.001c-78 70 -139.333 128 -184 174c-54 -16.667 -94.833 -40.667 -122.5 -72s-41.5 -69.666 -41.5 -114.999c0 -73.333 67.667 -173.666 203 -300.999
c70.667 -66.667 126 -121 166 -163zM59 144.997l114.998 -0.00292969v-32c0 -78.667 15 -135.334 45 -170.001s78.667 -52 146 -52c62.667 0 112.667 17 150 51s56 79.333 56 136c0 38.667 -9.16699 74.834 -27.5 108.501s-52.833 73.834 -103.5 120.501l-192 178
c-51.333 48.667 -89.166 95.834 -113.499 141.501s-36.5 92.834 -36.5 141.501c0 66.667 20 124.5 60 173.5s98 86.833 174 113.5c-15.333 25.333 -26.666 50.5 -33.999 75.5s-11 50.167 -11 75.5c0 83.333 28.833 151.333 86.5 204s133.167 79 226.5 79
c90.667 0 162.5 -27.333 215.5 -82s79.5 -129 79.5 -223c0 -4 -0.333008 -10.5 -1 -19.5s-1 -15.5 -1 -19.5h-111v24c0 68 -16 120.5 -48 157.5s-77.333 55.5 -136 55.5c-55.333 0 -101.166 -16.833 -137.499 -50.5s-54.5 -75.5 -54.5 -125.5
c0 -34.667 8.83301 -67.5 26.5 -98.5s46.167 -63.5 85.5 -97.5l230 -203c46 -41.333 80.333 -83 103 -125s34 -85.667 34 -131c0 -74 -20 -136.833 -60 -188.5s-99.333 -90.5 -178 -116.5c15.333 -28 26.666 -55.167 33.999 -81.5s11 -53.166 11 -80.499
c0 -92.667 -29.5 -165.667 -88.5 -219s-140.167 -80 -243.5 -80c-100 0 -175.5 26.667 -226.5 80s-76.5 132.333 -76.5 237c0 5.33301 0.333008 12.666 1 21.999s1 16.333 1 21z" />
    <glyph glyph-name="dieresis" unicode="&#xa8;" 
d="M711 1278l32 162h144l-35 -162h-141zM387 1278l35 162h143l-35 -162h-143z" />
    <glyph glyph-name="copyright" unicode="&#xa9;" horiz-adv-x="1706" 
d="M1081 918c-13.333 54 -39.832 96.167 -79.499 126.5s-88.834 45.5 -147.501 45.5c-84 0 -149.333 -32.5 -196 -97.5s-70 -156.167 -70 -273.5c0 -112.667 23.833 -201.667 71.5 -267s112.5 -98 194.5 -98c60.667 0 112.667 17.5 156 52.5s71.333 81.833 84 140.5h102
c-7.33301 -82 -43.333 -149 -108 -201s-144.667 -78 -240 -78c-115.333 0 -207 41.167 -275 123.5s-102 193.5 -102 333.5c0 136.667 35.667 246 107 328s165.333 123 282 123c88 0 162.167 -24 222.5 -72s94.833 -110 103.5 -186h-105zM1511 721
c0 88.667 -16.335 172.84 -49.002 252.507s-79.667 150.5 -141 212.5c-63.333 63.333 -135 111.5 -215 144.5s-164.667 49.5 -254 49.5c-88.667 0 -172.5 -16.333 -251.5 -49s-148.833 -79.667 -209.5 -141c-63.333 -64.667 -111.833 -137.334 -145.5 -218.001
s-50.5 -164.334 -50.5 -251.001s16.667 -169.834 50 -249.501s81.333 -150.834 144 -213.501s133.834 -110.834 213.501 -144.501s162.834 -50.5 249.501 -50.5s170.5 17 251.5 51s153.5 82.667 217.5 146c62 61.333 109.167 131.166 141.5 209.499
s48.5 162.166 48.5 251.499zM851.999 1452.01c99.333 0 193.502 -18.3301 282.502 -54.9971s168.167 -90 237.5 -160c68.667 -68 121 -146.333 157 -235s54 -182.334 54 -281.001c0 -100 -17.833 -193.333 -53.5 -280s-88.167 -164 -157.5 -232
c-71.333 -70.667 -151.833 -124.834 -241.5 -162.501s-182.5 -56.5 -278.5 -56.5c-96.667 0 -189 18.5 -277 55.5s-167 90.833 -237 161.5c-70 69.333 -123.333 148 -160 236s-55 180.667 -55 278c0 96.667 18.667 189.667 56 279s91 169.666 161 240.999
c67.333 68.667 144.666 121 231.999 157s180.666 54 279.999 54z" />
    <glyph glyph-name="ordfeminine" unicode="&#xaa;" horiz-adv-x="791" 
d="M498 813c-43.333 -36 -86.833 -62.3301 -130.5 -78.9971s-91.167 -25 -142.5 -25c-73.333 0 -132.5 19.333 -177.5 58s-67.5 89 -67.5 151c0 40.667 10.167 77.834 30.5 111.501s49.5 61.167 87.5 82.5c45.333 25.333 130.333 41.666 255 48.999h7l35 3
c131.333 10.667 197 52 197 124c0 43.333 -16 75.666 -48 96.999s-80.333 32 -145 32c-72.667 0 -128.334 -12.333 -167.001 -37s-62 -62.667 -70 -114h-84c12 74 45.833 129.333 101.5 166s133.834 55 234.501 55c84.667 0 150.167 -16.667 196.5 -50
s69.5 -80.333 69.5 -141c0 -10 -1 -22.667 -3 -38s-5 -32.666 -9 -51.999l-80 -339c-1.33301 -6.66699 -2.33301 -12.834 -3 -18.501s-1 -12.834 -1 -21.501c0 -12.667 3.33301 -22.334 10 -29.001s17 -10 31 -10c11.333 0.666992 21.333 1.66699 30 3
s17.667 3.66602 27 6.99902l-14 -69c-8.66699 -4 -18 -7 -28 -9s-22 -3 -36 -3c-36 0 -62.667 7.83301 -80 23.5s-26 39.834 -26 72.501zM555 1112c-40.667 -14 -98.8359 -22.5 -174.503 -25.5s-125.5 -6.16699 -149.5 -9.5c-51.333 -12.667 -89.666 -32 -114.999 -58
s-38 -59 -38 -99c0 -41.333 15 -74.333 45 -99s69.667 -37 119 -37c88.667 0 158.834 27.167 210.501 81.5s85.834 136.5 102.501 246.5z" />
    <glyph glyph-name="guillemotleft" unicode="&#xab;" horiz-adv-x="815" 
d="M614 242l-256 217l31 143l348 223l-30 -145l-258 -162l190 -162zM266 242l-256 217l29 143l350 223l-31 -145l-258 -162l191 -162z" />
    <glyph glyph-name="logicalnot" unicode="&#xac;" horiz-adv-x="1706" 
d="M1452 856v-502h-78v420h-1120v82h1198z" />
    <glyph glyph-name="sfthyphen" unicode="&#xad;" horiz-adv-x="670" 
d="M33 471l22 119h498l-25 -119h-495z" />
    <glyph glyph-name="registered" unicode="&#xae;" horiz-adv-x="1706" 
d="M852 1077h-168v-313h168c96.667 0 163.167 12 199.5 36s54.5 66 54.5 126c0 52 -20.5 90.167 -61.5 114.5s-105.167 36.5 -192.5 36.5zM874 1155c120 0 208.167 -18.833 264.5 -56.5s84.5 -96.5 84.5 -176.5c0 -59.333 -18.5 -109 -55.5 -149s-86.167 -63.667 -147.5 -71
l190 -393h-131l-182 377h-213v-377h-115v846h305zM1511 721c0 88.667 -16.335 172.84 -49.002 252.507s-79.667 150.5 -141 212.5c-63.333 63.333 -135 111.5 -215 144.5s-164.667 49.5 -254 49.5c-88.667 0 -172.5 -16.333 -251.5 -49s-148.833 -79.667 -209.5 -141
c-63.333 -64.667 -111.833 -137.334 -145.5 -218.001s-50.5 -164.334 -50.5 -251.001s16.667 -169.834 50 -249.501s81.333 -150.834 144 -213.501s133.834 -110.834 213.501 -144.501s162.834 -50.5 249.501 -50.5s170.5 17 251.5 51s153.5 82.667 217.5 146
c62 61.333 109.167 131.166 141.5 209.499s48.5 162.166 48.5 251.499zM851.998 1452.01c99.333 0 193.502 -18.3301 282.502 -54.9971s168.167 -90 237.5 -160c68.667 -68 121 -146.333 157 -235s54 -182.334 54 -281.001c0 -100 -17.833 -193.333 -53.5 -280
s-88.167 -164 -157.5 -232c-71.333 -70.667 -151.833 -124.834 -241.5 -162.501s-182.5 -56.5 -278.5 -56.5c-96.667 0 -189 18.5 -277 55.5s-167 90.833 -237 161.5c-70 69.333 -123.333 148 -160 236s-55 180.667 -55 278c0 96.667 18.667 189.667 56 279
s91 169.666 161 240.999c67.333 68.667 144.666 121 231.999 157s180.666 54 279.999 54z" />
    <glyph glyph-name="macron" unicode="&#xaf;" 
d="M369 1300l24 117h512l-24 -117h-512z" />
    <glyph glyph-name="degree" unicode="&#xb0;" horiz-adv-x="674" 
d="M551 1176c0 58 -21.0029 107.999 -63.0029 149.999s-92 63 -150 63c-59.333 0 -109.666 -20.667 -150.999 -62s-62 -91.666 -62 -150.999s20.833 -109.666 62.5 -150.999s91.834 -62 150.501 -62s108.834 20.667 150.501 62s62.5 91.666 62.5 150.999zM337.997 1450
c74.667 0 138.668 -26.834 192.001 -80.501s80 -118.167 80 -193.5c0 -76 -26.667 -140.5 -80 -193.5s-118 -79.5 -194 -79.5c-76.667 0 -141.334 26.333 -194.001 79s-79 117.334 -79 194.001c0 76 26.833 140.667 80.5 194s118.5 80 194.5 80z" />
    <glyph glyph-name="plusminus" unicode="&#xb1;" horiz-adv-x="1706" 
d="M1452 141v-82h-1198v82h1198zM893 1161v-354h559v-80h-559v-352h-80v352h-559v80h559v354h80z" />
    <glyph glyph-name="twosuperior" unicode="&#xb2;" horiz-adv-x="719" 
d="M2 557c8.66699 72.667 34.9971 134.836 78.9971 186.503s116 103.5 216 155.5c17.333 10 43.333 23.667 78 41c69.333 35.333 117 65.333 143 90c20 19.333 35.667 41.666 47 66.999s17 51.666 17 78.999c0 53.333 -15.833 95.333 -47.5 126s-75.5 46 -131.5 46
c-59.333 0 -107.666 -17.333 -144.999 -52s-62.666 -85.667 -75.999 -153h-84c14 86.667 47.167 153.667 99.5 201s119.5 71 201.5 71s148 -21.333 198 -64s75 -98.334 75 -167.001c0 -117.333 -102.667 -228.333 -308 -333l-2 -1c-88.667 -46.667 -151.167 -86 -187.5 -118
s-58.166 -65.667 -65.499 -101h473l-17 -74h-563z" />
    <glyph glyph-name="threesuperior" unicode="&#xb3;" horiz-adv-x="719" 
d="M110 782c2.66699 -57.333 22.3311 -102.337 58.998 -135.004s86 -49 148 -49c64.667 0 117.834 19.333 159.501 58s62.5 88.334 62.5 149.001c0 52 -18.167 91 -54.5 117s-91.5 39 -165.5 39h-40l14 65h31h20c78 0 137.167 14.833 177.5 44.5s60.5 72.834 60.5 129.501
c0 44 -16.333 80 -49 108s-75 42 -127 42c-54 0 -98.667 -14.5 -134 -43.5s-59 -70.5 -71 -124.5h-82c13.333 74.667 44.666 131.834 93.999 171.501s114.333 59.5 195 59.5c76 0 137.667 -19.5 185 -58.5s71 -89.167 71 -150.5c0 -52 -14 -96.833 -42 -134.5
s-67.333 -64.5 -118 -80.5c40 -19.333 69.833 -45 89.5 -77s29.5 -71 29.5 -117c0 -80.667 -27.5 -145 -82.5 -193s-128.833 -72 -221.5 -72c-89.333 0 -159.666 22.333 -210.999 67s-77.666 106.334 -78.999 185.001h81z" />
    <glyph glyph-name="acute" unicode="&#xb4;" 
d="M578 1200h-93l244 348h148z" />
    <glyph glyph-name="mu" unicode="&#xb5;" horiz-adv-x="1094" 
d="M326 1063l-122.999 -589.998c-6 -28.667 -10.333 -54.334 -13 -77.001s-4 -44 -4 -64c0 -84 20 -148 60 -192s98 -66 174 -66c84.667 0 157.834 36.333 219.501 109s107.167 177 136.5 313l125 567h121l-166 -786c-1.33301 -6 -3 -14 -5 -24
c-13.333 -61.333 -20 -98.666 -20 -111.999c0 -20.667 5.83301 -36.334 17.5 -47.001s28.5 -16 50.5 -16c6 0 12.167 0.166992 18.5 0.5s13.166 0.833008 20.499 1.5l-18 -96c-2 -0.666992 -4.66699 -1.33398 -8 -2.00098c-32.667 -7.33301 -55.334 -11 -68.001 -11
c-45.333 0 -78.833 10.5 -100.5 31.5s-32.5 52.833 -32.5 95.5c0 4.66699 0.166992 10 0.5 16s1.5 15.667 3.5 29c-28.667 -55.333 -69.834 -97.833 -123.501 -127.5s-116.5 -44.5 -188.5 -44.5c-64.667 0 -121.167 15.167 -169.5 45.5s-83.166 72.5 -104.499 126.5
l-119 -567h-121l316 1487h121z" />
    <glyph glyph-name="paragraph" unicode="&#xb6;" 
d="M932 1415h-128.999v-1415h-70v1415h-192v-1415h-70v782c-116.667 5.33301 -209.334 39.5 -278.001 102.5s-103 144.833 -103 245.5c0 104.667 36.167 189 108.5 253s167.833 96 286.5 96h447v-64z" />
    <glyph glyph-name="periodcentered" unicode="&#xb7;" horiz-adv-x="545" 
d="M190 696c0 22.667 8 42 24 58s35.333 24 58 24s42 -8 58 -24s24 -35.333 24 -58c0 -22 -8 -41.167 -24 -57.5s-35.333 -24.5 -58 -24.5c-22 0 -41.167 8.16699 -57.5 24.5s-24.5 35.5 -24.5 57.5z" />
    <glyph glyph-name="cedilla" unicode="&#xb8;" 
d="M88 -416l26.999 78c52 -14 94.333 -24 127 -30s60.667 -9 84 -9c45.333 0 80.166 9.66699 104.499 29s36.5 46.666 36.5 81.999c0 31.333 -13.667 53.833 -41 67.5s-74.333 20.5 -141 20.5h-19l60 178h65l-37 -111h21c66.667 0 117.5 -13.167 152.5 -39.5
s52.5 -64.833 52.5 -115.5c0 -61.333 -20.833 -109.166 -62.5 -143.499s-100.167 -51.5 -175.5 -51.5c-35.333 0 -72.666 3.5 -111.999 10.5s-86.666 18.5 -141.999 34.5z" />
    <glyph glyph-name="onesuperior" unicode="&#xb9;" horiz-adv-x="719" 
d="M258 557l163.996 705c-47.333 -25.333 -92.666 -45.166 -135.999 -59.499s-86.666 -23.833 -129.999 -28.5l10 57c80.667 20.667 144.334 45.167 191.001 73.5s85.334 65.166 116.001 110.499h68l-201 -858h-82z" />
    <glyph glyph-name="ordmasculine" unicode="&#xba;" horiz-adv-x="846" 
d="M424 1421c-88 0 -161.165 -37.499 -219.498 -112.499s-87.5 -168.5 -87.5 -280.5c0 -78.667 20 -139.334 60 -182.001s96.333 -64 169 -64c87.333 0 160.666 38 219.999 114s89 169.333 89 280c0 80.667 -19.333 141.667 -58 183s-96.334 62 -173.001 62zM20.002 1028
c0 132 39.166 242.831 117.499 332.498s175.833 134.5 292.5 134.5c102.667 0 182.334 -28.167 239.001 -84.5s85 -136.166 85 -239.499c0 -135.333 -38.167 -246.166 -114.5 -332.499s-174.833 -129.5 -295.5 -129.5c-102 0 -181.5 28 -238.5 84s-85.5 134.333 -85.5 235z
" />
    <glyph glyph-name="guillemotright" unicode="&#xbb;" horiz-adv-x="815" 
d="M104 825l256 -219l-30 -143l-348 -221l30 143l256 164l-188 160zM453 825l256 -219l-31 -143l-348 -221l30 143l256 164l-188 160z" />
    <glyph glyph-name="onequarter" unicode="&#xbc;" horiz-adv-x="1716" 
d="M1374 0l51 203h-381l13 59l510 516h75l-120 -520h133l-15 -55h-135l-49 -203h-82zM1141 258h303l94 404zM344 -41l920 1473h104l-919 -1473h-105zM246 612l157 658c-47.333 -24 -91.333 -42.5 -132 -55.5s-81 -21.833 -121 -26.5l10 53
c75.333 19.333 135.5 42.333 180.5 69s82.5 61 112.5 103h63l-190 -801h-80z" />
    <glyph glyph-name="onehalf" unicode="&#xbd;" horiz-adv-x="1716" 
d="M1031 0c6.66699 66 31.002 123.331 73.002 171.998s111 97.667 207 147c15.333 8.66699 37.666 20 66.999 34c70.667 34 118.667 63.667 144 89c19.333 18.667 34.333 39.834 45 63.501s16 47.834 16 72.501c0 50 -15 89.333 -45 118s-71.667 43 -125 43
c-57.333 0 -103.666 -16.167 -138.999 -48.5s-59.333 -80.166 -72 -143.499h-80c13.333 80.667 45 143.167 95 187.5s114 66.5 192 66.5s140.833 -19.833 188.5 -59.5s71.5 -91.5 71.5 -155.5c0 -108.667 -96.667 -212.334 -290 -311.001l-5 -3
c-84.667 -42 -144.334 -78 -179.001 -108s-55.334 -61.333 -62.001 -94h452l-18 -70h-536zM344.002 -41.002l920 1473h104l-919 -1473h-105zM246.002 611.998l157 658c-47.333 -24 -91.333 -42.5 -132 -55.5s-81 -21.833 -121 -26.5l10 53
c75.333 19.333 135.5 42.333 180.5 69s82.5 61 112.5 103h63l-190 -801h-80z" />
    <glyph glyph-name="threequarters" unicode="&#xbe;" horiz-adv-x="1714" 
d="M1374 0l51 203h-381l13 59l510 516h75l-120 -520h133l-15 -55h-135l-49 -203h-82zM1141 258h303l94 404zM344 -41l920 1473h104l-919 -1473h-105zM106 823c2.66699 -54 21.5 -96.499 56.5 -127.499s81.833 -46.5 140.5 -46.5c61.333 0 111.833 18.333 151.5 55
s59.5 83.334 59.5 140.001c0 48 -17.5 84.167 -52.5 108.5s-87.167 36.5 -156.5 36.5h-39l15 62l28 -2h19c74 0 130.667 14.167 170 42.5s59 68.5 59 120.5c0 41.333 -15.833 75 -47.5 101s-72.5 39 -122.5 39c-51.333 0 -93.833 -13.5 -127.5 -40.5
s-56.834 -66.167 -69.501 -117.5h-77c12.667 71.333 42.834 125.666 90.501 162.999s109.5 56 185.5 56c72 0 130.667 -18.333 176 -55s68 -83.667 68 -141c0 -49.333 -13.333 -91.5 -40 -126.5s-64.667 -59.833 -114 -74.5c40 -18.667 69.5 -42.834 88.5 -72.501
s28.5 -65.5 28.5 -107.5c0 -76.667 -26.167 -137.167 -78.5 -181.5s-123.166 -66.5 -212.499 -66.5c-85.333 0 -152.833 21 -202.5 63s-74.834 99.333 -75.501 172h79z" />
    <glyph glyph-name="questiondown" unicode="&#xbf;" horiz-adv-x="1006" 
d="M756 1473l-33 -177h-145l34 177h144zM678 1112c-9.33301 -99.333 -30.001 -179.666 -62.001 -240.999s-81 -114.666 -147 -159.999c-18.667 -13.333 -47.667 -32 -87 -56c-149.333 -92.667 -224 -195.667 -224 -309c0 -80.667 27.167 -144.834 81.5 -192.501
s128.166 -71.5 221.499 -71.5c94.667 0 170.5 29.167 227.5 87.5s87.5 138.5 91.5 240.5l127 -1c-3.33301 -137.333 -44.166 -244.333 -122.499 -321s-186.166 -115 -323.499 -115c-133.333 0 -238.333 33.167 -315 99.5s-115 156.166 -115 269.499
c0 86 19.167 158.833 57.5 218.5s124.833 130.167 259.5 211.5c78 47.333 130.5 94 157.5 140s45.5 112.667 55.5 200h117z" />
    <glyph glyph-name="Agrave" unicode="&#xc0;" horiz-adv-x="1186" 
d="M322 571h540l-139 777zM-117 0l781 1473h155l285 -1473h-139l-80 459h-619l-237 -459h-146zM881 1622h-88l-283 348h150z" />
    <glyph glyph-name="Aacute" unicode="&#xc1;" horiz-adv-x="1186" 
d="M322 571h540l-139 777zM-117 0l781 1473h155l285 -1473h-139l-80 459h-619l-237 -459h-146zM728 1622h-93l244 348h148z" />
    <glyph glyph-name="Acircumflex" unicode="&#xc2;" horiz-adv-x="1186" 
d="M322 571h540l-139 777zM-117 0l781 1473h155l285 -1473h-139l-80 459h-619l-237 -459h-146zM1035 1622h-80l-146 248l-233 -248h-92l266 348h133z" />
    <glyph glyph-name="Atilde" unicode="&#xc3;" horiz-adv-x="1186" 
d="M322 571h540l-139 777zM-117 0l781 1473h155l285 -1473h-139l-80 459h-619l-237 -459h-146zM1070 1882c-24 -66 -50.6689 -112.834 -80.002 -140.501s-66.333 -41.5 -111 -41.5c-8 0 -16.667 0.833008 -26 2.5s-23 4.83398 -41 9.50098l-95 29
c-11.333 3.33301 -20.166 5.5 -26.499 6.5s-12.5 1.5 -18.5 1.5c-20 0 -37.333 -6.33301 -52 -19s-26.667 -31.667 -36 -57h-80c26 70.667 52.833 119.5 80.5 146.5s63.167 40.5 106.5 40.5c8 0 17.167 -1 27.5 -3s20.5 -4.66699 30.5 -8l91 -26
c2.66699 -0.666992 6.33398 -1.66699 11.001 -3c21.333 -6 37 -9 47 -9c22 0 40.5 5.66699 55.5 17s27.167 29.333 36.5 54h80z" />
    <glyph glyph-name="Adieresis" unicode="&#xc4;" horiz-adv-x="1186" 
d="M322 571h540l-139 777zM-117 0l781 1473h155l285 -1473h-139l-80 459h-619l-237 -459h-146zM861 1700l32 162h144l-35 -162h-141zM537 1700l35 162h143l-35 -162h-143z" />
    <glyph glyph-name="Aring" unicode="&#xc5;" horiz-adv-x="1186" 
d="M633 1745c0 -35.333 12.667 -65.333 38 -90s55.666 -37 90.999 -37c36 0 66.5 12.167 91.5 36.5s37.5 54.5 37.5 90.5c0 36.667 -12.5 67.667 -37.5 93s-55.5 38 -91.5 38c-35.333 0 -65.666 -13 -90.999 -39s-38 -56.667 -38 -92zM537 1747
c0 63.333 21.833 116.668 65.5 160.001s96.834 65 159.501 65c63.333 0 117 -21.833 161 -65.5s66 -96.834 66 -159.501s-22 -116.167 -66 -160.5s-97.667 -66.5 -161 -66.5c-62.667 0 -115.834 22 -159.501 66s-65.5 97.667 -65.5 161zM322 571.002h540l-139 777z
M-117 0.00195312l781 1473h155l285 -1473h-139l-80 459h-619l-237 -459h-146z" />
    <glyph glyph-name="AE" unicode="&#xc6;" horiz-adv-x="1847" 
d="M330 571h534l166 781h-246zM-152 0l877 1473h1118l-28 -121h-652l-110 -527h641l-25 -120h-643l-123 -590h744l-21 -115h-881l95 451h-578l-262 -451h-152z" />
    <glyph glyph-name="Ccedilla" unicode="&#xc7;" horiz-adv-x="1427" 
d="M1286 434c-40 -143.333 -114.004 -258 -222.004 -344s-230.667 -129 -368 -129c-188.667 0 -336.167 58 -442.5 174s-159.5 277 -159.5 483c0 118.667 20.167 234.667 60.5 348s97.5 214 171.5 302c66.667 78.667 144.834 138.834 234.501 180.501
s186.167 62.5 289.5 62.5c154.667 0 277 -42 367 -126s139 -202.333 147 -355h-131c-9.33301 116.667 -48 206.667 -116 270s-159.667 95 -275 95c-171.333 0 -315.166 -74.833 -431.499 -224.5s-174.5 -333.834 -174.5 -552.501c0 -168.667 41.5 -301.167 124.5 -397.5
s197.833 -144.5 344.5 -144.5c100.667 0 191.834 32.333 273.501 97s139.834 151.667 174.501 261h133zM396.996 -416l26.999 78c52 -14 94.333 -24 127 -30s60.667 -9 84 -9c45.333 0 80.166 9.66699 104.499 29s36.5 46.666 36.5 81.999c0 31.333 -13.667 53.833 -41 67.5
s-74.333 20.5 -141 20.5h-19l60 178h65l-37 -111h21c66.667 0 117.5 -13.167 152.5 -39.5s52.5 -64.833 52.5 -115.5c0 -61.333 -20.833 -109.166 -62.5 -143.499s-100.167 -51.5 -175.5 -51.5c-35.333 0 -72.666 3.5 -111.999 10.5s-86.666 18.5 -141.999 34.5z" />
    <glyph glyph-name="Egrave" unicode="&#xc8;" horiz-adv-x="1161" 
d="M12 0l307 1473h840l-29 -121h-700l-111 -527h689l-25 -120h-690l-123 -590h793l-21 -115h-930zM901 1622h-88l-283 348h150z" />
    <glyph glyph-name="Eacute" unicode="&#xc9;" horiz-adv-x="1161" 
d="M12 0l307 1473h840l-29 -121h-700l-111 -527h689l-25 -120h-690l-123 -590h793l-21 -115h-930zM748 1622h-93l244 348h148z" />
    <glyph glyph-name="Ecircumflex" unicode="&#xca;" horiz-adv-x="1161" 
d="M12 0l307 1473h840l-29 -121h-700l-111 -527h689l-25 -120h-690l-123 -590h793l-21 -115h-930zM1055 1622h-80l-146 248l-233 -248h-92l266 348h133z" />
    <glyph glyph-name="Edieresis" unicode="&#xcb;" horiz-adv-x="1161" 
d="M12 0l307 1473h840l-29 -121h-700l-111 -527h689l-25 -120h-690l-123 -590h793l-21 -115h-930zM881 1700l32 162h144l-35 -162h-141zM557 1700l35 162h143l-35 -162h-143z" />
    <glyph glyph-name="Igrave" unicode="&#xcc;" horiz-adv-x="479" 
d="M16 0l308 1473h139l-309 -1473h-138zM547 1622h-88l-283 348h150z" />
    <glyph glyph-name="Iacute" unicode="&#xcd;" horiz-adv-x="479" 
d="M16 0l308 1473h139l-309 -1473h-138zM394 1622h-93l244 348h148z" />
    <glyph glyph-name="Icircumflex" unicode="&#xce;" horiz-adv-x="479" 
d="M16 0l308 1473h139l-309 -1473h-138zM701 1622h-80l-146 248l-233 -248h-92l266 348h133z" />
    <glyph glyph-name="Idieresis" unicode="&#xcf;" horiz-adv-x="479" 
d="M16 0l308 1473h139l-309 -1473h-138zM527 1700l32 162h144l-35 -162h-141zM203 1700l35 162h143l-35 -162h-143z" />
    <glyph glyph-name="Eth" unicode="&#xd0;" horiz-adv-x="1425" 
d="M168 115l293 0.000976562c122 0 212.833 7 272.5 21s114.167 37.667 163.5 71c90.667 62 162.5 153.167 215.5 273.5s79.5 253.166 79.5 398.499c0 77.333 -9.66699 146.5 -29 207.5s-48 112.5 -86 154.5c-37.333 41.333 -81.5 70.833 -132.5 88.5
s-127.5 26.5 -229.5 26.5h-287l-109 -529h429l-21 -96h-428zM12 0.000976562l149.999 731.001h-168l18 96h170l131 646h398c123.333 0 212.833 -8.5 268.5 -25.5s107.5 -45.5 155.5 -85.5c62.667 -52.667 110.334 -121 143.001 -205s49 -180.333 49 -289
c0 -134 -22 -259.833 -66 -377.5s-106 -216.834 -186 -297.501c-68.667 -69.333 -145 -118.833 -229 -148.5s-213 -44.5 -387 -44.5h-92h-355z" />
    <glyph glyph-name="Ntilde" unicode="&#xd1;" horiz-adv-x="1417" 
d="M12 0l312 1473h153l524 -1311l271 1311h133l-307 -1473h-166l-514 1290l-264 -1290h-142zM1205 1882c-24 -66 -50.6689 -112.834 -80.002 -140.501s-66.333 -41.5 -111 -41.5c-8 0 -16.667 0.833008 -26 2.5s-23 4.83398 -41 9.50098l-95 29
c-11.333 3.33301 -20.166 5.5 -26.499 6.5s-12.5 1.5 -18.5 1.5c-20 0 -37.333 -6.33301 -52 -19s-26.667 -31.667 -36 -57h-80c26 70.667 52.833 119.5 80.5 146.5s63.167 40.5 106.5 40.5c8 0 17.167 -1 27.5 -3s20.5 -4.66699 30.5 -8l91 -26
c2.66699 -0.666992 6.33398 -1.66699 11.001 -3c21.333 -6 37 -9 47 -9c22 0 40.5 5.66699 55.5 17s27.167 29.333 36.5 54h80z" />
    <glyph glyph-name="Ograve" unicode="&#xd2;" horiz-adv-x="1534" 
d="M846 1397c-173.333 0 -319.166 -75.6689 -437.499 -227.002s-177.5 -338.666 -177.5 -561.999c0 -166.667 40.167 -297.334 120.5 -392.001s191.166 -142 332.499 -142c176.667 0 323.5 76.333 440.5 229s175.5 345.334 175.5 578.001
c0 168.667 -38.5 296.834 -115.5 384.501s-189.833 131.5 -338.5 131.5zM674 -45.002c-182.667 0 -325.333 57.668 -428 173.001s-154 275.333 -154 480c0 125.333 22 248 66 368s104.667 222 182 306c70 77.333 148 135.666 234 174.999s178.667 59 278 59
c189.333 0 335 -55.167 437 -165.5s153 -267.5 153 -471.5c0 -128 -20.833 -251.5 -62.5 -370.5s-100.167 -222.833 -175.5 -311.5c-64.667 -77.333 -143.167 -137 -235.5 -179s-190.5 -63 -294.5 -63zM1026 1622h-88l-283 348h150z" />
    <glyph glyph-name="Oacute" unicode="&#xd3;" horiz-adv-x="1534" 
d="M846 1397c-173.333 0 -319.166 -75.6689 -437.499 -227.002s-177.5 -338.666 -177.5 -561.999c0 -166.667 40.167 -297.334 120.5 -392.001s191.166 -142 332.499 -142c176.667 0 323.5 76.333 440.5 229s175.5 345.334 175.5 578.001
c0 168.667 -38.5 296.834 -115.5 384.501s-189.833 131.5 -338.5 131.5zM674 -45.002c-182.667 0 -325.333 57.668 -428 173.001s-154 275.333 -154 480c0 125.333 22 248 66 368s104.667 222 182 306c70 77.333 148 135.666 234 174.999s178.667 59 278 59
c189.333 0 335 -55.167 437 -165.5s153 -267.5 153 -471.5c0 -128 -20.833 -251.5 -62.5 -370.5s-100.167 -222.833 -175.5 -311.5c-64.667 -77.333 -143.167 -137 -235.5 -179s-190.5 -63 -294.5 -63zM873.001 1622h-93l244 348h148z" />
    <glyph glyph-name="Ocircumflex" unicode="&#xd4;" horiz-adv-x="1534" 
d="M846 1397c-173.333 0 -319.166 -75.6689 -437.499 -227.002s-177.5 -338.666 -177.5 -561.999c0 -166.667 40.167 -297.334 120.5 -392.001s191.166 -142 332.499 -142c176.667 0 323.5 76.333 440.5 229s175.5 345.334 175.5 578.001
c0 168.667 -38.5 296.834 -115.5 384.501s-189.833 131.5 -338.5 131.5zM674 -45.002c-182.667 0 -325.333 57.668 -428 173.001s-154 275.333 -154 480c0 125.333 22 248 66 368s104.667 222 182 306c70 77.333 148 135.666 234 174.999s178.667 59 278 59
c189.333 0 335 -55.167 437 -165.5s153 -267.5 153 -471.5c0 -128 -20.833 -251.5 -62.5 -370.5s-100.167 -222.833 -175.5 -311.5c-64.667 -77.333 -143.167 -137 -235.5 -179s-190.5 -63 -294.5 -63zM1180 1622h-80l-146 248l-233 -248h-92l266 348h133z" />
    <glyph glyph-name="Otilde" unicode="&#xd5;" horiz-adv-x="1534" 
d="M846 1397c-173.333 0 -319.166 -75.6689 -437.499 -227.002s-177.5 -338.666 -177.5 -561.999c0 -166.667 40.167 -297.334 120.5 -392.001s191.166 -142 332.499 -142c176.667 0 323.5 76.333 440.5 229s175.5 345.334 175.5 578.001
c0 168.667 -38.5 296.834 -115.5 384.501s-189.833 131.5 -338.5 131.5zM674 -45.002c-182.667 0 -325.333 57.668 -428 173.001s-154 275.333 -154 480c0 125.333 22 248 66 368s104.667 222 182 306c70 77.333 148 135.666 234 174.999s178.667 59 278 59
c189.333 0 335 -55.167 437 -165.5s153 -267.5 153 -471.5c0 -128 -20.833 -251.5 -62.5 -370.5s-100.167 -222.833 -175.5 -311.5c-64.667 -77.333 -143.167 -137 -235.5 -179s-190.5 -63 -294.5 -63zM1215 1882c-24 -66 -50.6689 -112.834 -80.002 -140.501
s-66.333 -41.5 -111 -41.5c-8 0 -16.667 0.833008 -26 2.5s-23 4.83398 -41 9.50098l-95 29c-11.333 3.33301 -20.166 5.5 -26.499 6.5s-12.5 1.5 -18.5 1.5c-20 0 -37.333 -6.33301 -52 -19s-26.667 -31.667 -36 -57h-80c26 70.667 52.833 119.5 80.5 146.5
s63.167 40.5 106.5 40.5c8 0 17.167 -1 27.5 -3s20.5 -4.66699 30.5 -8l91 -26c2.66699 -0.666992 6.33398 -1.66699 11.001 -3c21.333 -6 37 -9 47 -9c22 0 40.5 5.66699 55.5 17s27.167 29.333 36.5 54h80z" />
    <glyph glyph-name="Odieresis" unicode="&#xd6;" horiz-adv-x="1534" 
d="M846 1397c-173.333 0 -319.166 -75.6689 -437.499 -227.002s-177.5 -338.666 -177.5 -561.999c0 -166.667 40.167 -297.334 120.5 -392.001s191.166 -142 332.499 -142c176.667 0 323.5 76.333 440.5 229s175.5 345.334 175.5 578.001
c0 168.667 -38.5 296.834 -115.5 384.501s-189.833 131.5 -338.5 131.5zM674 -45.002c-182.667 0 -325.333 57.668 -428 173.001s-154 275.333 -154 480c0 125.333 22 248 66 368s104.667 222 182 306c70 77.333 148 135.666 234 174.999s178.667 59 278 59
c189.333 0 335 -55.167 437 -165.5s153 -267.5 153 -471.5c0 -128 -20.833 -251.5 -62.5 -370.5s-100.167 -222.833 -175.5 -311.5c-64.667 -77.333 -143.167 -137 -235.5 -179s-190.5 -63 -294.5 -63zM1006 1700l32 162h144l-35 -162h-141zM682.001 1700l35 162h143
l-35 -162h-143z" />
    <glyph glyph-name="multiply" unicode="&#xd7;" horiz-adv-x="1706" 
d="M854 668l487 487l58 -57l-488 -488l488 -487l-58 -57l-487 487l-487 -487l-58 57l488 487l-488 488l58 57z" />
    <glyph glyph-name="Oslash" unicode="&#xd8;" horiz-adv-x="1534" 
d="M1174 1278c-36 39.333 -80.166 68.666 -132.499 87.999s-114.833 29 -187.5 29c-180.667 0 -329.334 -74 -446.001 -222s-175 -336.333 -175 -565c0 -65.333 6 -124.166 18 -176.499s30.667 -101.833 56 -148.5zM369.001 199c43.333 -42.667 90.833 -73.833 142.5 -93.5
s111.167 -29.5 178.5 -29.5c176 0 321.667 76 437 228s173 345.667 173 581c0 60.667 -5.33301 116.167 -16 166.5s-27 97.833 -49 142.5zM33.001 -32.999l177.996 206.999c-40.667 64.667 -70.667 131.334 -90 200.001s-29 144 -29 226c0 131.333 21.5 255.833 64.5 373.5
s104.167 220.5 183.5 308.5c70.667 77.333 149.5 135.166 236.5 173.499s183.5 57.5 289.5 57.5c86.667 0 162.167 -10.833 226.5 -32.5s120.833 -55.167 169.5 -100.5l149 174l80 -63l-164 -188c38.667 -62.667 67.167 -128.5 85.5 -197.5s27.5 -146.167 27.5 -231.5
c0 -129.333 -20.667 -252.5 -62 -369.5s-100.666 -220.167 -177.999 -309.5c-66.667 -77.333 -144.667 -136 -234 -176s-186.666 -60 -291.999 -60c-87.333 0 -162.666 10.833 -225.999 32.5s-119.666 55.834 -168.999 102.501l-170 -194z" />
    <glyph glyph-name="Ugrave" unicode="&#xd9;" horiz-adv-x="1415" 
d="M319 1473l136 0.00195312l-185 -885c-8 -38.667 -14 -74 -18 -106s-6 -61.667 -6 -89c0 -94.667 32.167 -170.834 96.5 -228.501s149.5 -86.5 255.5 -86.5c132 0 234.667 34.667 308 104s127 182.666 161 339.999l201 951h133l-187 -910
c-46.667 -226.667 -116.167 -384 -208.5 -472s-226.833 -132 -403.5 -132c-151.333 0 -271.833 37.667 -361.5 113s-134.5 174.333 -134.5 297c0 63.333 10 143.333 30 240c1.33301 6 2.33301 10.667 3 14zM1016 1622h-88l-283 348h150z" />
    <glyph glyph-name="Uacute" unicode="&#xda;" horiz-adv-x="1415" 
d="M319 1473l136 0.00195312l-185 -885c-8 -38.667 -14 -74 -18 -106s-6 -61.667 -6 -89c0 -94.667 32.167 -170.834 96.5 -228.501s149.5 -86.5 255.5 -86.5c132 0 234.667 34.667 308 104s127 182.666 161 339.999l201 951h133l-187 -910
c-46.667 -226.667 -116.167 -384 -208.5 -472s-226.833 -132 -403.5 -132c-151.333 0 -271.833 37.667 -361.5 113s-134.5 174.333 -134.5 297c0 63.333 10 143.333 30 240c1.33301 6 2.33301 10.667 3 14zM863 1622h-93l244 348h148z" />
    <glyph glyph-name="Ucircumflex" unicode="&#xdb;" horiz-adv-x="1415" 
d="M319 1473l136 0.00195312l-185 -885c-8 -38.667 -14 -74 -18 -106s-6 -61.667 -6 -89c0 -94.667 32.167 -170.834 96.5 -228.501s149.5 -86.5 255.5 -86.5c132 0 234.667 34.667 308 104s127 182.666 161 339.999l201 951h133l-187 -910
c-46.667 -226.667 -116.167 -384 -208.5 -472s-226.833 -132 -403.5 -132c-151.333 0 -271.833 37.667 -361.5 113s-134.5 174.333 -134.5 297c0 63.333 10 143.333 30 240c1.33301 6 2.33301 10.667 3 14zM1170 1622h-80l-146 248l-233 -248h-92l266 348h133z" />
    <glyph glyph-name="Udieresis" unicode="&#xdc;" horiz-adv-x="1415" 
d="M319 1473l136 0.00195312l-185 -885c-8 -38.667 -14 -74 -18 -106s-6 -61.667 -6 -89c0 -94.667 32.167 -170.834 96.5 -228.501s149.5 -86.5 255.5 -86.5c132 0 234.667 34.667 308 104s127 182.666 161 339.999l201 951h133l-187 -910
c-46.667 -226.667 -116.167 -384 -208.5 -472s-226.833 -132 -403.5 -132c-151.333 0 -271.833 37.667 -361.5 113s-134.5 174.333 -134.5 297c0 63.333 10 143.333 30 240c1.33301 6 2.33301 10.667 3 14zM996 1700l32 162h144l-35 -162h-141zM672 1700l35 162h143
l-35 -162h-143z" />
    <glyph glyph-name="Yacute" unicode="&#xdd;" horiz-adv-x="985" 
d="M287 0l137 657l-371 816h135l312 -701l440 701h150l-543 -850l-125 -623h-135zM648 1622h-93l244 348h148z" />
    <glyph glyph-name="Thorn" unicode="&#xde;" horiz-adv-x="1194" 
d="M248 489l323 0.000976562c140.667 0 243.5 27.167 308.5 81.5s97.5 139.166 97.5 254.499c0 89.333 -28 155.333 -84 198s-142.667 64 -260 64h-262zM12 0.000976562l297.001 1473h137l-53 -267h225c169.333 0 293.666 -30.5 372.999 -91.5s119 -156.833 119 -287.5
c0 -90 -16 -167.333 -48 -232s-80 -116.334 -144 -155.001c-44 -26.667 -95 -45.5 -153 -56.5s-158 -16.5 -300 -16.5h-242l-71 -367h-140z" />
    <glyph glyph-name="germandbls" unicode="&#xdf;" horiz-adv-x="1063" 
d="M-16 0l217.001 1075c27.333 134 76.333 235.167 147 303.5s161.667 102.5 273 102.5c108 0 196 -30.667 264 -92s102 -140 102 -236c0 -82 -22.667 -151.833 -68 -209.5s-110.666 -99.834 -195.999 -126.501c68.667 -34 118.667 -75.833 150 -125.5
s47 -112.834 47 -189.501c0 -152.667 -45.5 -279 -136.5 -379s-206.833 -150 -347.5 -150c-16 0 -34.333 1.66699 -55 5s-44.667 8.66602 -72 15.999l25 106c15.333 -5.33301 31.166 -9.33301 47.499 -12s33.166 -4 50.499 -4c104 0 190.167 39.833 258.5 119.5
s102.5 178.5 102.5 296.5c0 85.333 -24.5 151 -73.5 197s-118.833 69 -209.5 69c-13.333 0 -23.5 -0.166992 -30.5 -0.5s-13.167 -0.833008 -18.5 -1.5l21 100c6 -0.666992 12.5 -1.16699 19.5 -1.5s16.5 -0.5 28.5 -0.5c105.333 0 187 25.167 245 75.5
s87 120.166 87 209.499c0 68 -21.167 122.833 -63.5 164.5s-97.5 62.5 -165.5 62.5c-89.333 0 -159.5 -27.333 -210.5 -82s-88.833 -143.334 -113.5 -266.001l-209 -1026h-116z" />
    <glyph glyph-name="agrave" unicode="&#xe0;" horiz-adv-x="1055" 
d="M664 121c-58 -51.333 -116.169 -89.165 -174.502 -113.498s-121.166 -36.5 -188.499 -36.5c-98.667 0 -178 27.5 -238 82.5s-90 126.5 -90 214.5c0 59.333 13.5 113 40.5 161s66.167 87.333 117.5 118c58.667 35.333 168.667 58.666 330 69.999
c8 0.666992 14.333 1.33398 19 2.00098l38 3c180 14 270 73 270 177c0 61.333 -21.167 107.333 -63.5 138s-106.5 46 -192.5 46c-96.667 0 -170.834 -17.667 -222.501 -53s-83.167 -90 -94.5 -164h-113c16.667 106.667 62.167 186.167 136.5 238.5s178.5 78.5 312.5 78.5
c112 0 199 -24 261 -72s93 -115.333 93 -202c0 -17.333 -1.33301 -36.833 -4 -58.5s-6.66699 -44.5 -12 -68.5l-105 -488c-2 -8 -3.5 -16.167 -4.5 -24.5s-1.5 -17.833 -1.5 -28.5c0 -18.667 4.5 -32.834 13.5 -42.501s22.167 -14.5 39.5 -14.5
c13.333 0 26.333 1.16699 39 3.5s25.667 5.83301 39 10.5l-20 -98c-12 -6.66699 -24.667 -11.334 -38 -14.001s-28.666 -4 -45.999 -4c-47.333 0 -82.666 11.5 -105.999 34.5s-35 57.833 -35 104.5zM738.998 547.001c-51.333 -19.333 -126.499 -31.834 -225.499 -37.501
s-167.833 -12.5 -206.5 -20.5c-66.667 -13.333 -117.167 -38.166 -151.5 -74.499s-51.5 -83.833 -51.5 -142.5s19.833 -105.667 59.5 -141s92.5 -53 158.5 -53c118 0 211.667 38.833 281 116.5s114.666 195.167 135.999 352.5zM703.999 1200h-88l-283 348h150z" />
    <glyph glyph-name="aacute" unicode="&#xe1;" horiz-adv-x="1055" 
d="M664 121c-58 -51.333 -116.169 -89.165 -174.502 -113.498s-121.166 -36.5 -188.499 -36.5c-98.667 0 -178 27.5 -238 82.5s-90 126.5 -90 214.5c0 59.333 13.5 113 40.5 161s66.167 87.333 117.5 118c58.667 35.333 168.667 58.666 330 69.999
c8 0.666992 14.333 1.33398 19 2.00098l38 3c180 14 270 73 270 177c0 61.333 -21.167 107.333 -63.5 138s-106.5 46 -192.5 46c-96.667 0 -170.834 -17.667 -222.501 -53s-83.167 -90 -94.5 -164h-113c16.667 106.667 62.167 186.167 136.5 238.5s178.5 78.5 312.5 78.5
c112 0 199 -24 261 -72s93 -115.333 93 -202c0 -17.333 -1.33301 -36.833 -4 -58.5s-6.66699 -44.5 -12 -68.5l-105 -488c-2 -8 -3.5 -16.167 -4.5 -24.5s-1.5 -17.833 -1.5 -28.5c0 -18.667 4.5 -32.834 13.5 -42.501s22.167 -14.5 39.5 -14.5
c13.333 0 26.333 1.16699 39 3.5s25.667 5.83301 39 10.5l-20 -98c-12 -6.66699 -24.667 -11.334 -38 -14.001s-28.666 -4 -45.999 -4c-47.333 0 -82.666 11.5 -105.999 34.5s-35 57.833 -35 104.5zM738.998 547.001c-51.333 -19.333 -126.499 -31.834 -225.499 -37.501
s-167.833 -12.5 -206.5 -20.5c-66.667 -13.333 -117.167 -38.166 -151.5 -74.499s-51.5 -83.833 -51.5 -142.5s19.833 -105.667 59.5 -141s92.5 -53 158.5 -53c118 0 211.667 38.833 281 116.5s114.666 195.167 135.999 352.5zM550.999 1200h-93l244 348h148z" />
    <glyph glyph-name="acircumflex" unicode="&#xe2;" horiz-adv-x="1055" 
d="M664 121c-58 -51.333 -116.169 -89.165 -174.502 -113.498s-121.166 -36.5 -188.499 -36.5c-98.667 0 -178 27.5 -238 82.5s-90 126.5 -90 214.5c0 59.333 13.5 113 40.5 161s66.167 87.333 117.5 118c58.667 35.333 168.667 58.666 330 69.999
c8 0.666992 14.333 1.33398 19 2.00098l38 3c180 14 270 73 270 177c0 61.333 -21.167 107.333 -63.5 138s-106.5 46 -192.5 46c-96.667 0 -170.834 -17.667 -222.501 -53s-83.167 -90 -94.5 -164h-113c16.667 106.667 62.167 186.167 136.5 238.5s178.5 78.5 312.5 78.5
c112 0 199 -24 261 -72s93 -115.333 93 -202c0 -17.333 -1.33301 -36.833 -4 -58.5s-6.66699 -44.5 -12 -68.5l-105 -488c-2 -8 -3.5 -16.167 -4.5 -24.5s-1.5 -17.833 -1.5 -28.5c0 -18.667 4.5 -32.834 13.5 -42.501s22.167 -14.5 39.5 -14.5
c13.333 0 26.333 1.16699 39 3.5s25.667 5.83301 39 10.5l-20 -98c-12 -6.66699 -24.667 -11.334 -38 -14.001s-28.666 -4 -45.999 -4c-47.333 0 -82.666 11.5 -105.999 34.5s-35 57.833 -35 104.5zM738.998 547.001c-51.333 -19.333 -126.499 -31.834 -225.499 -37.501
s-167.833 -12.5 -206.5 -20.5c-66.667 -13.333 -117.167 -38.166 -151.5 -74.499s-51.5 -83.833 -51.5 -142.5s19.833 -105.667 59.5 -141s92.5 -53 158.5 -53c118 0 211.667 38.833 281 116.5s114.666 195.167 135.999 352.5zM857.999 1200h-80l-146 248l-233 -248h-92
l266 348h133z" />
    <glyph glyph-name="atilde" unicode="&#xe3;" horiz-adv-x="1055" 
d="M664 121c-58 -51.333 -116.169 -89.165 -174.502 -113.498s-121.166 -36.5 -188.499 -36.5c-98.667 0 -178 27.5 -238 82.5s-90 126.5 -90 214.5c0 59.333 13.5 113 40.5 161s66.167 87.333 117.5 118c58.667 35.333 168.667 58.666 330 69.999
c8 0.666992 14.333 1.33398 19 2.00098l38 3c180 14 270 73 270 177c0 61.333 -21.167 107.333 -63.5 138s-106.5 46 -192.5 46c-96.667 0 -170.834 -17.667 -222.501 -53s-83.167 -90 -94.5 -164h-113c16.667 106.667 62.167 186.167 136.5 238.5s178.5 78.5 312.5 78.5
c112 0 199 -24 261 -72s93 -115.333 93 -202c0 -17.333 -1.33301 -36.833 -4 -58.5s-6.66699 -44.5 -12 -68.5l-105 -488c-2 -8 -3.5 -16.167 -4.5 -24.5s-1.5 -17.833 -1.5 -28.5c0 -18.667 4.5 -32.834 13.5 -42.501s22.167 -14.5 39.5 -14.5
c13.333 0 26.333 1.16699 39 3.5s25.667 5.83301 39 10.5l-20 -98c-12 -6.66699 -24.667 -11.334 -38 -14.001s-28.666 -4 -45.999 -4c-47.333 0 -82.666 11.5 -105.999 34.5s-35 57.833 -35 104.5zM738.998 547.001c-51.333 -19.333 -126.499 -31.834 -225.499 -37.501
s-167.833 -12.5 -206.5 -20.5c-66.667 -13.333 -117.167 -38.166 -151.5 -74.499s-51.5 -83.833 -51.5 -142.5s19.833 -105.667 59.5 -141s92.5 -53 158.5 -53c118 0 211.667 38.833 281 116.5s114.666 195.167 135.999 352.5zM892.999 1460
c-24 -66 -50.6689 -112.834 -80.002 -140.501s-66.333 -41.5 -111 -41.5c-8 0 -16.667 0.833008 -26 2.5s-23 4.83398 -41 9.50098l-95 29c-11.333 3.33301 -20.166 5.5 -26.499 6.5s-12.5 1.5 -18.5 1.5c-20 0 -37.333 -6.33301 -52 -19s-26.667 -31.667 -36 -57h-80
c26 70.667 52.833 119.5 80.5 146.5s63.167 40.5 106.5 40.5c8 0 17.167 -1 27.5 -3s20.5 -4.66699 30.5 -8l91 -26c2.66699 -0.666992 6.33398 -1.66699 11.001 -3c21.333 -6 37 -9 47 -9c22 0 40.5 5.66699 55.5 17s27.167 29.333 36.5 54h80z" />
    <glyph glyph-name="adieresis" unicode="&#xe4;" horiz-adv-x="1055" 
d="M664 121c-58 -51.333 -116.169 -89.165 -174.502 -113.498s-121.166 -36.5 -188.499 -36.5c-98.667 0 -178 27.5 -238 82.5s-90 126.5 -90 214.5c0 59.333 13.5 113 40.5 161s66.167 87.333 117.5 118c58.667 35.333 168.667 58.666 330 69.999
c8 0.666992 14.333 1.33398 19 2.00098l38 3c180 14 270 73 270 177c0 61.333 -21.167 107.333 -63.5 138s-106.5 46 -192.5 46c-96.667 0 -170.834 -17.667 -222.501 -53s-83.167 -90 -94.5 -164h-113c16.667 106.667 62.167 186.167 136.5 238.5s178.5 78.5 312.5 78.5
c112 0 199 -24 261 -72s93 -115.333 93 -202c0 -17.333 -1.33301 -36.833 -4 -58.5s-6.66699 -44.5 -12 -68.5l-105 -488c-2 -8 -3.5 -16.167 -4.5 -24.5s-1.5 -17.833 -1.5 -28.5c0 -18.667 4.5 -32.834 13.5 -42.501s22.167 -14.5 39.5 -14.5
c13.333 0 26.333 1.16699 39 3.5s25.667 5.83301 39 10.5l-20 -98c-12 -6.66699 -24.667 -11.334 -38 -14.001s-28.666 -4 -45.999 -4c-47.333 0 -82.666 11.5 -105.999 34.5s-35 57.833 -35 104.5zM738.998 547.001c-51.333 -19.333 -126.499 -31.834 -225.499 -37.501
s-167.833 -12.5 -206.5 -20.5c-66.667 -13.333 -117.167 -38.166 -151.5 -74.499s-51.5 -83.833 -51.5 -142.5s19.833 -105.667 59.5 -141s92.5 -53 158.5 -53c118 0 211.667 38.833 281 116.5s114.666 195.167 135.999 352.5zM683.999 1278l32 162h144l-35 -162h-141z
M359.999 1278l35 162h143l-35 -162h-143z" />
    <glyph glyph-name="aring" unicode="&#xe5;" horiz-adv-x="1055" 
d="M479 1356c0 -35.333 12.6689 -65.333 38.002 -90s55.666 -37 90.999 -37c36 0 66.5 12.167 91.5 36.5s37.5 54.5 37.5 90.5c0 36.667 -12.5 67.667 -37.5 93s-55.5 38 -91.5 38c-34.667 0 -64.834 -13 -90.501 -39s-38.5 -56.667 -38.5 -92zM383.002 1358
c0 63.333 21.833 116.67 65.5 160.003s96.834 65 159.501 65c63.333 0 117.166 -21.833 161.499 -65.5s66.5 -96.834 66.5 -159.501s-22.167 -116.334 -66.5 -161.001s-98.166 -67 -161.499 -67c-62.667 0 -115.834 22.167 -159.501 66.5s-65.5 98.166 -65.5 161.499z
M664.002 121.004c-58 -51.333 -116.169 -89.165 -174.502 -113.498s-121.166 -36.5 -188.499 -36.5c-98.667 0 -178 27.5 -238 82.5s-90 126.5 -90 214.5c0 59.333 13.5 113 40.5 161s66.167 87.333 117.5 118c58.667 35.333 168.667 58.666 330 69.999
c8 0.666992 14.333 1.33398 19 2.00098l38 3c180 14 270 73 270 177c0 61.333 -21.167 107.333 -63.5 138s-106.5 46 -192.5 46c-96.667 0 -170.834 -17.667 -222.501 -53s-83.167 -90 -94.5 -164h-113c16.667 106.667 62.167 186.167 136.5 238.5s178.5 78.5 312.5 78.5
c112 0 199 -24 261 -72s93 -115.333 93 -202c0 -17.333 -1.33301 -36.833 -4 -58.5s-6.66699 -44.5 -12 -68.5l-105 -488c-2 -8 -3.5 -16.167 -4.5 -24.5s-1.5 -17.833 -1.5 -28.5c0 -18.667 4.5 -32.834 13.5 -42.501s22.167 -14.5 39.5 -14.5
c13.333 0 26.333 1.16699 39 3.5s25.667 5.83301 39 10.5l-20 -98c-12 -6.66699 -24.667 -11.334 -38 -14.001s-28.666 -4 -45.999 -4c-47.333 0 -82.666 11.5 -105.999 34.5s-35 57.833 -35 104.5zM739 547.005c-51.333 -19.333 -126.499 -31.834 -225.499 -37.501
s-167.833 -12.5 -206.5 -20.5c-66.667 -13.333 -117.167 -38.166 -151.5 -74.499s-51.5 -83.833 -51.5 -142.5s19.833 -105.667 59.5 -141s92.5 -53 158.5 -53c118 0 211.667 38.833 281 116.5s114.666 195.167 135.999 352.5z" />
    <glyph glyph-name="ae" unicode="&#xe6;" horiz-adv-x="1782" 
d="M864 618l670 1.00195c0.666992 9.33301 1.16699 18.666 1.5 27.999s0.5 21.666 0.5 36.999c0 94.667 -24.833 168.167 -74.5 220.5s-119.167 78.5 -208.5 78.5c-104 0 -189.667 -31.5 -257 -94.5s-111.333 -153.167 -132 -270.5zM739 547.002
c-46.667 -18 -119.667 -30.001 -219 -36.001s-170.333 -13.333 -213 -22c-66.667 -12.667 -117.167 -37.167 -151.5 -73.5s-51.5 -84.166 -51.5 -143.499c0 -58.667 19.833 -105.667 59.5 -141s92.5 -53 158.5 -53c120 0 217 41.5 291 124.5s116 197.833 126 344.5z
M748 207.001c-66 -79.333 -135.667 -138.167 -209 -176.5s-153.333 -57.5 -240 -57.5c-97.333 0 -176 27.333 -236 82s-90 125.667 -90 213c0 110 38.5 192.833 115.5 248.5s202.167 89.5 375.5 101.5c11.333 1.33301 26.333 2.33301 45 3c186 12.667 279 72 279 178
c0 62.667 -21.5 109 -64.5 139s-110.167 45 -201.5 45c-92 0 -163.333 -18.333 -214 -55s-79.667 -90.667 -87 -162h-119c16 104.667 61.167 184.334 135.5 239.001s174.833 82 301.5 82c85.333 0 156.833 -13.667 214.5 -41s100.167 -68 127.5 -122
c54 57.333 109.333 98.833 166 124.5s120.667 38.5 192 38.5c138.667 0 243 -38.167 313 -114.5s105 -190.166 105 -341.499c0 -14 -0.5 -30.667 -1.5 -50s-2.83301 -41 -5.5 -65h-806c-2 -23.333 -3.5 -44.833 -4.5 -64.5s-1.5 -37.834 -1.5 -54.501
c0 -98.667 27.333 -176.5 82 -233.5s129.667 -85.5 225 -85.5c80.667 0 149.5 21.167 206.5 63.5s98.833 103.833 125.5 184.5h120c-29.333 -113.333 -84 -200.5 -164 -261.5s-179.333 -91.5 -298 -91.5c-94.667 0 -173.667 19.167 -237 57.5s-113.333 97.166 -150 176.499z
" />
    <glyph glyph-name="ccedilla" unicode="&#xe7;" horiz-adv-x="1102" 
d="M825 354l130.999 0.000976562c-29.333 -119.333 -86.666 -213 -171.999 -281s-188.333 -102 -309 -102c-140 0 -249.333 40.5 -328 121.5s-118 193.5 -118 337.5c0 188 51 344.167 153 468.5s231 186.5 387 186.5c132 0 234.333 -32.833 307 -98.5
s109.667 -158.167 111 -277.5h-117c-2.66699 85.333 -30.5 152.666 -83.5 201.999s-124.167 74 -213.5 74c-118 0 -217 -53.5 -297 -160.5s-120 -237.833 -120 -392.5c0 -110.667 28.5 -197 85.5 -259s136.167 -93 237.5 -93c81.333 0 153.333 24.833 216 74.5
s106 116.167 130 199.5zM163.999 -415.999l26.999 78c52 -14 94.333 -24 127 -30s60.667 -9 84 -9c45.333 0 80.166 9.66699 104.499 29s36.5 46.666 36.5 81.999c0 31.333 -13.667 53.833 -41 67.5s-74.333 20.5 -141 20.5h-19l60 178h65l-37 -111h21
c66.667 0 117.5 -13.167 152.5 -39.5s52.5 -64.833 52.5 -115.5c0 -61.333 -20.833 -109.166 -62.5 -143.499s-100.167 -51.5 -175.5 -51.5c-35.333 0 -72.666 3.5 -111.999 10.5s-86.666 18.5 -141.999 34.5z" />
    <glyph glyph-name="egrave" unicode="&#xe8;" horiz-adv-x="1100" 
d="M180 629l670 -0.00195312c0.666992 8.66699 1.16699 16.834 1.5 24.501s0.5 17.167 0.5 28.5c0 92.667 -25.333 166 -76 220s-119.667 81 -207 81c-98 0 -179.667 -29.667 -245 -89s-113.333 -147.666 -144 -264.999zM791 325.998h120
c-29.333 -113.333 -84 -200.5 -164 -261.5s-179.333 -91.5 -298 -91.5c-135.333 0 -239.5 39.5 -312.5 118.5s-109.5 191.167 -109.5 336.5c0 192 50 349.833 150 473.5s227.333 185.5 382 185.5c132 0 234.333 -39 307 -117s109 -188.333 109 -331c0 -18 -2 -50.667 -6 -98
c-1.33301 -11.333 -2 -19.666 -2 -24.999h-807c-2 -23.333 -3.5 -44.833 -4.5 -64.5s-1.5 -37.834 -1.5 -54.501c0 -98.667 27 -176.167 81 -232.5s128.667 -84.5 224 -84.5c80.667 0 149.5 21 206.5 63s98.833 103 125.5 183zM715 1200h-88l-283 348h150z" />
    <glyph glyph-name="eacute" unicode="&#xe9;" horiz-adv-x="1100" 
d="M180 629l670 -0.00195312c0.666992 8.66699 1.16699 16.834 1.5 24.501s0.5 17.167 0.5 28.5c0 92.667 -25.333 166 -76 220s-119.667 81 -207 81c-98 0 -179.667 -29.667 -245 -89s-113.333 -147.666 -144 -264.999zM791 325.998h120
c-29.333 -113.333 -84 -200.5 -164 -261.5s-179.333 -91.5 -298 -91.5c-135.333 0 -239.5 39.5 -312.5 118.5s-109.5 191.167 -109.5 336.5c0 192 50 349.833 150 473.5s227.333 185.5 382 185.5c132 0 234.333 -39 307 -117s109 -188.333 109 -331c0 -18 -2 -50.667 -6 -98
c-1.33301 -11.333 -2 -19.666 -2 -24.999h-807c-2 -23.333 -3.5 -44.833 -4.5 -64.5s-1.5 -37.834 -1.5 -54.501c0 -98.667 27 -176.167 81 -232.5s128.667 -84.5 224 -84.5c80.667 0 149.5 21 206.5 63s98.833 103 125.5 183zM562 1200h-93l244 348h148z" />
    <glyph glyph-name="ecircumflex" unicode="&#xea;" horiz-adv-x="1100" 
d="M180 629l670 -0.00195312c0.666992 8.66699 1.16699 16.834 1.5 24.501s0.5 17.167 0.5 28.5c0 92.667 -25.333 166 -76 220s-119.667 81 -207 81c-98 0 -179.667 -29.667 -245 -89s-113.333 -147.666 -144 -264.999zM791 325.998h120
c-29.333 -113.333 -84 -200.5 -164 -261.5s-179.333 -91.5 -298 -91.5c-135.333 0 -239.5 39.5 -312.5 118.5s-109.5 191.167 -109.5 336.5c0 192 50 349.833 150 473.5s227.333 185.5 382 185.5c132 0 234.333 -39 307 -117s109 -188.333 109 -331c0 -18 -2 -50.667 -6 -98
c-1.33301 -11.333 -2 -19.666 -2 -24.999h-807c-2 -23.333 -3.5 -44.833 -4.5 -64.5s-1.5 -37.834 -1.5 -54.501c0 -98.667 27 -176.167 81 -232.5s128.667 -84.5 224 -84.5c80.667 0 149.5 21 206.5 63s98.833 103 125.5 183zM869 1200h-80l-146 248l-233 -248h-92l266 348
h133z" />
    <glyph glyph-name="edieresis" unicode="&#xeb;" horiz-adv-x="1100" 
d="M180 629l670 -0.00195312c0.666992 8.66699 1.16699 16.834 1.5 24.501s0.5 17.167 0.5 28.5c0 92.667 -25.333 166 -76 220s-119.667 81 -207 81c-98 0 -179.667 -29.667 -245 -89s-113.333 -147.666 -144 -264.999zM791 325.998h120
c-29.333 -113.333 -84 -200.5 -164 -261.5s-179.333 -91.5 -298 -91.5c-135.333 0 -239.5 39.5 -312.5 118.5s-109.5 191.167 -109.5 336.5c0 192 50 349.833 150 473.5s227.333 185.5 382 185.5c132 0 234.333 -39 307 -117s109 -188.333 109 -331c0 -18 -2 -50.667 -6 -98
c-1.33301 -11.333 -2 -19.666 -2 -24.999h-807c-2 -23.333 -3.5 -44.833 -4.5 -64.5s-1.5 -37.834 -1.5 -54.501c0 -98.667 27 -176.167 81 -232.5s128.667 -84.5 224 -84.5c80.667 0 149.5 21 206.5 63s98.833 103 125.5 183zM695 1278l32 162h144l-35 -162h-141zM371 1278
l35 162h143l-35 -162h-143z" />
    <glyph glyph-name="igrave" unicode="&#xec;" horiz-adv-x="416" 
d="M-12 0l225 1063h121l-225 -1063h-121zM428 1200h-88l-283 348h150z" />
    <glyph glyph-name="iacute" unicode="&#xed;" horiz-adv-x="416" 
d="M-12 0l225 1063h121l-225 -1063h-121zM275 1200h-93l244 348h148z" />
    <glyph glyph-name="icircumflex" unicode="&#xee;" horiz-adv-x="416" 
d="M-12 0l225 1063h121l-225 -1063h-121zM582 1200h-80l-146 248l-233 -248h-92l266 348h133z" />
    <glyph glyph-name="idieresis" unicode="&#xef;" horiz-adv-x="416" 
d="M-12 0l225 1063h121l-225 -1063h-121zM408 1278l32 162h144l-35 -162h-141zM84 1278l35 162h143l-35 -162h-143z" />
    <glyph glyph-name="eth" unicode="&#xf0;" horiz-adv-x="1126" 
d="M553 969c-113.333 0 -207.501 -52.334 -282.501 -157.001s-112.5 -234.667 -112.5 -390c0 -110 26.667 -195.5 80 -256.5s128.333 -91.5 225 -91.5c114.667 0 210.834 52.667 288.501 158s116.5 235 116.5 389c0 114.667 -26.5 201.334 -79.5 260.001
s-131.5 88 -235.5 88zM810.999 984.999c-17.333 49.333 -40.999 94.5029 -70.999 135.503s-67.667 79.833 -113 116.5l-244 -113l-33 68l211 98c-32 20.667 -66.5 40.167 -103.5 58.5s-85.167 39.166 -144.5 62.499l41 90c53.333 -16.667 106 -37.334 158 -62.001
s106 -54.334 162 -89.001l270 129l31 -70l-236 -111c89.333 -82.667 156.166 -176.667 200.499 -282s66.5 -222.666 66.5 -351.999c0 -210.667 -49.5 -378.5 -148.5 -503.5s-231.167 -187.5 -396.5 -187.5c-137.333 0 -244 39.5 -320 118.5s-114 189.833 -114 332.5
c0 180 51.167 331.5 153.5 454.5s228.5 184.5 378.5 184.5c42.667 0 84.5 -6.33301 125.5 -19s83.167 -32.334 126.5 -59.001z" />
    <glyph glyph-name="ntilde" unicode="&#xf1;" horiz-adv-x="1094" 
d="M-18 0l225.002 1063h115l-33 -162c57.333 61.333 117.166 107.333 179.499 138s127.5 46 195.5 46c92 0 164.5 -24.167 217.5 -72.5s79.5 -114.833 79.5 -199.5c-0.666992 -20 -2.16699 -40 -4.5 -60s-5.83301 -41 -10.5 -63l-147 -690h-121l151 707
c4.66699 18 8 35.667 10 53s3 34.333 3 51c0 54 -17.5 95.5 -52.5 124.5s-85.167 43.5 -150.5 43.5c-111.333 0 -201.333 -36.333 -270 -109s-119.334 -185.334 -152.001 -338.001l-113 -532h-122zM973.002 1460c-24 -66 -50.6689 -112.834 -80.002 -140.501
s-66.333 -41.5 -111 -41.5c-8 0 -16.667 0.833008 -26 2.5s-23 4.83398 -41 9.50098l-95 29c-11.333 3.33301 -20.166 5.5 -26.499 6.5s-12.5 1.5 -18.5 1.5c-20 0 -37.333 -6.33301 -52 -19s-26.667 -31.667 -36 -57h-80c26 70.667 52.833 119.5 80.5 146.5
s63.167 40.5 106.5 40.5c8 0 17.167 -1 27.5 -3s20.5 -4.66699 30.5 -8l91 -26c2.66699 -0.666992 6.33398 -1.66699 11.001 -3c21.333 -6 37 -9 47 -9c22 0 40.5 5.66699 55.5 17s27.167 29.333 36.5 54h80z" />
    <glyph glyph-name="ograve" unicode="&#xf2;" horiz-adv-x="1126" 
d="M565 989c-117.333 0 -214.833 -53.667 -292.5 -161s-116.5 -241.333 -116.5 -402c0 -112 26.5 -198.333 79.5 -259s128.167 -91 225.5 -91c116.667 0 214.667 54.333 294 163s119 242 119 400c0 115.333 -26 202.5 -78 261.5s-129 88.5 -231 88.5zM27 426
c0 189.333 52 348 156 476s234 192 390 192c137.333 0 243.5 -40.167 318.5 -120.5s112.5 -193.833 112.5 -340.5c0 -194.667 -50.833 -354 -152.5 -478s-232.5 -186 -392.5 -186c-136 0 -242 40.333 -318 121s-114 192.667 -114 336zM737 1200h-88l-283 348h150z" />
    <glyph glyph-name="oacute" unicode="&#xf3;" horiz-adv-x="1126" 
d="M565 989c-117.333 0 -214.833 -53.667 -292.5 -161s-116.5 -241.333 -116.5 -402c0 -112 26.5 -198.333 79.5 -259s128.167 -91 225.5 -91c116.667 0 214.667 54.333 294 163s119 242 119 400c0 115.333 -26 202.5 -78 261.5s-129 88.5 -231 88.5zM27 426
c0 189.333 52 348 156 476s234 192 390 192c137.333 0 243.5 -40.167 318.5 -120.5s112.5 -193.833 112.5 -340.5c0 -194.667 -50.833 -354 -152.5 -478s-232.5 -186 -392.5 -186c-136 0 -242 40.333 -318 121s-114 192.667 -114 336zM584 1200h-93l244 348h148z" />
    <glyph glyph-name="ocircumflex" unicode="&#xf4;" horiz-adv-x="1126" 
d="M565 989c-117.333 0 -214.833 -53.667 -292.5 -161s-116.5 -241.333 -116.5 -402c0 -112 26.5 -198.333 79.5 -259s128.167 -91 225.5 -91c116.667 0 214.667 54.333 294 163s119 242 119 400c0 115.333 -26 202.5 -78 261.5s-129 88.5 -231 88.5zM27 426
c0 189.333 52 348 156 476s234 192 390 192c137.333 0 243.5 -40.167 318.5 -120.5s112.5 -193.833 112.5 -340.5c0 -194.667 -50.833 -354 -152.5 -478s-232.5 -186 -392.5 -186c-136 0 -242 40.333 -318 121s-114 192.667 -114 336zM891 1200h-80l-146 248l-233 -248h-92
l266 348h133z" />
    <glyph glyph-name="otilde" unicode="&#xf5;" horiz-adv-x="1126" 
d="M565 989c-117.333 0 -214.833 -53.667 -292.5 -161s-116.5 -241.333 -116.5 -402c0 -112 26.5 -198.333 79.5 -259s128.167 -91 225.5 -91c116.667 0 214.667 54.333 294 163s119 242 119 400c0 115.333 -26 202.5 -78 261.5s-129 88.5 -231 88.5zM27 426
c0 189.333 52 348 156 476s234 192 390 192c137.333 0 243.5 -40.167 318.5 -120.5s112.5 -193.833 112.5 -340.5c0 -194.667 -50.833 -354 -152.5 -478s-232.5 -186 -392.5 -186c-136 0 -242 40.333 -318 121s-114 192.667 -114 336zM926 1460
c-24 -66 -50.6689 -112.834 -80.002 -140.501s-66.333 -41.5 -111 -41.5c-8 0 -16.667 0.833008 -26 2.5s-23 4.83398 -41 9.50098l-95 29c-11.333 3.33301 -20.166 5.5 -26.499 6.5s-12.5 1.5 -18.5 1.5c-20 0 -37.333 -6.33301 -52 -19s-26.667 -31.667 -36 -57h-80
c26 70.667 52.833 119.5 80.5 146.5s63.167 40.5 106.5 40.5c8 0 17.167 -1 27.5 -3s20.5 -4.66699 30.5 -8l91 -26c2.66699 -0.666992 6.33398 -1.66699 11.001 -3c21.333 -6 37 -9 47 -9c22 0 40.5 5.66699 55.5 17s27.167 29.333 36.5 54h80z" />
    <glyph glyph-name="odieresis" unicode="&#xf6;" horiz-adv-x="1126" 
d="M565 989c-117.333 0 -214.833 -53.667 -292.5 -161s-116.5 -241.333 -116.5 -402c0 -112 26.5 -198.333 79.5 -259s128.167 -91 225.5 -91c116.667 0 214.667 54.333 294 163s119 242 119 400c0 115.333 -26 202.5 -78 261.5s-129 88.5 -231 88.5zM27 426
c0 189.333 52 348 156 476s234 192 390 192c137.333 0 243.5 -40.167 318.5 -120.5s112.5 -193.833 112.5 -340.5c0 -194.667 -50.833 -354 -152.5 -478s-232.5 -186 -392.5 -186c-136 0 -242 40.333 -318 121s-114 192.667 -114 336zM717 1278l32 162h144l-35 -162h-141z
M393 1278l35 162h143l-35 -162h-143z" />
    <glyph glyph-name="divide" unicode="&#xf7;" horiz-adv-x="1706" 
d="M854 365c27.333 0 50.5 -9.83301 69.5 -29.5s28.5 -43.5 28.5 -71.5c0 -26.667 -9.5 -49.667 -28.5 -69s-42.167 -29 -69.5 -29s-50.5 9.5 -69.5 28.5s-28.5 42.167 -28.5 69.5s9.66699 51 29 71s42.333 30 69 30zM1452 651v-82h-1198v82h1198zM854 1055
c27.333 0 50.5 -9.49902 69.5 -28.499s28.5 -42.5 28.5 -70.5c0 -26.667 -9.5 -50 -28.5 -70s-42.167 -30 -69.5 -30s-50.5 9.83301 -69.5 29.5s-28.5 43.167 -28.5 70.5s9.5 50.666 28.5 69.999s42.167 29 69.5 29z" />
    <glyph glyph-name="oslash" unicode="&#xf8;" horiz-adv-x="1126" 
d="M197 227l591 680c-31.333 30 -63.833 51.5 -97.5 64.5s-73.5 19.5 -119.5 19.5c-120 0 -218.833 -54.167 -296.5 -162.5s-116.5 -245.166 -116.5 -410.499c0 -35.333 3 -68.333 9 -99s16 -61.334 30 -92.001zM244 160c28.667 -28.667 60.334 -49.8311 95.001 -63.498
s74 -20.5 118 -20.5c121.333 0 221.666 54.167 300.999 162.5s119 245.166 119 410.499c0 35.333 -3.33301 68.166 -10 98.499s-17 60.5 -31 90.5zM-2 0.00292969l115.002 130.999c-30 48.667 -51.833 96.667 -65.5 144s-20.5 98.333 -20.5 153c0 188 52.5 346 157.5 474
s236.833 192 395.5 192c60 0 113 -7.66699 159 -23s89 -40 129 -74l95 111l63 -51l-104 -123c29.333 -41.333 50.666 -84.333 63.999 -129s20 -96 20 -154c0 -204 -49.833 -368.333 -149.5 -493s-230.834 -187 -393.501 -187c-63.333 0 -118.333 7.83301 -165 23.5
s-90.667 40.834 -132 75.501l-105 -121z" />
    <glyph glyph-name="ugrave" unicode="&#xf9;" horiz-adv-x="1094" 
d="M1022 1063l-225 -1063h-115l33 160c-58.667 -61.333 -118.834 -107.166 -180.501 -137.499s-126.5 -45.5 -194.5 -45.5c-92.667 0 -165.334 24 -218.001 72s-79 114.333 -79 199c0 19.333 1.16699 39.333 3.5 60s5.83301 42 10.5 64l148 691h121l-150 -709
c-4.66699 -20.667 -8.16699 -39.667 -10.5 -57s-3.5 -33 -3.5 -47c0 -54 17.5 -95.5 52.5 -124.5s85.167 -43.5 150.5 -43.5c110.667 0 200.334 36.167 269.001 108.5s119.334 184.833 152.001 337.5l115 535h121zM766 1200h-88l-283 348h150z" />
    <glyph glyph-name="uacute" unicode="&#xfa;" horiz-adv-x="1094" 
d="M1022 1063l-225 -1063h-115l33 160c-58.667 -61.333 -118.834 -107.166 -180.501 -137.499s-126.5 -45.5 -194.5 -45.5c-92.667 0 -165.334 24 -218.001 72s-79 114.333 -79 199c0 19.333 1.16699 39.333 3.5 60s5.83301 42 10.5 64l148 691h121l-150 -709
c-4.66699 -20.667 -8.16699 -39.667 -10.5 -57s-3.5 -33 -3.5 -47c0 -54 17.5 -95.5 52.5 -124.5s85.167 -43.5 150.5 -43.5c110.667 0 200.334 36.167 269.001 108.5s119.334 184.833 152.001 337.5l115 535h121zM613 1200h-93l244 348h148z" />
    <glyph glyph-name="ucircumflex" unicode="&#xfb;" horiz-adv-x="1094" 
d="M1022 1063l-225 -1063h-115l33 160c-58.667 -61.333 -118.834 -107.166 -180.501 -137.499s-126.5 -45.5 -194.5 -45.5c-92.667 0 -165.334 24 -218.001 72s-79 114.333 -79 199c0 19.333 1.16699 39.333 3.5 60s5.83301 42 10.5 64l148 691h121l-150 -709
c-4.66699 -20.667 -8.16699 -39.667 -10.5 -57s-3.5 -33 -3.5 -47c0 -54 17.5 -95.5 52.5 -124.5s85.167 -43.5 150.5 -43.5c110.667 0 200.334 36.167 269.001 108.5s119.334 184.833 152.001 337.5l115 535h121zM920 1200h-80l-146 248l-233 -248h-92l266 348h133z" />
    <glyph glyph-name="udieresis" unicode="&#xfc;" horiz-adv-x="1094" 
d="M1022 1063l-225 -1063h-115l33 160c-58.667 -61.333 -118.834 -107.166 -180.501 -137.499s-126.5 -45.5 -194.5 -45.5c-92.667 0 -165.334 24 -218.001 72s-79 114.333 -79 199c0 19.333 1.16699 39.333 3.5 60s5.83301 42 10.5 64l148 691h121l-150 -709
c-4.66699 -20.667 -8.16699 -39.667 -10.5 -57s-3.5 -33 -3.5 -47c0 -54 17.5 -95.5 52.5 -124.5s85.167 -43.5 150.5 -43.5c110.667 0 200.334 36.167 269.001 108.5s119.334 184.833 152.001 337.5l115 535h121zM746 1278l32 162h144l-35 -162h-141zM422 1278l35 162h143
l-35 -162h-143z" />
    <glyph glyph-name="yacute" unicode="&#xfd;" horiz-adv-x="891" 
d="M-106 -414l20 106l41 -3.5c11.333 -1 21.666 -1.5 30.999 -1.5c32.667 0 59.834 8 81.501 24s43.5 44.667 65.5 86l111 215l-215 1051h123l176 -901l456 901h127l-643 -1268c-46.667 -92 -89 -152.5 -127 -181.5s-85 -43.5 -141 -43.5c-15.333 0 -31.5 1.33301 -48.5 4
s-36.167 6.66699 -57.5 12zM512 1200h-93l244 348h148z" />
    <glyph glyph-name="thorn" unicode="&#xfe;" horiz-adv-x="1180" 
d="M616 983c-115.333 0 -212 -53.668 -290 -161.001s-117 -239.333 -117 -396c0 -108 26.667 -193 80 -255s126.333 -93 219 -93c120.667 0 220.5 52.833 299.5 158.5s118.5 240.5 118.5 404.5c0 106.667 -27.5 190.334 -82.5 251.001s-130.833 91 -227.5 91zM16 -424.001
l-125 0.000976562l404 1897h125l-117 -545c46 52.667 97.333 92 154 118s119.334 39 188.001 39c126 0 226.5 -41.5 301.5 -124.5s112.5 -193.5 112.5 -331.5c0 -184.667 -50.833 -339.834 -152.5 -465.501s-228.5 -188.5 -380.5 -188.5
c-90.667 0 -167.834 20.167 -231.501 60.5s-111.167 99.5 -142.5 177.5z" />
    <glyph glyph-name="ydieresis" unicode="&#xff;" horiz-adv-x="891" 
d="M-106 -414l20 106l41 -3.5c11.333 -1 21.666 -1.5 30.999 -1.5c32.667 0 59.834 8 81.501 24s43.5 44.667 65.5 86l111 215l-215 1051h123l176 -901l456 901h127l-643 -1268c-46.667 -92 -89 -152.5 -127 -181.5s-85 -43.5 -141 -43.5c-15.333 0 -31.5 1.33301 -48.5 4
s-36.167 6.66699 -57.5 12zM645 1278l32 162h144l-35 -162h-141zM321 1278l35 162h143l-35 -162h-143z" />
    <glyph glyph-name="Cacute" unicode="&#x106;" horiz-adv-x="1427" 
d="M1286 434c-40 -143.333 -114.004 -258 -222.004 -344s-230.667 -129 -368 -129c-188.667 0 -336.167 58 -442.5 174s-159.5 277 -159.5 483c0 118.667 20.167 234.667 60.5 348s97.5 214 171.5 302c66.667 78.667 144.834 138.834 234.501 180.501
s186.167 62.5 289.5 62.5c154.667 0 277 -42 367 -126s139 -202.333 147 -355h-131c-9.33301 116.667 -48 206.667 -116 270s-159.667 95 -275 95c-171.333 0 -315.166 -74.833 -431.499 -224.5s-174.5 -333.834 -174.5 -552.501c0 -168.667 41.5 -301.167 124.5 -397.5
s197.833 -144.5 344.5 -144.5c100.667 0 191.834 32.333 273.501 97s139.834 151.667 174.501 261h133zM845.996 1622h-93l244 348h148z" />
    <glyph glyph-name="cacute" unicode="&#x107;" horiz-adv-x="1102" 
d="M825 354l130.999 0.000976562c-29.333 -119.333 -86.666 -213 -171.999 -281s-188.333 -102 -309 -102c-140 0 -249.333 40.5 -328 121.5s-118 193.5 -118 337.5c0 188 51 344.167 153 468.5s231 186.5 387 186.5c132 0 234.333 -32.833 307 -98.5
s109.667 -158.167 111 -277.5h-117c-2.66699 85.333 -30.5 152.666 -83.5 201.999s-124.167 74 -213.5 74c-118 0 -217 -53.5 -297 -160.5s-120 -237.833 -120 -392.5c0 -110.667 28.5 -197 85.5 -259s136.167 -93 237.5 -93c81.333 0 153.333 24.833 216 74.5
s106 116.167 130 199.5zM577.999 1200h-93l244 348h148z" />
    <glyph glyph-name="Ccaron" unicode="&#x10c;" horiz-adv-x="1427" 
d="M1286 434c-40 -143.333 -114.004 -258 -222.004 -344s-230.667 -129 -368 -129c-188.667 0 -336.167 58 -442.5 174s-159.5 277 -159.5 483c0 118.667 20.167 234.667 60.5 348s97.5 214 171.5 302c66.667 78.667 144.834 138.834 234.501 180.501
s186.167 62.5 289.5 62.5c154.667 0 277 -42 367 -126s139 -202.333 147 -355h-131c-9.33301 116.667 -48 206.667 -116 270s-159.667 95 -275 95c-171.333 0 -315.166 -74.833 -431.499 -224.5s-174.5 -333.834 -174.5 -552.501c0 -168.667 41.5 -301.167 124.5 -397.5
s197.833 -144.5 344.5 -144.5c100.667 0 191.834 32.333 273.501 97s139.834 151.667 174.501 261h133zM652.996 1970h80l145 -248l234 248h92l-266 -348h-133z" />
    <glyph glyph-name="ccaron" unicode="&#x10d;" horiz-adv-x="1102" 
d="M825 354l130.999 0.000976562c-29.333 -119.333 -86.666 -213 -171.999 -281s-188.333 -102 -309 -102c-140 0 -249.333 40.5 -328 121.5s-118 193.5 -118 337.5c0 188 51 344.167 153 468.5s231 186.5 387 186.5c132 0 234.333 -32.833 307 -98.5
s109.667 -158.167 111 -277.5h-117c-2.66699 85.333 -30.5 152.666 -83.5 201.999s-124.167 74 -213.5 74c-118 0 -217 -53.5 -297 -160.5s-120 -237.833 -120 -392.5c0 -110.667 28.5 -197 85.5 -259s136.167 -93 237.5 -93c81.333 0 153.333 24.833 216 74.5
s106 116.167 130 199.5zM384.999 1548h80l145 -248l234 248h92l-266 -348h-133z" />
    <glyph glyph-name="dcroat" unicode="&#x111;" horiz-adv-x="1176" 
d="M567 983c-117.333 0 -215.166 -52.833 -293.499 -158.5s-117.5 -237.834 -117.5 -396.501c0 -108.667 26.667 -193.5 80 -254.5s127.666 -91.5 222.999 -91.5c122.667 0 222.167 52 298.5 156s114.5 240.333 114.5 409c0 106.667 -26.5 189.334 -79.5 248.001
s-128.167 88 -225.5 88zM760 0l26 133c-48 -54.667 -100.167 -95.334 -156.5 -122.001s-118.166 -40 -185.499 -40c-126.667 0 -227.5 41.5 -302.5 124.5s-112.5 193.833 -112.5 332.5c0 184.667 50.667 340.334 152 467.001s227.333 190 378 190
c92 0 167.667 -19.333 227 -58s106.666 -99.667 141.999 -183l84 391h-353l21 90h350l31 148h123l-31 -148h154l-19 -90h-153l-265 -1235h-110z" />
    <glyph glyph-name="Gbreve" unicode="&#x11e;" horiz-adv-x="1509" 
d="M1149 193c-66.667 -79.333 -138.003 -137.83 -214.003 -175.497s-160.333 -56.5 -253 -56.5c-182 0 -325.5 58.667 -430.5 176s-157.5 277.666 -157.5 480.999c0 120 20.167 236.5 60.5 349.5s97.5 213.167 171.5 300.5c66.667 79.333 145.167 139.666 235.5 180.999
s187.833 62 292.5 62c150 0 272 -40.667 366 -122s146.667 -191.333 158 -330h-129c-13.333 105.333 -54.666 188.333 -123.999 249s-158.333 91 -267 91c-177.333 0 -325.333 -74.667 -444 -224s-178 -335 -178 -557c0 -168 41.333 -300.333 124 -397s196 -145 340 -145
c126.667 0 238.834 50.167 336.501 150.5s161.834 233.166 192.501 398.499h-496l29 112h624l-163 -739h-113zM724.997 1931l79.999 0.000976562v-18c0 -43.333 12.667 -76.333 38 -99s62.666 -34 111.999 -34c59.333 0 108 12.167 146 36.5s68.333 62.5 91 114.5h84
c-26.667 -90 -67.167 -157.167 -121.5 -201.5s-123.166 -66.5 -206.499 -66.5c-73.333 0 -129.166 19.167 -167.499 57.5s-57.5 94.166 -57.5 167.499c0 11.333 0.166992 20 0.5 26s0.833008 11.667 1.5 17z" />
    <glyph glyph-name="gbreve" unicode="&#x11f;" horiz-adv-x="1180" 
d="M580 983c-120 0 -220.331 -53.333 -300.998 -160s-121 -237 -121 -391c0 -109.333 27 -195.333 81 -258s128.667 -94 224 -94c121.333 0 220.666 52.167 297.999 156.5s116 237.833 116 400.5c0 108.667 -26.333 193.5 -79 254.5s-125.334 91.5 -218.001 91.5z
M-5.99805 -115h118.998c6.66699 -67.333 33.167 -118.166 79.5 -152.499s110.5 -51.5 192.5 -51.5c120.667 0 210 31.167 268 93.5s101 177.833 129 346.5c-46.667 -48.667 -98.167 -85.167 -154.5 -109.5s-118.166 -36.5 -185.499 -36.5c-125.333 0 -225.833 41 -301.5 123
s-113.5 190.667 -113.5 326c0 185.333 52 341.833 156 469.5s231.333 191.5 382 191.5c92 0 169 -20.667 231 -62s108 -103 138 -185l47 223h121l-215 -1018c-40 -184.667 -96.167 -309.334 -168.5 -374.001s-182.166 -97 -329.499 -97c-121.333 0 -215.5 26.5 -282.5 79.5
s-104.5 130.833 -112.5 233.5zM471 1509l79.999 0.000976562v-18c0 -43.333 12.667 -76.333 38 -99s62.666 -34 111.999 -34c59.333 0 108 12.167 146 36.5s68.333 62.5 91 114.5h84c-26.667 -90 -67.167 -157.167 -121.5 -201.5s-123.166 -66.5 -206.499 -66.5
c-73.333 0 -129.166 19.167 -167.499 57.5s-57.5 94.166 -57.5 167.499c0 11.333 0.166992 20 0.5 26s0.833008 11.667 1.5 17z" />
    <glyph glyph-name="Idotaccent" unicode="&#x130;" horiz-adv-x="479" 
d="M16 0l308 1473h139l-309 -1473h-138zM361 1696l37 172h149l-37 -172h-149z" />
    <glyph glyph-name="dotlessi" unicode="&#x131;" horiz-adv-x="416" 
d="M-12 0l225 1063h121l-225 -1063h-121z" />
    <glyph glyph-name="Lslash" unicode="&#x141;" horiz-adv-x="1020" 
d="M27 0l135 641l-174 -100l-49 86l251 141l148 705h139l-133 -627l393 227l49 -84l-469 -272l-127 -592h766l-26 -125h-903z" />
    <glyph glyph-name="lslash" unicode="&#x142;" horiz-adv-x="416" 
d="M-12 0l137 651l-141 -82l-47 80l215 125l149 699h121l-135 -635l141 82l49 -82l-217 -125l-151 -713h-121z" />
    <glyph glyph-name="OE" unicode="&#x152;" horiz-adv-x="2159" 
d="M1069 285l182 870.001c-42 82.667 -95.667 143.667 -161 183s-146 59 -242 59c-177.333 0 -324.5 -74.333 -441.5 -223s-175.5 -336 -175.5 -562c0 -166.667 38.667 -297.334 116 -392.001s183 -142 317 -142c77.333 0 149.333 17 216 51s129.667 86 189 156z
M1010 0.000976562l23.999 114.999c-56 -53.333 -116.167 -93 -180.5 -119s-133.833 -39 -208.5 -39c-170 0 -304.667 57.833 -404 173.5s-149 273.5 -149 473.5c0 127.333 21.167 249.5 63.5 366.5s102.5 220.833 180.5 311.5c67.333 76.667 145.833 134.834 235.5 174.501
s187.834 59.5 294.501 59.5c94 0 175.167 -16.833 243.5 -50.5s126.5 -85.167 174.5 -154.5l35 162h838l-29 -121h-701l-108 -527h688l-25 -120h-690l-125 -590h793l-21 -115h-929z" />
    <glyph glyph-name="oe" unicode="&#x153;" horiz-adv-x="1933" 
d="M999 616l668 1c0.666992 5.33301 1.16699 11.333 1.5 18s0.5 17 0.5 31c0 98 -26.667 175.333 -80 232s-126.333 85 -219 85c-89.333 0 -165.5 -31.167 -228.5 -93.5s-110.5 -153.5 -142.5 -273.5zM559 983c-111.333 0 -206.667 -55.168 -286 -165.501
s-119 -240.166 -119 -389.499c0 -106.667 28 -191.667 84 -255s131 -95 225 -95c113.333 0 209.833 54.667 289.5 164s119.5 243 119.5 401c0 109.333 -27 193.333 -81 252s-131.333 88 -232 88zM871.999 212.999c-44.667 -78.667 -103.334 -139 -176.001 -181
s-155 -63 -247 -63c-130.667 0 -233.667 40.5 -309 121.5s-113 192.167 -113 333.5c0 190 52.167 347.667 156.5 473s236.5 188 396.5 188c96 0 176.167 -19.833 240.5 -59.5s113.166 -99.5 146.499 -179.5c48 80 106.333 139.833 175 179.5s147.334 59.5 236.001 59.5
c132.667 0 233.834 -37.833 303.501 -113.5s104.5 -185.834 104.5 -330.501c0 -31.333 -0.166992 -55.666 -0.5 -72.999s-1.16602 -34 -2.49902 -50h-804c-2 -25.333 -3.5 -47.666 -4.5 -66.999s-1.5 -36 -1.5 -50c0 -102.667 26.667 -182.167 80 -238.5
s128.333 -84.5 225 -84.5c80.667 0 149.5 21.167 206.5 63.5s98.833 103.833 125.5 184.5h121c-30 -114.667 -85.167 -202.834 -165.5 -264.501s-179.5 -92.5 -297.5 -92.5c-100 0 -181.833 19.833 -245.5 59.5s-113.834 101.167 -150.501 184.5z" />
    <glyph glyph-name="Scedilla" unicode="&#x15e;" horiz-adv-x="1214" 
d="M43 436l126.997 -0.00292969c0 -116.667 31.667 -206.167 95 -268.5s154.666 -93.5 273.999 -93.5c109.333 0 195 27.5 257 82.5s93 130.5 93 226.5c0 72.667 -19.5 131.5 -58.5 176.5s-113.167 87.833 -222.5 128.5c-175.333 66.667 -288.333 129.334 -339 188.001
s-76 136.667 -76 234c0 122 40.833 220.167 122.5 294.5s189.5 111.5 323.5 111.5c152.667 0 269.834 -38.167 351.501 -114.5s124.834 -187.833 129.501 -334.5h-127c-9.33301 114 -42.5 197.833 -99.5 251.5s-141.833 80.5 -254.5 80.5
c-96.667 0 -172.667 -25.167 -228 -75.5s-83 -118.833 -83 -205.5c0 -121.333 98.333 -219.666 295 -294.999c46.667 -18 82.667 -32.333 108 -43c98.667 -41.333 171.834 -94.166 219.501 -158.499s71.5 -142.5 71.5 -234.5c0 -131.333 -44.5 -235.833 -133.5 -313.5
s-209.833 -116.5 -362.5 -116.5c-151.333 0 -269.666 40.167 -354.999 120.5s-128 191.833 -128 334.5v24zM183.997 -416.003l26.999 78c52 -14 94.333 -24 127 -30s60.667 -9 84 -9c45.333 0 80.166 9.66699 104.499 29s36.5 46.666 36.5 81.999
c0 31.333 -13.667 53.833 -41 67.5s-74.333 20.5 -141 20.5h-19l60 178h65l-37 -111h21c66.667 0 117.5 -13.167 152.5 -39.5s52.5 -64.833 52.5 -115.5c0 -61.333 -20.833 -109.166 -62.5 -143.499s-100.167 -51.5 -175.5 -51.5c-35.333 0 -72.666 3.5 -111.999 10.5
s-86.666 18.5 -141.999 34.5z" />
    <glyph glyph-name="scedilla" unicode="&#x15f;" horiz-adv-x="989" 
d="M109 332c8 -87.333 37.502 -152.499 88.502 -195.499s123.833 -64.5 218.5 -64.5c86 0 153.167 19 201.5 57s72.5 90.667 72.5 158c0 75.333 -87.667 146.333 -263 213c-10.667 4 -19 7.33301 -25 10c-110.667 42.667 -185.834 85 -225.501 127s-59.5 96 -59.5 162
c0 87.333 33.833 157.666 101.5 210.999s157.834 80 270.501 80c120 0 212.333 -27.333 277 -82s100 -135.334 106 -242.001h-114c-7.33301 76.667 -34.333 133.334 -81 170.001s-115.334 55 -206.001 55c-68 0 -123.833 -16.667 -167.5 -50s-65.5 -76 -65.5 -128
c0 -42 13.833 -76.833 41.5 -104.5s89.5 -60.5 185.5 -98.5c148 -58 243.333 -109.5 286 -154.5s64 -101.833 64 -170.5c0 -92.667 -37.667 -168.5 -113 -227.5s-174 -88.5 -296 -88.5c-130.667 0 -231.834 31 -303.501 93s-110.5 152 -116.5 270h123zM72.002 -415.999
l26.999 78c52 -14 94.333 -24 127 -30s60.667 -9 84 -9c45.333 0 80.166 9.66699 104.499 29s36.5 46.666 36.5 81.999c0 31.333 -13.667 53.833 -41 67.5s-74.333 20.5 -141 20.5h-19l60 178h65l-37 -111h21c66.667 0 117.5 -13.167 152.5 -39.5s52.5 -64.833 52.5 -115.5
c0 -61.333 -20.833 -109.166 -62.5 -143.499s-100.167 -51.5 -175.5 -51.5c-35.333 0 -72.666 3.5 -111.999 10.5s-86.666 18.5 -141.999 34.5z" />
    <glyph glyph-name="Scaron" unicode="&#x160;" horiz-adv-x="1214" 
d="M43 436l126.997 -0.00292969c0 -116.667 31.667 -206.167 95 -268.5s154.666 -93.5 273.999 -93.5c109.333 0 195 27.5 257 82.5s93 130.5 93 226.5c0 72.667 -19.5 131.5 -58.5 176.5s-113.167 87.833 -222.5 128.5c-175.333 66.667 -288.333 129.334 -339 188.001
s-76 136.667 -76 234c0 122 40.833 220.167 122.5 294.5s189.5 111.5 323.5 111.5c152.667 0 269.834 -38.167 351.501 -114.5s124.834 -187.833 129.501 -334.5h-127c-9.33301 114 -42.5 197.833 -99.5 251.5s-141.833 80.5 -254.5 80.5
c-96.667 0 -172.667 -25.167 -228 -75.5s-83 -118.833 -83 -205.5c0 -121.333 98.333 -219.666 295 -294.999c46.667 -18 82.667 -32.333 108 -43c98.667 -41.333 171.834 -94.166 219.501 -158.499s71.5 -142.5 71.5 -234.5c0 -131.333 -44.5 -235.833 -133.5 -313.5
s-209.833 -116.5 -362.5 -116.5c-151.333 0 -269.666 40.167 -354.999 120.5s-128 191.833 -128 334.5v24zM568.997 1970h80l145 -248l234 248h92l-266 -348h-133z" />
    <glyph glyph-name="scaron" unicode="&#x161;" horiz-adv-x="989" 
d="M109 332c8 -87.333 37.502 -152.499 88.502 -195.499s123.833 -64.5 218.5 -64.5c86 0 153.167 19 201.5 57s72.5 90.667 72.5 158c0 75.333 -87.667 146.333 -263 213c-10.667 4 -19 7.33301 -25 10c-110.667 42.667 -185.834 85 -225.501 127s-59.5 96 -59.5 162
c0 87.333 33.833 157.666 101.5 210.999s157.834 80 270.501 80c120 0 212.333 -27.333 277 -82s100 -135.334 106 -242.001h-114c-7.33301 76.667 -34.333 133.334 -81 170.001s-115.334 55 -206.001 55c-68 0 -123.833 -16.667 -167.5 -50s-65.5 -76 -65.5 -128
c0 -42 13.833 -76.833 41.5 -104.5s89.5 -60.5 185.5 -98.5c148 -58 243.333 -109.5 286 -154.5s64 -101.833 64 -170.5c0 -92.667 -37.667 -168.5 -113 -227.5s-174 -88.5 -296 -88.5c-130.667 0 -231.834 31 -303.501 93s-110.5 152 -116.5 270h123zM369.002 1548h80
l145 -248l234 248h92l-266 -348h-133z" />
    <glyph glyph-name="Ydieresis" unicode="&#x178;" horiz-adv-x="985" 
d="M287 0l137 657l-371 816h135l312 -701l440 701h150l-543 -850l-125 -623h-135zM781 1700l32 162h144l-35 -162h-141zM457 1700l35 162h143l-35 -162h-143z" />
    <glyph glyph-name="Zcaron" unicode="&#x17d;" horiz-adv-x="1229" 
d="M-16 0l16 102l1032 1258h-796l24 113h961l-23 -113l-1028 -1251h850l-23 -109h-1013zM575 1970h80l145 -248l234 248h92l-266 -348h-133z" />
    <glyph glyph-name="zcaron" unicode="&#x17e;" horiz-adv-x="907" 
d="M-92 0l26 127l764 829h-624l22 107h768l-28 -129l-760 -828h676l-23 -106h-821zM328 1548h80l145 -248l234 248h92l-266 -348h-133z" />
    <glyph glyph-name="florin" unicode="&#x192;" horiz-adv-x="1090" 
d="M473 799l-224.998 0.000976562v108h246l30 148c36.667 170.667 78.834 285.667 126.501 345s114.834 89 201.501 89c23.333 0 47.166 -3 71.499 -9s51.166 -15.333 80.499 -28l-21 -106c-24.667 10 -46.834 17.167 -66.501 21.5s-39.167 6.5 -58.5 6.5
c-50.667 0 -89.5 -17.833 -116.5 -53.5s-55.167 -124.834 -84.5 -267.501l-30 -146h229v-108h-250l-149 -770c-31.333 -162.667 -71.5 -275.334 -120.5 -338.001s-117.5 -94 -205.5 -94c-24.667 0 -49.167 2.66699 -73.5 8s-50.166 14 -77.499 26l20 109
c27.333 -11.333 50.666 -19.333 69.999 -24s37.666 -7 54.999 -7c52 0 92 19.833 120 59.5s55 127.834 81 264.501z" />
    <glyph glyph-name="circumflex" unicode="&#x2c6;" 
d="M885 1200h-80l-146 248l-233 -248h-92l266 348h133z" />
    <glyph glyph-name="caron" unicode="&#x2c7;" 
d="M385 1548h80l145 -248l234 248h92l-266 -348h-133z" />
    <glyph glyph-name="breve" unicode="&#x2d8;" 
d="M393 1509l79.999 0.000976562v-18c0 -43.333 12.667 -76.333 38 -99s62.666 -34 111.999 -34c59.333 0 108 12.167 146 36.5s68.333 62.5 91 114.5h84c-26.667 -90 -67.167 -157.167 -121.5 -201.5s-123.166 -66.5 -206.499 -66.5
c-73.333 0 -129.166 19.167 -167.499 57.5s-57.5 94.166 -57.5 167.499c0 11.333 0.166992 20 0.5 26s0.833008 11.667 1.5 17z" />
    <glyph glyph-name="dotaccent" unicode="&#x2d9;" 
d="M545 1274l37 172h149l-37 -172h-149z" />
    <glyph glyph-name="ring" unicode="&#x2da;" 
d="M487 1378c0 -43.333 15.167 -80 45.5 -110s67.166 -45 110.499 -45c42 0 78.167 15.167 108.5 45.5s45.5 66.833 45.5 109.5c0 43.333 -15 80.166 -45 110.499s-66.333 45.5 -109 45.5c-43.333 0 -80.166 -15.167 -110.499 -45.5s-45.5 -67.166 -45.5 -110.499zM401 1378
c0 67.333 23.3311 124.5 69.998 171.5s103.334 70.5 170.001 70.5s123.667 -23.667 171 -71s71 -104.333 71 -171c0 -66 -23.667 -122.333 -71 -169s-104.333 -70 -171 -70c-67.333 0 -124.166 23.167 -170.499 69.5s-69.5 102.833 -69.5 169.5z" />
    <glyph glyph-name="ogonek" unicode="&#x2db;" 
d="M391 0c-48 -42 -84.166 -82.833 -108.499 -122.5s-36.5 -77.5 -36.5 -113.5c0 -30.667 8.16699 -52.667 24.5 -66s44.166 -20 83.499 -20h88l-22 -104h-62c-72 0 -125.167 13.167 -159.5 39.5s-51.5 67.166 -51.5 122.499c0 40.667 15.5 83.334 46.5 128.001
s76.5 90 136.5 136h61z" />
    <glyph glyph-name="tilde" unicode="&#x2dc;" 
d="M920 1460c-24 -66 -50.6689 -112.834 -80.002 -140.501s-66.333 -41.5 -111 -41.5c-8 0 -16.667 0.833008 -26 2.5s-23 4.83398 -41 9.50098l-95 29c-11.333 3.33301 -20.166 5.5 -26.499 6.5s-12.5 1.5 -18.5 1.5c-20 0 -37.333 -6.33301 -52 -19
s-26.667 -31.667 -36 -57h-80c26 70.667 52.833 119.5 80.5 146.5s63.167 40.5 106.5 40.5c8 0 17.167 -1 27.5 -3s20.5 -4.66699 30.5 -8l91 -26c2.66699 -0.666992 6.33398 -1.66699 11.001 -3c21.333 -6 37 -9 47 -9c22 0 40.5 5.66699 55.5 17s27.167 29.333 36.5 54h80
z" />
    <glyph glyph-name="hungarumlaut" unicode="&#x2dd;" 
d="M879 1548h127l-250 -348h-74zM616 1548h127l-231 -348h-72z" />
    <glyph glyph-name="Omega" unicode="&#x3a9;" horiz-adv-x="1585" 
d="M1452 121v-121h-573v102c145.333 90.667 254.666 193.167 327.999 307.5s110 239.833 110 376.5c0 179.333 -48.833 325.333 -146.5 438s-223.5 169 -377.5 169s-280 -56.333 -378 -169s-147 -258.667 -147 -438c0 -136.667 36.667 -262.167 110 -376.5
s183 -216.833 329 -307.5v-102h-572v121h354c-122 88 -212.5 186.5 -271.5 295.5s-88.5 232.167 -88.5 369.5c0 211.333 62.833 385.333 188.5 522s284.167 205 475.5 205c190.667 0 348.834 -68.333 474.501 -205s188.5 -310.667 188.5 -522
c0 -137.333 -29.5 -260.5 -88.5 -369.5s-149.5 -207.5 -271.5 -295.5h356z" />
    <glyph glyph-name="pi" unicode="&#x3c0;" horiz-adv-x="1155" 
d="M1102 958l-182.002 0.00195312l-119 -565c-9.33301 -41.333 -16.5 -78.333 -21.5 -111s-7.5 -58.334 -7.5 -77.001c0 -39.333 8.16699 -67 24.5 -83s44.5 -24 84.5 -24c18 0 34.5 0.833008 49.5 2.5s29.167 4.16699 42.5 7.5l-25 -108
c-19.333 -6 -36.666 -10.167 -51.999 -12.5s-30 -3.5 -44 -3.5c-61.333 0 -109.833 18 -145.5 54s-53.5 85.333 -53.5 148c0 31.333 3.83301 72.166 11.5 122.499s22.5 126.5 44.5 228.5l88 421h-381l-203 -958h-121l201 958h-39c-36.667 0 -65.167 -10.667 -85.5 -32
s-34.166 -55 -41.499 -101h-121c16.667 90 45 152.167 85 186.5s108.667 51.5 206 51.5h829z" />
    <glyph glyph-name="endash" unicode="&#x2013;" 
d="M-57 485l18 90h1024l-18 -90h-1024z" />
    <glyph glyph-name="emdash" unicode="&#x2014;" horiz-adv-x="2048" 
d="M2009 575l-18 -90h-2048l18 90h2048z" />
    <glyph glyph-name="quoteleft" unicode="&#x2018;" horiz-adv-x="498" 
d="M225 1053l36.999 178c20 100 45.333 168.5 76 205.5s76.334 61.833 137.001 74.5l-16 -71c-33.333 -14 -59 -36.167 -77 -66.5s-32.667 -77.833 -44 -142.5h70l-37 -178h-146z" />
    <glyph glyph-name="quoteright" unicode="&#x2019;" horiz-adv-x="498" 
d="M465 1473l-36.999 -179c-20 -100.667 -45.333 -169.667 -76 -207s-76.334 -62.333 -137.001 -75l16 73c33.333 14 59 36.167 77 66.5s32.667 77.833 44 142.5h-69l36 179h146z" />
    <glyph glyph-name="quotesinglbase" unicode="&#x201a;" horiz-adv-x="498" 
d="M211 180l-36.999 -180c-20 -100 -45.333 -168.5 -76 -205.5s-76.334 -62.167 -137.001 -75.5l16 74c33.333 14 59 36 77 66s32.667 77 44 141h-69l37 180h145z" />
    <glyph glyph-name="quotedblleft" unicode="&#x201c;" horiz-adv-x="758" 
d="M223 1053l37.001 178c20 100 45.167 168.5 75.5 205.5s76.166 61.833 137.499 74.5l-16 -71c-33.333 -14 -59 -36.167 -77 -66.5s-32.667 -77.833 -44 -142.5h70l-37 -178h-146zM483.001 1053l36.999 178.001c20 100 45.333 168.5 76 205.5s76.334 61.833 137.001 74.5
l-16 -71c-32.667 -13.333 -57.667 -34.833 -75 -64.5s-32 -77.834 -44 -144.501h68l-37 -178h-146z" />
    <glyph glyph-name="quotedblright" unicode="&#x201d;" horiz-adv-x="758" 
d="M727 1473l-37 -179c-20 -99.333 -45.5 -168 -76.5 -206s-77.167 -63.333 -138.5 -76l17 73c32.667 14 58 36.167 76 66.5s32.667 77.833 44 142.5h-69l37 179h147zM465 1473l-36.999 -179c-20 -100.667 -45.333 -169.667 -76 -207s-76.334 -62.333 -137.001 -75l16 73
c33.333 14 59 36.167 77 66.5s32.667 77.833 44 142.5h-69l36 179h146z" />
    <glyph glyph-name="quotedblbase" unicode="&#x201e;" horiz-adv-x="758" 
d="M473 180l-37 -179.999c-20 -98.667 -45.5 -166.834 -76.5 -204.501s-77.167 -63.167 -138.5 -76.5l17 74c32.667 14 58 36 76 66s32.667 77 44 141h-69l37 180h147zM211 180.001l-36.999 -180c-20 -100 -45.333 -168.5 -76 -205.5s-76.334 -62.167 -137.001 -75.5l16 74
c33.333 14 59 36 77 66s32.667 77 44 141h-69l37 180h145z" />
    <glyph glyph-name="dagger" unicode="&#x2020;" 
d="M498 936h-353l21 100h354l92 437h117l-92 -437h348l-22 -100h-349l-243 -1149h-117z" />
    <glyph glyph-name="daggerdbl" unicode="&#x2021;" 
d="M346 221h-354l20 98h355l131 617h-355l23 102h352l92 432h117l-92 -432h354l-22 -102h-353l-131 -617h355l-23 -98h-352l-92 -434h-117z" />
    <glyph glyph-name="bullet" unicode="&#x2022;" horiz-adv-x="1208" 
d="M307 762c0 82 28.999 151.666 86.999 208.999s128 86 210 86c81.333 0 150.833 -28.833 208.5 -86.5s86.5 -127.167 86.5 -208.5s-29.167 -151.166 -87.5 -209.499s-128.166 -87.5 -209.499 -87.5c-82 0 -151.667 29 -209 87s-86 128 -86 210z" />
    <glyph glyph-name="ellipsis" unicode="&#x2026;" horiz-adv-x="2048" 
d="M129 0l37 182h156l-39 -182h-154zM811 0l37 182h156l-39 -182h-154zM1495 0l37 182h156l-39 -182h-154z" />
    <glyph glyph-name="perthousand" unicode="&#x2030;" horiz-adv-x="2494" 
d="M1860 340c0 -62 21.167 -114.333 63.5 -157s94.166 -64 155.499 -64s113.5 21.5 156.5 64.5s64.5 95.167 64.5 156.5s-21.333 113.166 -64 155.499s-95 63.5 -157 63.5c-61.333 0 -113.166 -21.167 -155.499 -63.5s-63.5 -94.166 -63.5 -155.499zM1741 340
c0 94.667 32.667 174.667 98 240s145.333 98 240 98c95.333 0 175.833 -32.5 241.5 -97.5s98.5 -145.167 98.5 -240.5c0 -94.667 -33.167 -175 -99.5 -241s-146.5 -99 -240.5 -99c-94.667 -0 -174.667 32.833 -240 98.5s-98 146.167 -98 241.5zM1024 340
c0 -61.333 21.501 -113.501 64.501 -156.501s95.167 -64.5 156.5 -64.5s113.166 21.333 155.499 64s63.5 95 63.5 157s-21 114 -63 156s-94 63 -156 63c-61.333 0 -113.5 -21.167 -156.5 -63.5s-64.5 -94.166 -64.5 -155.499zM905.001 339.999
c0 94 32.833 173.833 98.5 239.5s146.167 98.5 241.5 98.5s175.5 -32.5 240.5 -97.5s97.5 -145.167 97.5 -240.5c0 -94.667 -32.833 -175 -98.5 -241s-145.5 -99 -239.5 -99c-94.667 0 -175 33 -241 99s-99 146.333 -99 241zM317.001 -41.001l920 1473h104l-919 -1473h-105z
M193.001 1051c0 -61.333 21.333 -113.333 64 -156s95 -64 157 -64c61.333 0 113.166 21.167 155.499 63.5s63.5 94.5 63.5 156.5s-21.167 114.333 -63.5 157s-94.166 64 -155.499 64s-113.5 -21.5 -156.5 -64.5s-64.5 -95.167 -64.5 -156.5zM76.001 1053
c0 94.667 32.667 174.667 98 240s145.333 98 240 98c95.333 0 175.833 -32.667 241.5 -98s98.5 -145.333 98.5 -240s-33.167 -175 -99.5 -241s-146.5 -99 -240.5 -99c-94.667 0 -174.667 32.833 -240 98.5s-98 146.167 -98 241.5z" />
    <glyph glyph-name="guilsinglleft" unicode="&#x2039;" horiz-adv-x="467" 
d="M266 242l-256 217l29 143l350 223l-31 -145l-258 -162l191 -162z" />
    <glyph glyph-name="guilsinglright" unicode="&#x203a;" horiz-adv-x="467" 
d="M104 823l256 -217l-30 -143l-348 -221l30 143l256 164l-188 160z" />
    <glyph glyph-name="franc" unicode="&#x20a3;" horiz-adv-x="1651" 
d="M12 0l312 1473h794l-24 -123h-658l-110 -525h639l-27 -118h-639l-149 -707h-138zM1051 0l217.003 1063h113l-29 -139c52 59.333 98.5 101.833 139.5 127.5s83.167 38.5 126.5 38.5c13.333 0 27.166 -1.5 41.499 -4.5s29.166 -7.16699 44.499 -12.5l-26 -118
c-18 2 -32.5 3.33301 -43.5 4s-20.5 1.33398 -28.5 2.00098c-81.333 0 -147.333 -33.5 -198 -100.5s-91.334 -175.5 -122.001 -325.5l-108 -535h-127z" />
    <glyph glyph-name="trademark" unicode="&#x2122;" horiz-adv-x="1706" 
d="M926 1454l174 -440l162 440h102v-530h-59v479l-181 -479h-49l-190 479v-479h-60v530h101zM694 1454v-51h-174v-479h-67v479h-179v51h420z" />
    <glyph glyph-name="partialdiff" unicode="&#x2202;" 
d="M750 578c7.33301 46 12.833 94.1689 16.5 144.502s5.5 103.833 5.5 160.5c0 119.333 -12.667 208.166 -38 266.499s-64 87.5 -116 87.5c-30 0 -63.167 -24.5 -99.5 -73.5s-72.5 -73.5 -108.5 -73.5c-19.333 0 -35.5 6.16699 -48.5 18.5s-19.5 27.833 -19.5 46.5
c0 39.333 20.333 73.333 61 102s90 43 148 43c106.667 0 191.334 -49 254.001 -147s94 -231.667 94 -401c0 -223.333 -43.833 -409 -131.5 -557s-195.5 -222 -323.5 -222c-92.667 0 -167.334 35 -224.001 105s-85 163.333 -85 280c0 115.333 35.667 214.166 107 296.499
s157.333 123.5 258 123.5c64.667 0 117.5 -16.333 158.5 -49s71.5 -83 91.5 -151zM713 459.002c0 83.333 -15.667 146.832 -47 190.499s-77.333 65.5 -138 65.5c-78 0 -141.5 -41.667 -190.5 -125s-73.5 -193.333 -73.5 -330c0 -78 15.833 -137.833 47.5 -179.5
s77.5 -62.5 137.5 -62.5c76 0 139 41.833 189 125.5s75 188.834 75 315.501z" />
    <glyph glyph-name="Delta" unicode="&#x2206;" horiz-adv-x="1335" 
d="M1155 121l-487 1233l-490 -1233h977zM754 1473l592 -1473h-1358l594 1473h172z" />
    <glyph glyph-name="product" unicode="&#x220f;" horiz-adv-x="1491" 
d="M164 1473h1163v-1866h-135v1743h-893v-1743h-135v1866z" />
    <glyph glyph-name="summation" unicode="&#x2211;" horiz-adv-x="1290" 
d="M45 1473h1208v-123h-1038l721 -787l-760 -835h1077v-121h-1243v127l752 829l-717 787v123z" />
    <glyph glyph-name="minus" unicode="&#x2212;" horiz-adv-x="1706" 
d="M1452 651v-82h-1198v82h1198z" />
    <glyph glyph-name="fraction" unicode="&#x2215;" horiz-adv-x="342" 
d="M-342 -41l920 1473h104l-920 -1473h-104z" />
    <glyph glyph-name="periodcentered" unicode="&#x2219;" horiz-adv-x="545" 
d="M190 696c0 22.667 8 42 24 58s35.333 24 58 24s42 -8 58 -24s24 -35.333 24 -58c0 -22 -8 -41.167 -24 -57.5s-35.333 -24.5 -58 -24.5c-22 0 -41.167 8.16699 -57.5 24.5s-24.5 35.5 -24.5 57.5z" />
    <glyph glyph-name="radical" unicode="&#x221a;" horiz-adv-x="1264" 
d="M1264 1626v-61h-129l-596 -1606h-31l-330 907l-110 -39l-15 50l230 79l278 -759l531 1429h172z" />
    <glyph glyph-name="infinity" unicode="&#x221e;" horiz-adv-x="1706" 
d="M889 557c36 -68.667 77.667 -120 125 -154s101.333 -51 162 -51c71.333 0 130 26 176 78s69 118.333 69 199c0 79.333 -21.167 144.833 -63.5 196.5s-95.5 77.5 -159.5 77.5c-58 0 -110.5 -25.833 -157.5 -77.5s-97.5 -141.167 -151.5 -268.5zM819 670
c-34.667 68 -75.834 119.001 -123.501 153.001s-102.167 51 -163.5 51c-72 0 -130.833 -25.833 -176.5 -77.5s-68.5 -117.834 -68.5 -198.501c0 -78.667 21.167 -143.667 63.5 -195s95.5 -77 159.5 -77c58.667 0 111.334 25.333 158.001 76s97 140 151 268zM836 713.001
c44 92.667 92.666 161.499 145.999 206.499s112.333 67.5 177 67.5c86.667 0 159.834 -35.333 219.501 -106s89.5 -159 89.5 -265c0 -110 -26.667 -198.833 -80 -266.5s-123.333 -101.5 -210 -101.5c-62.667 0 -117.834 20.167 -165.501 60.5s-95.167 107.5 -142.5 201.5
c-47.333 -92.667 -96.833 -160.5 -148.5 -203.5s-109.167 -64.5 -172.5 -64.5c-86.667 0 -160.167 35.5 -220.5 106.5s-90.5 158.833 -90.5 263.5c0 110.667 26.667 199.834 80 267.501s123.333 101.5 210 101.5c65.333 0 122.833 -21.5 172.5 -64.5
s94.834 -110.833 135.501 -203.5z" />
    <glyph glyph-name="integral" unicode="&#x222b;" horiz-adv-x="948" 
d="M401 578c0 332 28.833 576.332 86.5 732.999s147.167 235 268.5 235c43.333 0 78.666 -11.667 105.999 -35s41 -53.333 41 -90c0 -30 -9.16699 -53.833 -27.5 -71.5s-43.166 -26.5 -74.499 -26.5c-51.333 0 -85.166 21.5 -101.499 64.5s-27.5 64.5 -33.5 64.5
c-44.667 0 -75.667 -53 -93 -159s-26 -335 -26 -687c0 -339.333 -28.5 -587 -85.5 -743s-146.5 -234 -268.5 -234c-42.667 0 -78 11.5 -106 34.5s-42 51.167 -42 84.5c0 32 9.5 57.833 28.5 77.5s44.5 29.5 76.5 29.5c22 0 40.667 -4.5 56 -13.5
s28.666 -23.167 39.999 -42.5c5.33301 -9.33301 9.5 -24.166 12.5 -44.499s11.167 -30.5 24.5 -30.5c44 0 74.667 55 92 165s26 339.667 26 689z" />
    <glyph glyph-name="approxequal" unicode="&#x2248;" horiz-adv-x="1706" 
d="M1530 485c-70.667 -49.333 -138 -86.167 -202 -110.5s-125.667 -36.5 -185 -36.5c-70.667 0 -169.167 23.5 -295.5 70.5s-220.5 70.5 -282.5 70.5c-55.333 0 -112.333 -11.833 -171 -35.5s-130.667 -65.167 -216 -124.5v93c70 48.667 137 85 201 109s126 36 186 36
c70.667 0 169.167 -23.167 295.5 -69.5s220.5 -69.5 282.5 -69.5c55.333 0 112.333 11.833 171 35.5s130.667 65.167 216 124.5v-93zM1530 808.999c-70 -48.667 -136.831 -85 -200.498 -109s-125.834 -36 -186.501 -36c-70.667 0 -169.167 23.167 -295.5 69.5
s-220.5 69.5 -282.5 69.5c-55.333 0 -112.333 -11.833 -171 -35.5s-130.667 -65.167 -216 -124.5v92c70.667 50 138 87.167 202 111.5s125.667 36.5 185 36.5c70.667 0 169.167 -23.667 295.5 -71s220.5 -71 282.5 -71c54 0 110.167 12 168.5 36s131.166 66 218.499 126v-94
z" />
    <glyph glyph-name="notequal" unicode="&#x2260;" horiz-adv-x="1706" 
d="M1280 1108l-217 -277h389v-79h-440l-219 -283h659v-82h-711l-254 -324l-61 48l215 276h-387v82h436l221 283h-657v79h709l254 326z" />
    <glyph glyph-name="lessequal" unicode="&#x2264;" horiz-adv-x="1706" 
d="M1442 129v-80h-1178v80h1178zM1442 1083l-1043 -350l1043 -352v-88l-1178 405v70l1178 403v-88z" />
    <glyph glyph-name="greaterequal" unicode="&#x2265;" horiz-adv-x="1706" 
d="M1442 129v-80h-1178v80h1178zM1442 768v-70l-1178 -405v88l1043 352l-1043 350v88z" />
    <glyph glyph-name="lozenge" unicode="&#x25ca;" horiz-adv-x="1012" 
d="M506 1409l-385 -817l385 -825l385 825zM506 1653l500 -1061l-500 -1069l-500 1069z" />
    <glyph glyph-name="apple" unicode="&#xf000;" horiz-adv-x="1618" 
d="M836 1216c-0.666992 4 -1.16699 8.66895 -1.5 14.002s-0.5 13 -0.5 23c0 82.667 31.667 159.167 95 229.5s142 114.166 236 131.499c0.666992 -6.66699 1.16699 -14.334 1.5 -23.001s0.5 -21.667 0.5 -39c0 -87.333 -34.5 -165.5 -103.5 -234.5
s-136.833 -103.5 -203.5 -103.5h-8c-2 0 -4.5 0.333008 -7.5 1s-5.83301 1 -8.5 1zM1505 403.002c-76 -164.667 -144.336 -278.834 -205.003 -342.501s-128.667 -95.5 -204 -95.5c-33.333 0 -77.166 11 -131.499 33s-95.166 33 -122.499 33c-30 0 -73.667 -11 -131 -33
s-99.666 -33 -126.999 -33c-42.667 0 -85.5 14.667 -128.5 44s-86.167 73.333 -129.5 132c-68 93.333 -120.5 191.833 -157.5 295.5s-55.5 203.834 -55.5 300.501c0 146 41.667 264.833 125 356.5s191 137.5 323 137.5c45.333 0 97 -11.333 155 -34s99.333 -34 124 -34
c22.667 0 63.167 11.667 121.5 35s109.166 35 152.499 35c73.333 0 139.333 -13.333 198 -40s112.334 -68 161.001 -124c-68 -43.333 -118.5 -91.833 -151.5 -145.5s-49.5 -114.5 -49.5 -182.5c0 -75.333 20 -142 60 -200s97.667 -104 173 -138z" />
    <glyph glyph-name="fi" unicode="&#xf001;" horiz-adv-x="936" 
d="M25 0l203.998 967h-166l23 96h164l35 162c22 103.333 50 172.833 84 208.5s83 53.5 147 53.5c16 0 33.667 -1.33301 53 -4s41.333 -7 66 -13l-21 -102c-19.333 4 -36.166 7 -50.499 9s-26.166 3 -35.499 3c-34.667 0 -60.667 -9.66699 -78 -29s-33 -62 -47 -128l-32 -160
h182l-18 -96h-185l-205 -967h-120zM773.998 1305l35 168h141l-35 -168h-141zM509.998 0l225 1063h121l-225 -1063h-121z" />
    <glyph glyph-name="fl" unicode="&#xf002;" horiz-adv-x="930" 
d="M25 0l203.998 967h-166l23 96h164l35 162c22 103.333 50 172.833 84 208.5s83 53.5 147 53.5c16 0 33.667 -1.33301 53 -4s41.333 -7 66 -13l-21 -102c-19.333 4 -36.166 7 -50.499 9s-26.166 3 -35.499 3c-34.667 0 -60.667 -9.66699 -78 -29s-33 -62 -47 -128l-32 -160
h182l-18 -96h-185l-205 -967h-120zM501.998 0l313 1473h121l-311 -1473h-123z" />
    <glyph glyph-name=".null" horiz-adv-x="0" 
 />
    <glyph glyph-name="nonmarkingreturn" horiz-adv-x="545" 
 />
    </font>
</defs>
</svg>
