<?xml version="1.0" standalone="no"?>
<!DOCTYPE svg PUBLIC "-//W3C//DTD SVG 1.1//EN" "http://www.w3.org/Graphics/SVG/1.1/DTD/svg11.dtd" >
<svg>
<metadata>
Created by FontForge 20090914 at Thu Feb 26 05:55:48 2015
 By www-data
Copyright 1990-1992 Bitstream Inc.  All rights reserved.
</metadata>
<defs>
<font id="Swiss721BT-ItalicCondensed" horiz-adv-x="1024" >
  <font-face 
    font-family="Swis721 Cn BT"
    font-weight="400"
    font-style="italic"
    font-stretch="condensed"
    units-per-em="2048"
    panose-1="2 11 5 6 2 2 2 10 2 4"
    ascent="1638"
    descent="-410"
    x-height="1147"
    cap-height="1540"
    bbox="-342 -483 2028 1972"
    underline-thickness="98"
    underline-position="-146"
    slope="-12"
    unicode-range="U+0020-U+F002"
  />
<missing-glyph horiz-adv-x="1229" 
d="M102 -362v1806h1024v-1806h-1024zM217 -248h795v1577h-795v-1577z" />
    <glyph glyph-name=".notdef" horiz-adv-x="1229" 
d="M102 -362v1806h1024v-1806h-1024zM217 -248h795v1577h-795v-1577z" />
    <glyph glyph-name="space" unicode=" " horiz-adv-x="510" 
 />
    <glyph glyph-name="exclam" unicode="!" horiz-adv-x="530" 
d="M47 201h191l-39 -201h-191zM137 385l107 709l100 446h188l-102 -465l-205 -690h-88z" />
    <glyph glyph-name="quotedbl" unicode="&#x22;" horiz-adv-x="614" 
d="M524 1436v-555h-139v555h139zM229 1436v-555h-139v555h139z" />
    <glyph glyph-name="numbersign" unicode="#" horiz-adv-x="1575" 
d="M969 858h-260l-93 -264h261zM924 1458l-162 -454h256l164 454h164l-160 -454h301l-51 -146h-303l-93 -262h322l-51 -147h-322l-162 -453h-165l161 453h-258l-162 -453h-165l159 453h-309l53 147h310l92 262h-330l51 146h332l162 454h166z" />
    <glyph glyph-name="dollar" unicode="$" horiz-adv-x="1020" 
d="M502 885l102 491.001h-4c-74 0 -134.5 -26.167 -181.5 -78.5s-70.5 -118.833 -70.5 -199.5c0 -54 11.667 -97.333 35 -130s63 -60.334 119 -83.001zM551 690.001l-115.002 -549.001h19c82.667 0 149.334 29.333 200.001 88s76 135.334 76 230.001
c0 59.333 -14.667 107.833 -44 145.5s-74.666 66.167 -135.999 85.5zM56.998 477l148 0.000976562v-53c0 -73.333 12 -132.333 36 -177s60.333 -75 109 -91l117 567c-96.667 38 -165.834 83.833 -207.501 137.5s-62.5 123.167 -62.5 208.5c0 136.667 38 244.834 114 324.501
s179.333 119.5 310 119.5h14l31 132h86l-31 -144c82.667 -22 145.334 -62.167 188.001 -120.5s64 -132.166 64 -221.499c0 -12 -0.166992 -20.833 -0.5 -26.5s-0.833008 -10.834 -1.5 -15.501l-146 -1v10c0 67.333 -10.333 119.166 -31 155.499s-54.667 63.166 -102 80.499
l-108 -514c114.667 -42 194.167 -90 238.5 -144s66.5 -129.667 66.5 -227c0 -146 -42 -262 -126 -348s-197.667 -129 -341 -129h-14l-43 -205h-91l45 217c-86.667 26 -152.667 72.667 -198 140s-68 153.333 -68 258c0 15.333 1.33301 36.333 4 63v4z" />
    <glyph glyph-name="percent" unicode="%" horiz-adv-x="1430" 
d="M1053 629c-50.667 0 -86.668 -19.834 -108.001 -59.501s-32 -110.167 -32 -211.5c0 -81.333 11.333 -140.833 34 -178.5s58 -56.5 106 -56.5s83.5 21.333 106.5 64s34.5 109.334 34.5 200.001c0 81.333 -11.667 142 -35 182s-58.666 60 -105.999 60zM773.999 382.999
c0 123.333 23 215.666 69 276.999s115.333 92 208 92c96.667 0 168.167 -30.167 214.5 -90.5s69.5 -153.166 69.5 -278.499c0 -124 -24 -218.833 -72 -284.5s-117.333 -98.5 -208 -98.5c-96.667 0 -167.667 31 -213 93s-68 158.667 -68 290zM372.999 1399
c-50.667 0 -86.168 -19.501 -106.501 -58.501s-30.5 -109.833 -30.5 -212.5c0 -82 10.833 -141.667 32.5 -179s56.5 -56 104.5 -56s83.5 21.333 106.5 64s34.5 109.334 34.5 200.001c0 81.333 -11.667 142 -35 182s-58.666 60 -105.999 60zM93.998 1153
c0 123.333 22.999 215.667 68.999 277s115.333 92 208 92c96 0 167.333 -30.167 214 -90.5s70 -152.5 70 -276.5c0 -124.667 -24.167 -220 -72.5 -286s-118.166 -99 -209.499 -99c-96 0 -166.5 30.833 -211.5 92.5s-67.5 158.5 -67.5 290.5zM304.997 -29.001l694 1579h117
l-692 -1579h-119z" />
    <glyph glyph-name="ampersand" unicode="&#x26;" horiz-adv-x="1178" 
d="M508 971c67.333 34 118.666 73.833 153.999 119.5s53 94.5 53 146.5c0 49.333 -12.333 88 -37 116s-59 42 -103 42c-43.333 0 -78.666 -15.833 -105.999 -47.5s-41 -72.5 -41 -122.5c0 -34 6.16699 -70.833 18.5 -110.5s32.833 -87.5 61.5 -143.5zM750 119
c-45.333 -49.333 -98.499 -87.332 -159.499 -113.999s-124.833 -40 -191.5 -40c-116 0 -211.167 39 -285.5 117s-111.5 179 -111.5 303c0 108 31.667 203.833 95 287.5s156.666 153.167 279.999 208.5c-37.333 61.333 -65.5 120.666 -84.5 177.999s-28.5 112 -28.5 164
c0 92 30.333 168.5 91 229.5s135.667 91.5 225 91.5c85.333 0 156.5 -27.333 213.5 -82s85.5 -124.334 85.5 -209.001c0 -86.667 -26.667 -165.167 -80 -235.5s-130.666 -128.833 -231.999 -175.5l232 -453c29.333 38.667 53.333 79.5 72 122.5s32.667 89.5 42 139.5h162
c-20.667 -81.333 -48.334 -155.666 -83.001 -222.999s-76.667 -128 -126 -182l125 -246h-182zM684.001 258.001l-250 500.001c-90 -48 -157.167 -101.5 -201.5 -160.5s-66.5 -124.5 -66.5 -196.5c0 -76.667 24 -140.834 72 -192.501s107.333 -77.5 178 -77.5
c48.667 0 95.5 10.667 140.5 32s87.5 53 127.5 95z" />
    <glyph glyph-name="quotesingle" unicode="'" horiz-adv-x="317" 
d="M229 1436v-555h-139v555h139z" />
    <glyph glyph-name="parenleft" unicode="(" horiz-adv-x="653" 
d="M459 -410h-105.001c-63.333 117.333 -111.166 241 -143.499 371s-48.5 262.333 -48.5 397c0 218 44 429.667 132 635s213.333 387.666 376 546.999h123c-148 -156.667 -262.167 -345.5 -342.5 -566.5s-120.5 -456.167 -120.5 -705.5c0 -122 11 -241.167 33 -357.5
s54 -223.166 96 -320.499z" />
    <glyph glyph-name="parenright" unicode=")" horiz-adv-x="653" 
d="M182 1540l105.001 -0.000976562c63.333 -117.333 111.166 -240.666 143.499 -369.999s48.5 -261.333 48.5 -396c0 -218 -44.167 -430 -132.5 -636s-213.5 -388.667 -375.5 -548h-125c148 157.333 262.167 346.5 342.5 567.5s120.5 455.833 120.5 704.5
c0 124 -10.833 244 -32.5 360s-53.167 222 -94.5 318z" />
    <glyph glyph-name="asterisk" unicode="*" 
d="M602 1057l-178 -260l-117 84l199 245l-293 80l43 137l283 -102v299h125v-299l280 98l49 -131l-297 -82l201 -245l-115 -84z" />
    <glyph glyph-name="plus" unicode="+" horiz-adv-x="1706" 
d="M924 1221v-541h528v-139h-528v-541h-142v541h-528v139h528v541h142z" />
    <glyph glyph-name="comma" unicode="," horiz-adv-x="510" 
d="M63 203h189l-53 -252c-14 -67.333 -42.167 -122.333 -84.5 -165s-94.833 -69 -157.5 -79l14 86c42.667 15.333 75.167 39.5 97.5 72.5s36.5 77.833 42.5 134.5h-91z" />
    <glyph glyph-name="hyphen" unicode="-" horiz-adv-x="674" 
d="M37 504l33 162h512l-43 -162h-502z" />
    <glyph glyph-name="period" unicode="." horiz-adv-x="510" 
d="M197 0h-191l43 205h193z" />
    <glyph glyph-name="slash" unicode="/" horiz-adv-x="569" 
d="M588 1577l-549 -1767h-111l547 1767h113z" />
    <glyph glyph-name="zero" unicode="0" horiz-adv-x="1020" 
d="M612 1393c-64 0 -116.832 -24.5 -158.499 -73.5s-78.834 -131.833 -111.501 -248.5c-38.667 -140.667 -68.834 -273.667 -90.501 -399s-32.5 -225.666 -32.5 -300.999c0 -86.667 16 -151.334 48 -194.001s80.333 -64 145 -64c56 0 104.167 21.833 144.5 65.5
s76.166 113.167 107.499 208.5c13.333 42.667 27.333 94.5 42 155.5s29.334 127.167 44.001 198.5c18.667 98.667 32.834 182.667 42.501 252s14.5 124 14.5 164c0 75.333 -17 133.5 -51 174.5s-82 61.5 -144 61.5zM49.001 373c0 67.333 5.50195 144.165 16.502 230.498
s27.5 178.833 49.5 277.5c16.667 78 34.167 146.667 52.5 206s38.166 112.666 59.499 159.999c45.333 96 101 168.833 167 218.5s140 74.5 222 74.5c114 0 201.667 -36.667 263 -110s92 -178.666 92 -315.999c0 -50.667 -4.5 -109.5 -13.5 -176.5
s-23.833 -150.167 -44.5 -249.5c-18.667 -92 -37.5 -171.667 -56.5 -239s-38.833 -125.666 -59.5 -174.999c-44 -101.333 -99.667 -178.166 -167 -230.499s-145 -78.5 -233 -78.5c-112.667 0 -198.834 35 -258.501 105s-89.5 171 -89.5 303z" />
    <glyph glyph-name="one" unicode="1" horiz-adv-x="1020" 
d="M504 0h-163.997l240 1202c-36 -12 -71.833 -21.167 -107.5 -27.5s-70.834 -9.5 -105.501 -9.5c-20 0 -39 0.5 -57 1.5s-36 2.83301 -54 5.5l25 116c105.333 5.33301 188.666 27 249.999 65s113.666 100.333 156.999 187h129z" />
    <glyph glyph-name="two" unicode="2" horiz-adv-x="1020" 
d="M805 0l-838.001 -0.00195312c2 138.667 42 263.667 120 375s193.667 213.666 347 306.999l142 86c79.333 48 139 102.333 179 163s60 128 60 202c0 84.667 -19.167 149.834 -57.5 195.501s-92.833 68.5 -163.5 68.5c-75.333 0 -134.166 -27.667 -176.499 -83
s-70.833 -141.666 -85.5 -258.999h-166c13.333 154 57.5 273.667 132.5 359s174.833 128 299.5 128c120.667 0 215.667 -35.333 285 -106s104 -167 104 -289c0 -114 -24 -210 -72 -288s-129 -151.333 -243 -220l-158 -94c-106 -63.333 -189.833 -129.166 -251.5 -197.499
s-96.5 -133.5 -104.5 -195.5h680z" />
    <glyph glyph-name="three" unicode="3" horiz-adv-x="1020" 
d="M39 477h160.001c-0.666992 -12.667 -1.16699 -24.667 -1.5 -36s-0.5 -22.333 -0.5 -33c0 -102.667 17.667 -177.167 53 -223.5s91.333 -69.5 168 -69.5c84.667 0 153.667 34.833 207 104.5s80 159.5 80 269.5c0 80.667 -26 141.834 -78 183.501s-128 62.5 -228 62.5h-6
l27 131h29c121.333 0 212 26.833 272 80.5s90 134.834 90 243.501c0 67.333 -16.167 118.333 -48.5 153s-80.5 52 -144.5 52c-61.333 0 -112.333 -21.5 -153 -64.5s-68.667 -104.833 -84 -185.5h-156c14.667 124 57.167 221.167 127.5 291.5s159.833 105.5 268.5 105.5
c111.333 0 199.166 -32.167 263.499 -96.5s96.5 -152.166 96.5 -263.499c0 -101.333 -27 -188.333 -81 -261s-125.333 -118.334 -214 -137.001c64.667 -36.667 112.167 -80.667 142.5 -132s45.5 -112.333 45.5 -183c0 -144.667 -42.333 -264.5 -127 -359.5
s-193 -142.5 -325 -142.5c-122 0 -218.333 35.833 -289 107.5s-106 169.167 -106 292.5c0 17.333 1 35.166 3 53.499s5 37.166 9 56.499z" />
    <glyph glyph-name="four" unicode="4" horiz-adv-x="1020" 
d="M602 545l158 751l-580 -751h422zM651 0h-159l75 401h-565l33 160l766 979h160l-199 -995h153l-30 -144h-154z" />
    <glyph glyph-name="five" unicode="5" horiz-adv-x="1020" 
d="M274 743l-141 -0.000976562l227 775h633l-32 -148h-494l-125 -432c30 22 62.5 38.5 97.5 49.5s72.167 16.5 111.5 16.5c104.667 0 187.167 -36.667 247.5 -110s90.5 -174 90.5 -302c0 -185.333 -45 -337.166 -135 -455.499s-205.333 -177.5 -346 -177.5
c-115.333 0 -206.666 33.167 -273.999 99.5s-101 156.166 -101 269.499c0 12.667 0.833008 26.5 2.5 41.5s4.16699 32.5 7.5 52.5h160c-0.666992 -7.33301 -1.33398 -17 -2.00098 -29c-1.33301 -23.333 -2 -39 -2 -47c0 -72 18.167 -128.833 54.5 -170.5
s85.5 -62.5 147.5 -62.5c92.667 0 169.167 46.167 229.5 138.5s90.5 207.833 90.5 346.5c0 84 -19.667 150.667 -59 200s-91.333 74 -156 74c-46 0 -91 -12.167 -135 -36.5s-76.333 -55.166 -97 -92.499z" />
    <glyph glyph-name="six" unicode="6" horiz-adv-x="1020" 
d="M520 852c-82 0 -149.169 -43.166 -201.502 -129.499s-78.5 -198.166 -78.5 -335.499c0 -88.667 16.833 -155.834 50.5 -201.501s82.834 -68.5 147.501 -68.5c46.667 0 86.334 10.5 119.001 31.5s62 54.833 88 101.5c24 43.333 43.333 93.666 58 150.999
s22 110.666 22 159.999c0 100.667 -16.5 174.334 -49.5 221.001s-84.833 70 -155.5 70zM294.998 844.001c38.667 48 80 83.5 124 106.5s92 34.5 144 34.5c102.667 0 184.667 -37.167 246 -111.5s92 -174.5 92 -300.5c0 -175.333 -44.167 -320.833 -132.5 -436.5
s-199.833 -173.5 -334.5 -173.5c-118.667 0 -208.667 40 -270 120s-92 197.667 -92 353c0 131.333 16.5 271.333 49.5 420s75.167 275 126.5 379c51.333 105.333 110.5 182.5 177.5 231.5s146.5 73.5 238.5 73.5c98.667 0 177.167 -30.667 235.5 -92s87.5 -144 87.5 -248
v-16v-3c-1.33301 -10.667 -2 -20 -2 -28l-154 1c-2 84 -17.5 146.167 -46.5 186.5s-72.833 60.5 -131.5 60.5c-83.333 0 -154.5 -46 -213.5 -138s-107.167 -231.667 -144.5 -419z" />
    <glyph glyph-name="seven" unicode="7" horiz-adv-x="1020" 
d="M377 0l-174 -0.000976562c34 241.333 108.5 478.666 223.5 711.999s264.167 450 447.5 650h-630l28 156h781l-23 -142c-176 -203.333 -320 -423.166 -432 -659.499s-185.667 -475.166 -221 -716.499z" />
    <glyph glyph-name="eight" unicode="8" horiz-adv-x="1020" 
d="M475 756c-73.333 0 -135.332 -37 -185.999 -111s-76 -166 -76 -276c0 -80.667 20 -143.5 60 -188.5s95.667 -67.5 167 -67.5c77.333 0 142.166 38.5 194.499 115.5s78.5 172.167 78.5 285.5c0 76.667 -20.833 136.167 -62.5 178.5s-100.167 63.5 -175.5 63.5z
M618.001 1401c-66 0 -120.333 -27.832 -163 -83.499s-64 -126.167 -64 -211.5c0 -68 17.167 -121.167 51.5 -159.5s81.5 -57.5 141.5 -57.5c66.667 0 121.167 28.667 163.5 86s63.5 131.666 63.5 222.999c0 63.333 -17.167 113 -51.5 149s-81.5 54 -141.5 54z
M365.001 854.001c-48.667 36.667 -83.499 76.002 -104.499 118.002s-31.5 94 -31.5 156c0 123.333 36.167 223.166 108.5 299.499s166.833 114.5 283.5 114.5c110 0 197.167 -32 261.5 -96s96.5 -151.333 96.5 -262c0 -102.667 -22.5 -186.334 -67.5 -251.001
s-111.833 -108.667 -200.5 -132c58 -25.333 102.167 -66 132.5 -122s45.5 -125.333 45.5 -208c0 -146.667 -42.5 -267.667 -127.5 -363s-193.5 -143 -325.5 -143c-125.333 0 -222.5 36.333 -291.5 109s-103.5 175 -103.5 307c0 123.333 30.167 229 90.5 317
s138.166 140 233.499 156z" />
    <glyph glyph-name="nine" unicode="9" horiz-adv-x="1020" 
d="M514 655c82 0 149.332 42.999 201.999 128.999s79 197.333 79 334c0 88.667 -17 156 -51 202s-83.333 69 -148 69c-47.333 0 -87.166 -10.333 -119.499 -31s-61.5 -54.334 -87.5 -101.001c-24 -43.333 -43.333 -93.666 -58 -150.999s-22 -110.666 -22 -159.999
c0 -100 16.5 -173.5 49.5 -220.5s84.833 -70.5 155.5 -70.5zM738.999 663.999c-39.333 -48.667 -80.833 -84.833 -124.5 -108.5s-91.5 -35.5 -143.5 -35.5c-102 0 -183.833 37.167 -245.5 111.5s-92.5 174.5 -92.5 300.5c0 176 44.333 321.667 133 437s200 173 334 173
c118.667 0 208.834 -40 270.501 -120s92.5 -197.667 92.5 -353c0 -131.333 -16.5 -270.833 -49.5 -418.5s-75.5 -273.834 -127.5 -378.501c-51.333 -105.333 -110.666 -182.833 -177.999 -232.5s-146.333 -74.5 -237 -74.5c-98.667 0 -177.334 31 -236.001 93
s-88 145 -88 249v17v2c1.33301 9.33301 2 18 2 26h154c2 -83.333 17.5 -145.166 46.5 -185.499s72.833 -60.5 131.5 -60.5c83.333 0 154.666 46 213.999 138s107.333 232 144 420z" />
    <glyph glyph-name="colon" unicode=":" horiz-adv-x="512" 
d="M379 922h-191l43 202h193zM205 0h-191l43 205h193z" />
    <glyph glyph-name="semicolon" unicode=";" horiz-adv-x="512" 
d="M377 922h-191l43 202h193zM57 203l191 0.000976562l-53 -252c-14 -67.333 -42.167 -122.333 -84.5 -165s-94.833 -69 -157.5 -79l14 86c42.667 15.333 75 39.666 97 72.999s36 78 42 134h-92z" />
    <glyph glyph-name="less" unicode="&#x3c;" horiz-adv-x="1706" 
d="M1442 1006l-969 -396l969 -393v-154l-1178 484v129l1178 483v-153z" />
    <glyph glyph-name="equal" unicode="=" horiz-adv-x="1706" 
d="M1452 481v-139h-1198v139h1198zM1452 879v-140h-1198v140h1198z" />
    <glyph glyph-name="greater" unicode="&#x3e;" horiz-adv-x="1706" 
d="M1442 676v-129l-1178 -484v154l971 393l-971 396v153z" />
    <glyph glyph-name="question" unicode="?" horiz-adv-x="1020" 
d="M410 0h-191l39 201h191zM457 391l-156.001 0.000976562c8 113.333 29.667 204.666 65 273.999s101 140.666 197 213.999l111 84c36 27.333 65.167 64.833 87.5 112.5s33.5 98.167 33.5 151.5c0 61.333 -18.167 110.5 -54.5 147.5s-84.5 55.5 -144.5 55.5
c-68 0 -122.5 -24.667 -163.5 -74s-62.833 -116.666 -65.5 -201.999l-168 -1c4.66699 126 43.834 227.833 117.501 305.5s167.5 116.5 281.5 116.5c116 0 207.833 -32.5 275.5 -97.5s101.5 -152.833 101.5 -263.5c0 -83.333 -20.333 -159.833 -61 -229.5
s-101.667 -131.5 -183 -185.5l-72 -49c-66 -44.667 -114 -93.5 -144 -146.5s-49.333 -123.833 -58 -212.5z" />
    <glyph glyph-name="at" unicode="@" horiz-adv-x="2048" 
d="M1284 854l56.9971 114.996h132l-146 -576c-2.66699 -10.667 -4.66699 -21 -6 -31s-2 -19.333 -2 -28c0 -30.667 8.5 -54 25.5 -70s41.833 -24 74.5 -24c32 0 66.167 8.83301 102.5 26.5s71.833 42.834 106.5 75.501c53.333 50.667 95 112.834 125 186.501
s45 151.5 45 233.5c0 172.667 -63.5 312.667 -190.5 420s-293.5 161 -499.5 161c-88.667 0 -170.667 -9.33301 -246 -28s-145.666 -47.334 -210.999 -86.001c-127.333 -76 -226 -175.833 -296 -299.5s-105 -260.167 -105 -409.5c0 -118 20.5 -220.667 61.5 -308
s105.167 -164 192.5 -230c66.667 -51.333 145.5 -90.833 236.5 -118.5s186.833 -41.5 287.5 -41.5c112.667 0 222.167 16.333 328.5 49s203.833 79.667 292.5 141l55 -82c-98.667 -74 -203.5 -129.667 -314.5 -167s-227.5 -56 -349.5 -56
c-126.667 0 -242.667 15.667 -348 47s-198.666 78 -279.999 140c-102.667 78.667 -179.334 170 -230.001 274s-76 222 -76 354c0 110 17.333 214.333 52 313s85 188.334 151 269.001c97.333 118.667 214.5 208.667 351.5 270s288.833 92 455.5 92c108.667 0 212 -15 310 -45
s182.333 -72.333 253 -127c86.667 -66.667 152.5 -143.667 197.5 -231s67.5 -181.666 67.5 -282.999c0 -116.667 -21.167 -221.667 -63.5 -315s-103.833 -172 -184.5 -236c-45.333 -36 -95.166 -63.667 -149.499 -83s-109.833 -29 -166.5 -29
c-66 0 -115.833 13.167 -149.5 39.5s-50.5 65.5 -50.5 117.5v19c-36.667 -59.333 -79.667 -103.166 -129 -131.499s-106.666 -42.5 -171.999 -42.5c-102 0 -179.833 28.333 -233.5 85s-80.5 139 -80.5 247c0 156.667 46 288 138 394s205 159 339 159
c56.667 0 105.167 -12.5 145.5 -37.5s72.5 -62.5 96.5 -112.5zM1190 474.996l58.999 236c-11.333 58.667 -34.166 104 -68.499 136s-77.5 48 -129.5 48c-92 0 -169.333 -43.333 -232 -130s-94 -193 -94 -319c0 -70 16.167 -124 48.5 -162s78.166 -57 137.499 -57
c64.667 0 122.834 23 174.501 69s86.5 105.667 104.5 179z" />
    <glyph glyph-name="A" unicode="A" horiz-adv-x="1053" 
d="M324 590h397l-23 831zM53 0h-184l739 1540h211l88 -1540h-166l-16 434h-473z" />
    <glyph glyph-name="B" unicode="B" horiz-adv-x="1143" 
d="M186 147h234.001c122 0 211.167 28.5 267.5 85.5s84.5 146.833 84.5 269.5c0 85.333 -24.333 145.5 -73 180.5s-144.334 52.5 -287.001 52.5h-103zM340.001 883l90.001 -0.000976562c173.333 0 291.166 22.667 353.499 68s93.5 123 93.5 233
c0 76.667 -19 131.334 -57 164.001s-102.333 49 -193 49h-181zM-19.998 -0.000976562l319 1540h342c143.333 0 248.833 -28.333 316.5 -85s101.5 -145 101.5 -265c0 -107.333 -27.333 -195.666 -82 -264.999s-131 -112.666 -229 -129.999
c68 -25.333 119.667 -65.5 155 -120.5s53 -122.167 53 -201.5c0 -152 -47.833 -268.833 -143.5 -350.5s-233.5 -122.5 -413.5 -122.5h-419z" />
    <glyph glyph-name="C" unicode="C" horiz-adv-x="1182" 
d="M850 508l158.002 0.00390625c-28.667 -171.333 -89 -305 -181 -401s-206 -144 -342 -144c-134.667 0 -236.834 41.333 -306.501 124s-104.5 204.667 -104.5 366c0 126 17.333 265.167 52 417.5s78.667 284.166 132 395.499c51.333 105.333 115 183.833 191 235.5
s166 77.5 270 77.5c124.667 0 220.667 -34.5 288 -103.5s101 -167.5 101 -295.5c0 -19.333 -0.833008 -40.833 -2.5 -64.5s-4.16699 -51.167 -7.5 -82.5h-164c2 23.333 3.5 45.166 4.5 65.499s1.5 39.166 1.5 56.499c0 93.333 -20 164.166 -60 212.499
s-98.333 72.5 -175 72.5c-71.333 0 -133 -23.667 -185 -71s-95 -118.666 -129 -213.999c-15.333 -42 -30.5 -91.833 -45.5 -149.5s-29.167 -119.834 -42.5 -186.501c-16 -77.333 -28.167 -151 -36.5 -221s-12.5 -130 -12.5 -180c0 -103.333 20.5 -181.5 61.5 -234.5
s101.833 -79.5 182.5 -79.5c84.667 0 158.167 35.667 220.5 107s106.166 170.333 131.499 297z" />
    <glyph glyph-name="D" unicode="D" horiz-adv-x="1210" 
d="M184 154l196.999 0.000976562c126.667 0 216.5 14.5 269.5 43.5s100.5 80.5 142.5 154.5c42.667 79.333 76.834 179.5 102.501 300.5s38.5 247.5 38.5 379.5c0 129.333 -26 220.666 -78 273.999s-141.333 80 -268 80h-146zM-23.001 0.000976562l322 1540h330
c168.667 0 292.667 -42 372 -126s119 -214.667 119 -392c0 -152.667 -20 -303.167 -60 -451.5s-91 -265.5 -153 -351.5c-58 -80 -124.5 -136.5 -199.5 -169.5s-192.167 -49.5 -351.5 -49.5h-379z" />
    <glyph glyph-name="E" unicode="E" horiz-adv-x="979" 
d="M-23 0l322 1540h674l-33 -151h-496l-106 -508h534l-32 -152h-533l-121 -573h586l-31 -156h-764z" />
    <glyph glyph-name="F" unicode="F" horiz-adv-x="909" 
d="M973 1540l-31 -156h-498l-106 -503h489l-30 -152h-490l-151 -729h-176l319 1540h674z" />
    <glyph glyph-name="G" unicode="G" horiz-adv-x="1204" 
d="M895 621h-332.001l29 145h504l-154 -766h-127l19 160c-31.333 -63.333 -75 -111.666 -131 -144.999s-122.333 -50 -199 -50c-134 0 -239.167 43.333 -315.5 130s-114.5 206.667 -114.5 360c0 54.667 4.66699 117.167 14 187.5s23 146.833 41 229.5
c18.667 83.333 38.667 157.166 60 221.499s44.333 121.166 69 170.499c53.333 106 118.5 185 195.5 237s166.833 78 269.5 78c125.333 0 221.833 -34.667 289.5 -104s101.5 -167.666 101.5 -294.999c0 -19.333 -0.833008 -40.833 -2.5 -64.5s-4.16699 -51.167 -7.5 -82.5
l-166 -1c0.666992 10 1.66699 23.667 3 41c3.33301 42 5 70 5 84c0 90.667 -20.667 159.834 -62 207.501s-101 71.5 -179 71.5c-70.667 0 -131 -22.833 -181 -68.5s-93 -116.5 -129 -212.5c-43.333 -120 -77.333 -245.333 -102 -376s-37 -251 -37 -361
c0 -102.667 22.833 -182 68.5 -238s110.167 -84 193.5 -84c103.333 0 188.833 46.667 256.5 140s107.834 221.666 120.501 384.999z" />
    <glyph glyph-name="H" unicode="H" horiz-adv-x="1190" 
d="M156 0h-176l319 1540h176l-131 -637h557l131 637h178l-321 -1540h-176l155 743h-557z" />
    <glyph glyph-name="I" unicode="I" horiz-adv-x="461" 
d="M160 0h-183l322 1540h180z" />
    <glyph glyph-name="J" unicode="J" horiz-adv-x="877" 
d="M641 322c-28 -134 -70.332 -227 -126.999 -279s-138.667 -78 -246 -78c-102.667 0 -180.167 26.167 -232.5 78.5s-78.5 129.833 -78.5 232.5c0 25.333 2 54.333 6 87s10.333 68.667 19 108h161c-6.66699 -42 -11.667 -79.667 -15 -113s-5 -61.333 -5 -84
c0 -54 12 -94 36 -120s61 -39 111 -39c56 0 99.167 17.5 129.5 52.5s58.166 114.5 83.499 238.5l236 1134h176z" />
    <glyph glyph-name="K" unicode="K" horiz-adv-x="1042" 
d="M328 840l647 700h227l-596 -622l307 -918h-182l-260 772l-203 -207l-114 -565h-177l320 1540h176z" />
    <glyph glyph-name="L" unicode="L" horiz-adv-x="885" 
d="M-20 0l319 1540h176l-289 -1384h598l-28 -156h-776z" />
    <glyph glyph-name="M" unicode="M" horiz-adv-x="1513" 
d="M152 0h-175l324 1540h268l72 -1309l612 1309h277l-313 -1540h-173l322 1454l-690 -1454h-160l-82 1452z" />
    <glyph glyph-name="N" unicode="N" horiz-adv-x="1190" 
d="M154 0h-177l322 1540h229l246 -1341l260 1341h176l-321 -1540h-234l-241 1356z" />
    <glyph glyph-name="O" unicode="O" horiz-adv-x="1223" 
d="M715 1430c-72.667 0 -135 -21.835 -187 -65.502s-95.667 -110.834 -131 -201.501c-16 -42.667 -31.833 -92 -47.5 -148s-30.5 -116.333 -44.5 -181c-19.333 -94 -33.333 -175 -42 -243s-13 -129.667 -13 -185c0 -93.333 23.5 -165.5 70.5 -216.5
s112.833 -76.5 197.5 -76.5c70 0 130.167 20.833 180.5 62.5s92.5 105.5 126.5 191.5c16 38.667 32 86.834 48 144.501s31.667 122.834 47 195.501c19.333 95.333 34.333 182.333 45 261s16 140.334 16 185.001c0 86.667 -23.5 154.5 -70.5 203.5s-112.167 73.5 -195.5 73.5
zM74 439.998c0 57.333 4.83203 122.333 14.499 195s23.834 151 42.501 235c18.667 81.333 38.667 154.666 60 219.999s44.333 123.333 69 174c52.667 104.667 117 183 193 235s164.667 78 266 78c140.667 0 247.834 -40.667 321.501 -122s110.5 -199.666 110.5 -354.999
c0 -57.333 -4.83301 -121.666 -14.5 -192.999s-23.834 -149 -42.501 -233c-18 -78 -37.833 -150.333 -59.5 -217s-44.167 -125.334 -67.5 -176.001c-51.333 -106 -115.5 -185.167 -192.5 -237.5s-167.167 -78.5 -270.5 -78.5c-140.667 0 -247.5 40.5 -320.5 121.5
s-109.5 198.833 -109.5 353.5z" />
    <glyph glyph-name="P" unicode="P" horiz-adv-x="1085" 
d="M326 809h157.001c166 0 278.167 25.833 336.5 77.5s87.5 141.834 87.5 270.501c0 87.333 -19.833 149.166 -59.5 185.499s-109.834 54.5 -210.501 54.5h-193zM156.001 0h-176.002l319 1540h348c152.667 0 262.834 -31 330.501 -93s101.5 -160.667 101.5 -296
c0 -166 -46.167 -288.667 -138.5 -368s-235.166 -119 -428.499 -119h-217z" />
    <glyph glyph-name="Q" unicode="Q" horiz-adv-x="1223" 
d="M623 389l146.998 -138.999c21.333 26.667 40.833 62 58.5 106s35.834 102.667 54.501 176c31.333 127.333 55.833 246.666 73.5 357.999s26.5 199 26.5 263c0 87.333 -23.667 155.333 -71 204s-113.666 73 -198.999 73c-72.667 0 -135 -21.833 -187 -65.5
s-95.667 -110.834 -131 -201.501c-15.333 -40 -30.5 -87.833 -45.5 -143.5s-29.833 -117.5 -44.5 -185.5c-18.667 -88 -32.5 -165.667 -41.5 -233s-13.5 -127.666 -13.5 -180.999c0 -100 22.167 -176.833 66.5 -230.5s107.5 -80.5 189.5 -80.5
c39.333 0 71.833 3.33301 97.5 10s46.5 17.667 62.5 33l-140 137zM779.998 45.001c-34 -28 -75.8301 -49.335 -125.497 -64.002s-104.834 -22 -165.501 -22c-130.667 0 -232.834 41.833 -306.501 125.5s-110.5 200.167 -110.5 349.5c0 56.667 4.83301 121.334 14.5 194.001
s24.5 152.667 44.5 240c19.333 88 39.166 164 59.499 228s42.166 120 65.499 168c52 104 116.5 182.167 193.5 234.5s166.833 78.5 269.5 78.5c140.667 0 247.834 -40.5 321.501 -121.5s110.5 -199.5 110.5 -355.5c0 -95.333 -11.167 -204.333 -33.5 -327
s-52.833 -241 -91.5 -355c-20 -59.333 -41.667 -111.666 -65 -156.999s-49.333 -85.333 -78 -120l133 -125l-103 -100z" />
    <glyph glyph-name="R" unicode="R" horiz-adv-x="1137" 
d="M332 844l162 0.000976562c179.333 0 299.833 24.167 361.5 72.5s92.5 133.166 92.5 254.499c0 82 -21 140.167 -63 174.5s-117.333 51.5 -226 51.5h-213zM-20 0.000976562l320.999 1540h365c159.333 0 274.5 -29.667 345.5 -89s106.5 -154.666 106.5 -285.999
c0 -116.667 -28.667 -210.334 -86 -281.001s-138.666 -112 -243.999 -124c55.333 -10.667 99.333 -37.834 132 -81.501s49 -97.167 49 -160.5c0 -18 -1.33301 -38.667 -4 -62s-7.66699 -55.333 -15 -96l-39 -210c0 -2.66699 -0.666992 -7.33398 -2 -14.001
c-2.66699 -14.667 -4 -26 -4 -34c0 -16 2.83301 -30.667 8.5 -44s15.167 -27.333 28.5 -42v-16h-199c-5.33301 15.333 -9.33301 30.833 -12 46.5s-4 32.834 -4 51.501c0 10 1 22.667 3 38s5 35 9 59l41 208c4 20.667 7.16699 40.834 9.5 60.501s3.5 37.167 3.5 52.5
c0 67.333 -19.667 114.5 -59 141.5s-113.333 40.5 -222 40.5h-211l-145 -698h-176z" />
    <glyph glyph-name="S" unicode="S" horiz-adv-x="1106" 
d="M35 471l163.999 -0.000976562v-25c0 -114.667 21.333 -198.5 64 -251.5s110 -79.5 202 -79.5c100 0 178.5 29.333 235.5 88s85.5 138.334 85.5 239.001c0 116.667 -87.667 210 -263 280l-68 28c-95.333 38 -163.333 84.333 -204 139s-61 125.667 -61 213
c0 142 42.5 256.333 127.5 343s196.833 130 335.5 130c124 0 222.667 -33.833 296 -101.5s110 -159.5 110 -275.5c0 -12.667 -0.166992 -22.167 -0.5 -28.5s-0.833008 -12.5 -1.5 -18.5h-164v20c0 80.667 -20.833 142.834 -62.5 186.501s-100.834 65.5 -177.501 65.5
c-87.333 0 -157.166 -27.167 -209.499 -81.5s-78.5 -125.5 -78.5 -213.5c0 -102.667 87 -190.334 261 -263.001c12.667 -6 22.334 -10.333 29.001 -13c128 -54.667 211.667 -109.5 251 -164.5s59 -129.833 59 -224.5c0 -149.333 -46.667 -270 -140 -362s-216 -138 -368 -138
c-134 0 -238.5 38.5 -313.5 115.5s-112.5 183.833 -112.5 320.5c0 15.333 1 37.333 3 66c0.666992 2.66699 1 4.66699 1 6z" />
    <glyph glyph-name="T" unicode="T" horiz-adv-x="834" 
d="M342 0h-176l289 1395h-373l29 145h870l-31 -145h-319z" />
    <glyph glyph-name="U" unicode="U" horiz-adv-x="1188" 
d="M262 496c-0.666992 -3.33301 -1.33398 -7.66699 -2.00098 -13c-13.333 -66 -20 -117.667 -20 -155c0 -72.667 23 -127 69 -163s115 -54 207 -54c78.667 0 138.834 21 180.501 63s73.834 116.333 96.501 223l243 1143h178l-235 -1118
c-34 -164.667 -88.333 -282.334 -163 -353.001s-179.334 -106 -314.001 -106c-140 0 -247 30.667 -321 92s-111 149.333 -111 264c0 26.667 2.83301 63.334 8.5 110.001s13.5 94.667 23.5 144l199 967h178z" />
    <glyph glyph-name="V" unicode="V" horiz-adv-x="1059" 
d="M434 0h-209l-92 1540h166l66 -1345l616 1345h190z" />
    <glyph glyph-name="W" unicode="W" horiz-adv-x="1630" 
d="M422 0h-199l-86 1540h170l45 -1329l475 1329h209l43 -1329l475 1329h177l-580 -1540h-207l-47 1305z" />
    <glyph glyph-name="X" unicode="X" horiz-adv-x="1004" 
d="M68 0h-199l530 807l-288 733h184l215 -567l369 567h194l-491 -749l311 -791h-188l-234 614z" />
    <glyph glyph-name="Y" unicode="Y" horiz-adv-x="938" 
d="M250 0l127 621l-334 919h188l250 -739l418 739h199l-539 -899l-135 -641h-174z" />
    <glyph glyph-name="Z" unicode="Z" horiz-adv-x="918" 
d="M780 0h-848l29 154l801 1241h-621l35 145h807l-27 -145l-794 -1241h655z" />
    <glyph glyph-name="bracketleft" unicode="[" horiz-adv-x="653" 
d="M319 -387h-333l409 1927h320l-17 -110h-166l-360 -1706h176z" />
    <glyph glyph-name="backslash" unicode="\" horiz-adv-x="569" 
d="M268 -190l-104 1767h110l103 -1767h-109z" />
    <glyph glyph-name="bracketright" unicode="]" horiz-adv-x="653" 
d="M260 1540h334l-410 -1927h-319l16 113h166l361 1706h-177z" />
    <glyph glyph-name="asciicircum" unicode="^" horiz-adv-x="2048" 
d="M1116 1458l510 -557h-180l-422 420l-424 -420h-180l510 557h186z" />
    <glyph glyph-name="underscore" unicode="_" 
d="M1024 -340v-143h-1024v143h1024z" />
    <glyph glyph-name="grave" unicode="`" 
d="M766 1272h-98l-299 260h194z" />
    <glyph glyph-name="a" unicode="a" horiz-adv-x="909" 
d="M578 586c-19.333 -9.33301 -39.332 -17.668 -59.999 -25.001s-45.334 -14 -74.001 -20l-92 -21c-75.333 -16 -130 -44.667 -164 -86s-51 -98.666 -51 -171.999c0 -49.333 13 -88.333 39 -117s61.667 -43 107 -43c71.333 0 127.333 26.333 168 79s76 152 106 298z
M522.001 140.998c-40 -62.667 -80.835 -106.998 -122.502 -132.998s-91.5 -39 -149.5 -39c-86 0 -153 26.5 -201 79.5s-72 127.5 -72 223.5c0 104 25.333 185.167 76 243.5s134 100.833 250 127.5l191 45c52.667 12.667 89.667 37.5 111 74.5s32 92.167 32 165.5
c0 35.333 -14.5 64 -43.5 86s-68.5 33 -118.5 33c-61.333 0 -107.166 -15.833 -137.499 -47.5s-47.166 -81.5 -50.499 -149.5h-152c6.66699 105.333 40 186.333 100 243s142.667 85 248 85c103.333 0 181.5 -21.667 234.5 -65s79.5 -107 79.5 -191
c0 -18.667 -1.66699 -39.334 -5 -62.001s-9.33301 -53.334 -18 -92.001l-104 -522c-4 -20 -6.83301 -36 -8.5 -48s-2.5 -22 -2.5 -30c0 -22 7.16699 -37.333 21.5 -46s40.833 -13 79.5 -13l-19 -109c-12.667 -6.66699 -25.5 -11.334 -38.5 -14.001s-28.167 -4 -45.5 -4
c-46.667 0 -81.5 9.83301 -104.5 29.5s-34.5 49.834 -34.5 90.501c0 5.33301 1 15 3 29c0.666992 4.66699 1 8 1 10z" />
    <glyph glyph-name="b" unicode="b" horiz-adv-x="997" 
d="M549 1042c-42.667 0 -82.498 -15.668 -119.498 -47.001s-69.5 -77 -97.5 -137c-32 -67.333 -59.167 -151.333 -81.5 -252s-33.5 -188 -33.5 -262c0 -72 14.167 -127.833 42.5 -167.5s68.166 -59.5 119.499 -59.5c55.333 0 103.333 18.833 144 56.5s76 95.834 106 174.501
c26 68 47.167 145.667 63.5 233s24.5 165.333 24.5 234c0 72 -14.833 127.833 -44.5 167.5s-70.834 59.5 -123.501 59.5zM117.002 -0.000976562h-153.998l328 1536h166l-103 -489c34 40.667 72 72 114 94s86 33 132 33c90 0 160 -33.667 210 -101s75 -162.333 75 -285
c0 -100 -14 -206.5 -42 -319.5s-63.333 -206.5 -106 -280.5c-40.667 -70.667 -88.334 -124.167 -143.001 -160.5s-115.334 -54.5 -182.001 -54.5c-65.333 0 -120.5 17.5 -165.5 52.5s-75.167 83.833 -90.5 146.5z" />
    <glyph glyph-name="c" unicode="c" horiz-adv-x="938" 
d="M780 393c-8.66699 -134.667 -48.165 -239.999 -118.498 -315.999s-163.166 -114 -278.499 -114c-114 0 -199.833 32.667 -257.5 98s-86.5 162.333 -86.5 291c0 92.667 10.833 190.667 32.5 294s50.5 194.666 86.5 273.999c40 90.667 89.667 157.334 149 200.001
s131.666 64 216.999 64c108.667 0 190.834 -31 246.501 -93s83.5 -154 83.5 -276c0 -13.333 -0.166992 -23.5 -0.5 -30.5s-0.833008 -13.833 -1.5 -20.5h-156v67c0 68 -15 119.5 -45 154.5s-74.333 52.5 -133 52.5c-51.333 0 -94.333 -14.833 -129 -44.5
s-64 -76.834 -88 -141.501c-28.667 -78 -51.834 -163.833 -69.501 -257.5s-26.5 -174.5 -26.5 -242.5c0 -80.667 16.167 -141 48.5 -181s80.833 -60 145.5 -60c67.333 0 119.666 23 156.999 69s61.666 117 72.999 213h151z" />
    <glyph glyph-name="d" unicode="d" horiz-adv-x="991" 
d="M367 111c54 0 101.166 18.667 141.499 56s74.833 95 103.5 173c24.667 66 44.834 142.333 60.501 229s23.5 164 23.5 232c0 76 -15.667 134.167 -47 174.5s-76.333 60.5 -135 60.5c-46.667 0 -88.5 -16.667 -125.5 -50s-68.833 -83.333 -95.5 -150
s-49 -146.167 -67 -238.5s-27 -172.833 -27 -241.5c0 -78.667 14.5 -139.167 43.5 -181.5s70.5 -63.5 124.5 -63.5zM577.999 115c-31.333 -44.667 -69.666 -79.5 -114.999 -104.5s-93.333 -37.5 -144 -37.5c-90.667 0 -161 34.667 -211 104s-75 167.333 -75 294
c0 104 13.167 211 39.5 321s60.166 201 101.499 273c40 67.333 88.667 119 146 155s120 54 188 54c58 0 108 -16 150 -48s74.667 -79 98 -141l116 551h158l-325 -1536h-154z" />
    <glyph glyph-name="e" unicode="e" horiz-adv-x="938" 
d="M252 696h413.999c4 30 7 57.333 9 82s3 46.667 3 66c0 66.667 -14.333 117.167 -43 151.5s-71 51.5 -127 51.5c-63.333 0 -115.666 -28 -156.999 -84s-74.333 -145 -99 -267zM759.999 377c-20 -130 -64.832 -231.833 -134.499 -305.5s-155.167 -110.5 -256.5 -110.5
c-107.333 0 -189.833 34.5 -247.5 103.5s-86.5 167.5 -86.5 295.5c0 90.667 11.333 189.667 34 297s51 197 85 269c38.667 84 88.167 147.667 148.5 191s130.833 65 211.5 65c106.667 0 186.167 -29.833 238.5 -89.5s78.5 -150.167 78.5 -271.5
c0 -36 -2.66699 -76.167 -8 -120.5s-13.333 -91.5 -24 -141.5h-574c-8.66699 -46.667 -14.834 -86 -18.501 -118s-5.5 -61 -5.5 -87c0 -80.667 14.833 -141 44.5 -181s74.167 -60 133.5 -60s108.333 22 147 66s66.667 110 84 198h150z" />
    <glyph glyph-name="f" unicode="f" horiz-adv-x="522" 
d="M-10 0l219.001 1024h-135l26 123h136l47 199c19.333 79.333 44.666 133.5 75.999 162.5s76.333 43.5 135 43.5c16 0 35.667 -1.33301 59 -4s52 -6.66699 86 -12l-29 -131c-4 0 -10 0.333008 -18 1c-24 2 -40.333 3 -49 3c-34.667 0 -60.167 -8.66699 -76.5 -26
s-29.833 -50.333 -40.5 -99l-29 -137h158l-25 -123h-159l-221 -1024h-160z" />
    <glyph glyph-name="g" unicode="g" horiz-adv-x="1006" 
d="M803 1147l153.002 0.000976562l-235 -1110c-36.667 -172.667 -85.834 -289.667 -147.501 -351s-153.834 -92 -276.501 -92c-104 0 -183.333 24.833 -238 74.5s-82 121.834 -82 216.501v21h158v-17c0 -52.667 14.5 -93 43.5 -121s71.167 -42 126.5 -42
c74.667 0 131.834 27.667 171.501 83s70.5 153.666 92.5 294.999c-34 -41.333 -72 -72.833 -114 -94.5s-86.333 -32.5 -133 -32.5c-89.333 0 -158.833 34 -208.5 102s-74.5 163.333 -74.5 286c0 102.667 14 210 42 322s63 204.667 105 278c42 71.333 90.167 125 144.5 161
s114.833 54 181.5 54c64.667 0 119.667 -17.833 165 -53.5s75.666 -84.834 90.999 -147.501zM375.002 109.001c42 0 81.501 15.833 118.501 47.5s69.833 77.834 98.5 138.501c31.333 67.333 58.333 151 81 251s34 187 34 261c0 72 -14.5 127.833 -43.5 167.5
s-69.167 59.5 -120.5 59.5c-54.667 0 -101.834 -18.5 -141.501 -55.5s-75.167 -95.5 -106.5 -175.5c-26.667 -69.333 -48 -147 -64 -233s-24 -164.667 -24 -236c0 -70.667 15 -125.834 45 -165.501s71 -59.5 123 -59.5z" />
    <glyph glyph-name="h" unicode="h" horiz-adv-x="969" 
d="M127 0h-163.999l328 1536h162l-107 -506c44.667 46.667 92.5 81.834 143.5 105.501s103.5 35.5 157.5 35.5c76 0 134.667 -17.833 176 -53.5s62 -86.5 62 -152.5c0 -22 -1.16699 -43.333 -3.5 -64s-6.16602 -42 -11.499 -64l-180 -837h-162l177 830
c6 30 10.167 52.667 12.5 68s3.5 26.666 3.5 33.999c0 34.667 -11.833 62.5 -35.5 83.5s-55.5 31.5 -95.5 31.5c-52.667 0 -103.834 -16.833 -153.501 -50.5s-92.834 -80.5 -129.501 -140.5z" />
    <glyph glyph-name="i" unicode="i" horiz-adv-x="418" 
d="M254 1352l41 198h166l-43 -198h-164zM131 0h-166l244 1147h166z" />
    <glyph glyph-name="j" unicode="j" horiz-adv-x="422" 
d="M262 1352l43 198h164l-41 -198h-166zM115 -111c-25.333 -116.667 -54.833 -195 -88.5 -235s-80.834 -60 -141.501 -60c-16.667 0 -33.167 0.5 -49.5 1.5s-33.166 3.16699 -50.499 6.5l27 130h34c47.333 0 79.333 38.333 96 115l1 3l276 1297h164z" />
    <glyph glyph-name="k" unicode="k" horiz-adv-x="854" 
d="M-33 0l320 1536h166l-197 -903l473 514h201l-430 -440l221 -707h-170l-174 588l-164 -168l-86 -420h-160z" />
    <glyph glyph-name="l" unicode="l" horiz-adv-x="418" 
d="M-33 0l326 1536h164l-326 -1536h-164z" />
    <glyph glyph-name="m" unicode="m" horiz-adv-x="1532" 
d="M123 0l-162.001 -0.000976562l244 1147h153l-28 -131c47.333 51.333 97.5 90 150.5 116s107.833 39 164.5 39c68.667 0 122.5 -13.833 161.5 -41.5s63.167 -69.5 72.5 -125.5c57.333 58.667 112.333 101.167 165 127.5s108 39.5 166 39.5c76 0 134.333 -17.833 175 -53.5
s61 -86.5 61 -152.5c0 -22 -1.16699 -43.333 -3.5 -64s-5.83301 -41.667 -10.5 -63l-179 -838h-161l176 830c4.66699 22.667 8.16699 42.834 10.5 60.501s3.5 31.5 3.5 41.5c0 34.667 -11.667 62.5 -35 83.5s-54.666 31.5 -93.999 31.5
c-52.667 0 -103.834 -16.833 -153.501 -50.5s-92.834 -80.5 -129.501 -140.5l-182 -856h-162l176 829c4.66699 22.667 8.33398 43 11.001 61s4 32 4 42c0 34.667 -11.667 62.5 -35 83.5s-54.666 31.5 -93.999 31.5c-54.667 0 -107.5 -18.167 -158.5 -54.5
s-92.5 -81.833 -124.5 -136.5z" />
    <glyph glyph-name="n" unicode="n" horiz-adv-x="967" 
d="M123 0l-162.002 -0.000976562l244 1147h153l-28 -131c47.333 51.333 97.5 90 150.5 116s107.833 39 164.5 39c76 0 134.667 -17.833 176 -53.5s62 -86.5 62 -152.5c0 -19.333 -1.33301 -39.166 -4 -59.499s-7 -42.833 -13 -67.5l-178 -838h-162l176 829
c4.66699 22.667 8.33398 43 11.001 61s4 32 4 42c0 34.667 -11.667 62.5 -35 83.5s-54.666 31.5 -93.999 31.5c-54.667 0 -107.5 -18.167 -158.5 -54.5s-92.5 -81.833 -124.5 -136.5z" />
    <glyph glyph-name="o" unicode="o" horiz-adv-x="997" 
d="M520 1038c-48 0 -89.667 -14.999 -125 -44.999s-66 -77 -92 -141c-31.333 -78 -56.833 -163.667 -76.5 -257s-29.5 -175 -29.5 -245c0 -78.667 16.5 -138.167 49.5 -178.5s81.833 -60.5 146.5 -60.5c58 0 105.833 17.167 143.5 51.5s69.167 89.5 94.5 165.5
c28 86.667 50.333 174.167 67 262.5s25 161.166 25 218.499c0 74 -17.5 130.667 -52.5 170s-85.167 59 -150.5 59zM31 354.001c0 92 11.334 189.833 34.001 293.5s53 195.167 91 274.5c41.333 87.333 92 152.833 152 196.5s130 65.5 210 65.5
c120.667 0 212.667 -33.167 276 -99.5s95 -162.166 95 -287.499c0 -96.667 -12.833 -201.5 -38.5 -314.5s-57.167 -206.167 -94.5 -279.5c-40.667 -80.667 -91.834 -140.834 -153.501 -180.501s-134.167 -59.5 -217.5 -59.5c-118 0 -206.5 32.5 -265.5 97.5
s-88.5 162.833 -88.5 293.5z" />
    <glyph glyph-name="p" unicode="p" horiz-adv-x="997" 
d="M549 1040c-55.333 0 -102.999 -19.001 -142.999 -57.001s-73.667 -96 -101 -174c-26 -77.333 -47.167 -160 -63.5 -248s-24.5 -159.667 -24.5 -215c0 -73.333 15.833 -129.833 47.5 -169.5s76.5 -59.5 134.5 -59.5c48 0 90.167 16.333 126.5 49
s68.166 82.334 95.499 149.001c26.667 68.667 49 149.5 67 242.5s27 177.5 27 253.5c0 72.667 -14.5 129 -43.5 169s-69.833 60 -122.5 60zM338.001 1036c31.333 45.333 69.667 80.667 115 106s93 38 143 38c91.333 0 162 -35.167 212 -105.5s75 -170.5 75 -300.5
c0 -232.667 -44.5 -423.667 -133.5 -573s-202.833 -224 -341.5 -224c-58.667 0 -109.5 16.167 -152.5 48.5s-74.167 77.833 -93.5 136.5l-117 -551h-162l328 1536h154z" />
    <glyph glyph-name="q" unicode="q" horiz-adv-x="997" 
d="M803 1147l153.001 0.000976562l-325 -1536h-166l104 493c-34 -40.667 -72.333 -72 -115 -94s-87.667 -33 -135 -33c-89.333 0 -158 32.833 -206 98.5s-72 159.834 -72 282.501c0 107.333 13.5 216.666 40.5 327.999s61.833 204.333 104.5 279
c41.333 70.667 89.5 124.167 144.5 160.5s115.5 54.5 181.5 54.5c64.667 0 119.667 -17.833 165 -53.5s75.666 -84.834 90.999 -147.501zM371.001 109.001c42 0 81.502 15.833 118.502 47.5s69.833 77.834 98.5 138.501c31.333 67.333 58.166 151 80.499 251
s33.5 187 33.5 261c0 72 -14.333 127.833 -43 167.5s-68.667 59.5 -120 59.5c-54.667 0 -101.834 -18.5 -141.501 -55.5s-75.167 -95.5 -106.5 -175.5c-26.667 -69.333 -48 -147 -64 -233s-24 -164.667 -24 -236c0 -70.667 15 -125.834 45 -165.501s71 -59.5 123 -59.5z" />
    <glyph glyph-name="r" unicode="r" horiz-adv-x="616" 
d="M-35 0l243.999 1147h149l-41 -184c36.667 66 82 117.167 136 153.5s111.333 54.5 172 54.5c10 0 20.167 -0.666992 30.5 -2s20.5 -3.33301 30.5 -6l-31 -165c-12 3.33301 -22.667 5.83301 -32 7.5s-18.333 2.5 -27 2.5c-81.333 0 -150.166 -30 -206.499 -90
s-96.833 -147 -121.5 -261l-139 -657h-164z" />
    <glyph glyph-name="s" unicode="s" horiz-adv-x="901" 
d="M-4 340l155.998 0.000976562c0 -4 -0.333008 -10.167 -1 -18.5s-1 -14.5 -1 -18.5c0 -66 16.167 -115.333 48.5 -148s81.5 -49 147.5 -49c63.333 0 114 19.5 152 58.5s57 90.5 57 154.5c0 50 -10.167 89 -30.5 117s-60.833 54.667 -121.5 80
c-119.333 52.667 -196.166 101 -230.499 145s-51.5 102.333 -51.5 175c0 107.333 31 192.166 93 254.499s146.333 93.5 253 93.5c100 0 180 -25 240 -75s90 -116 90 -198c0 -10.667 -1.33301 -29 -4 -55v-6h-146v6c0 62.667 -15.333 110.167 -46 142.5s-76 48.5 -136 48.5
c-56 0 -100.333 -17.333 -133 -52s-49 -81 -49 -139c0 -70.667 59.333 -132.667 178 -186l67 -31c70 -32.667 120 -71.667 150 -117s45 -103.333 45 -174c0 -119.333 -35.167 -214 -105.5 -284s-164.166 -105 -281.499 -105c-106.667 0 -190.667 27.5 -252 82.5
s-92 129.833 -92 224.5c0 2.66699 0.5 12.5 1.5 29.5s1.83301 31.833 2.5 44.5z" />
    <glyph glyph-name="t" unicode="t" horiz-adv-x="530" 
d="M205 254c-2.66699 -13.333 -4.66699 -25.6689 -6 -37.002s-2 -19.333 -2 -24c0 -26.667 6.16699 -46.334 18.5 -59.001s31.833 -19 58.5 -19c14 0 36 2 66 6c14 2 24 3.33301 30 4l-30 -143c-15.333 -4.66699 -31.166 -8 -47.499 -10s-34.5 -3 -54.5 -3
c-69.333 0 -121.833 14.833 -157.5 44.5s-53.5 72.834 -53.5 129.501c0 22.667 5 58.334 15 107.001c3.33301 14.667 5.66602 25.334 6.99902 32.001l160 742h-135l26 123h136l65 305h162l-66 -305h174l-26 -123h-174z" />
    <glyph glyph-name="u" unicode="u" horiz-adv-x="967" 
d="M186 315c-4.66699 -23.333 -8.16504 -43.5 -10.498 -60.5s-3.5 -30.167 -3.5 -39.5c0 -34.667 11.667 -62.5 35 -83.5s54.666 -31.5 93.999 -31.5c52.667 0 104 16.5 154 49.5s93 79.5 129 139.5l182 858h162l-244 -1147h-154l29 129c-48 -52 -98 -91 -150 -117
s-106.333 -39 -163 -39c-76 0 -134.667 18 -176 54s-62 87 -62 153c0 22 1.16699 43.333 3.5 64s6.16602 42 11.499 64l178 839h161z" />
    <glyph glyph-name="v" unicode="v" horiz-adv-x="829" 
d="M332 0h-170l-78 1147h160l41 -957l411 957h181z" />
    <glyph glyph-name="w" unicode="w" horiz-adv-x="1296" 
d="M301 0h-172l-39 1147h156l8 -940l367 940h170v-940l380 940h172l-512 -1147h-167l6 938z" />
    <glyph glyph-name="x" unicode="x" horiz-adv-x="803" 
d="M336 449l-293 -449h-186l407 606l-170 541h168l123 -402l272 402h189l-395 -561l194 -586h-166z" />
    <glyph glyph-name="y" unicode="y" horiz-adv-x="834" 
d="M328 -49c-66 -142 -124.499 -237.333 -175.499 -286s-112.833 -73 -185.5 -73c-16.667 0 -34 1.66699 -52 5s-37.333 8.66602 -58 15.999l35 127c10 -5.33301 20 -8.66602 30 -9.99902s21.667 -2 35 -2c29.333 0 54.666 7.33301 75.999 22s40.333 38 57 70l80 155
l-84 1172h162l55 -926l397 926h181z" />
    <glyph glyph-name="z" unicode="z" horiz-adv-x="795" 
d="M582 0h-697l29 141l680 867h-467l37 139h657l-28 -131l-678 -869h497z" />
    <glyph glyph-name="braceleft" unicode="{" 
d="M866 1327l-40.998 -0.00292969c-80 0 -133.667 -14.833 -161 -44.5s-41 -91.167 -41 -184.5v-242c0 -106.667 -14.833 -182.667 -44.5 -228s-81.834 -78 -156.501 -98c75.333 -18.667 127.666 -50.667 156.999 -96s44 -121.666 44 -228.999v-242
c0 -94 13.833 -155.667 41.5 -185s81.834 -44 162.501 -44h39v-148h-43c-72 0 -128.333 3.83301 -169 11.5s-75 20.167 -103 37.5c-36.667 22.667 -62.5 55 -77.5 97s-22.5 112.333 -22.5 211v245c0 99.333 -18.167 169.333 -54.5 210s-98.166 61 -185.499 61
c-4.66699 0 -11.834 -0.333008 -21.501 -1s-16.834 -1 -21.501 -1v149c5.33301 0 13 -0.333008 23 -1s17.333 -1 22 -1c86.667 0 148 20.167 184 60.5s54 109.5 54 207.5v246c0 98.667 7.5 168.834 22.5 210.501s40.833 73.834 77.5 96.501c30 18.667 66.167 32 108.5 40
s98.833 12 169.5 12h37v-150z" />
    <glyph glyph-name="bar" unicode="|" 
d="M588 1565v-2048h-150v2048h150z" />
    <glyph glyph-name="braceright" unicode="}" 
d="M575 1118l-0.000976562 -245.997c0 -98 18 -167.167 54 -207.5s97.333 -60.5 184 -60.5c4.66699 0 12 0.333008 22 1s17.667 1 23 1v-149c-4.66699 0 -12 0.333008 -22 1s-17 1 -21 1c-88 0 -150 -20.167 -186 -60.5s-54 -110.5 -54 -210.5v-245
c0 -98.667 -7.5 -169 -22.5 -211s-40.833 -74.333 -77.5 -97c-28 -17.333 -62.333 -29.833 -103 -37.5s-97 -11.5 -169 -11.5h-43v148h39c80 0 134 15 162 45s42 92 42 186v240c0 106.667 14.833 182.667 44.5 228s81.834 77.666 156.501 96.999
c-74.667 20 -126.834 52.667 -156.501 98s-44.5 121.333 -44.5 228v242c0 93.333 -14 154.833 -42 184.5s-82 44.5 -162 44.5h-39v150h37c71.333 0 128.333 -4.16699 171 -12.5s78.334 -21.5 107.001 -39.5c36.667 -22.667 62.5 -54.834 77.5 -96.501
s22.5 -111.834 22.5 -210.501z" />
    <glyph glyph-name="asciitilde" unicode="~" horiz-adv-x="1706" 
d="M1530 614c-69.333 -48 -135.669 -83.501 -199.002 -106.501s-126.666 -34.5 -189.999 -34.5c-62 0 -147.333 19.333 -256 58c-14.667 5.33301 -26 9.33301 -34 12c-3.33301 1.33301 -8.33301 3 -15 5c-117.333 40 -208.333 60 -273 60c-56 0 -114.333 -12.333 -175 -37
s-130.667 -64.667 -210 -120v155c70.667 48 138 84 202 108s125.667 36 185 36c41.333 0 83.833 -4.5 127.5 -13.5s98.167 -25.167 163.5 -48.5c10.667 -3.33301 26.334 -9 47.001 -17c106 -38 186 -57 240 -57c58.667 0 118.5 12.333 179.5 37
s130.167 64.334 207.5 119.001v-156z" />
    <glyph glyph-name="nonbreakingspace" unicode="&#xa0;" horiz-adv-x="1020" 
 />
    <glyph glyph-name="exclamdown" unicode="&#xa1;" horiz-adv-x="530" 
d="M406 1155l-107 -709l-100 -446h-191l105 467l204 688h89zM496 1341h-193l41 199h188z" />
    <glyph glyph-name="cent" unicode="&#xa2;" horiz-adv-x="1020" 
d="M825 426c-8.66699 -139.333 -48.167 -246.168 -118.5 -320.501s-166.5 -111.5 -288.5 -111.5l-56 -264h-114l57 278c-75.333 21.333 -131.333 62.833 -168 124.5s-55 145.834 -55 252.501c0 122 16.833 247 50.5 375s74.167 227 121.5 297
c38 55.333 82 96.166 132 122.499s109 40.166 177 41.499l45 209h115l-45 -222c71.333 -18.667 126 -58.334 164 -119.001s57 -139 57 -235c0 -14.667 -0.166992 -26 -0.5 -34s-0.833008 -15 -1.5 -21h-154c0 4.66699 0.333008 11.334 1 20.001s1 15 1 19
c0 78.667 -15.333 137.834 -46 177.501s-76.667 59.5 -138 59.5c-52 0 -95.5 -15.167 -130.5 -45.5s-64.5 -77.833 -88.5 -142.5c-28 -77.333 -50.667 -162.666 -68 -255.999s-26 -175.333 -26 -246c0 -81.333 16 -142 48 -182s80.667 -60 146 -60
c68 0 120.833 22.833 158.5 68.5s62.167 117.167 73.5 214.5h151z" />
    <glyph glyph-name="sterling" unicode="&#xa3;" horiz-adv-x="1020" 
d="M102 -35l-41.0039 170.002c64 38 115.5 100 154.5 186s58.5 179.667 58.5 281c0 12 -0.333008 23.667 -1 35s-2.33398 25 -5.00098 41h-166l23 102h131c-11.333 66 -19.666 122.167 -24.999 168.5s-8 86.5 -8 120.5c0 143.333 36.833 257.666 110.5 342.999
s171.5 128 293.5 128c110.667 0 198.667 -31.167 264 -93.5s98 -146.5 98 -252.5c0 -19.333 -1.33301 -41.333 -4 -66s-6.66699 -53.334 -12 -86.001h-164c4.66699 38.667 7.83398 68.667 9.50098 90s2.5 40.666 2.5 57.999c0 68 -17.833 120.5 -53.5 157.5
s-86.167 55.5 -151.5 55.5c-74 0 -129.667 -28.333 -167 -85s-56 -141 -56 -253c0 -31.333 2.33301 -69 7 -113s12.667 -101.333 24 -172h326l-25 -102l-297 -1c0.666992 -4 1.16699 -8.66699 1.5 -14s0.5 -12.666 0.5 -21.999c0 -104.667 -21.667 -202.334 -65 -293.001
s-102.333 -161.667 -177 -213l2 -12c40 20 76.5 34.5 109.5 43.5s66.833 13.5 101.5 13.5c50.667 0 110.334 -9.83301 179.001 -29.5s113.667 -29.5 135 -29.5c28 0 55.167 6.83301 81.5 20.5s55.833 36.834 88.5 69.501l6 -6l-66 -213
c-19.333 -10.667 -38.666 -18.5 -57.999 -23.5s-41 -7.5 -65 -7.5c-46 0 -110.833 14.333 -194.5 43s-150.5 43 -200.5 43c-40.667 0 -77.667 -6.66699 -111 -20s-64.666 -34 -93.999 -62z" />
    <glyph glyph-name="currency" unicode="&#xa4;" horiz-adv-x="1241" 
d="M926 887c0 83.333 -29.667 154.666 -89 213.999s-130.666 89 -213.999 89c-84 0 -155.667 -29.667 -215 -89s-89 -130.666 -89 -213.999c0 -84 29.667 -155.833 89 -215.5s131 -89.5 215 -89.5c83.333 0 154.666 29.833 213.999 89.5s89 131.5 89 215.5zM367 1219
c38 28.667 78 50.1689 120 64.502s86.667 21.5 134 21.5s92.166 -7.16699 134.499 -21.5s82.833 -35.833 121.5 -64.5l204 204l82 -80l-205 -206c27.333 -36.667 47.833 -76 61.5 -118s20.5 -86.667 20.5 -134c0 -48.667 -6.66699 -93.834 -20 -135.501
s-34 -80.5 -62 -116.5l205 -205l-82 -82l-204 205c-39.333 -29.333 -80 -51 -122 -65s-86 -21 -132 -21c-48 0 -93.167 7.16699 -135.5 21.5s-82.5 35.833 -120.5 64.5l-205 -205l-82 82l207 205c-27.333 34 -48.166 72.667 -62.499 116s-21.5 88.666 -21.5 135.999
c0 46.667 7 91 21 133s35 81.667 63 119l-207 206l82 80z" />
    <glyph glyph-name="yen" unicode="&#xa5;" horiz-adv-x="1020" 
d="M295 0l127 641h-402l23 98h348l-63 170h-250l22 101h189l-199 512h186l254 -731l406 731h197l-312 -512h213l-20 -101h-258l-99 -170h320l-21 -98h-358l-135 -641h-168z" />
    <glyph glyph-name="brokenbar" unicode="&#xa6;" 
d="M588 408v-758h-150v758h150zM588 1432v-758h-150v758h150z" />
    <glyph glyph-name="section" unicode="&#xa7;" 
d="M539 307c68 24 118 54.832 150 92.499s48 84.834 48 141.501c0 47.333 -16.833 96.833 -50.5 148.5s-114.5 139.167 -242.5 262.5c-68 -24 -118 -54.667 -150 -92s-48 -84.333 -48 -141c0 -48 16.833 -97.667 50.5 -149s114.5 -139 242.5 -263zM616 216.999
c24.667 -34 43.166 -68.8359 55.499 -104.503s18.5 -72.5 18.5 -110.5c0 -92 -32.167 -167.833 -96.5 -227.5s-146.833 -89.5 -247.5 -89.5c-92 0 -167.167 29.833 -225.5 89.5s-87.5 136.834 -87.5 231.501c0 10.667 0.166992 18.834 0.5 24.501s0.833008 10.5 1.5 14.5
h162c0 -3.33301 -0.333008 -8.83301 -1 -16.5s-1 -13.167 -1 -16.5c0 -58.667 13.5 -103.334 40.5 -134.001s66.5 -46 118.5 -46c50.667 0 91.334 14.667 122.001 44s46 68 46 116c0 34.667 -11.167 69.834 -33.5 105.501s-72.5 92.5 -150.5 170.5
c-113.333 113.333 -185.333 197.5 -216 252.5s-46 111.5 -46 169.5c0 82 24.333 152.5 73 211.5s121.334 105.833 218.001 140.5c-24.667 34 -43.167 69 -55.5 105s-18.5 72.667 -18.5 110c0 92 32.167 168.333 96.5 229s146.833 91 247.5 91
c92 0 166.833 -29.833 224.5 -89.5s86.5 -137.834 86.5 -234.501c0 -10 -0.166992 -17.667 -0.5 -23s-0.833008 -10.666 -1.5 -15.999h-162c0 4 0.333008 9.66699 1 17s1 12.666 1 15.999c0 59.333 -13.5 104.166 -40.5 134.499s-66.5 45.5 -118.5 45.5
c-50.667 0 -91.334 -14.667 -122.001 -44s-46 -67.666 -46 -114.999c0 -34 11 -68.667 33 -104s73 -93 153 -173c111.333 -111.333 182.5 -194.666 213.5 -249.999s46.5 -112.666 46.5 -171.999c0 -82 -24.167 -152.5 -72.5 -211.5s-120.5 -105.833 -216.5 -140.5z" />
    <glyph glyph-name="dieresis" unicode="&#xa8;" 
d="M705 1296l38 187h164l-39 -187h-163zM385 1296l39 187h164l-39 -187h-164z" />
    <glyph glyph-name="copyright" unicode="&#xa9;" horiz-adv-x="1706" 
d="M1053 907c-8.66699 51.333 -30.667 90.833 -66 118.5s-81.666 41.5 -138.999 41.5c-70 0 -125 -30.167 -165 -90.5s-60 -143.5 -60 -249.5c0 -104.667 20.667 -186.167 62 -244.5s99 -87.5 173 -87.5c54.667 0 100.167 15.667 136.5 47s59.166 74.333 68.499 129h145
c-6 -86.667 -41.833 -157 -107.5 -211s-148.5 -81 -248.5 -81c-121.333 0 -216.5 40 -285.5 120s-103.5 191.333 -103.5 334c0 133.333 36.333 240.833 109 322.5s168 122.5 286 122.5c94.667 0 173.5 -25 236.5 -75s98.167 -115.333 105.5 -196h-147zM1493 727
c0 86.667 -15.833 168.834 -47.5 246.501s-77.167 146.5 -136.5 206.5c-62 61.333 -131.667 108 -209 140s-159.333 48 -246 48c-86 0 -167.167 -15.667 -243.5 -47s-144.5 -77 -204.5 -137c-62 -62 -109.667 -132.5 -143 -211.5s-50 -160.833 -50 -245.5
c0 -84 16.333 -164.667 49 -242s79.667 -147 141 -209c61.333 -60.667 130.5 -107.167 207.5 -139.5s158.167 -48.5 243.5 -48.5c83.333 0 164 16.333 242 49s149 80 213 142c60 58.667 105.667 126.167 137 202.5s47 158.166 47 245.499zM852 1464
c101.333 0 196.499 -18.166 285.499 -54.499s168.5 -89.833 238.5 -160.5c69.333 -68.667 122.5 -148.167 159.5 -238.5s55.5 -184.833 55.5 -283.5c0 -99.333 -18.167 -193.166 -54.5 -281.499s-89.166 -166.5 -158.499 -234.5
c-73.333 -71.333 -155.166 -126 -245.499 -164s-183.833 -57 -280.5 -57s-189.5 18.667 -278.5 56s-168.833 91.666 -239.5 162.999c-70.667 70 -124.5 149.5 -161.5 238.5s-55.5 182.167 -55.5 279.5c0 98 18.667 191.833 56 281.5s91.666 170.5 162.999 242.5
c69.333 69.333 148 122.166 236 158.499s181.333 54.5 280 54.5z" />
    <glyph glyph-name="ordfeminine" unicode="&#xaa;" horiz-adv-x="682" 
d="M434 1147c-17.333 -7.33301 -34.3301 -13.5 -50.9971 -18.5s-33.334 -9.16699 -50.001 -12.5l-69 -14c-56.667 -12 -97.834 -32.333 -123.501 -61s-38.5 -68.334 -38.5 -119.001c0 -34.667 10 -62.167 30 -82.5s47 -30.5 81 -30.5c53.333 0 95.166 18.333 125.499 55
s56.833 106.334 79.5 209.001zM391.003 836c-29.333 -43.333 -59.5 -74.0029 -90.5 -92.0029s-68.5 -27 -112.5 -27c-64.667 0 -114.834 18.333 -150.501 55s-53.5 88.667 -53.5 156c0 72 18.833 128.5 56.5 169.5s99.834 71.167 186.501 90.5l144 31
c38.667 8 66 25.167 82 51.5s24 64.833 24 115.5c0 25.333 -10.833 45.666 -32.5 60.999s-51.167 23 -88.5 23c-46 0 -80.5 -11.167 -103.5 -33.5s-35.5 -56.833 -37.5 -103.5h-113c4.66699 73.333 29.5 130 74.5 170s106.833 60 185.5 60c77.333 0 136 -15.333 176 -46
s60 -75.667 60 -135c0 -11.333 -1 -24.333 -3 -39s-6.33301 -37 -13 -67l-80 -366c-2 -11.333 -3.5 -21.666 -4.5 -30.999s-1.5 -17.666 -1.5 -24.999c0 -15.333 5.16699 -26 15.5 -32s29.5 -9 57.5 -9l-12 -76c-9.33301 -4 -18.833 -7 -28.5 -9s-21.167 -3 -34.5 -3
c-36 0 -62.5 6.83301 -79.5 20.5s-25.5 34.834 -25.5 63.501c0 2.66699 0.333008 6.83398 1 12.501s1 10.5 1 14.5z" />
    <glyph glyph-name="guillemotleft" unicode="&#xab;" horiz-adv-x="1004" 
d="M805 393l-35 -149l-278 280l32 160l375 240l-29 -176l-258 -162zM369 393l-35 -149l-277 280l33 160l373 240l-29 -176l-258 -162z" />
    <glyph glyph-name="logicalnot" unicode="&#xac;" horiz-adv-x="1706" 
d="M1452 860v-502h-137v363h-1061v139h1198z" />
    <glyph glyph-name="sfthyphen" unicode="&#xad;" horiz-adv-x="674" 
d="M37 504l33 162h512l-43 -162h-502z" />
    <glyph glyph-name="registered" unicode="&#xae;" horiz-adv-x="1706" 
d="M844 1057l-129 -0.000976562v-277h133c75.333 0 129.333 10.5 162 31.5s49 54.833 49 101.5c0 50.667 -17 87.334 -51 110.001s-88.667 34 -164 34zM872 1159c116 0 203.167 -19.168 261.5 -57.501s87.5 -95.5 87.5 -171.5c0 -59.333 -16.667 -108.666 -50 -147.999
s-80.333 -65 -141 -77l187 -381h-177l-170 356h-155v-356h-158v835h315zM1493 720.998c0 89.333 -15.5 173 -46.5 251s-76.167 146.667 -135.5 206c-61.333 62 -130.833 109.167 -208.5 141.5s-160.5 48.5 -248.5 48.5c-86.667 0 -168.334 -15.667 -245.001 -47
s-143.667 -76.333 -201 -135c-62.667 -63.333 -110.834 -134.666 -144.501 -213.999s-50.5 -161 -50.5 -245c0 -83.333 16.167 -163.5 48.5 -240.5s78.833 -146.167 139.5 -207.5c60 -61.333 128.833 -108.5 206.5 -141.5s157.834 -49.5 240.501 -49.5
c86.667 0 168.834 16 246.501 48s148.5 78.667 212.5 140c60 58.667 106 126.167 138 202.5s48 157.166 48 242.499zM852 1464c100.667 0 195.999 -18.6689 285.999 -56.002s170 -91.666 240 -162.999c68.667 -69.333 121.334 -148.666 158.001 -237.999
s55 -182.666 55 -279.999c0 -100.667 -18.333 -195.167 -55 -283.5s-90 -166.5 -160 -234.5c-72.667 -70.667 -154.167 -124.834 -244.5 -162.501s-183.5 -56.5 -279.5 -56.5c-98 0 -191.5 18.833 -280.5 56.5s-168.833 92.5 -239.5 164.5
c-70 70.667 -123.333 150.167 -160 238.5s-55 180.833 -55 277.5c0 97.333 19.167 191.5 57.5 282.5s93.5 172.833 165.5 245.5c67.333 68.667 144.5 120.667 231.5 156s180.5 53 280.5 53z" />
    <glyph glyph-name="macron" unicode="&#xaf;" 
d="M385 1327l29 127h493l-26 -127h-496z" />
    <glyph glyph-name="degree" unicode="&#xb0;" horiz-adv-x="674" 
d="M530 1169c0 54 -18.5 99.667 -55.5 137s-82.5 56 -136.5 56s-100 -18.667 -138 -56s-57 -83 -57 -137s19 -100.167 57 -138.5s84 -57.5 138 -57.5s99.5 19.167 136.5 57.5s55.5 84.5 55.5 138.5zM338 1456c78.667 0 146.167 -28.167 202.5 -84.5s84.5 -124.5 84.5 -204.5
c0 -79.333 -28 -146.833 -84 -202.5s-124.333 -83.5 -205 -83.5s-148.667 27.667 -204 83s-83 123 -83 203s28.167 148.167 84.5 204.5s124.5 84.5 204.5 84.5z" />
    <glyph glyph-name="plusminus" unicode="&#xb1;" horiz-adv-x="1706" 
d="M1452 170v-141h-1198v141h1198zM924 1192v-340h528v-139h-528v-340h-142v340h-528v139h528v340h142z" />
    <glyph glyph-name="twosuperior" unicode="&#xb2;" horiz-adv-x="674" 
d="M530 602l-553 -0.000976562c1.33301 80.667 27.833 155 79.5 223s128.5 130.333 230.5 187l92 51c52.667 28 92.167 60.333 118.5 97s39.5 77.334 39.5 122.001c0 50.667 -12.667 89.667 -38 117s-61.333 41 -108 41c-49.333 0 -88 -16.667 -116 -50
s-46.667 -85 -56 -155h-110c8.66699 92.667 37.667 164.667 87 216s115 77 197 77c80 0 143 -21.167 189 -63.5s69 -100.5 69 -174.5c0 -68 -16 -125.5 -48 -172.5s-85.667 -91.167 -161 -132.5l-104 -55c-70 -39.333 -125.167 -79.333 -165.5 -120s-63.833 -80 -70.5 -118
h451z" />
    <glyph glyph-name="threesuperior" unicode="&#xb3;" horiz-adv-x="674" 
d="M27 889l104.002 -0.998047c-0.666992 -8 -1.16699 -15.333 -1.5 -22s-0.5 -13.334 -0.5 -20.001c0 -60.667 11.833 -104.834 35.5 -132.501s60.834 -41.5 111.501 -41.5c56 0 101.5 20.833 136.5 62.5s52.5 95.167 52.5 160.5c0 48 -17.167 84.5 -51.5 109.5
s-84.166 37.5 -149.499 37.5h-4l16 80h21c80 0 139.667 16.167 179 48.5s59 81.166 59 146.499c0 40 -10.833 70.5 -32.5 91.5s-53.167 31.5 -94.5 31.5c-40.667 0 -74.334 -13 -101.001 -39s-45 -63.667 -55 -113h-102c8.66699 74.667 36.167 133.334 82.5 176.001
s105.5 64 177.5 64c73.333 0 131.166 -19.5 173.499 -58.5s63.5 -91.833 63.5 -158.5c0 -60.667 -17.667 -112.667 -53 -156s-82.333 -70.666 -141 -81.999c42.667 -22.667 74.167 -49.334 94.5 -80.001s30.5 -67.334 30.5 -110.001c0 -86.667 -28.167 -158.5 -84.5 -215.5
s-127.833 -85.5 -214.5 -85.5c-80.667 0 -144.334 21.5 -191.001 64.5s-70 101.167 -70 174.5c0 12.667 0.666992 24.334 2 35.001s3.66602 21.667 6.99902 33z" />
    <glyph glyph-name="acute" unicode="&#xb4;" 
d="M602 1272h-100l200 260h185z" />
    <glyph glyph-name="mu" unicode="&#xb5;" horiz-adv-x="1151" 
d="M385 1071l-128.999 -599.999c-4.66699 -21.333 -8.16699 -42.833 -10.5 -64.5s-3.5 -44.5 -3.5 -68.5c0 -66 17.333 -117 52 -153s84 -54 148 -54c88 0 157.5 30.833 208.5 92.5s92.167 165.5 123.5 311.5l115 536h178l-156 -732c-0.666992 -4 -2 -10.667 -4 -20
c-12 -58 -18 -95.333 -18 -112c0 -24.667 5.5 -42.167 16.5 -52.5s29.5 -15.5 55.5 -15.5c8 0 14.167 0.166992 18.5 0.5s8.83301 0.833008 13.5 1.5l-30 -143c-16.667 -3.33301 -33.667 -5.83301 -51 -7.5s-36.666 -2.5 -57.999 -2.5c-42 0 -74.333 9.66699 -97 29
s-40 52.666 -52 99.999c-30 -44 -67.5 -76.833 -112.5 -98.5s-97.833 -32.5 -158.5 -32.5c-54.667 0 -102.334 9.16699 -143.001 27.5s-78.334 47.833 -113.001 88.5l-110 -530h-181l318 1499h180z" />
    <glyph glyph-name="paragraph" unicode="&#xb6;" 
d="M958 1393h-120.002v-1393h-111v1393h-176v-1393h-113v782c-113.333 5.33301 -203.666 39.5 -270.999 102.5s-101 144.833 -101 245.5c0 104.667 35.833 189 107.5 253s166.834 96 285.501 96h499v-86z" />
    <glyph glyph-name="periodcentered" unicode="&#xb7;" horiz-adv-x="510" 
d="M131 762c0 35.333 12.833 65.668 38.5 91.001s56.5 38 92.5 38c37.333 0 68.5 -12.333 93.5 -37s37.5 -55.334 37.5 -92.001s-12.833 -67.667 -38.5 -93s-56.5 -38 -92.5 -38s-66.833 12.667 -92.5 38s-38.5 56.333 -38.5 93z" />
    <glyph glyph-name="cedilla" unicode="&#xb8;" 
d="M111 -430l36 94c40.667 -10.667 76 -18.834 106 -24.501s54.333 -8.5 73 -8.5c47.333 0 81.666 7.83301 102.999 23.5s32 40.834 32 75.501c0 28.667 -13.333 49.167 -40 61.5s-72.667 18.5 -138 18.5h-21l66 190h75l-34 -102h22c70 0 123 -14.167 159 -42.5
s54 -69.5 54 -123.5c0 -65.333 -21.667 -115.833 -65 -151.5s-105 -53.5 -185 -53.5c-28 0 -61.167 3.33301 -99.5 10s-86.166 17.667 -143.499 33z" />
    <glyph glyph-name="onesuperior" unicode="&#xb9;" horiz-adv-x="672" 
d="M332 602h-109.003l158 721c-24.667 -7.33301 -48.667 -13 -72 -17s-45.666 -6 -66.999 -6c-10 0 -20.5 0.333008 -31.5 1s-25.167 2 -42.5 4l17 69c68.667 3.33301 123.334 16.5 164.001 39.5s75.334 60.5 104.001 112.5h86z" />
    <glyph glyph-name="ordmasculine" unicode="&#xba;" horiz-adv-x="748" 
d="M391 1464c-36 0 -67.333 -10.501 -94 -31.501s-50 -54.167 -70 -99.5c-23.333 -54 -42.5 -113.667 -57.5 -179s-22.5 -122.333 -22.5 -171c0 -55.333 12.5 -97.166 37.5 -125.499s61.833 -42.5 110.5 -42.5c43.333 0 79 11.833 107 35.5s51.667 62.5 71 116.5
c21.333 60.667 38.333 121.834 51 183.501s19 113.167 19 154.5c0 51.333 -13.167 90.666 -39.5 117.999s-63.833 41 -112.5 41zM23 984.999c0 64 8.5 132.334 25.5 205.001s39.833 136.667 68.5 192c30.667 62 68.667 108.333 114 139s98 46 158 46
c90 0 159 -23.5 207 -70.5s72 -114.5 72 -202.5c0 -66 -9.66699 -138.5 -29 -217.5s-43.333 -144.833 -72 -197.5c-30.667 -56.667 -69 -98.834 -115 -126.501s-100.333 -41.5 -163 -41.5c-88 0 -154.333 23 -199 69s-67 114.333 -67 205z" />
    <glyph glyph-name="guillemotright" unicode="&#xbb;" horiz-adv-x="1004" 
d="M571 774l35 152l277 -283l-33 -160l-373 -239l29 178l258 160zM135 774l35 152l279 -283l-33 -160l-375 -239l29 178l258 160z" />
    <glyph glyph-name="onequarter" unicode="&#xbc;" horiz-adv-x="1624" 
d="M1362 305l100 420l-366 -420h266zM1393 0h-101l49 225h-356l21 88l481 549h100l-125 -557h99l-21 -80h-96zM426 -35h-125l899 1575h125zM317 662l-102 0.000976562l152 673c-22 -6.66699 -44.167 -11.667 -66.5 -15s-45.5 -5 -69.5 -5
c-19.333 0 -33.833 0.166992 -43.5 0.5s-18.167 0.833008 -25.5 1.5l16 65c66 3.33301 118.333 15.666 157 36.999s71.667 56.333 99 105h82z" />
    <glyph glyph-name="onehalf" unicode="&#xbd;" horiz-adv-x="1624" 
d="M1491 0l-527.999 1c2 74.667 27.667 144 77 208s121.666 121.333 216.999 172l91 49c50 26.667 87.333 57 112 91s37 72 37 114c0 48 -11.833 84.5 -35.5 109.5s-58.167 37.5 -103.5 37.5c-47.333 0 -84.166 -15.333 -110.499 -46s-44.166 -79.334 -53.499 -146.001h-104
c7.33301 86.667 34.666 154 81.999 202s110.666 72 189.999 72c75.333 0 134.833 -19.667 178.5 -59s65.5 -93.333 65.5 -162c0 -64.667 -15.167 -118.834 -45.5 -162.501s-81.5 -84.5 -153.5 -122.5l-98 -53c-67.333 -35.333 -120.5 -72.166 -159.5 -110.499
s-61.167 -75.166 -66.5 -110.499h428zM426.001 -35h-125l899 1575h125zM317.001 662l-102 0.000976562l152 673c-22 -6.66699 -44.167 -11.667 -66.5 -15s-45.5 -5 -69.5 -5c-19.333 0 -33.833 0.166992 -43.5 0.5s-18.167 0.833008 -25.5 1.5l16 65
c66 3.33301 118.333 15.666 157 36.999s71.667 56.333 99 105h82z" />
    <glyph glyph-name="threequarters" unicode="&#xbe;" horiz-adv-x="1624" 
d="M1362 305l100 420l-366 -420h266zM1393 0h-101l49 225h-356l21 88l481 549h100l-125 -557h99l-21 -80h-96zM426 -35h-125l899 1575h125zM25 928l100 -1.00098c-0.666992 -6 -1.16699 -12.167 -1.5 -18.5s-0.5 -12.833 -0.5 -19.5c0 -57.333 11.333 -99 34 -125
s58.334 -39 107.001 -39c53.333 0 96.666 19.667 129.999 59s50 90 50 152c0 45.333 -16.167 79.5 -48.5 102.5s-80.166 34.5 -143.499 34.5h-4l16 74h19c76.667 0 133.667 14.833 171 44.5s56 74.834 56 135.501c0 38 -10.167 66.667 -30.5 86s-50.5 29 -90.5 29
c-38.667 0 -70.667 -11.833 -96 -35.5s-43 -58.167 -53 -103.5h-99c9.33301 69.333 36.166 123.833 80.499 163.5s100.833 59.5 169.5 59.5c70.667 0 126.167 -18.167 166.5 -54.5s60.5 -85.833 60.5 -148.5c0 -56 -17 -104.333 -51 -145s-79 -66.667 -135 -78
c40.667 -20.667 70.667 -45.167 90 -73.5s29 -62.5 29 -102.5c0 -81.333 -26.667 -148.5 -80 -201.5s-121.666 -79.5 -204.999 -79.5c-76.667 0 -137.5 20.167 -182.5 60.5s-67.5 94.5 -67.5 162.5c0 12 0.666992 23 2 33s3.66602 19.667 6.99902 29z" />
    <glyph glyph-name="questiondown" unicode="&#xbf;" horiz-adv-x="1020" 
d="M557 1149h155.999c-8 -113.333 -29.667 -204.666 -65 -273.999s-101 -140.333 -197 -213l-111 -84c-36 -28 -65.167 -65.833 -87.5 -113.5s-33.5 -98.167 -33.5 -151.5c0 -61.333 18.167 -110.333 54.5 -147s84.5 -55 144.5 -55c68 0 122.833 24.667 164.5 74
s63.834 116.666 66.501 201.999h166c-5.33301 -126 -44.833 -227.833 -118.5 -305.5s-167.167 -116.5 -280.5 -116.5c-116 0 -207.5 32.5 -274.5 97.5s-100.5 152.833 -100.5 263.5c0 84 20 160.333 60 229s100.667 130.667 182 186l71 50c66 44 114 92.5 144 145.5
s49.667 123.833 59 212.5zM603.999 1540h191l-39 -199h-191z" />
    <glyph glyph-name="Agrave" unicode="&#xc0;" horiz-adv-x="1053" 
d="M324 590h397l-23 831zM53 0h-184l739 1540h211l88 -1540h-166l-16 434h-473zM889 1665h-98l-299 260h194z" />
    <glyph glyph-name="Aacute" unicode="&#xc1;" horiz-adv-x="1053" 
d="M324 590h397l-23 831zM53 0h-184l739 1540h211l88 -1540h-166l-16 434h-473zM725 1665h-100l200 260h185z" />
    <glyph glyph-name="Acircumflex" unicode="&#xc2;" horiz-adv-x="1053" 
d="M324 590h397l-23 831zM53 0h-184l739 1540h211l88 -1540h-166l-16 434h-473zM1012 1665h-98l-138 153l-213 -153h-112l245 260h172z" />
    <glyph glyph-name="Atilde" unicode="&#xc3;" horiz-adv-x="1053" 
d="M324 590h397l-23 831zM53 0h-184l739 1540h211l88 -1540h-166l-16 434h-473zM1053 1902c-20.667 -63.333 -46.832 -110.501 -78.499 -141.501s-69.167 -46.5 -112.5 -46.5c-10 0 -21.5 1.33301 -34.5 4s-28.833 6.66699 -47.5 12l-51 17
c-10.667 3.33301 -20.5 5.83301 -29.5 7.5s-18.167 2.5 -27.5 2.5c-22 0 -40.833 -6.33301 -56.5 -19s-26.167 -30 -31.5 -52l-94 -1c16 62.667 40.167 110.834 72.5 144.501s70.833 50.5 115.5 50.5c10 0 21.167 -1 33.5 -3s25.833 -5 40.5 -9l55 -17
c19.333 -6 33.166 -9.83301 41.499 -11.5s15.833 -2.5 22.5 -2.5c19.333 0 36 5.16699 50 15.5s26.667 26.833 38 49.5h94z" />
    <glyph glyph-name="Adieresis" unicode="&#xc4;" horiz-adv-x="1053" 
d="M324 590h397l-23 831zM53 0h-184l739 1540h211l88 -1540h-166l-16 434h-473zM828 1689l38 187h164l-39 -187h-163zM508 1689l39 187h164l-39 -187h-164z" />
    <glyph glyph-name="Aring" unicode="&#xc5;" horiz-adv-x="1053" 
d="M633 1780c0 -26 10 -49 30 -69s42.667 -30 68 -30c26.667 0 50 10 70 30s30 43 30 69s-10 48.833 -30 68.5s-43.333 29.5 -70 29.5c-26 0 -48.833 -9.83301 -68.5 -29.5s-29.5 -42.5 -29.5 -68.5zM539 1780c0 53.333 18.667 98.666 56 135.999s82.666 56 135.999 56
c54 0 99.667 -18.667 137 -56s56 -82.666 56 -135.999s-18.833 -98.833 -56.5 -136.5s-83.167 -56.5 -136.5 -56.5s-98.666 18.833 -135.999 56.5s-56 83.167 -56 136.5zM324 590h397l-23 831zM53 0h-184l737 1534h213l88 -1534h-166l-16 434h-473z" />
    <glyph glyph-name="AE" unicode="&#xc6;" horiz-adv-x="1624" 
d="M82 0h-203l901 1540h836l-29 -145h-500l-106 -514h537l-33 -152h-535l-121 -573h586l-29 -156h-765l102 465h-387zM418 616h330l159 779h-53z" />
    <glyph glyph-name="Ccedilla" unicode="&#xc7;" horiz-adv-x="1182" 
d="M850 508l158.002 0.00390625c-28.667 -171.333 -89 -305 -181 -401s-206 -144 -342 -144c-134.667 0 -236.834 41.333 -306.501 124s-104.5 204.667 -104.5 366c0 126 17.333 265.167 52 417.5s78.667 284.166 132 395.499c51.333 105.333 115 183.833 191 235.5
s166 77.5 270 77.5c124.667 0 220.667 -34.5 288 -103.5s101 -167.5 101 -295.5c0 -19.333 -0.833008 -40.833 -2.5 -64.5s-4.16699 -51.167 -7.5 -82.5h-164c2 23.333 3.5 45.166 4.5 65.499s1.5 39.166 1.5 56.499c0 93.333 -20 164.166 -60 212.499
s-98.333 72.5 -175 72.5c-71.333 0 -133 -23.667 -185 -71s-95 -118.666 -129 -213.999c-15.333 -42 -30.5 -91.833 -45.5 -149.5s-29.167 -119.834 -42.5 -186.501c-16 -77.333 -28.167 -151 -36.5 -221s-12.5 -130 -12.5 -180c0 -103.333 20.5 -181.5 61.5 -234.5
s101.833 -79.5 182.5 -79.5c84.667 0 158.167 35.667 220.5 107s106.166 170.333 131.499 297zM217.002 -429.996l36 94c40.667 -10.667 76 -18.834 106 -24.501s54.333 -8.5 73 -8.5c47.333 0 81.666 7.83301 102.999 23.5s32 40.834 32 75.501
c0 28.667 -13.333 49.167 -40 61.5s-72.667 18.5 -138 18.5h-21l66 190h75l-34 -102h22c70 0 123 -14.167 159 -42.5s54 -69.5 54 -123.5c0 -65.333 -21.667 -115.833 -65 -151.5s-105 -53.5 -185 -53.5c-28 0 -61.167 3.33301 -99.5 10s-86.166 17.667 -143.499 33z" />
    <glyph glyph-name="Egrave" unicode="&#xc8;" horiz-adv-x="979" 
d="M-23 0l322 1540h674l-33 -151h-496l-106 -508h534l-32 -152h-533l-121 -573h586l-31 -156h-764zM805 1665h-98l-299 260h194z" />
    <glyph glyph-name="Eacute" unicode="&#xc9;" horiz-adv-x="979" 
d="M-23 0l322 1540h674l-33 -151h-496l-106 -508h534l-32 -152h-533l-121 -573h586l-31 -156h-764zM641 1665h-100l200 260h185z" />
    <glyph glyph-name="Ecircumflex" unicode="&#xca;" horiz-adv-x="979" 
d="M-23 0l322 1540h674l-33 -151h-496l-106 -508h534l-32 -152h-533l-121 -573h586l-31 -156h-764zM928 1665h-98l-138 153l-213 -153h-112l245 260h172z" />
    <glyph glyph-name="Edieresis" unicode="&#xcb;" horiz-adv-x="979" 
d="M-23 0l322 1540h674l-33 -151h-496l-106 -508h534l-32 -152h-533l-121 -573h586l-31 -156h-764zM744 1689l38 187h164l-39 -187h-163zM424 1689l39 187h164l-39 -187h-164z" />
    <glyph glyph-name="Igrave" unicode="&#xcc;" horiz-adv-x="461" 
d="M160 0h-183l322 1540h180zM563 1665h-98l-299 260h194z" />
    <glyph glyph-name="Iacute" unicode="&#xcd;" horiz-adv-x="461" 
d="M160 0h-183l322 1540h180zM399 1665h-100l200 260h185z" />
    <glyph glyph-name="Icircumflex" unicode="&#xce;" horiz-adv-x="461" 
d="M160 0h-183l322 1540h180zM686 1665h-98l-138 153l-213 -153h-112l245 260h172z" />
    <glyph glyph-name="Idieresis" unicode="&#xcf;" horiz-adv-x="461" 
d="M160 0h-183l322 1540h180zM502 1689l38 187h164l-39 -187h-163zM182 1689l39 187h164l-39 -187h-164z" />
    <glyph glyph-name="Eth" unicode="&#xd0;" horiz-adv-x="1229" 
d="M205 154l194.001 0.000976562c127.333 0 217.5 14.5 270.5 43.5s100.167 80.5 141.5 154.5c43.333 79.333 77.666 179.5 102.999 300.5s38 247.5 38 379.5c0 129.333 -26 220.666 -78 273.999s-141.333 80 -268 80h-143l-105 -491h304l-31 -143h-303z
M-3.99902 0.000976562l157.999 752h-166l30 143h166l133 645h330c168.667 0 292.834 -42 372.501 -126s119.5 -214.667 119.5 -392c0 -152.667 -20 -303.167 -60 -451.5s-91 -265.5 -153 -351.5c-58 -80 -124.5 -136.5 -199.5 -169.5s-192.167 -49.5 -351.5 -49.5h-379z" />
    <glyph glyph-name="Ntilde" unicode="&#xd1;" horiz-adv-x="1190" 
d="M154 0h-177l322 1540h229l246 -1341l260 1341h176l-321 -1540h-234l-241 1356zM1108 1902c-20.667 -63.333 -46.832 -110.501 -78.499 -141.501s-69.167 -46.5 -112.5 -46.5c-10 0 -21.5 1.33301 -34.5 4s-28.833 6.66699 -47.5 12l-51 17
c-10.667 3.33301 -20.5 5.83301 -29.5 7.5s-18.167 2.5 -27.5 2.5c-22 0 -40.833 -6.33301 -56.5 -19s-26.167 -30 -31.5 -52l-94 -1c16 62.667 40.167 110.834 72.5 144.501s70.833 50.5 115.5 50.5c10 0 21.167 -1 33.5 -3s25.833 -5 40.5 -9l55 -17
c19.333 -6 33.166 -9.83301 41.499 -11.5s15.833 -2.5 22.5 -2.5c19.333 0 36 5.16699 50 15.5s26.667 26.833 38 49.5h94z" />
    <glyph glyph-name="Ograve" unicode="&#xd2;" horiz-adv-x="1223" 
d="M715 1430c-72.667 0 -135 -21.835 -187 -65.502s-95.667 -110.834 -131 -201.501c-16 -42.667 -31.833 -92 -47.5 -148s-30.5 -116.333 -44.5 -181c-19.333 -94 -33.333 -175 -42 -243s-13 -129.667 -13 -185c0 -93.333 23.5 -165.5 70.5 -216.5
s112.833 -76.5 197.5 -76.5c70 0 130.167 20.833 180.5 62.5s92.5 105.5 126.5 191.5c16 38.667 32 86.834 48 144.501s31.667 122.834 47 195.501c19.333 95.333 34.333 182.333 45 261s16 140.334 16 185.001c0 86.667 -23.5 154.5 -70.5 203.5s-112.167 73.5 -195.5 73.5
zM74 439.998c0 57.333 4.83203 122.333 14.499 195s23.834 151 42.501 235c18.667 81.333 38.667 154.666 60 219.999s44.333 123.333 69 174c52.667 104.667 117 183 193 235s164.667 78 266 78c140.667 0 247.834 -40.667 321.501 -122s110.5 -199.666 110.5 -354.999
c0 -57.333 -4.83301 -121.666 -14.5 -192.999s-23.834 -149 -42.501 -233c-18 -78 -37.833 -150.333 -59.5 -217s-44.167 -125.334 -67.5 -176.001c-51.333 -106 -115.5 -185.167 -192.5 -237.5s-167.167 -78.5 -270.5 -78.5c-140.667 0 -247.5 40.5 -320.5 121.5
s-109.5 198.833 -109.5 353.5zM947.999 1665h-98l-299 260h194z" />
    <glyph glyph-name="Oacute" unicode="&#xd3;" horiz-adv-x="1223" 
d="M715 1430c-72.667 0 -135 -21.835 -187 -65.502s-95.667 -110.834 -131 -201.501c-16 -42.667 -31.833 -92 -47.5 -148s-30.5 -116.333 -44.5 -181c-19.333 -94 -33.333 -175 -42 -243s-13 -129.667 -13 -185c0 -93.333 23.5 -165.5 70.5 -216.5
s112.833 -76.5 197.5 -76.5c70 0 130.167 20.833 180.5 62.5s92.5 105.5 126.5 191.5c16 38.667 32 86.834 48 144.501s31.667 122.834 47 195.501c19.333 95.333 34.333 182.333 45 261s16 140.334 16 185.001c0 86.667 -23.5 154.5 -70.5 203.5s-112.167 73.5 -195.5 73.5
zM74 439.998c0 57.333 4.83203 122.333 14.499 195s23.834 151 42.501 235c18.667 81.333 38.667 154.666 60 219.999s44.333 123.333 69 174c52.667 104.667 117 183 193 235s164.667 78 266 78c140.667 0 247.834 -40.667 321.501 -122s110.5 -199.666 110.5 -354.999
c0 -57.333 -4.83301 -121.666 -14.5 -192.999s-23.834 -149 -42.501 -233c-18 -78 -37.833 -150.333 -59.5 -217s-44.167 -125.334 -67.5 -176.001c-51.333 -106 -115.5 -185.167 -192.5 -237.5s-167.167 -78.5 -270.5 -78.5c-140.667 0 -247.5 40.5 -320.5 121.5
s-109.5 198.833 -109.5 353.5zM783.999 1665h-100l200 260h185z" />
    <glyph glyph-name="Ocircumflex" unicode="&#xd4;" horiz-adv-x="1223" 
d="M715 1430c-72.667 0 -135 -21.835 -187 -65.502s-95.667 -110.834 -131 -201.501c-16 -42.667 -31.833 -92 -47.5 -148s-30.5 -116.333 -44.5 -181c-19.333 -94 -33.333 -175 -42 -243s-13 -129.667 -13 -185c0 -93.333 23.5 -165.5 70.5 -216.5
s112.833 -76.5 197.5 -76.5c70 0 130.167 20.833 180.5 62.5s92.5 105.5 126.5 191.5c16 38.667 32 86.834 48 144.501s31.667 122.834 47 195.501c19.333 95.333 34.333 182.333 45 261s16 140.334 16 185.001c0 86.667 -23.5 154.5 -70.5 203.5s-112.167 73.5 -195.5 73.5
zM74 439.998c0 57.333 4.83203 122.333 14.499 195s23.834 151 42.501 235c18.667 81.333 38.667 154.666 60 219.999s44.333 123.333 69 174c52.667 104.667 117 183 193 235s164.667 78 266 78c140.667 0 247.834 -40.667 321.501 -122s110.5 -199.666 110.5 -354.999
c0 -57.333 -4.83301 -121.666 -14.5 -192.999s-23.834 -149 -42.501 -233c-18 -78 -37.833 -150.333 -59.5 -217s-44.167 -125.334 -67.5 -176.001c-51.333 -106 -115.5 -185.167 -192.5 -237.5s-167.167 -78.5 -270.5 -78.5c-140.667 0 -247.5 40.5 -320.5 121.5
s-109.5 198.833 -109.5 353.5zM1071 1665h-98l-138 153l-213 -153h-112l245 260h172z" />
    <glyph glyph-name="Otilde" unicode="&#xd5;" horiz-adv-x="1223" 
d="M715 1430c-72.667 0 -135 -21.835 -187 -65.502s-95.667 -110.834 -131 -201.501c-16 -42.667 -31.833 -92 -47.5 -148s-30.5 -116.333 -44.5 -181c-19.333 -94 -33.333 -175 -42 -243s-13 -129.667 -13 -185c0 -93.333 23.5 -165.5 70.5 -216.5
s112.833 -76.5 197.5 -76.5c70 0 130.167 20.833 180.5 62.5s92.5 105.5 126.5 191.5c16 38.667 32 86.834 48 144.501s31.667 122.834 47 195.501c19.333 95.333 34.333 182.333 45 261s16 140.334 16 185.001c0 86.667 -23.5 154.5 -70.5 203.5s-112.167 73.5 -195.5 73.5
zM74 439.998c0 57.333 4.83203 122.333 14.499 195s23.834 151 42.501 235c18.667 81.333 38.667 154.666 60 219.999s44.333 123.333 69 174c52.667 104.667 117 183 193 235s164.667 78 266 78c140.667 0 247.834 -40.667 321.501 -122s110.5 -199.666 110.5 -354.999
c0 -57.333 -4.83301 -121.666 -14.5 -192.999s-23.834 -149 -42.501 -233c-18 -78 -37.833 -150.333 -59.5 -217s-44.167 -125.334 -67.5 -176.001c-51.333 -106 -115.5 -185.167 -192.5 -237.5s-167.167 -78.5 -270.5 -78.5c-140.667 0 -247.5 40.5 -320.5 121.5
s-109.5 198.833 -109.5 353.5zM1112 1902c-20.667 -63.333 -46.832 -110.501 -78.499 -141.501s-69.167 -46.5 -112.5 -46.5c-10 0 -21.5 1.33301 -34.5 4s-28.833 6.66699 -47.5 12l-51 17c-10.667 3.33301 -20.5 5.83301 -29.5 7.5s-18.167 2.5 -27.5 2.5
c-22 0 -40.833 -6.33301 -56.5 -19s-26.167 -30 -31.5 -52l-94 -1c16 62.667 40.167 110.834 72.5 144.501s70.833 50.5 115.5 50.5c10 0 21.167 -1 33.5 -3s25.833 -5 40.5 -9l55 -17c19.333 -6 33.166 -9.83301 41.499 -11.5s15.833 -2.5 22.5 -2.5
c19.333 0 36 5.16699 50 15.5s26.667 26.833 38 49.5h94z" />
    <glyph glyph-name="Odieresis" unicode="&#xd6;" horiz-adv-x="1223" 
d="M715 1430c-72.667 0 -135 -21.835 -187 -65.502s-95.667 -110.834 -131 -201.501c-16 -42.667 -31.833 -92 -47.5 -148s-30.5 -116.333 -44.5 -181c-19.333 -94 -33.333 -175 -42 -243s-13 -129.667 -13 -185c0 -93.333 23.5 -165.5 70.5 -216.5
s112.833 -76.5 197.5 -76.5c70 0 130.167 20.833 180.5 62.5s92.5 105.5 126.5 191.5c16 38.667 32 86.834 48 144.501s31.667 122.834 47 195.501c19.333 95.333 34.333 182.333 45 261s16 140.334 16 185.001c0 86.667 -23.5 154.5 -70.5 203.5s-112.167 73.5 -195.5 73.5
zM74 439.998c0 57.333 4.83203 122.333 14.499 195s23.834 151 42.501 235c18.667 81.333 38.667 154.666 60 219.999s44.333 123.333 69 174c52.667 104.667 117 183 193 235s164.667 78 266 78c140.667 0 247.834 -40.667 321.501 -122s110.5 -199.666 110.5 -354.999
c0 -57.333 -4.83301 -121.666 -14.5 -192.999s-23.834 -149 -42.501 -233c-18 -78 -37.833 -150.333 -59.5 -217s-44.167 -125.334 -67.5 -176.001c-51.333 -106 -115.5 -185.167 -192.5 -237.5s-167.167 -78.5 -270.5 -78.5c-140.667 0 -247.5 40.5 -320.5 121.5
s-109.5 198.833 -109.5 353.5zM886.999 1689l38 187h164l-39 -187h-163zM566.999 1689l39 187h164l-39 -187h-164z" />
    <glyph glyph-name="multiply" unicode="&#xd7;" horiz-adv-x="1706" 
d="M860 709l469 469l98 -99l-469 -469l469 -469l-98 -96l-469 467l-469 -467l-98 96l469 469l-469 469l98 99z" />
    <glyph glyph-name="Oslash" unicode="&#xd8;" horiz-adv-x="1221" 
d="M313 195c25.333 -28 55 -48.667 89 -62s72.667 -20 116 -20c77.333 0 142.333 25.167 195 75.5s97 129.5 133 237.5c14.667 44.667 29.167 96.667 43.5 156s28.5 126 42.5 200c16 89.333 28.167 166.333 36.5 231s12.5 115.334 12.5 152.001
c0 11.333 -0.5 23.166 -1.5 35.499s-2.5 25.833 -4.5 40.5zM119 -115l-80 53.999l115 184c-26.667 32.667 -46.667 76.167 -60 130.5s-20 119.5 -20 195.5c0 58.667 4.5 123 13.5 193s22.833 146 41.5 228c20 86 40.5 161 61.5 225s43.5 120.333 67.5 169
c52 104 116.333 182.167 193 234.5s165.334 78.5 266.001 78.5c58 0 112 -7.83301 162 -23.5s94.333 -38.5 133 -68.5l92 145l86 -49l-111 -174c25.333 -44.667 43.666 -91.5 54.999 -140.5s17 -104.5 17 -166.5c0 -55.333 -5 -118.666 -15 -189.999s-24.667 -150 -44 -236
c-19.333 -83.333 -39.666 -158 -60.999 -224s-43.333 -122.333 -66 -169c-51.333 -106 -115.333 -185.167 -192 -237.5s-166.334 -78.5 -269.001 -78.5c-53.333 0 -103.833 6.83301 -151.5 20.5s-91.5 34.167 -131.5 61.5zM262 296.999l664 1049
c-26.667 27.333 -57.834 48.166 -93.501 62.499s-74.834 21.5 -117.501 21.5c-73.333 0 -136.166 -22 -188.499 -66s-96.166 -111 -131.499 -201c-42.667 -110.667 -77.5 -236 -104.5 -376s-40.5 -264.333 -40.5 -373c0 -17.333 1 -35.833 3 -55.5s5 -40.167 9 -61.5z" />
    <glyph glyph-name="Ugrave" unicode="&#xd9;" horiz-adv-x="1188" 
d="M262 496c-0.666992 -3.33301 -1.33398 -7.66699 -2.00098 -13c-13.333 -66 -20 -117.667 -20 -155c0 -72.667 23 -127 69 -163s115 -54 207 -54c78.667 0 138.834 21 180.501 63s73.834 116.333 96.501 223l243 1143h178l-235 -1118
c-34 -164.667 -88.333 -282.334 -163 -353.001s-179.334 -106 -314.001 -106c-140 0 -247 30.667 -321 92s-111 149.333 -111 264c0 26.667 2.83301 63.334 8.5 110.001s13.5 94.667 23.5 144l199 967h178zM932 1665h-98l-299 260h194z" />
    <glyph glyph-name="Uacute" unicode="&#xda;" horiz-adv-x="1188" 
d="M262 496c-0.666992 -3.33301 -1.33398 -7.66699 -2.00098 -13c-13.333 -66 -20 -117.667 -20 -155c0 -72.667 23 -127 69 -163s115 -54 207 -54c78.667 0 138.834 21 180.501 63s73.834 116.333 96.501 223l243 1143h178l-235 -1118
c-34 -164.667 -88.333 -282.334 -163 -353.001s-179.334 -106 -314.001 -106c-140 0 -247 30.667 -321 92s-111 149.333 -111 264c0 26.667 2.83301 63.334 8.5 110.001s13.5 94.667 23.5 144l199 967h178zM768 1665h-100l200 260h185z" />
    <glyph glyph-name="Ucircumflex" unicode="&#xdb;" horiz-adv-x="1188" 
d="M262 496c-0.666992 -3.33301 -1.33398 -7.66699 -2.00098 -13c-13.333 -66 -20 -117.667 -20 -155c0 -72.667 23 -127 69 -163s115 -54 207 -54c78.667 0 138.834 21 180.501 63s73.834 116.333 96.501 223l243 1143h178l-235 -1118
c-34 -164.667 -88.333 -282.334 -163 -353.001s-179.334 -106 -314.001 -106c-140 0 -247 30.667 -321 92s-111 149.333 -111 264c0 26.667 2.83301 63.334 8.5 110.001s13.5 94.667 23.5 144l199 967h178zM1055 1665h-98l-138 153l-213 -153h-112l245 260h172z" />
    <glyph glyph-name="Udieresis" unicode="&#xdc;" horiz-adv-x="1188" 
d="M262 496c-0.666992 -3.33301 -1.33398 -7.66699 -2.00098 -13c-13.333 -66 -20 -117.667 -20 -155c0 -72.667 23 -127 69 -163s115 -54 207 -54c78.667 0 138.834 21 180.501 63s73.834 116.333 96.501 223l243 1143h178l-235 -1118
c-34 -164.667 -88.333 -282.334 -163 -353.001s-179.334 -106 -314.001 -106c-140 0 -247 30.667 -321 92s-111 149.333 -111 264c0 26.667 2.83301 63.334 8.5 110.001s13.5 94.667 23.5 144l199 967h178zM871 1689l38 187h164l-39 -187h-163zM551 1689l39 187h164
l-39 -187h-164z" />
    <glyph glyph-name="Yacute" unicode="&#xdd;" horiz-adv-x="938" 
d="M250 0l127 621l-334 919h188l250 -739l418 739h199l-539 -899l-135 -641h-174zM639 1665h-100l200 260h185z" />
    <glyph glyph-name="Thorn" unicode="&#xde;" horiz-adv-x="1085" 
d="M-20 0l319.001 1540h182l-59 -283h166c152 0 262 -30.833 330 -92.5s102 -160.5 102 -296.5c0 -165.333 -46.333 -287.833 -139 -367.5s-235.334 -119.5 -428.001 -119.5h-217l-80 -381h-176zM266.001 526h158.001c166 0 278.167 25.833 336.5 77.5
s87.5 141.834 87.5 270.501c0 87.333 -19.833 149.166 -59.5 185.499s-109.834 54.5 -210.501 54.5h-189z" />
    <glyph glyph-name="germandbls" unicode="&#xdf;" horiz-adv-x="1010" 
d="M-33 0l251.999 1196c26.667 123.333 70.334 212.833 131.001 268.5s144.667 83.5 252 83.5c96.667 0 176.834 -32.333 240.501 -97s95.5 -147 95.5 -247c0 -97.333 -23.333 -179 -70 -245s-106.667 -101.667 -180 -107c57.333 -28 100 -65.833 128 -113.5
s42 -106.834 42 -177.501c0 -73.333 -10.833 -149.333 -32.5 -228s-50.5 -146.667 -86.5 -204c-33.333 -54 -71.333 -94.167 -114 -120.5s-91.334 -39.5 -146.001 -39.5c-37.333 0 -73.333 6.66699 -108 20s-67 32.666 -97 57.999l35 152c30 -28 56.333 -47.667 79 -59
s45.667 -17 69 -17c39.333 0 72 10.667 98 32s48.667 56.333 68 105c20 50 35.833 105 47.5 165s17.5 117 17.5 171c0 72.667 -16.667 126 -50 160s-90.333 55 -171 63l23 125c6.66699 -0.666992 15.667 -1.66699 27 -3c30 -3.33301 51 -5 63 -5
c58.667 0 106.334 27.333 143.001 82s55 125.667 55 213c0 58 -16.333 102.833 -49 134.5s-78.334 47.5 -137.001 47.5c-62.667 0 -111.5 -22.667 -146.5 -68s-69.5 -148.333 -103.5 -309l-215 -1036h-160z" />
    <glyph glyph-name="agrave" unicode="&#xe0;" horiz-adv-x="909" 
d="M578 586c-19.333 -9.33301 -39.332 -17.668 -59.999 -25.001s-45.334 -14 -74.001 -20l-92 -21c-75.333 -16 -130 -44.667 -164 -86s-51 -98.666 -51 -171.999c0 -49.333 13 -88.333 39 -117s61.667 -43 107 -43c71.333 0 127.333 26.333 168 79s76 152 106 298z
M522.001 140.998c-40 -62.667 -80.835 -106.998 -122.502 -132.998s-91.5 -39 -149.5 -39c-86 0 -153 26.5 -201 79.5s-72 127.5 -72 223.5c0 104 25.333 185.167 76 243.5s134 100.833 250 127.5l191 45c52.667 12.667 89.667 37.5 111 74.5s32 92.167 32 165.5
c0 35.333 -14.5 64 -43.5 86s-68.5 33 -118.5 33c-61.333 0 -107.166 -15.833 -137.499 -47.5s-47.166 -81.5 -50.499 -149.5h-152c6.66699 105.333 40 186.333 100 243s142.667 85 248 85c103.333 0 181.5 -21.667 234.5 -65s79.5 -107 79.5 -191
c0 -18.667 -1.66699 -39.334 -5 -62.001s-9.33301 -53.334 -18 -92.001l-104 -522c-4 -20 -6.83301 -36 -8.5 -48s-2.5 -22 -2.5 -30c0 -22 7.16699 -37.333 21.5 -46s40.833 -13 79.5 -13l-19 -109c-12.667 -6.66699 -25.5 -11.334 -38.5 -14.001s-28.167 -4 -45.5 -4
c-46.667 0 -81.5 9.83301 -104.5 29.5s-34.5 49.834 -34.5 90.501c0 5.33301 1 15 3 29c0.666992 4.66699 1 8 1 10zM673.999 1272h-98l-299 260h194z" />
    <glyph glyph-name="aacute" unicode="&#xe1;" horiz-adv-x="909" 
d="M578 586c-19.333 -9.33301 -39.332 -17.668 -59.999 -25.001s-45.334 -14 -74.001 -20l-92 -21c-75.333 -16 -130 -44.667 -164 -86s-51 -98.666 -51 -171.999c0 -49.333 13 -88.333 39 -117s61.667 -43 107 -43c71.333 0 127.333 26.333 168 79s76 152 106 298z
M522.001 140.998c-40 -62.667 -80.835 -106.998 -122.502 -132.998s-91.5 -39 -149.5 -39c-86 0 -153 26.5 -201 79.5s-72 127.5 -72 223.5c0 104 25.333 185.167 76 243.5s134 100.833 250 127.5l191 45c52.667 12.667 89.667 37.5 111 74.5s32 92.167 32 165.5
c0 35.333 -14.5 64 -43.5 86s-68.5 33 -118.5 33c-61.333 0 -107.166 -15.833 -137.499 -47.5s-47.166 -81.5 -50.499 -149.5h-152c6.66699 105.333 40 186.333 100 243s142.667 85 248 85c103.333 0 181.5 -21.667 234.5 -65s79.5 -107 79.5 -191
c0 -18.667 -1.66699 -39.334 -5 -62.001s-9.33301 -53.334 -18 -92.001l-104 -522c-4 -20 -6.83301 -36 -8.5 -48s-2.5 -22 -2.5 -30c0 -22 7.16699 -37.333 21.5 -46s40.833 -13 79.5 -13l-19 -109c-12.667 -6.66699 -25.5 -11.334 -38.5 -14.001s-28.167 -4 -45.5 -4
c-46.667 0 -81.5 9.83301 -104.5 29.5s-34.5 49.834 -34.5 90.501c0 5.33301 1 15 3 29c0.666992 4.66699 1 8 1 10zM509.999 1272h-100l200 260h185z" />
    <glyph glyph-name="acircumflex" unicode="&#xe2;" horiz-adv-x="909" 
d="M578 586c-19.333 -9.33301 -39.332 -17.668 -59.999 -25.001s-45.334 -14 -74.001 -20l-92 -21c-75.333 -16 -130 -44.667 -164 -86s-51 -98.666 -51 -171.999c0 -49.333 13 -88.333 39 -117s61.667 -43 107 -43c71.333 0 127.333 26.333 168 79s76 152 106 298z
M522.001 140.998c-40 -62.667 -80.835 -106.998 -122.502 -132.998s-91.5 -39 -149.5 -39c-86 0 -153 26.5 -201 79.5s-72 127.5 -72 223.5c0 104 25.333 185.167 76 243.5s134 100.833 250 127.5l191 45c52.667 12.667 89.667 37.5 111 74.5s32 92.167 32 165.5
c0 35.333 -14.5 64 -43.5 86s-68.5 33 -118.5 33c-61.333 0 -107.166 -15.833 -137.499 -47.5s-47.166 -81.5 -50.499 -149.5h-152c6.66699 105.333 40 186.333 100 243s142.667 85 248 85c103.333 0 181.5 -21.667 234.5 -65s79.5 -107 79.5 -191
c0 -18.667 -1.66699 -39.334 -5 -62.001s-9.33301 -53.334 -18 -92.001l-104 -522c-4 -20 -6.83301 -36 -8.5 -48s-2.5 -22 -2.5 -30c0 -22 7.16699 -37.333 21.5 -46s40.833 -13 79.5 -13l-19 -109c-12.667 -6.66699 -25.5 -11.334 -38.5 -14.001s-28.167 -4 -45.5 -4
c-46.667 0 -81.5 9.83301 -104.5 29.5s-34.5 49.834 -34.5 90.501c0 5.33301 1 15 3 29c0.666992 4.66699 1 8 1 10zM796.999 1272h-98l-138 153l-213 -153h-112l245 260h172z" />
    <glyph glyph-name="atilde" unicode="&#xe3;" horiz-adv-x="909" 
d="M578 586c-19.333 -9.33301 -39.332 -17.668 -59.999 -25.001s-45.334 -14 -74.001 -20l-92 -21c-75.333 -16 -130 -44.667 -164 -86s-51 -98.666 -51 -171.999c0 -49.333 13 -88.333 39 -117s61.667 -43 107 -43c71.333 0 127.333 26.333 168 79s76 152 106 298z
M522.001 140.998c-40 -62.667 -80.835 -106.998 -122.502 -132.998s-91.5 -39 -149.5 -39c-86 0 -153 26.5 -201 79.5s-72 127.5 -72 223.5c0 104 25.333 185.167 76 243.5s134 100.833 250 127.5l191 45c52.667 12.667 89.667 37.5 111 74.5s32 92.167 32 165.5
c0 35.333 -14.5 64 -43.5 86s-68.5 33 -118.5 33c-61.333 0 -107.166 -15.833 -137.499 -47.5s-47.166 -81.5 -50.499 -149.5h-152c6.66699 105.333 40 186.333 100 243s142.667 85 248 85c103.333 0 181.5 -21.667 234.5 -65s79.5 -107 79.5 -191
c0 -18.667 -1.66699 -39.334 -5 -62.001s-9.33301 -53.334 -18 -92.001l-104 -522c-4 -20 -6.83301 -36 -8.5 -48s-2.5 -22 -2.5 -30c0 -22 7.16699 -37.333 21.5 -46s40.833 -13 79.5 -13l-19 -109c-12.667 -6.66699 -25.5 -11.334 -38.5 -14.001s-28.167 -4 -45.5 -4
c-46.667 0 -81.5 9.83301 -104.5 29.5s-34.5 49.834 -34.5 90.501c0 5.33301 1 15 3 29c0.666992 4.66699 1 8 1 10zM837.999 1509c-20.667 -63.333 -46.832 -110.501 -78.499 -141.501s-69.167 -46.5 -112.5 -46.5c-10 0 -21.5 1.33301 -34.5 4s-28.833 6.66699 -47.5 12
l-51 17c-10.667 3.33301 -20.5 5.83301 -29.5 7.5s-18.167 2.5 -27.5 2.5c-22 0 -40.833 -6.33301 -56.5 -19s-26.167 -30 -31.5 -52l-94 -1c16 62.667 40.167 110.834 72.5 144.501s70.833 50.5 115.5 50.5c10 0 21.167 -1 33.5 -3s25.833 -5 40.5 -9l55 -17
c19.333 -6 33.166 -9.83301 41.499 -11.5s15.833 -2.5 22.5 -2.5c19.333 0 36 5.16699 50 15.5s26.667 26.833 38 49.5h94z" />
    <glyph glyph-name="adieresis" unicode="&#xe4;" horiz-adv-x="909" 
d="M578 586c-19.333 -9.33301 -39.332 -17.668 -59.999 -25.001s-45.334 -14 -74.001 -20l-92 -21c-75.333 -16 -130 -44.667 -164 -86s-51 -98.666 -51 -171.999c0 -49.333 13 -88.333 39 -117s61.667 -43 107 -43c71.333 0 127.333 26.333 168 79s76 152 106 298z
M522.001 140.998c-40 -62.667 -80.835 -106.998 -122.502 -132.998s-91.5 -39 -149.5 -39c-86 0 -153 26.5 -201 79.5s-72 127.5 -72 223.5c0 104 25.333 185.167 76 243.5s134 100.833 250 127.5l191 45c52.667 12.667 89.667 37.5 111 74.5s32 92.167 32 165.5
c0 35.333 -14.5 64 -43.5 86s-68.5 33 -118.5 33c-61.333 0 -107.166 -15.833 -137.499 -47.5s-47.166 -81.5 -50.499 -149.5h-152c6.66699 105.333 40 186.333 100 243s142.667 85 248 85c103.333 0 181.5 -21.667 234.5 -65s79.5 -107 79.5 -191
c0 -18.667 -1.66699 -39.334 -5 -62.001s-9.33301 -53.334 -18 -92.001l-104 -522c-4 -20 -6.83301 -36 -8.5 -48s-2.5 -22 -2.5 -30c0 -22 7.16699 -37.333 21.5 -46s40.833 -13 79.5 -13l-19 -109c-12.667 -6.66699 -25.5 -11.334 -38.5 -14.001s-28.167 -4 -45.5 -4
c-46.667 0 -81.5 9.83301 -104.5 29.5s-34.5 49.834 -34.5 90.501c0 5.33301 1 15 3 29c0.666992 4.66699 1 8 1 10zM612.999 1296l38 187h164l-39 -187h-163zM292.999 1296l39 187h164l-39 -187h-164z" />
    <glyph glyph-name="aring" unicode="&#xe5;" horiz-adv-x="909" 
d="M522 141c-40 -62.667 -80.835 -106.998 -122.502 -132.998s-91.5 -39 -149.5 -39c-86 0 -153 26.5 -201 79.5s-72 127.5 -72 223.5c0 104 25.333 185.167 76 243.5s134 100.833 250 127.5l191 45c52.667 12.667 89.667 37.5 111 74.5s32 92.167 32 165.5
c0 35.333 -14.5 64 -43.5 86s-68.5 33 -118.5 33c-61.333 0 -107.166 -15.833 -137.499 -47.5s-47.166 -81.5 -50.499 -149.5h-152c6.66699 105.333 40 186.333 100 243s142.667 85 248 85c103.333 0 181.5 -21.667 234.5 -65s79.5 -107 79.5 -191
c0 -18.667 -1.66699 -39.334 -5 -62.001s-9.33301 -53.334 -18 -92.001l-104 -522c-4 -20 -6.83301 -36 -8.5 -48s-2.5 -22 -2.5 -30c0 -22 7.16699 -37.333 21.5 -46s40.833 -13 79.5 -13l-19 -109c-12.667 -6.66699 -25.5 -11.334 -38.5 -14.001s-28.167 -4 -45.5 -4
c-46.667 0 -81.5 9.83301 -104.5 29.5s-34.5 49.834 -34.5 90.501c0 5.33301 1 15 3 29c0.666992 4.66699 1 8 1 10zM577.998 586.002c-19.333 -9.33301 -39.332 -17.668 -59.999 -25.001s-45.334 -14 -74.001 -20l-92 -21c-75.333 -16 -130 -44.667 -164 -86
s-51 -98.666 -51 -171.999c0 -49.333 13 -88.333 39 -117s61.667 -43 107 -43c71.333 0 127.333 26.333 168 79s76 152 106 298zM454.999 1427c0 -25.333 10 -48.333 30 -69s42.667 -31 68 -31c26 0 49.167 10.167 69.5 30.5s30.5 43.5 30.5 69.5
c0 26.667 -10 49.834 -30 69.501s-43.333 29.5 -70 29.5c-26 0 -48.833 -9.83301 -68.5 -29.5s-29.5 -42.834 -29.5 -69.501zM359.999 1427c0 53.333 18.834 98.833 56.501 136.5s83.167 56.5 136.5 56.5c54 0 99.5 -18.667 136.5 -56s55.5 -83 55.5 -137
c0 -53.333 -18.833 -99 -56.5 -137s-82.834 -57 -135.501 -57c-53.333 0 -98.833 19 -136.5 57s-56.5 83.667 -56.5 137z" />
    <glyph glyph-name="ae" unicode="&#xe6;" horiz-adv-x="1473" 
d="M610 145c-41.333 -61.333 -91.001 -108.33 -149.001 -140.997s-121 -49 -189 -49c-90 0 -160.5 27.5 -211.5 82.5s-76.5 130.5 -76.5 226.5c0 107.333 27.833 189.5 83.5 246.5s168.834 104.5 339.501 142.5l13 3c158 36 237 116.333 237 241
c0 43.333 -14.333 77.333 -43 102s-68 37 -118 37c-63.333 0 -110.333 -14.667 -141 -44s-50.667 -78 -60 -146h-156c8.66699 105.333 44 185.166 106 239.499s149 81.5 261 81.5c68.667 0 126 -10.833 172 -32.5s77.333 -53.167 94 -94.5c32 47.333 70.333 82.5 115 105.5
s97 34.5 157 34.5c108.667 0 189.167 -29.5 241.5 -88.5s78.5 -149.833 78.5 -272.5c0 -36 -2.83301 -76.167 -8.5 -120.5s-13.834 -91.5 -24.501 -141.5h-573c-8.66699 -42 -15 -80.833 -19 -116.5s-6 -68.5 -6 -98.5c0 -76.667 15.167 -134.334 45.5 -173.001
s75.166 -58 134.499 -58s108.5 22.167 147.5 66.5s67.167 110.166 84.5 197.499h147c-21.333 -132 -66.166 -234 -134.499 -306s-154.5 -108 -258.5 -108c-75.333 0 -136.166 14.833 -182.499 44.5s-81.833 76.167 -106.5 139.5zM783.999 694.003h414
c5.33301 40 9 70.833 11 92.5s3 40.167 3 55.5c0 66 -14.5 116.167 -43.5 150.5s-71.833 51.5 -128.5 51.5c-63.333 0 -115.333 -27.833 -156 -83.5s-74 -144.5 -100 -266.5zM593.999 592.003c-33.333 -27.333 -94.333 -51.335 -183 -72.002
c-38.667 -8.66699 -67.667 -16 -87 -22c-70 -21.333 -118 -50.166 -144 -86.499s-39 -90.166 -39 -161.499c0 -46.667 13.833 -84.667 41.5 -114s64.5 -44 110.5 -44c83.333 0 150.5 42.167 201.5 126.5s84.167 208.833 99.5 373.5z" />
    <glyph glyph-name="ccedilla" unicode="&#xe7;" horiz-adv-x="938" 
d="M780 393c-8.66699 -134.667 -48.165 -239.999 -118.498 -315.999s-163.166 -114 -278.499 -114c-114 0 -199.833 32.667 -257.5 98s-86.5 162.333 -86.5 291c0 92.667 10.833 190.667 32.5 294s50.5 194.666 86.5 273.999c40 90.667 89.667 157.334 149 200.001
s131.666 64 216.999 64c108.667 0 190.834 -31 246.501 -93s83.5 -154 83.5 -276c0 -13.333 -0.166992 -23.5 -0.5 -30.5s-0.833008 -13.833 -1.5 -20.5h-156v67c0 68 -15 119.5 -45 154.5s-74.333 52.5 -133 52.5c-51.333 0 -94.333 -14.833 -129 -44.5
s-64 -76.834 -88 -141.501c-28.667 -78 -51.834 -163.833 -69.501 -257.5s-26.5 -174.5 -26.5 -242.5c0 -80.667 16.167 -141 48.5 -181s80.833 -60 145.5 -60c67.333 0 119.666 23 156.999 69s61.666 117 72.999 213h151zM144.002 -429.999l36 94
c40.667 -10.667 76 -18.834 106 -24.501s54.333 -8.5 73 -8.5c47.333 0 81.666 7.83301 102.999 23.5s32 40.834 32 75.501c0 28.667 -13.333 49.167 -40 61.5s-72.667 18.5 -138 18.5h-21l66 190h75l-34 -102h22c70 0 123 -14.167 159 -42.5s54 -69.5 54 -123.5
c0 -65.333 -21.667 -115.833 -65 -151.5s-105 -53.5 -185 -53.5c-28 0 -61.167 3.33301 -99.5 10s-86.166 17.667 -143.499 33z" />
    <glyph glyph-name="egrave" unicode="&#xe8;" horiz-adv-x="938" 
d="M252 696h413.999c4 30 7 57.333 9 82s3 46.667 3 66c0 66.667 -14.333 117.167 -43 151.5s-71 51.5 -127 51.5c-63.333 0 -115.666 -28 -156.999 -84s-74.333 -145 -99 -267zM759.999 377c-20 -130 -64.832 -231.833 -134.499 -305.5s-155.167 -110.5 -256.5 -110.5
c-107.333 0 -189.833 34.5 -247.5 103.5s-86.5 167.5 -86.5 295.5c0 90.667 11.333 189.667 34 297s51 197 85 269c38.667 84 88.167 147.667 148.5 191s130.833 65 211.5 65c106.667 0 186.167 -29.833 238.5 -89.5s78.5 -150.167 78.5 -271.5
c0 -36 -2.66699 -76.167 -8 -120.5s-13.333 -91.5 -24 -141.5h-574c-8.66699 -46.667 -14.834 -86 -18.501 -118s-5.5 -61 -5.5 -87c0 -80.667 14.833 -141 44.5 -181s74.167 -60 133.5 -60s108.333 22 147 66s66.667 110 84 198h150zM700 1272h-98l-299 260h194z" />
    <glyph glyph-name="eacute" unicode="&#xe9;" horiz-adv-x="938" 
d="M252 696h413.999c4 30 7 57.333 9 82s3 46.667 3 66c0 66.667 -14.333 117.167 -43 151.5s-71 51.5 -127 51.5c-63.333 0 -115.666 -28 -156.999 -84s-74.333 -145 -99 -267zM759.999 377c-20 -130 -64.832 -231.833 -134.499 -305.5s-155.167 -110.5 -256.5 -110.5
c-107.333 0 -189.833 34.5 -247.5 103.5s-86.5 167.5 -86.5 295.5c0 90.667 11.333 189.667 34 297s51 197 85 269c38.667 84 88.167 147.667 148.5 191s130.833 65 211.5 65c106.667 0 186.167 -29.833 238.5 -89.5s78.5 -150.167 78.5 -271.5
c0 -36 -2.66699 -76.167 -8 -120.5s-13.333 -91.5 -24 -141.5h-574c-8.66699 -46.667 -14.834 -86 -18.501 -118s-5.5 -61 -5.5 -87c0 -80.667 14.833 -141 44.5 -181s74.167 -60 133.5 -60s108.333 22 147 66s66.667 110 84 198h150zM536 1272h-100l200 260h185z" />
    <glyph glyph-name="ecircumflex" unicode="&#xea;" horiz-adv-x="938" 
d="M252 696h413.999c4 30 7 57.333 9 82s3 46.667 3 66c0 66.667 -14.333 117.167 -43 151.5s-71 51.5 -127 51.5c-63.333 0 -115.666 -28 -156.999 -84s-74.333 -145 -99 -267zM759.999 377c-20 -130 -64.832 -231.833 -134.499 -305.5s-155.167 -110.5 -256.5 -110.5
c-107.333 0 -189.833 34.5 -247.5 103.5s-86.5 167.5 -86.5 295.5c0 90.667 11.333 189.667 34 297s51 197 85 269c38.667 84 88.167 147.667 148.5 191s130.833 65 211.5 65c106.667 0 186.167 -29.833 238.5 -89.5s78.5 -150.167 78.5 -271.5
c0 -36 -2.66699 -76.167 -8 -120.5s-13.333 -91.5 -24 -141.5h-574c-8.66699 -46.667 -14.834 -86 -18.501 -118s-5.5 -61 -5.5 -87c0 -80.667 14.833 -141 44.5 -181s74.167 -60 133.5 -60s108.333 22 147 66s66.667 110 84 198h150zM823 1272h-98l-138 153l-213 -153h-112
l245 260h172z" />
    <glyph glyph-name="edieresis" unicode="&#xeb;" horiz-adv-x="938" 
d="M252 696h413.999c4 30 7 57.333 9 82s3 46.667 3 66c0 66.667 -14.333 117.167 -43 151.5s-71 51.5 -127 51.5c-63.333 0 -115.666 -28 -156.999 -84s-74.333 -145 -99 -267zM759.999 377c-20 -130 -64.832 -231.833 -134.499 -305.5s-155.167 -110.5 -256.5 -110.5
c-107.333 0 -189.833 34.5 -247.5 103.5s-86.5 167.5 -86.5 295.5c0 90.667 11.333 189.667 34 297s51 197 85 269c38.667 84 88.167 147.667 148.5 191s130.833 65 211.5 65c106.667 0 186.167 -29.833 238.5 -89.5s78.5 -150.167 78.5 -271.5
c0 -36 -2.66699 -76.167 -8 -120.5s-13.333 -91.5 -24 -141.5h-574c-8.66699 -46.667 -14.834 -86 -18.501 -118s-5.5 -61 -5.5 -87c0 -80.667 14.833 -141 44.5 -181s74.167 -60 133.5 -60s108.333 22 147 66s66.667 110 84 198h150zM639 1296l38 187h164l-39 -187h-163z
M319 1296l39 187h164l-39 -187h-164z" />
    <glyph glyph-name="igrave" unicode="&#xec;" horiz-adv-x="418" 
d="M131 0h-166l244 1147h166zM473 1272h-98l-299 260h194z" />
    <glyph glyph-name="iacute" unicode="&#xed;" horiz-adv-x="418" 
d="M131 0h-166l244 1147h166zM309 1272h-100l200 260h185z" />
    <glyph glyph-name="icircumflex" unicode="&#xee;" horiz-adv-x="418" 
d="M131 0h-166l244 1147h166zM596 1272h-98l-138 153l-213 -153h-112l245 260h172z" />
    <glyph glyph-name="idieresis" unicode="&#xef;" horiz-adv-x="418" 
d="M131 0h-166l244 1147h166zM412 1296l38 187h164l-39 -187h-163zM92 1296l39 187h164l-39 -187h-164z" />
    <glyph glyph-name="eth" unicode="&#xf0;" horiz-adv-x="997" 
d="M713 762c0 74 -17.6641 130.33 -52.9971 168.997s-86 58 -152 58c-48 0 -89.5 -14.167 -124.5 -42.5s-64.5 -71.5 -88.5 -129.5c-30 -73.333 -53.833 -153.166 -71.5 -239.499s-26.5 -164.166 -26.5 -233.499c0 -77.333 16.667 -135.5 50 -174.5
s82.666 -58.5 147.999 -58.5c56 0 102.667 16.5 140 49.5s68.666 85.833 93.999 158.5s45.666 150.334 60.999 233.001s23 152.667 23 210zM688.003 1036c-15.333 50 -35.998 94.833 -61.998 134.5s-57.333 73.5 -94 101.5l-225 -117l-37 66l195 110
c-24 20 -50.5 38.5 -79.5 55.5s-61.167 32.833 -96.5 47.5l28 94c39.333 -14.667 81 -34 125 -58s90.667 -52.667 140 -86l247 142l37 -74l-219 -121c78.667 -68.667 137 -147 175 -235s57 -189 57 -303c0 -111.333 -12 -222.333 -36 -333s-55 -202.667 -93 -276
c-40.667 -76 -89.834 -132.167 -147.501 -168.5s-126.834 -54.5 -207.501 -54.5c-123.333 0 -215.166 31.667 -275.499 95s-90.5 159.333 -90.5 288c0 88 10.667 180.167 32 276.5s49.333 180.166 84 251.499c40 80.667 89.667 142.167 149 184.5s125.333 63.5 198 63.5
c38.667 0 73.667 -6.66699 105 -20s61.666 -34.666 90.999 -63.999z" />
    <glyph glyph-name="ntilde" unicode="&#xf1;" horiz-adv-x="967" 
d="M123 0l-162.002 -0.000976562l244 1147h153l-28 -131c47.333 51.333 97.5 90 150.5 116s107.833 39 164.5 39c76 0 134.667 -17.833 176 -53.5s62 -86.5 62 -152.5c0 -19.333 -1.33301 -39.166 -4 -59.499s-7 -42.833 -13 -67.5l-178 -838h-162l176 829
c4.66699 22.667 8.33398 43 11.001 61s4 32 4 42c0 34.667 -11.667 62.5 -35 83.5s-54.666 31.5 -93.999 31.5c-54.667 0 -107.5 -18.167 -158.5 -54.5s-92.5 -81.833 -124.5 -136.5zM900.998 1509c-20.667 -63.333 -46.832 -110.501 -78.499 -141.501
s-69.167 -46.5 -112.5 -46.5c-10 0 -21.5 1.33301 -34.5 4s-28.833 6.66699 -47.5 12l-51 17c-10.667 3.33301 -20.5 5.83301 -29.5 7.5s-18.167 2.5 -27.5 2.5c-22 0 -40.833 -6.33301 -56.5 -19s-26.167 -30 -31.5 -52l-94 -1c16 62.667 40.167 110.834 72.5 144.501
s70.833 50.5 115.5 50.5c10 0 21.167 -1 33.5 -3s25.833 -5 40.5 -9l55 -17c19.333 -6 33.166 -9.83301 41.499 -11.5s15.833 -2.5 22.5 -2.5c19.333 0 36 5.16699 50 15.5s26.667 26.833 38 49.5h94z" />
    <glyph glyph-name="ograve" unicode="&#xf2;" horiz-adv-x="997" 
d="M520 1038c-48 0 -89.667 -14.999 -125 -44.999s-66 -77 -92 -141c-31.333 -78 -56.833 -163.667 -76.5 -257s-29.5 -175 -29.5 -245c0 -78.667 16.5 -138.167 49.5 -178.5s81.833 -60.5 146.5 -60.5c58 0 105.833 17.167 143.5 51.5s69.167 89.5 94.5 165.5
c28 86.667 50.333 174.167 67 262.5s25 161.166 25 218.499c0 74 -17.5 130.667 -52.5 170s-85.167 59 -150.5 59zM31 354.001c0 92 11.334 189.833 34.001 293.5s53 195.167 91 274.5c41.333 87.333 92 152.833 152 196.5s130 65.5 210 65.5
c120.667 0 212.667 -33.167 276 -99.5s95 -162.166 95 -287.499c0 -96.667 -12.833 -201.5 -38.5 -314.5s-57.167 -206.167 -94.5 -279.5c-40.667 -80.667 -91.834 -140.834 -153.501 -180.501s-134.167 -59.5 -217.5 -59.5c-118 0 -206.5 32.5 -265.5 97.5
s-88.5 162.833 -88.5 293.5zM739.001 1272h-98l-299 260h194z" />
    <glyph glyph-name="oacute" unicode="&#xf3;" horiz-adv-x="997" 
d="M520 1038c-48 0 -89.667 -14.999 -125 -44.999s-66 -77 -92 -141c-31.333 -78 -56.833 -163.667 -76.5 -257s-29.5 -175 -29.5 -245c0 -78.667 16.5 -138.167 49.5 -178.5s81.833 -60.5 146.5 -60.5c58 0 105.833 17.167 143.5 51.5s69.167 89.5 94.5 165.5
c28 86.667 50.333 174.167 67 262.5s25 161.166 25 218.499c0 74 -17.5 130.667 -52.5 170s-85.167 59 -150.5 59zM31 354.001c0 92 11.334 189.833 34.001 293.5s53 195.167 91 274.5c41.333 87.333 92 152.833 152 196.5s130 65.5 210 65.5
c120.667 0 212.667 -33.167 276 -99.5s95 -162.166 95 -287.499c0 -96.667 -12.833 -201.5 -38.5 -314.5s-57.167 -206.167 -94.5 -279.5c-40.667 -80.667 -91.834 -140.834 -153.501 -180.501s-134.167 -59.5 -217.5 -59.5c-118 0 -206.5 32.5 -265.5 97.5
s-88.5 162.833 -88.5 293.5zM575.001 1272h-100l200 260h185z" />
    <glyph glyph-name="ocircumflex" unicode="&#xf4;" horiz-adv-x="997" 
d="M520 1038c-48 0 -89.667 -14.999 -125 -44.999s-66 -77 -92 -141c-31.333 -78 -56.833 -163.667 -76.5 -257s-29.5 -175 -29.5 -245c0 -78.667 16.5 -138.167 49.5 -178.5s81.833 -60.5 146.5 -60.5c58 0 105.833 17.167 143.5 51.5s69.167 89.5 94.5 165.5
c28 86.667 50.333 174.167 67 262.5s25 161.166 25 218.499c0 74 -17.5 130.667 -52.5 170s-85.167 59 -150.5 59zM31 354.001c0 92 11.334 189.833 34.001 293.5s53 195.167 91 274.5c41.333 87.333 92 152.833 152 196.5s130 65.5 210 65.5
c120.667 0 212.667 -33.167 276 -99.5s95 -162.166 95 -287.499c0 -96.667 -12.833 -201.5 -38.5 -314.5s-57.167 -206.167 -94.5 -279.5c-40.667 -80.667 -91.834 -140.834 -153.501 -180.501s-134.167 -59.5 -217.5 -59.5c-118 0 -206.5 32.5 -265.5 97.5
s-88.5 162.833 -88.5 293.5zM862.001 1272h-98l-138 153l-213 -153h-112l245 260h172z" />
    <glyph glyph-name="otilde" unicode="&#xf5;" horiz-adv-x="997" 
d="M520 1038c-48 0 -89.667 -14.999 -125 -44.999s-66 -77 -92 -141c-31.333 -78 -56.833 -163.667 -76.5 -257s-29.5 -175 -29.5 -245c0 -78.667 16.5 -138.167 49.5 -178.5s81.833 -60.5 146.5 -60.5c58 0 105.833 17.167 143.5 51.5s69.167 89.5 94.5 165.5
c28 86.667 50.333 174.167 67 262.5s25 161.166 25 218.499c0 74 -17.5 130.667 -52.5 170s-85.167 59 -150.5 59zM31 354.001c0 92 11.334 189.833 34.001 293.5s53 195.167 91 274.5c41.333 87.333 92 152.833 152 196.5s130 65.5 210 65.5
c120.667 0 212.667 -33.167 276 -99.5s95 -162.166 95 -287.499c0 -96.667 -12.833 -201.5 -38.5 -314.5s-57.167 -206.167 -94.5 -279.5c-40.667 -80.667 -91.834 -140.834 -153.501 -180.501s-134.167 -59.5 -217.5 -59.5c-118 0 -206.5 32.5 -265.5 97.5
s-88.5 162.833 -88.5 293.5zM903.001 1509c-20.667 -63.333 -46.832 -110.501 -78.499 -141.501s-69.167 -46.5 -112.5 -46.5c-10 0 -21.5 1.33301 -34.5 4s-28.833 6.66699 -47.5 12l-51 17c-10.667 3.33301 -20.5 5.83301 -29.5 7.5s-18.167 2.5 -27.5 2.5
c-22 0 -40.833 -6.33301 -56.5 -19s-26.167 -30 -31.5 -52l-94 -1c16 62.667 40.167 110.834 72.5 144.501s70.833 50.5 115.5 50.5c10 0 21.167 -1 33.5 -3s25.833 -5 40.5 -9l55 -17c19.333 -6 33.166 -9.83301 41.499 -11.5s15.833 -2.5 22.5 -2.5
c19.333 0 36 5.16699 50 15.5s26.667 26.833 38 49.5h94z" />
    <glyph glyph-name="odieresis" unicode="&#xf6;" horiz-adv-x="997" 
d="M520 1038c-48 0 -89.667 -14.999 -125 -44.999s-66 -77 -92 -141c-31.333 -78 -56.833 -163.667 -76.5 -257s-29.5 -175 -29.5 -245c0 -78.667 16.5 -138.167 49.5 -178.5s81.833 -60.5 146.5 -60.5c58 0 105.833 17.167 143.5 51.5s69.167 89.5 94.5 165.5
c28 86.667 50.333 174.167 67 262.5s25 161.166 25 218.499c0 74 -17.5 130.667 -52.5 170s-85.167 59 -150.5 59zM31 354.001c0 92 11.334 189.833 34.001 293.5s53 195.167 91 274.5c41.333 87.333 92 152.833 152 196.5s130 65.5 210 65.5
c120.667 0 212.667 -33.167 276 -99.5s95 -162.166 95 -287.499c0 -96.667 -12.833 -201.5 -38.5 -314.5s-57.167 -206.167 -94.5 -279.5c-40.667 -80.667 -91.834 -140.834 -153.501 -180.501s-134.167 -59.5 -217.5 -59.5c-118 0 -206.5 32.5 -265.5 97.5
s-88.5 162.833 -88.5 293.5zM678.001 1296l38 187h164l-39 -187h-163zM358.001 1296l39 187h164l-39 -187h-164z" />
    <glyph glyph-name="divide" unicode="&#xf7;" horiz-adv-x="1706" 
d="M854 367c34 0 63.333 -12.333 88 -37s37 -54 37 -88c0 -34.667 -12.167 -64.167 -36.5 -88.5s-53.833 -36.5 -88.5 -36.5c-35.333 0 -65 12 -89 36s-36 53.667 -36 89c0 34 12.333 63.333 37 88s54 37 88 37zM1452 680v-139h-1198v139h1198zM854 1106
c34 0 63.333 -12.5 88 -37.5s37 -54.833 37 -89.5c0 -34 -12.167 -63.333 -36.5 -88s-53.833 -37 -88.5 -37s-64.167 12.167 -88.5 36.5s-36.5 53.833 -36.5 88.5s12.333 64.5 37 89.5s54 37.5 88 37.5z" />
    <glyph glyph-name="oslash" unicode="&#xf8;" horiz-adv-x="997" 
d="M719 860l-481.001 -684.001c17.333 -23.333 37.5 -40 60.5 -50s52.5 -15 88.5 -15c60.667 0 109.834 16.833 147.501 50.5s69.167 89.834 94.5 168.501c28 84.667 50.333 169.667 67 255s25 154 25 206c0 16 -0.166992 29 -0.5 39s-0.833008 20 -1.5 30zM198.999 284.999
l479.001 683.999c-20.667 23.333 -43.334 40.333 -68.001 51s-54.667 16 -90 16c-57.333 0 -104.333 -17.333 -141 -52s-68.667 -92.334 -96 -173.001c-26.667 -78 -47.667 -159.333 -63 -244s-23 -159 -23 -223c0 -11.333 0.333008 -23.666 1 -36.999s1 -20.666 1 -21.999z
M78 114.998c-16.667 33.333 -28.666 67.667 -35.999 103s-11 76 -11 122c0 96.667 11.167 198 33.5 304s52.166 198.667 89.499 278c42 90 93.833 156.5 155.5 199.5s136.834 64.5 225.501 64.5c48.667 0 92.167 -6.66699 130.5 -20s74.5 -34.666 108.5 -63.999l98 145
l78 -55l-114 -166c17.333 -24 30.166 -54.667 38.499 -92s12.5 -83 12.5 -137c0 -100 -12.5 -205.833 -37.5 -317.5s-56.167 -203.834 -93.5 -276.501c-42 -81.333 -94.5 -142 -157.5 -182s-136.833 -60 -221.5 -60c-54 0 -101 6.83301 -141 20.5s-71 33.5 -93 59.5
l-112 -162l-78 55z" />
    <glyph glyph-name="ugrave" unicode="&#xf9;" horiz-adv-x="967" 
d="M186 315c-4.66699 -23.333 -8.16504 -43.5 -10.498 -60.5s-3.5 -30.167 -3.5 -39.5c0 -34.667 11.667 -62.5 35 -83.5s54.666 -31.5 93.999 -31.5c52.667 0 104 16.5 154 49.5s93 79.5 129 139.5l182 858h162l-244 -1147h-154l29 129c-48 -52 -98 -91 -150 -117
s-106.333 -39 -163 -39c-76 0 -134.667 18 -176 54s-62 87 -62 153c0 22 1.16699 43.333 3.5 64s6.16602 42 11.499 64l178 839h161zM737.002 1272h-98l-299 260h194z" />
    <glyph glyph-name="uacute" unicode="&#xfa;" horiz-adv-x="967" 
d="M186 315c-4.66699 -23.333 -8.16504 -43.5 -10.498 -60.5s-3.5 -30.167 -3.5 -39.5c0 -34.667 11.667 -62.5 35 -83.5s54.666 -31.5 93.999 -31.5c52.667 0 104 16.5 154 49.5s93 79.5 129 139.5l182 858h162l-244 -1147h-154l29 129c-48 -52 -98 -91 -150 -117
s-106.333 -39 -163 -39c-76 0 -134.667 18 -176 54s-62 87 -62 153c0 22 1.16699 43.333 3.5 64s6.16602 42 11.499 64l178 839h161zM573.002 1272h-100l200 260h185z" />
    <glyph glyph-name="ucircumflex" unicode="&#xfb;" horiz-adv-x="967" 
d="M186 315c-4.66699 -23.333 -8.16504 -43.5 -10.498 -60.5s-3.5 -30.167 -3.5 -39.5c0 -34.667 11.667 -62.5 35 -83.5s54.666 -31.5 93.999 -31.5c52.667 0 104 16.5 154 49.5s93 79.5 129 139.5l182 858h162l-244 -1147h-154l29 129c-48 -52 -98 -91 -150 -117
s-106.333 -39 -163 -39c-76 0 -134.667 18 -176 54s-62 87 -62 153c0 22 1.16699 43.333 3.5 64s6.16602 42 11.499 64l178 839h161zM860.002 1272h-98l-138 153l-213 -153h-112l245 260h172z" />
    <glyph glyph-name="udieresis" unicode="&#xfc;" horiz-adv-x="967" 
d="M186 315c-4.66699 -23.333 -8.16504 -43.5 -10.498 -60.5s-3.5 -30.167 -3.5 -39.5c0 -34.667 11.667 -62.5 35 -83.5s54.666 -31.5 93.999 -31.5c52.667 0 104 16.5 154 49.5s93 79.5 129 139.5l182 858h162l-244 -1147h-154l29 129c-48 -52 -98 -91 -150 -117
s-106.333 -39 -163 -39c-76 0 -134.667 18 -176 54s-62 87 -62 153c0 22 1.16699 43.333 3.5 64s6.16602 42 11.499 64l178 839h161zM676.002 1296l38 187h164l-39 -187h-163zM356.002 1296l39 187h164l-39 -187h-164z" />
    <glyph glyph-name="yacute" unicode="&#xfd;" horiz-adv-x="834" 
d="M328 -49c-66 -142 -124.499 -237.333 -175.499 -286s-112.833 -73 -185.5 -73c-16.667 0 -34 1.66699 -52 5s-37.333 8.66602 -58 15.999l35 127c10 -5.33301 20 -8.66602 30 -9.99902s21.667 -2 35 -2c29.333 0 54.666 7.33301 75.999 22s40.333 38 57 70l80 155
l-84 1172h162l55 -926l397 926h181zM508.001 1272h-100l200 260h185z" />
    <glyph glyph-name="thorn" unicode="&#xfe;" horiz-adv-x="997" 
d="M549 1040c-55.333 0 -103 -19 -143 -57s-73.667 -96 -101 -174c-26 -76.667 -47.167 -159 -63.5 -247s-24.5 -160.667 -24.5 -218c0 -73.333 15.833 -129.833 47.5 -169.5s76.5 -59.5 134.5 -59.5c47.333 0 89.333 16.5 126 49.5s68.667 83.167 96 150.5
c26.667 67.333 49 147.833 67 241.5s27 178.5 27 254.5c0 72.667 -14.5 129 -43.5 169s-69.833 60 -122.5 60zM293 1536h162.001l-101 -479c28.667 38 64.667 68 108 90s88 33 134 33c91.333 0 162 -35.167 212 -105.5s75 -170.5 75 -300.5
c0 -232.667 -44.5 -423.667 -133.5 -573s-202.833 -224 -341.5 -224c-58.667 0 -109.834 16.5 -153.501 49.5s-74.5 78.167 -92.5 135.5l-117 -551h-162z" />
    <glyph glyph-name="ydieresis" unicode="&#xff;" horiz-adv-x="834" 
d="M328 -49c-66 -142 -124.499 -237.333 -175.499 -286s-112.833 -73 -185.5 -73c-16.667 0 -34 1.66699 -52 5s-37.333 8.66602 -58 15.999l35 127c10 -5.33301 20 -8.66602 30 -9.99902s21.667 -2 35 -2c29.333 0 54.666 7.33301 75.999 22s40.333 38 57 70l80 155
l-84 1172h162l55 -926l397 926h181zM611.001 1296l38 187h164l-39 -187h-163zM291.001 1296l39 187h164l-39 -187h-164z" />
    <glyph glyph-name="Cacute" unicode="&#x106;" horiz-adv-x="1182" 
d="M850 508l158.002 0.00390625c-28.667 -171.333 -89 -305 -181 -401s-206 -144 -342 -144c-134.667 0 -236.834 41.333 -306.501 124s-104.5 204.667 -104.5 366c0 126 17.333 265.167 52 417.5s78.667 284.166 132 395.499c51.333 105.333 115 183.833 191 235.5
s166 77.5 270 77.5c124.667 0 220.667 -34.5 288 -103.5s101 -167.5 101 -295.5c0 -19.333 -0.833008 -40.833 -2.5 -64.5s-4.16699 -51.167 -7.5 -82.5h-164c2 23.333 3.5 45.166 4.5 65.499s1.5 39.166 1.5 56.499c0 93.333 -20 164.166 -60 212.499
s-98.333 72.5 -175 72.5c-71.333 0 -133 -23.667 -185 -71s-95 -118.666 -129 -213.999c-15.333 -42 -30.5 -91.833 -45.5 -149.5s-29.167 -119.834 -42.5 -186.501c-16 -77.333 -28.167 -151 -36.5 -221s-12.5 -130 -12.5 -180c0 -103.333 20.5 -181.5 61.5 -234.5
s101.833 -79.5 182.5 -79.5c84.667 0 158.167 35.667 220.5 107s106.166 170.333 131.499 297zM731.002 1665h-100l200 260h185z" />
    <glyph glyph-name="cacute" unicode="&#x107;" horiz-adv-x="938" 
d="M780 393c-8.66699 -134.667 -48.165 -239.999 -118.498 -315.999s-163.166 -114 -278.499 -114c-114 0 -199.833 32.667 -257.5 98s-86.5 162.333 -86.5 291c0 92.667 10.833 190.667 32.5 294s50.5 194.666 86.5 273.999c40 90.667 89.667 157.334 149 200.001
s131.666 64 216.999 64c108.667 0 190.834 -31 246.501 -93s83.5 -154 83.5 -276c0 -13.333 -0.166992 -23.5 -0.5 -30.5s-0.833008 -13.833 -1.5 -20.5h-156v67c0 68 -15 119.5 -45 154.5s-74.333 52.5 -133 52.5c-51.333 0 -94.333 -14.833 -129 -44.5
s-64 -76.834 -88 -141.501c-28.667 -78 -51.834 -163.833 -69.501 -257.5s-26.5 -174.5 -26.5 -242.5c0 -80.667 16.167 -141 48.5 -181s80.833 -60 145.5 -60c67.333 0 119.666 23 156.999 69s61.666 117 72.999 213h151zM545.002 1272h-100l200 260h185z" />
    <glyph glyph-name="Ccaron" unicode="&#x10c;" horiz-adv-x="1182" 
d="M850 508l158.002 0.00390625c-28.667 -171.333 -89 -305 -181 -401s-206 -144 -342 -144c-134.667 0 -236.834 41.333 -306.501 124s-104.5 204.667 -104.5 366c0 126 17.333 265.167 52 417.5s78.667 284.166 132 395.499c51.333 105.333 115 183.833 191 235.5
s166 77.5 270 77.5c124.667 0 220.667 -34.5 288 -103.5s101 -167.5 101 -295.5c0 -19.333 -0.833008 -40.833 -2.5 -64.5s-4.16699 -51.167 -7.5 -82.5h-164c2 23.333 3.5 45.166 4.5 65.499s1.5 39.166 1.5 56.499c0 93.333 -20 164.166 -60 212.499
s-98.333 72.5 -175 72.5c-71.333 0 -133 -23.667 -185 -71s-95 -118.666 -129 -213.999c-15.333 -42 -30.5 -91.833 -45.5 -149.5s-29.167 -119.834 -42.5 -186.501c-16 -77.333 -28.167 -151 -36.5 -221s-12.5 -130 -12.5 -180c0 -103.333 20.5 -181.5 61.5 -234.5
s101.833 -79.5 182.5 -79.5c84.667 0 158.167 35.667 220.5 107s106.166 170.333 131.499 297zM522.002 1925h99l137 -154l213 154h112l-245 -260h-172z" />
    <glyph glyph-name="ccaron" unicode="&#x10d;" horiz-adv-x="938" 
d="M780 393c-8.66699 -134.667 -48.165 -239.999 -118.498 -315.999s-163.166 -114 -278.499 -114c-114 0 -199.833 32.667 -257.5 98s-86.5 162.333 -86.5 291c0 92.667 10.833 190.667 32.5 294s50.5 194.666 86.5 273.999c40 90.667 89.667 157.334 149 200.001
s131.666 64 216.999 64c108.667 0 190.834 -31 246.501 -93s83.5 -154 83.5 -276c0 -13.333 -0.166992 -23.5 -0.5 -30.5s-0.833008 -13.833 -1.5 -20.5h-156v67c0 68 -15 119.5 -45 154.5s-74.333 52.5 -133 52.5c-51.333 0 -94.333 -14.833 -129 -44.5
s-64 -76.834 -88 -141.501c-28.667 -78 -51.834 -163.833 -69.501 -257.5s-26.5 -174.5 -26.5 -242.5c0 -80.667 16.167 -141 48.5 -181s80.833 -60 145.5 -60c67.333 0 119.666 23 156.999 69s61.666 117 72.999 213h151zM336.002 1532h99l137 -154l213 154h112l-245 -260
h-172z" />
    <glyph glyph-name="dcroat" unicode="&#x111;" horiz-adv-x="1010" 
d="M367 111c54 0 101.166 18.667 141.499 56s74.833 95 103.5 173c24.667 66 44.834 142.333 60.501 229s23.5 164 23.5 232c0 76 -15.667 134.167 -47 174.5s-76.333 60.5 -135 60.5c-46.667 0 -88.5 -16.667 -125.5 -50s-68.833 -83.333 -95.5 -150
s-49 -146.167 -67 -238.5s-27 -172.833 -27 -241.5c0 -78.667 14.5 -139.167 43.5 -181.5s70.5 -63.5 124.5 -63.5zM577.999 115c-31.333 -44.667 -69.666 -79.5 -114.999 -104.5s-93.333 -37.5 -144 -37.5c-90.667 0 -161 34.667 -211 104s-75 167.333 -75 294
c0 104 13.167 211 39.5 321s60.166 201 101.499 273c40 67.333 88.667 119 146 155s120 54 188 54c58 0 108 -16 150 -48s74.667 -79 98 -141l61 291h-258l23 98h256l34 162h158l-35 -162h164l-18 -98h-164l-272 -1276h-154z" />
    <glyph glyph-name="Gbreve" unicode="&#x11e;" horiz-adv-x="1204" 
d="M895 621h-332.001l29 145h504l-154 -766h-127l19 160c-31.333 -63.333 -75 -111.666 -131 -144.999s-122.333 -50 -199 -50c-134 0 -239.167 43.333 -315.5 130s-114.5 206.667 -114.5 360c0 54.667 4.66699 117.167 14 187.5s23 146.833 41 229.5
c18.667 83.333 38.667 157.166 60 221.499s44.333 121.166 69 170.499c53.333 106 118.5 185 195.5 237s166.833 78 269.5 78c125.333 0 221.833 -34.667 289.5 -104s101.5 -167.666 101.5 -294.999c0 -19.333 -0.833008 -40.833 -2.5 -64.5s-4.16699 -51.167 -7.5 -82.5
l-166 -1c0.666992 10 1.66699 23.667 3 41c3.33301 42 5 70 5 84c0 90.667 -20.667 159.834 -62 207.501s-101 71.5 -179 71.5c-70.667 0 -131 -22.833 -181 -68.5s-93 -116.5 -129 -212.5c-43.333 -120 -77.333 -245.333 -102 -376s-37 -251 -37 -361
c0 -102.667 22.833 -182 68.5 -238s110.167 -84 193.5 -84c103.333 0 188.833 46.667 256.5 140s107.834 221.666 120.501 384.999zM568.999 1919l98.999 -0.999023c1.33301 -40 13.333 -69.667 36 -89s57 -29 103 -29c52.667 0 96.334 9.66699 131.001 29
s62.667 49.333 84 90h102c-24 -81.333 -63.5 -143 -118.5 -185s-123.833 -63 -206.5 -63c-75.333 0 -132.5 19.167 -171.5 57.5s-58.5 94.166 -58.5 167.499v23z" />
    <glyph glyph-name="gbreve" unicode="&#x11f;" horiz-adv-x="1006" 
d="M803 1147l153.002 0.000976562l-235 -1110c-36.667 -172.667 -85.834 -289.667 -147.501 -351s-153.834 -92 -276.501 -92c-104 0 -183.333 24.833 -238 74.5s-82 121.834 -82 216.501v21h158v-17c0 -52.667 14.5 -93 43.5 -121s71.167 -42 126.5 -42
c74.667 0 131.834 27.667 171.501 83s70.5 153.666 92.5 294.999c-34 -41.333 -72 -72.833 -114 -94.5s-86.333 -32.5 -133 -32.5c-89.333 0 -158.833 34 -208.5 102s-74.5 163.333 -74.5 286c0 102.667 14 210 42 322s63 204.667 105 278c42 71.333 90.167 125 144.5 161
s114.833 54 181.5 54c64.667 0 119.667 -17.833 165 -53.5s75.666 -84.834 90.999 -147.501zM375.002 109.001c42 0 81.501 15.833 118.501 47.5s69.833 77.834 98.5 138.501c31.333 67.333 58.333 151 81 251s34 187 34 261c0 72 -14.5 127.833 -43.5 167.5
s-69.167 59.5 -120.5 59.5c-54.667 0 -101.834 -18.5 -141.501 -55.5s-75.167 -95.5 -106.5 -175.5c-26.667 -69.333 -48 -147 -64 -233s-24 -164.667 -24 -236c0 -70.667 15 -125.834 45 -165.501s71 -59.5 123 -59.5zM391.003 1526l98.999 -0.999023
c1.33301 -40 13.333 -69.667 36 -89s57 -29 103 -29c52.667 0 96.334 9.66699 131.001 29s62.667 49.333 84 90h102c-24 -81.333 -63.5 -143 -118.5 -185s-123.833 -63 -206.5 -63c-75.333 0 -132.5 19.167 -171.5 57.5s-58.5 94.166 -58.5 167.499v23z" />
    <glyph glyph-name="Idotaccent" unicode="&#x130;" horiz-adv-x="461" 
d="M160 0h-183l322 1540h180zM336 1685l41 195h174l-43 -195h-172z" />
    <glyph glyph-name="dotlessi" unicode="&#x131;" horiz-adv-x="418" 
d="M131 0h-166l244 1147h166z" />
    <glyph glyph-name="Lslash" unicode="&#x141;" horiz-adv-x="903" 
d="M-2 0l117 573l-154 -88l35 174l158 91l163 790h177l-142 -676l332 191l-39 -178l-328 -189l-112 -532h598l-29 -156h-776z" />
    <glyph glyph-name="lslash" unicode="&#x142;" horiz-adv-x="465" 
d="M-10 0l147 698l-172 -100l29 125l172 102l149 711h166l-133 -633l172 101l-28 -125l-173 -103l-163 -776h-166z" />
    <glyph glyph-name="OE" unicode="&#x152;" horiz-adv-x="1792" 
d="M731 1436c-74.667 0 -140.498 -23.1689 -197.498 -69.502s-103.833 -114.833 -140.5 -205.5c-44.667 -109.333 -81.334 -234.666 -110.001 -375.999s-43 -264.333 -43 -369c0 -99.333 23.333 -176.166 70 -230.499s112.667 -81.5 198 -81.5
c74 0 138.833 21.833 194.5 65.5s100.834 107.834 135.501 192.501c15.333 40.667 31.166 89.667 47.499 147s32.5 122.666 48.5 195.999c22 101.333 38.667 190.833 50 268.5s17 138.167 17 181.5c0 84 -24.833 151.833 -74.5 203.5s-114.834 77.5 -195.501 77.5z
M815.002 124.998c-34 -52 -79.1689 -91.667 -135.502 -119s-121.833 -41 -196.5 -41c-131.333 0 -231.666 43.333 -300.999 130s-104 212.667 -104 378c0 129.333 17.5 267.833 52.5 415.5s80.167 274.167 135.5 379.5c54 102 120.333 178.667 199 230s168.667 77 270 77
c88.667 0 160.834 -19.333 216.501 -58s94.167 -96.667 115.5 -174l43 197h674l-31 -145h-498l-106 -514h534l-32 -152h-533l-121 -573h586l-29 -156h-766z" />
    <glyph glyph-name="oe" unicode="&#x153;" horiz-adv-x="1575" 
d="M715 160c-34.667 -64.667 -80.5049 -114 -137.505 -148s-121.833 -51 -194.5 -51c-114 0 -201.167 35.167 -261.5 105.5s-90.5 171.833 -90.5 304.5c0 86 11.5 179.833 34.5 281.5s53.833 194.167 92.5 277.5c38.667 84 89.834 147.333 153.501 190
s138.834 64 225.501 64c72 0 133.833 -15.667 185.5 -47s88.834 -75.666 111.501 -132.999c44 62.667 90.333 108.334 139 137.001s104.667 43 168 43c109.333 0 190.5 -30 243.5 -90s79.5 -151.667 79.5 -275c0 -40 -2.5 -82.167 -7.5 -126.5s-12.5 -89.5 -22.5 -135.5
h-576c-8.66699 -46.667 -14.834 -86 -18.501 -118s-5.5 -61 -5.5 -87c0 -80.667 14.833 -141 44.5 -181s74.167 -60 133.5 -60c60 0 109.5 22.167 148.5 66.5s67.167 110.166 84.5 197.499h148c-21.333 -130.667 -66.666 -232.334 -135.999 -305.001
s-155.333 -109 -258 -109c-75.333 0 -136.666 16.5 -183.999 49.5s-80.666 82.833 -99.999 149.5zM884.995 694h413.002c6 40 10 70.833 12 92.5s3 40.167 3 55.5c0 66.667 -14.5 116.667 -43.5 150s-71.833 50 -128.5 50c-64.667 0 -118.834 -29.5 -162.501 -88.5
s-74.834 -145.5 -93.501 -259.5zM405.997 111c58 0 106.833 17.5029 146.5 52.5029s71.167 89.167 94.5 162.5c22.667 69.333 42 152.166 58 248.499s24 176.5 24 240.5c0 72 -17.833 127.833 -53.5 167.5s-86.167 59.5 -151.5 59.5c-48 0 -90 -15.333 -126 -46
s-67 -77.334 -93 -140.001c-30.667 -76 -55.667 -160.833 -75 -254.5s-29 -176.834 -29 -249.501c0 -78.667 17.5 -138.5 52.5 -179.5s85.833 -61.5 152.5 -61.5z" />
    <glyph glyph-name="Scedilla" unicode="&#x15e;" horiz-adv-x="1106" 
d="M35 471l163.999 -0.000976562v-25c0 -114.667 21.333 -198.5 64 -251.5s110 -79.5 202 -79.5c100 0 178.5 29.333 235.5 88s85.5 138.334 85.5 239.001c0 116.667 -87.667 210 -263 280l-68 28c-95.333 38 -163.333 84.333 -204 139s-61 125.667 -61 213
c0 142 42.5 256.333 127.5 343s196.833 130 335.5 130c124 0 222.667 -33.833 296 -101.5s110 -159.5 110 -275.5c0 -12.667 -0.166992 -22.167 -0.5 -28.5s-0.833008 -12.5 -1.5 -18.5h-164v20c0 80.667 -20.833 142.834 -62.5 186.501s-100.834 65.5 -177.501 65.5
c-87.333 0 -157.166 -27.167 -209.499 -81.5s-78.5 -125.5 -78.5 -213.5c0 -102.667 87 -190.334 261 -263.001c12.667 -6 22.334 -10.333 29.001 -13c128 -54.667 211.667 -109.5 251 -164.5s59 -129.833 59 -224.5c0 -149.333 -46.667 -270 -140 -362s-216 -138 -368 -138
c-134 0 -238.5 38.5 -313.5 115.5s-112.5 183.833 -112.5 320.5c0 15.333 1 37.333 3 66c0.666992 2.66699 1 4.66699 1 6zM151.999 -430.001l36 94c40.667 -10.667 76 -18.834 106 -24.501s54.333 -8.5 73 -8.5c47.333 0 81.666 7.83301 102.999 23.5s32 40.834 32 75.501
c0 28.667 -13.333 49.167 -40 61.5s-72.667 18.5 -138 18.5h-21l66 190h75l-34 -102h22c70 0 123 -14.167 159 -42.5s54 -69.5 54 -123.5c0 -65.333 -21.667 -115.833 -65 -151.5s-105 -53.5 -185 -53.5c-28 0 -61.167 3.33301 -99.5 10s-86.166 17.667 -143.499 33z" />
    <glyph glyph-name="scedilla" unicode="&#x15f;" horiz-adv-x="901" 
d="M-4 340l155.998 0.000976562c0 -4 -0.333008 -10.167 -1 -18.5s-1 -14.5 -1 -18.5c0 -66 16.167 -115.333 48.5 -148s81.5 -49 147.5 -49c63.333 0 114 19.5 152 58.5s57 90.5 57 154.5c0 50 -10.167 89 -30.5 117s-60.833 54.667 -121.5 80
c-119.333 52.667 -196.166 101 -230.499 145s-51.5 102.333 -51.5 175c0 107.333 31 192.166 93 254.499s146.333 93.5 253 93.5c100 0 180 -25 240 -75s90 -116 90 -198c0 -10.667 -1.33301 -29 -4 -55v-6h-146v6c0 62.667 -15.333 110.167 -46 142.5s-76 48.5 -136 48.5
c-56 0 -100.333 -17.333 -133 -52s-49 -81 -49 -139c0 -70.667 59.333 -132.667 178 -186l67 -31c70 -32.667 120 -71.667 150 -117s45 -103.333 45 -174c0 -119.333 -35.167 -214 -105.5 -284s-164.166 -105 -281.499 -105c-106.667 0 -190.667 27.5 -252 82.5
s-92 129.833 -92 224.5c0 2.66699 0.5 12.5 1.5 29.5s1.83301 31.833 2.5 44.5zM49.998 -429.999l36 94c40.667 -10.667 76 -18.834 106 -24.501s54.333 -8.5 73 -8.5c47.333 0 81.666 7.83301 102.999 23.5s32 40.834 32 75.501c0 28.667 -13.333 49.167 -40 61.5
s-72.667 18.5 -138 18.5h-21l66 190h75l-34 -102h22c70 0 123 -14.167 159 -42.5s54 -69.5 54 -123.5c0 -65.333 -21.667 -115.833 -65 -151.5s-105 -53.5 -185 -53.5c-28 0 -61.167 3.33301 -99.5 10s-86.166 17.667 -143.499 33z" />
    <glyph glyph-name="Scaron" unicode="&#x160;" horiz-adv-x="1106" 
d="M35 471l163.999 -0.000976562v-25c0 -114.667 21.333 -198.5 64 -251.5s110 -79.5 202 -79.5c100 0 178.5 29.333 235.5 88s85.5 138.334 85.5 239.001c0 116.667 -87.667 210 -263 280l-68 28c-95.333 38 -163.333 84.333 -204 139s-61 125.667 -61 213
c0 142 42.5 256.333 127.5 343s196.833 130 335.5 130c124 0 222.667 -33.833 296 -101.5s110 -159.5 110 -275.5c0 -12.667 -0.166992 -22.167 -0.5 -28.5s-0.833008 -12.5 -1.5 -18.5h-164v20c0 80.667 -20.833 142.834 -62.5 186.501s-100.834 65.5 -177.501 65.5
c-87.333 0 -157.166 -27.167 -209.499 -81.5s-78.5 -125.5 -78.5 -213.5c0 -102.667 87 -190.334 261 -263.001c12.667 -6 22.334 -10.333 29.001 -13c128 -54.667 211.667 -109.5 251 -164.5s59 -129.833 59 -224.5c0 -149.333 -46.667 -270 -140 -362s-216 -138 -368 -138
c-134 0 -238.5 38.5 -313.5 115.5s-112.5 183.833 -112.5 320.5c0 15.333 1 37.333 3 66c0.666992 2.66699 1 4.66699 1 6zM513.999 1925h99l137 -154l213 154h112l-245 -260h-172z" />
    <glyph glyph-name="scaron" unicode="&#x161;" horiz-adv-x="901" 
d="M-4 340l155.998 0.000976562c0 -4 -0.333008 -10.167 -1 -18.5s-1 -14.5 -1 -18.5c0 -66 16.167 -115.333 48.5 -148s81.5 -49 147.5 -49c63.333 0 114 19.5 152 58.5s57 90.5 57 154.5c0 50 -10.167 89 -30.5 117s-60.833 54.667 -121.5 80
c-119.333 52.667 -196.166 101 -230.499 145s-51.5 102.333 -51.5 175c0 107.333 31 192.166 93 254.499s146.333 93.5 253 93.5c100 0 180 -25 240 -75s90 -116 90 -198c0 -10.667 -1.33301 -29 -4 -55v-6h-146v6c0 62.667 -15.333 110.167 -46 142.5s-76 48.5 -136 48.5
c-56 0 -100.333 -17.333 -133 -52s-49 -81 -49 -139c0 -70.667 59.333 -132.667 178 -186l67 -31c70 -32.667 120 -71.667 150 -117s45 -103.333 45 -174c0 -119.333 -35.167 -214 -105.5 -284s-164.166 -105 -281.499 -105c-106.667 0 -190.667 27.5 -252 82.5
s-92 129.833 -92 224.5c0 2.66699 0.5 12.5 1.5 29.5s1.83301 31.833 2.5 44.5zM331.998 1532h99l137 -154l213 154h112l-245 -260h-172z" />
    <glyph glyph-name="Ydieresis" unicode="&#x178;" horiz-adv-x="938" 
d="M250 0l127 621l-334 919h188l250 -739l418 739h199l-539 -899l-135 -641h-174zM742 1689l38 187h164l-39 -187h-163zM422 1689l39 187h164l-39 -187h-164z" />
    <glyph glyph-name="Zcaron" unicode="&#x17d;" horiz-adv-x="918" 
d="M780 0h-848l29 154l801 1241h-621l35 145h807l-27 -145l-794 -1241h655zM420 1925h99l137 -154l213 154h112l-245 -260h-172z" />
    <glyph glyph-name="zcaron" unicode="&#x17e;" horiz-adv-x="795" 
d="M582 0h-697l29 141l680 867h-467l37 139h657l-28 -131l-678 -869h497zM278 1532h99l137 -154l213 154h112l-245 -260h-172z" />
    <glyph glyph-name="florin" unicode="&#x192;" horiz-adv-x="1020" 
d="M422 838l-222.997 -0.000976562v131h243l31 155c31.333 160.667 72 270.5 122 329.5s122 88.5 216 88.5c26.667 0 52.167 -2.66699 76.5 -8s49.5 -13.666 75.5 -24.999l-37 -143c-30.667 12 -54 20.167 -70 24.5s-29.667 6.5 -41 6.5c-55.333 0 -97 -26.167 -125 -78.5
s-54.667 -168.833 -80 -349.5h246v-131h-266l-98 -615c-42.667 -271.333 -89.834 -442.833 -141.501 -514.5s-129.5 -107.5 -233.5 -107.5c-26.667 0 -52.167 2.5 -76.5 7.5s-49.5 13.167 -75.5 24.5l37 142c25.333 -10 47.166 -17.333 65.499 -22s34.166 -7 47.499 -7
c91.333 0 159 138.333 203 415l2 12z" />
    <glyph glyph-name="circumflex" unicode="&#x2c6;" 
d="M889 1272h-98l-138 153l-213 -153h-112l245 260h172z" />
    <glyph glyph-name="caron" unicode="&#x2c7;" 
d="M393 1532h99l137 -154l213 154h112l-245 -260h-172z" />
    <glyph glyph-name="breve" unicode="&#x2d8;" 
d="M399 1526l98.999 -0.999023c1.33301 -40 13.333 -69.667 36 -89s57 -29 103 -29c52.667 0 96.334 9.66699 131.001 29s62.667 49.333 84 90h102c-24 -81.333 -63.5 -143 -118.5 -185s-123.833 -63 -206.5 -63c-75.333 0 -132.5 19.167 -171.5 57.5
s-58.5 94.166 -58.5 167.499v23z" />
    <glyph glyph-name="dotaccent" unicode="&#x2d9;" 
d="M539 1292l41 195h174l-43 -195h-172z" />
    <glyph glyph-name="ring" unicode="&#x2da;" 
d="M563 1466c0 -26.667 9.50098 -49.334 28.501 -68.001s41.5 -28 67.5 -28c27.333 0 50.666 9.5 69.999 28.5s29 41.5 29 67.5c0 28.667 -9.33301 52.334 -28 71.001s-42.334 28 -71.001 28c-27.333 0 -50.166 -9.5 -68.499 -28.5s-27.5 -42.5 -27.5 -70.5zM457.001 1468
c0 56 20 103.832 60 143.499s88.333 59.5 145 59.5c54.667 0 102 -20 142 -60s60 -87.667 60 -143c0 -56 -19.667 -104 -59 -144s-87 -60 -143 -60c-57.333 0 -105.833 19.833 -145.5 59.5s-59.5 87.834 -59.5 144.501z" />
    <glyph glyph-name="ogonek" unicode="&#x2db;" 
d="M408 0c-48.667 -42.667 -83.833 -81.498 -105.5 -116.498s-32.5 -69.833 -32.5 -104.5c0 -28.667 7.16699 -48.834 21.5 -60.501s39.5 -17.5 75.5 -17.5h75l-30 -143h-47c-75.333 0 -131.833 14 -169.5 42s-56.5 70 -56.5 126c0 42.667 13.833 84.667 41.5 126
s76.167 90.666 145.5 147.999h82z" />
    <glyph glyph-name="tilde" unicode="&#x2dc;" 
d="M930 1509c-20.667 -63.333 -46.832 -110.501 -78.499 -141.501s-69.167 -46.5 -112.5 -46.5c-10 0 -21.5 1.33301 -34.5 4s-28.833 6.66699 -47.5 12l-51 17c-10.667 3.33301 -20.5 5.83301 -29.5 7.5s-18.167 2.5 -27.5 2.5c-22 0 -40.833 -6.33301 -56.5 -19
s-26.167 -30 -31.5 -52l-94 -1c16 62.667 40.167 110.834 72.5 144.501s70.833 50.5 115.5 50.5c10 0 21.167 -1 33.5 -3s25.833 -5 40.5 -9l55 -17c19.333 -6 33.166 -9.83301 41.499 -11.5s15.833 -2.5 22.5 -2.5c19.333 0 36 5.16699 50 15.5s26.667 26.833 38 49.5h94z
" />
    <glyph glyph-name="hungarumlaut" unicode="&#x2dd;" 
d="M862 1532h162l-248 -260h-78zM586 1532h151l-211 -260h-73z" />
    <glyph glyph-name="Omega" unicode="&#x3a9;" horiz-adv-x="1565" 
d="M1487 178l-0.00195312 -178h-600v178c118 64.667 210 152.334 276 263.001s99 233.334 99 368.001c0 160 -44 288.333 -132 385s-204 145 -348 145s-260.167 -48.5 -348.5 -145.5s-132.5 -225.167 -132.5 -384.5c0 -134.667 33.167 -257.334 99.5 -368.001
s158.833 -198.334 277.5 -263.001v-178h-600v178h319c-105.333 92.667 -182.166 188.667 -230.499 288s-72.5 210.333 -72.5 333c0 212 63.833 383.667 191.5 515s293.167 197 496.5 197c202 0 367.167 -65.5 495.5 -196.5s192.5 -299.5 192.5 -505.5
c0 -129.333 -23.667 -243.333 -71 -342s-124.666 -195 -231.999 -289h320z" />
    <glyph glyph-name="pi" unicode="&#x3c0;" horiz-adv-x="1206" 
d="M1159 913h-182.002l-105 -487c-10 -49.333 -17.5 -89.333 -22.5 -120s-7.5 -53.334 -7.5 -68.001c0 -38.667 7.83301 -66.167 23.5 -82.5s41.834 -24.5 78.501 -24.5c11.333 0 24.666 0.833008 39.999 2.5s35.333 4.16699 60 7.5l-30 -141
c-20 -5.33301 -39.167 -9.33301 -57.5 -12s-36.166 -4 -53.499 -4c-78.667 0 -138.167 17 -178.5 51s-60.5 84.333 -60.5 151c0 30.667 3.5 70 10.5 118s21.833 125.667 44.5 233l80 376h-326l-194 -913h-181l195 913h-41c-36 0 -64 -10.667 -84 -32s-33 -55 -39 -101h-160
c18.667 110.667 51.834 186.834 99.501 228.501s126.5 62.5 236.5 62.5h889z" />
    <glyph glyph-name="endash" unicode="&#x2013;" 
d="M-41 526l21 99h1024l-21 -99h-1024z" />
    <glyph glyph-name="emdash" unicode="&#x2014;" horiz-adv-x="2048" 
d="M-41 526l21 99h2048l-21 -99h-2048z" />
    <glyph glyph-name="quoteleft" unicode="&#x2018;" horiz-adv-x="502" 
d="M395 1079h-190l53 252c14 68 42.167 123.5 84.5 166.5s94.833 69.5 157.5 79.5l-15 -86c-42 -15.333 -74.167 -39.5 -96.5 -72.5s-36.5 -77.5 -42.5 -133.5l92 -1z" />
    <glyph glyph-name="quoteright" unicode="&#x2019;" horiz-adv-x="502" 
d="M309 1540h190.999l-54 -252c-13.333 -67.333 -41.166 -122.333 -83.499 -165s-94.833 -69 -157.5 -79l14 86c42.667 15.333 75 39.5 97 72.5s36 77.833 42 134.5h-92z" />
    <glyph glyph-name="quotesinglbase" unicode="&#x201a;" horiz-adv-x="502" 
d="M53 203l190.999 0.000976562l-54 -252c-13.333 -67.333 -41.166 -122.333 -83.499 -165s-94.833 -69 -157.5 -79l14 86c42.667 15.333 75 39.666 97 72.999s36 78 42 134h-92z" />
    <glyph glyph-name="quotedblleft" unicode="&#x201c;" horiz-adv-x="899" 
d="M393 1079l-188 0.000976562l51 252c13.333 67.333 41.5 122.666 84.5 165.999s96.167 70 159.5 80l-15 -86c-42 -15.333 -74.167 -39.5 -96.5 -72.5s-36.5 -77.5 -42.5 -133.5l90 -1zM791 1079l-191 0.000976562l53 252c14 68 42.167 123.5 84.5 166.5
s94.833 69.5 157.5 79.5l-14 -86c-42.667 -15.333 -75 -39.333 -97 -72s-36.333 -77.334 -43 -134.001l93 -1z" />
    <glyph glyph-name="quotedblright" unicode="&#x201d;" horiz-adv-x="899" 
d="M707 1540h188l-53 -252c-14 -67.333 -42 -122.333 -84 -165s-94.667 -69 -158 -79l14 86c42.667 15.333 75 39.333 97 72s36.333 77.667 43 135h-90zM309 1540h190.999l-54 -252c-13.333 -67.333 -41.166 -122.333 -83.499 -165s-94.833 -69 -157.5 -79l14 86
c42.667 15.333 75 39.5 97 72.5s36 77.833 42 134.5h-92z" />
    <glyph glyph-name="quotedblbase" unicode="&#x201e;" horiz-adv-x="899" 
d="M451 203h188l-53 -252c-14 -67.333 -42 -122.333 -84 -165s-94.667 -69 -158 -79l14 86c42.667 15.333 75.167 39.5 97.5 72.5s36.5 77.833 42.5 134.5h-90zM53 203l190.999 0.000976562l-54 -252c-13.333 -67.333 -41.166 -122.333 -83.499 -165s-94.833 -69 -157.5 -79
l14 86c42.667 15.333 75 39.666 97 72.999s36 78 42 134h-92z" />
    <glyph glyph-name="dagger" unicode="&#x2020;" 
d="M223 -322l215 1219h-334l23 131h334l92 512h156l-91 -512h334l-22 -131h-334l-215 -1219h-158z" />
    <glyph glyph-name="daggerdbl" unicode="&#x2021;" 
d="M438 897h-334l23 131h334l92 512h156l-91 -512h334l-22 -131h-334l-102 -575h335l-22 -132h-336l-90 -512h-158l92 512h-335l24 132h334z" />
    <glyph glyph-name="bullet" unicode="&#x2022;" horiz-adv-x="1208" 
d="M307 762c0 82 28.999 151.666 86.999 208.999s128 86 210 86c81.333 0 150.833 -28.833 208.5 -86.5s86.5 -127.167 86.5 -208.5s-29.167 -151.166 -87.5 -209.499s-128.166 -87.5 -209.499 -87.5c-82 0 -151.667 29 -209 87s-86 128 -86 210z" />
    <glyph glyph-name="ellipsis" unicode="&#x2026;" horiz-adv-x="2048" 
d="M283 0h-191l43 205h193zM965 0h-191l43 205h193zM1649 0h-191l43 205h193z" />
    <glyph glyph-name="perthousand" unicode="&#x2030;" horiz-adv-x="2089" 
d="M1712 629c-50.667 0 -86.501 -19.834 -107.501 -59.501s-31.5 -110.167 -31.5 -211.5c0 -81.333 11.167 -140.833 33.5 -178.5s57.5 -56.5 105.5 -56.5c48.667 0 84.334 21.333 107.001 64s34 109.334 34 200.001c0 81.333 -11.5 142 -34.5 182s-58.5 60 -106.5 60z
M1434 382.999c0 124 22.666 216.499 67.999 277.499s114 91.5 206 91.5c96.667 0 168.334 -30.167 215.001 -90.5s70 -153.166 70 -278.499c0 -124 -24.167 -218.833 -72.5 -284.5s-117.833 -98.5 -208.5 -98.5c-96 0 -166.333 30.833 -211 92.5s-67 158.5 -67 290.5z
M1053 628.998c-50.667 0 -86.668 -19.834 -108.001 -59.501s-32 -110.167 -32 -211.5c0 -81.333 11.333 -140.833 34 -178.5s58 -56.5 106 -56.5s83.5 21.333 106.5 64s34.5 109.334 34.5 200.001c0 81.333 -11.667 142 -35 182s-58.666 60 -105.999 60zM773.997 382.997
c0 123.333 23 215.666 69 276.999s115.333 92 208 92c96.667 0 168.167 -30.167 214.5 -90.5s69.5 -153.166 69.5 -278.499c0 -124 -24 -218.833 -72 -284.5s-117.333 -98.5 -208 -98.5c-96.667 0 -167.667 31 -213 93s-68 158.667 -68 290zM372.997 1399
c-50.667 0 -86.168 -19.501 -106.501 -58.501s-30.5 -109.833 -30.5 -212.5c0 -82 10.833 -141.667 32.5 -179s56.5 -56 104.5 -56s83.5 21.333 106.5 64s34.5 109.334 34.5 200.001c0 81.333 -11.667 142 -35 182s-58.666 60 -105.999 60zM93.9961 1153
c0 123.333 22.999 215.667 68.999 277s115.333 92 208 92c96 0 167.333 -30.167 214 -90.5s70 -152.5 70 -276.5c0 -124.667 -24.167 -220 -72.5 -286s-118.166 -99 -209.499 -99c-96 0 -166.5 30.833 -211.5 92.5s-67.5 158.5 -67.5 290.5zM304.995 -29.0029l694 1579h117
l-692 -1579h-119z" />
    <glyph glyph-name="guilsinglleft" unicode="&#x2039;" horiz-adv-x="569" 
d="M369 393l-35 -149l-277 280l33 160l373 240l-29 -176l-258 -162z" />
    <glyph glyph-name="guilsinglright" unicode="&#x203a;" horiz-adv-x="569" 
d="M135 774l35 152l279 -283l-33 -160l-375 -239l29 178l258 160z" />
    <glyph glyph-name="franc" unicode="&#x20a3;" horiz-adv-x="1526" 
d="M973 1540l-31 -156h-498l-106 -503h489l-30 -152h-490l-151 -729h-176l319 1540h674zM874 0l243.999 1147h149l-41 -184c36.667 66 82 117.167 136 153.5s111.333 54.5 172 54.5c10 0 20.167 -0.666992 30.5 -2s20.5 -3.33301 30.5 -6l-31 -165
c-12 3.33301 -22.667 5.83301 -32 7.5s-18.333 2.5 -27 2.5c-81.333 0 -150.166 -30 -206.499 -90s-96.833 -147 -121.5 -261l-139 -657h-164z" />
    <glyph glyph-name="trademark" unicode="&#x2122;" horiz-adv-x="1706" 
d="M963 1458l151 -385l141 385h150v-538h-98v444l-166 -444h-56l-174 444v-444h-98v538h150zM694 1458v-80h-172v-458h-108v458h-172v80h452z" />
    <glyph glyph-name="partialdiff" unicode="&#x2202;" horiz-adv-x="1059" 
d="M756 621c10 58 17.502 114.164 22.502 168.497s7.5 106.5 7.5 156.5c0 86 -12.167 150.833 -36.5 194.5s-60.5 65.5 -108.5 65.5c-36.667 0 -79 -19.333 -127 -58s-84 -58 -108 -58s-44 7.33301 -60 22s-24 32.334 -24 53.001c0 41.333 24 78.333 72 111
s105.667 49 173 49c120 0 215.667 -51.667 287 -155s107 -242.666 107 -417.999c0 -223.333 -48.167 -408.666 -144.5 -555.999s-215.5 -221 -357.5 -221c-101.333 0 -185.833 36 -253.5 108s-101.5 162.333 -101.5 271c0 132 36.833 240.833 110.5 326.5
s164.5 128.5 272.5 128.5c67.333 0 122.666 -15.167 165.999 -45.5s77.666 -77.833 102.999 -142.5zM707.002 493.997c0 77.333 -14.5 136.833 -43.5 178.5s-69.833 62.5 -122.5 62.5c-72.667 0 -132.5 -43 -179.5 -129s-70.5 -198 -70.5 -336
c0 -77.333 14.333 -136.5 43 -177.5s69.667 -61.5 123 -61.5c72.667 0 132.5 43.333 179.5 130s70.5 197.667 70.5 333z" />
    <glyph glyph-name="Delta" unicode="&#x2206;" horiz-adv-x="1370" 
d="M1102 178l-418 1084l-418 -1084h836zM797 1473l579 -1473h-1382l579 1473h224z" />
    <glyph glyph-name="product" unicode="&#x220f;" horiz-adv-x="1550" 
d="M156 1473h1237v-1866h-240v1661h-758v-1661h-239v1866z" />
    <glyph glyph-name="summation" unicode="&#x2211;" horiz-adv-x="1380" 
d="M55 1473h1258v-193h-959l672 -717l-694 -764h1007v-192h-1314v149l725 801l-695 739v177z" />
    <glyph glyph-name="minus" unicode="&#x2212;" horiz-adv-x="1706" 
d="M1452 682v-141h-1198v141h1198z" />
    <glyph glyph-name="fraction" unicode="&#x2215;" horiz-adv-x="340" 
d="M-217 -35h-125l899 1575h125z" />
    <glyph glyph-name="periodcentered" unicode="&#x2219;" horiz-adv-x="510" 
d="M131 762c0 35.333 12.833 65.668 38.5 91.001s56.5 38 92.5 38c37.333 0 68.5 -12.333 93.5 -37s37.5 -55.334 37.5 -92.001s-12.833 -67.667 -38.5 -93s-56.5 -38 -92.5 -38s-66.833 12.667 -92.5 38s-38.5 56.333 -38.5 93z" />
    <glyph glyph-name="radical" unicode="&#x221a;" horiz-adv-x="1305" 
d="M1305 1661v-96h-115l-594 -1606h-66l-319 883l-125 -45l-25 80l283 98l256 -709l516 1395h189z" />
    <glyph glyph-name="infinity" unicode="&#x221e;" horiz-adv-x="1706" 
d="M915 559c33.333 -59.333 72.166 -103.834 116.499 -133.501s94.5 -44.5 150.5 -44.5c67.333 0 122.333 22.5 165 67.5s64 102.5 64 172.5c0 67.333 -19.667 123.333 -59 168s-88.666 67 -147.999 67c-54 0 -102.833 -22.167 -146.5 -66.5
s-91.167 -121.166 -142.5 -230.499zM793 665.999c-32.667 58.667 -71.166 102.667 -115.499 132s-94.833 44 -151.5 44c-67.333 0 -122.333 -22.167 -165 -66.5s-64 -101.5 -64 -171.5c0 -67.333 19.667 -123.333 59 -168s88.666 -67 147.999 -67c54 0 102.833 22 146.5 66
s91.167 121 142.5 231zM842.001 736.999c45.333 92 94.332 159.833 146.999 203.5s111.334 65.5 176.001 65.5c88.667 0 164.5 -37.667 227.5 -113s94.5 -168.333 94.5 -279c0 -116 -27.833 -209.833 -83.5 -281.5s-128.167 -107.5 -217.5 -107.5
c-63.333 0 -119.5 19.5 -168.5 58.5s-100.167 105.5 -153.5 199.5c-47.333 -90.667 -96.833 -157 -148.5 -199s-109.167 -63 -172.5 -63c-90 0 -166.167 37.333 -228.5 112s-93.5 167 -93.5 277c0 116.667 27.833 211 83.5 283s128.167 108 217.5 108
c63.333 0 120 -20.5 170 -61.5s100 -108.5 150 -202.5z" />
    <glyph glyph-name="integral" unicode="&#x222b;" horiz-adv-x="1067" 
d="M311 -262c70.667 0 110.668 229.334 120.001 688.001l3 165c8 343.333 43.667 589 107 737s162.333 222 297 222c53.333 0 96.666 -14 129.999 -42s50 -63.667 50 -107c0 -36 -10.667 -64.5 -32 -85.5s-50.333 -31.5 -87 -31.5c-28 0 -51.333 6.33301 -70 19
s-32 30.667 -40 54c-4 10 -7.5 27 -10.5 51s-9.83301 36 -20.5 36c-71.333 0 -111.666 -206.333 -120.999 -619c-2.66699 -128.667 -5.33398 -229.667 -8.00098 -303c-11.333 -319.333 -48.5 -548 -111.5 -686s-159.833 -207 -290.5 -207
c-52.667 0 -95.834 13.833 -129.501 41.5s-50.5 63.167 -50.5 106.5c0 37.333 11.333 66.5 34 87.5s54.334 31.5 95.001 31.5c22 0 41 -4.83301 57 -14.5s29 -23.834 39 -42.501c6.66699 -11.333 11.667 -31 15 -59s11.333 -42 24 -42z" />
    <glyph glyph-name="approxequal" unicode="&#x2248;" horiz-adv-x="1706" 
d="M1530 430c-70 -48.667 -136.498 -84.334 -199.498 -107.001s-126.167 -34 -189.5 -34s-158.333 22.5 -285 67.5s-224.334 67.5 -293.001 67.5c-54.667 0 -111.834 -12 -171.501 -36s-130.834 -64.667 -213.501 -122v156c72 48.667 140 85 204 109s125 36 183 36
c76.667 0 178.334 -22.833 305.001 -68.5s217.667 -68.5 273 -68.5c58.667 0 117.667 11.833 177 35.5s129.333 63.834 210 120.501v-156zM1530 799c-70 -48.667 -136.498 -84.5 -199.498 -107.5s-126.167 -34.5 -189.5 -34.5s-158.333 22.667 -285 68
s-224.334 68 -293.001 68c-55.333 0 -112.5 -12 -171.5 -36s-130.167 -64.667 -213.5 -122v156c70.667 48 138 83.833 202 107.5s125.667 35.5 185 35.5c77.333 0 179.166 -22.5 305.499 -67.5s217.166 -67.5 272.499 -67.5c58 0 116.333 11.5 175 34.5
s129.334 63.167 212.001 120.5v-155z" />
    <glyph glyph-name="notequal" unicode="&#x2260;" horiz-adv-x="1706" 
d="M1313 1112l-187 -235h326v-136h-416l-205 -262h621v-135h-709l-249 -317l-105 84l184 233h-319v135h408l204 262h-612v136h702l252 317z" />
    <glyph glyph-name="lessequal" unicode="&#x2264;" horiz-adv-x="1706" 
d="M1446 162v-139h-1184v139h1184zM1444 1059l-936 -309l936 -306v-149l-1182 395v121l1182 395v-147z" />
    <glyph glyph-name="greaterequal" unicode="&#x2265;" horiz-adv-x="1706" 
d="M1446 162v-139h-1184v139h1184zM1446 811v-121l-1184 -395v149l938 306l-938 309v147z" />
    <glyph glyph-name="lozenge" unicode="&#x25ca;" horiz-adv-x="1012" 
d="M506 1409l-385 -817l385 -825l385 825zM506 1653l500 -1061l-500 -1069l-500 1069z" />
    <glyph glyph-name="apple" unicode="&#xf000;" horiz-adv-x="1618" 
d="M836 1216c-0.666992 4 -1.16699 8.66895 -1.5 14.002s-0.5 13 -0.5 23c0 82.667 31.667 159.167 95 229.5s142 114.166 236 131.499c0.666992 -6.66699 1.16699 -14.334 1.5 -23.001s0.5 -21.667 0.5 -39c0 -87.333 -34.5 -165.5 -103.5 -234.5
s-136.833 -103.5 -203.5 -103.5h-8c-2 0 -4.5 0.333008 -7.5 1s-5.83301 1 -8.5 1zM1505 403.002c-76 -164.667 -144.336 -278.834 -205.003 -342.501s-128.667 -95.5 -204 -95.5c-33.333 0 -77.166 11 -131.499 33s-95.166 33 -122.499 33c-30 0 -73.667 -11 -131 -33
s-99.666 -33 -126.999 -33c-42.667 0 -85.5 14.667 -128.5 44s-86.167 73.333 -129.5 132c-68 93.333 -120.5 191.833 -157.5 295.5s-55.5 203.834 -55.5 300.501c0 146 41.667 264.833 125 356.5s191 137.5 323 137.5c45.333 0 97 -11.333 155 -34s99.333 -34 124 -34
c22.667 0 63.167 11.667 121.5 35s109.166 35 152.499 35c73.333 0 139.333 -13.333 198 -40s112.334 -68 161.001 -124c-68 -43.333 -118.5 -91.833 -151.5 -145.5s-49.5 -114.5 -49.5 -182.5c0 -75.333 20 -142 60 -200s97.667 -104 173 -138z" />
    <glyph glyph-name="fi" unicode="&#xf001;" horiz-adv-x="915" 
d="M629 0h-166l244 1147h165zM752 1352l41 200h165l-43 -200h-163zM-10 0l219.001 1024h-135l26 123h136l47 199c19.333 79.333 44.666 133.5 75.999 162.5s76.333 43.5 135 43.5c16 0 35.667 -1.33301 59 -4s52 -6.66699 86 -12l-29 -131c-4 0 -10 0.333008 -18 1
c-24 2 -40.333 3 -49 3c-34.667 0 -60.167 -8.66699 -76.5 -26s-29.833 -50.333 -40.5 -99l-29 -137h158l-27 -123h-157l-221 -1024h-160z" />
    <glyph glyph-name="fl" unicode="&#xf002;" horiz-adv-x="915" 
d="M629 0h-162l326 1536h161zM-10 0l219.001 1024h-135l26 123h136l47 199c19.333 79.333 44.666 133.5 75.999 162.5s76.333 43.5 135 43.5c16 0 35.667 -1.33301 59 -4s52 -6.66699 86 -12l-29 -131c-4 0 -10 0.333008 -18 1c-24 2 -40.333 3 -49 3
c-34.667 0 -60.167 -8.66699 -76.5 -26s-29.833 -50.333 -40.5 -99l-29 -137h158l-27 -123h-157l-221 -1024h-160z" />
    <glyph glyph-name=".null" horiz-adv-x="0" 
 />
    <glyph glyph-name="nonmarkingreturn" horiz-adv-x="510" 
 />
    </font>
</defs>
</svg>
